<svg width="80" height="80" viewBox="0 0 80 80" fill="none" xmlns="http://www.w3.org/2000/svg">
<g clip-path="url(#clip0_40_8144)">
<g clip-path="url(#clip1_40_8144)">
<path d="M66.6878 13.3121L51.8623 28.1377C48.826 25.1015 44.6318 23.2232 40 23.2232V2.25769C50.4216 2.25769 59.8585 6.48106 66.6878 13.3121Z" fill="url(#paint0_linear_40_8144)"/>
<path d="M28.1378 28.1377C25.1016 31.1739 23.2233 35.3681 23.2233 40H2.25781C2.25781 29.5783 6.48118 20.1415 13.3122 13.3121L28.1378 28.1377Z" fill="url(#paint1_linear_40_8144)"/>
<path d="M40.0001 2.25769V23.2232C35.3683 23.2232 31.1741 25.1015 28.1378 28.1377L13.3123 13.3121C20.1416 6.48106 29.5785 2.25769 40.0001 2.25769Z" fill="url(#paint2_linear_40_8144)"/>
<path d="M77.7423 40H56.7768C56.7768 35.3681 54.8985 31.1739 51.8623 28.1377L66.6879 13.3121C73.5189 20.1415 77.7423 29.5783 77.7423 40Z" fill="url(#paint3_linear_40_8144)"/>
<path d="M77.7423 40C77.7423 50.4216 73.5189 59.8585 66.6879 66.6878L51.8623 51.8623C54.8985 48.826 56.7768 44.6318 56.7768 40H77.7423Z" fill="url(#paint4_linear_40_8144)"/>
<path d="M28.1378 51.8623L13.3122 66.6878C6.48118 59.8585 2.25781 50.4216 2.25781 40H23.2233C23.2233 44.6318 25.1016 48.826 28.1378 51.8623Z" fill="url(#paint5_linear_40_8144)"/>
<path d="M66.6878 66.6878C59.8585 73.5188 50.4216 77.7422 40 77.7422V56.7767C44.6318 56.7767 48.826 54.8984 51.8623 51.8622L66.6878 66.6878Z" fill="url(#paint6_linear_40_8144)"/>
<path d="M40.0001 56.7767V77.7422C29.5785 77.7422 20.1416 73.5188 13.3123 66.6878L28.1378 51.8622C31.1741 54.8984 35.3683 56.7767 40.0001 56.7767Z" fill="url(#paint7_linear_40_8144)"/>
<path d="M60.2452 19.7548L51.8623 28.1377C48.826 25.1014 44.6318 23.2232 40 23.2232V11.37C47.907 11.37 55.0626 14.5741 60.2452 19.7548Z" fill="url(#paint8_linear_40_8144)"/>
<path d="M28.1378 28.1377C25.1016 31.1739 23.2233 35.3681 23.2233 39.9999H11.3701C11.3701 32.093 14.574 24.9373 19.7549 19.7548L28.1378 28.1377Z" fill="url(#paint9_linear_40_8144)"/>
<path d="M40.0001 11.37V23.2232C35.3682 23.2232 31.174 25.1014 28.1378 28.1377L19.7549 19.7548C24.9375 14.5741 32.0931 11.37 40.0001 11.37Z" fill="url(#paint10_linear_40_8144)"/>
<path d="M68.63 39.9999H56.7768C56.7768 35.3681 54.8985 31.1739 51.8623 28.1377L60.2452 19.7548C65.4259 24.9373 68.63 32.093 68.63 39.9999Z" fill="url(#paint11_linear_40_8144)"/>
<path d="M68.63 40C68.63 47.907 65.4259 55.0626 60.2452 60.2452L51.8623 51.8623C54.8985 48.826 56.7768 44.6318 56.7768 40H68.63Z" fill="url(#paint12_linear_40_8144)"/>
<path d="M28.1378 51.8623L19.7549 60.2452C14.5742 55.0626 11.3701 47.907 11.3701 40H23.2233C23.2233 44.6318 25.1016 48.826 28.1378 51.8623Z" fill="url(#paint13_linear_40_8144)"/>
<path d="M60.2452 60.2451C55.0626 65.4258 47.907 68.6299 40 68.6299V56.7767C44.6318 56.7767 48.826 54.8984 51.8623 51.8622L60.2452 60.2451Z" fill="url(#paint14_linear_40_8144)"/>
<path d="M40.0001 56.7767V68.6299C32.0931 68.6299 24.9375 65.4258 19.7549 60.2451L28.1378 51.8622C31.174 54.8984 35.3682 56.7767 40.0001 56.7767Z" fill="url(#paint15_linear_40_8144)"/>
<path d="M71.0463 18.5358L55.6461 33.9359C56.3758 35.8169 56.7769 37.8614 56.7769 39.9998C56.7769 44.6316 54.8986 48.8258 51.8624 51.862C48.8262 54.8983 44.632 56.7766 40.0001 56.7766C37.8618 56.7766 35.8171 56.3755 33.9363 55.6457L18.5361 71.0459C24.6303 75.2672 32.0262 77.742 40.0003 77.742C50.4219 77.742 59.8588 73.5187 66.6881 66.6876C73.5192 59.8584 77.7426 50.4214 77.7426 39.9998C77.7424 32.0258 75.2676 24.6299 71.0463 18.5358Z" fill="url(#paint16_linear_40_8144)"/>
<path d="M8.14342 55.6142L0.082874 78.1624C-0.307087 79.2534 0.746404 80.3071 1.83738 79.9171L24.3856 71.8566C28.8843 67.3579 12.6419 51.1157 8.14342 55.6142Z" fill="url(#paint17_linear_40_8144)"/>
<path d="M51.6057 44.639L24.3853 71.8566C23.9406 71.0859 23.2648 70.4041 22.3991 69.9209C21.2163 69.2659 19.3666 69.6244 18.086 70.0128C17.8072 70.0958 17.5523 69.9506 17.4487 69.7283C17.4139 69.6574 17.3954 69.5797 17.3944 69.5007C17.3933 69.4218 17.4098 69.3436 17.4427 69.2718C17.4457 69.2718 17.4457 69.2688 17.4457 69.2688C17.5162 69.1071 17.5786 68.9418 17.6325 68.7738L17.7037 68.5336C17.7067 68.5277 17.7067 68.5247 17.7067 68.5189C17.7749 68.261 17.8223 68.0031 17.849 67.7393C17.8579 67.6533 17.8639 67.5644 17.8697 67.4784C17.877 67.3352 17.8785 67.192 17.8738 67.0488C17.8416 66.0235 17.499 65.0321 16.8913 64.2058C16.738 63.9963 16.5685 63.799 16.3845 63.6158C16.2013 63.4317 16.0041 63.2622 15.7945 63.1088C14.8281 62.3975 13.6661 62.0714 12.5219 62.1306C12.4359 62.1366 12.347 62.1426 12.261 62.1513C11.9972 62.178 11.7363 62.2254 11.4814 62.2936C11.4755 62.2936 11.4725 62.2936 11.4665 62.2966L11.2264 62.3678C11.1404 62.3945 11.0574 62.4241 10.9745 62.4568C10.8945 62.4864 10.8143 62.519 10.7343 62.5546C10.7313 62.5546 10.7313 62.5546 10.7283 62.5576C10.6566 62.5905 10.5784 62.607 10.4994 62.606C10.4205 62.605 10.3428 62.5864 10.2719 62.5517C10.0496 62.448 9.90434 62.1929 9.98732 61.9143C10.3757 60.6337 10.7343 58.787 10.0792 57.6042C9.59595 56.7357 8.9172 56.0597 8.14355 55.6152L35.3611 28.3948C36.5883 27.1705 38.5745 27.1705 39.7988 28.3948L42.1139 30.7099L49.2905 37.8866L51.6057 40.2017C52.8298 41.4257 52.8298 43.4117 51.6057 44.639Z" fill="url(#paint18_linear_40_8144)"/>
<path d="M49.2906 37.8863L17.4488 69.7281C17.414 69.6572 17.3955 69.5795 17.3945 69.5006C17.3934 69.4216 17.4099 69.3435 17.4428 69.2717C17.4458 69.2717 17.4458 69.2687 17.4458 69.2687C17.517 69.1057 17.8252 68 17.8489 67.7391C17.8608 67.6502 17.8666 67.5642 17.8696 67.4783C17.9289 66.3341 17.6028 65.1721 16.8914 64.2056C16.7381 63.9961 16.5686 63.7989 16.3846 63.6157C16.2014 63.4316 16.0042 63.2621 15.7946 63.1087C14.8282 62.3973 13.6662 62.0712 12.522 62.1305C12.4361 62.1335 12.3501 62.1394 12.2611 62.1512C11.9976 62.1753 11.7367 62.223 11.4815 62.2935C11.4756 62.2935 11.4726 62.2935 11.4666 62.2965C11.3866 62.3172 10.8146 62.5187 10.7344 62.5543C10.7314 62.5543 10.7314 62.5543 10.7284 62.5573C10.6567 62.5902 10.5785 62.6067 10.4995 62.6057C10.4206 62.6047 10.3429 62.5861 10.272 62.5514L42.1139 30.7095L49.2906 37.8863Z" fill="url(#paint19_linear_40_8144)"/>
<path d="M4.63449 75.3656C3.80798 74.538 2.85807 73.8437 1.81865 73.3074L0.0831182 78.1624C-0.306843 79.2534 0.746648 80.3071 1.83763 79.9169L6.69269 78.1814C6.15647 77.1419 5.46214 76.192 4.63449 75.3656Z" fill="url(#paint20_linear_40_8144)"/>
<path d="M77.461 2.53909L44.5928 35.4073L39.7848 30.5993C38.7368 29.5513 38.7368 27.852 39.7848 26.804L42.6604 23.9284C43.275 23.3138 43.7625 22.5842 44.0951 21.7812C44.4277 20.9782 44.5989 20.1176 44.5989 19.2484V15.6649C44.5989 12.8456 46.3848 10.3358 49.0485 9.41188L75.9261 0.0888984C77.4141 -0.427337 78.5746 1.42537 77.461 2.53909Z" fill="url(#paint21_linear_40_8144)"/>
<path d="M77.461 2.53907L44.5928 35.4073L49.4008 40.2153C50.4488 41.2633 52.1481 41.2633 53.1961 40.2153L56.0717 37.3397C56.6863 36.7251 57.4159 36.2376 58.2189 35.905C59.0219 35.5724 59.8825 35.4012 60.7517 35.4012H64.335C67.1543 35.4012 69.6641 33.6153 70.5881 30.9516L79.9111 4.07382C80.4273 2.58597 78.5746 1.42535 77.461 2.53907Z" fill="url(#paint22_linear_40_8144)"/>
<path d="M61.9754 19.5679L78.4849 3.05844C78.8959 2.64746 78.9447 1.97844 78.561 1.54174C78.4626 1.42928 78.3421 1.33823 78.2071 1.27423C78.072 1.21023 77.9253 1.17464 77.7759 1.16967C77.6266 1.1647 77.4778 1.19045 77.3388 1.24533C77.1998 1.30021 77.0736 1.38305 76.9679 1.48872L60.4706 17.9861C59.3905 19.0663 57.8937 19.6577 56.372 19.5232C54.9644 19.399 53.51 19.9319 52.5066 21.1224C51.0846 22.8095 51.1072 25.3259 52.5561 26.9899C54.2957 28.9877 57.3295 29.066 59.1706 27.2249C60.1348 26.2606 60.5721 24.9695 60.4833 23.7085C60.3748 22.172 60.8863 20.657 61.9754 19.5679Z" fill="url(#paint23_linear_40_8144)"/>
<path d="M44.32 21.1471C44.0056 22.1973 43.4353 23.1529 42.6604 23.9283L39.7848 26.8039C38.7368 27.8519 38.7368 29.5512 39.7848 30.5992L44.5928 35.4072L49.4008 40.2152C50.4488 41.2632 52.1481 41.2632 53.1961 40.2152L56.0717 37.3396C56.8469 36.5645 57.8026 35.9942 58.8529 35.68L44.32 21.1471Z" fill="url(#paint24_linear_40_8144)"/>
<path d="M47.5805 48.6642L31.3359 32.4195L37.8098 25.9457C38.5596 25.1958 39.7752 25.1958 40.5248 25.9457L54.0544 39.4752C54.8042 40.225 54.8042 41.4406 54.0544 42.1902L47.5805 48.6642Z" fill="url(#paint25_linear_40_8144)"/>
</g>
</g>
<defs>
<linearGradient id="paint0_linear_40_8144" x1="35.9147" y1="0.838396" x2="60.8668" y2="25.7906" gradientUnits="userSpaceOnUse">
<stop stop-color="#FFF5D9"/>
<stop offset="1" stop-color="#FFCE47"/>
</linearGradient>
<linearGradient id="paint1_linear_40_8144" x1="7.06801" y1="25.939" x2="18.2368" y2="37.1077" gradientUnits="userSpaceOnUse">
<stop stop-color="#6FA953"/>
<stop offset="1" stop-color="#43765A"/>
</linearGradient>
<linearGradient id="paint2_linear_40_8144" x1="25.2828" y1="6.41142" x2="39.9604" y2="21.0892" gradientUnits="userSpaceOnUse">
<stop stop-color="#E4E08E"/>
<stop offset="1" stop-color="#6FA953"/>
</linearGradient>
<linearGradient id="paint3_linear_40_8144" x1="52.0521" y1="16.9758" x2="75.8745" y2="40.7984" gradientUnits="userSpaceOnUse">
<stop stop-color="#FFCE47"/>
<stop offset="1" stop-color="#FF9356"/>
</linearGradient>
<linearGradient id="paint4_linear_40_8144" x1="57.3443" y1="38.4731" x2="71.1547" y2="52.2836" gradientUnits="userSpaceOnUse">
<stop stop-color="#FF9356"/>
<stop offset="1" stop-color="#FF755C"/>
</linearGradient>
<linearGradient id="paint5_linear_40_8144" x1="5.07805" y1="40.1542" x2="21.3286" y2="56.4047" gradientUnits="userSpaceOnUse">
<stop stop-color="#7ACBFF"/>
<stop offset="1" stop-color="#45A2E0"/>
</linearGradient>
<linearGradient id="paint6_linear_40_8144" x1="39.9735" y1="58.8446" x2="53.6064" y2="72.4774" gradientUnits="userSpaceOnUse">
<stop stop-color="#FF755C"/>
<stop offset="1" stop-color="#FF4181"/>
</linearGradient>
<linearGradient id="paint7_linear_40_8144" x1="16.7025" y1="51.7784" x2="49.668" y2="84.7441" gradientUnits="userSpaceOnUse">
<stop stop-color="#FF4181"/>
<stop offset="1" stop-color="#843561"/>
</linearGradient>
<linearGradient id="paint8_linear_40_8144" x1="55.0703" y1="26.4367" x2="39.7133" y2="11.0796" gradientUnits="userSpaceOnUse">
<stop stop-color="#FFF5D9"/>
<stop offset="1" stop-color="#FFCE47"/>
</linearGradient>
<linearGradient id="paint9_linear_40_8144" x1="24.7278" y1="39.0426" x2="5.69404" y2="20.0089" gradientUnits="userSpaceOnUse">
<stop stop-color="#6FA953"/>
<stop offset="1" stop-color="#43765A"/>
</linearGradient>
<linearGradient id="paint10_linear_40_8144" x1="38.0397" y1="23.7247" x2="21.1008" y2="6.78568" gradientUnits="userSpaceOnUse">
<stop stop-color="#E4E08E"/>
<stop offset="1" stop-color="#6FA953"/>
</linearGradient>
<linearGradient id="paint11_linear_40_8144" x1="68.4494" y1="39.8158" x2="50.5674" y2="21.9337" gradientUnits="userSpaceOnUse">
<stop stop-color="#FFCE47"/>
<stop offset="1" stop-color="#FF9356"/>
</linearGradient>
<linearGradient id="paint12_linear_40_8144" x1="67.2167" y1="52.9016" x2="55.27" y2="40.955" gradientUnits="userSpaceOnUse">
<stop stop-color="#FF9356"/>
<stop offset="1" stop-color="#FF755C"/>
</linearGradient>
<linearGradient id="paint13_linear_40_8144" x1="29.4216" y1="58.0551" x2="7.36447" y2="35.998" gradientUnits="userSpaceOnUse">
<stop stop-color="#7ACBFF"/>
<stop offset="1" stop-color="#45A2E0"/>
</linearGradient>
<linearGradient id="paint14_linear_40_8144" x1="53.5399" y1="67.8548" x2="37.4631" y2="51.7779" gradientUnits="userSpaceOnUse">
<stop stop-color="#FF755C"/>
<stop offset="1" stop-color="#FF4181"/>
</linearGradient>
<linearGradient id="paint15_linear_40_8144" x1="40.3629" y1="68.9963" x2="20.7425" y2="49.3759" gradientUnits="userSpaceOnUse">
<stop stop-color="#FF4181"/>
<stop offset="1" stop-color="#843561"/>
</linearGradient>
<linearGradient id="paint16_linear_40_8144" x1="56.2045" y1="56.2043" x2="44.802" y2="44.8018" gradientUnits="userSpaceOnUse">
<stop stop-color="#843561" stop-opacity="0"/>
<stop offset="1" stop-color="#3A2F4D"/>
</linearGradient>
<linearGradient id="paint17_linear_40_8144" x1="1.88937" y1="61.824" x2="18.1318" y2="78.0664" gradientUnits="userSpaceOnUse">
<stop stop-color="#FFE0EA"/>
<stop offset="1" stop-color="#FFC0D5"/>
</linearGradient>
<linearGradient id="paint18_linear_40_8144" x1="8.14355" y1="49.6665" x2="52.5238" y2="49.6665" gradientUnits="userSpaceOnUse">
<stop stop-color="#FFCE47"/>
<stop offset="1" stop-color="#FF9356"/>
</linearGradient>
<linearGradient id="paint19_linear_40_8144" x1="36.5206" y1="56.9583" x2="20.1239" y2="40.5616" gradientUnits="userSpaceOnUse">
<stop stop-color="#FFCE47"/>
<stop offset="1" stop-color="#FF9356"/>
</linearGradient>
<linearGradient id="paint20_linear_40_8144" x1="2.01823" y1="76.9569" x2="6.1626" y2="81.1013" gradientUnits="userSpaceOnUse">
<stop stop-color="#2F73A0"/>
<stop offset="1" stop-color="#174461"/>
</linearGradient>
<linearGradient id="paint21_linear_40_8144" x1="57.707" y1="14.0259" x2="59.8458" y2="17.5397" gradientUnits="userSpaceOnUse">
<stop stop-color="#EDF5FF"/>
<stop offset="1" stop-color="#C7E9FF"/>
</linearGradient>
<linearGradient id="paint22_linear_40_8144" x1="63.1389" y1="20.787" x2="66.0415" y2="25.9812" gradientUnits="userSpaceOnUse">
<stop stop-color="#EDF5FF"/>
<stop offset="1" stop-color="#C7E9FF"/>
</linearGradient>
<linearGradient id="paint23_linear_40_8144" x1="68.6233" y1="17.3127" x2="63.6389" y2="12.3282" gradientUnits="userSpaceOnUse">
<stop stop-color="#2F73A0"/>
<stop offset="1" stop-color="#174461"/>
</linearGradient>
<linearGradient id="paint24_linear_40_8144" x1="49.7378" y1="30.2359" x2="47.0148" y2="32.9589" gradientUnits="userSpaceOnUse">
<stop stop-color="#7ACBFF" stop-opacity="0"/>
<stop offset="1" stop-color="#2F73A0"/>
</linearGradient>
<linearGradient id="paint25_linear_40_8144" x1="44.6344" y1="34.2108" x2="40.3953" y2="41.0193" gradientUnits="userSpaceOnUse">
<stop stop-color="#2F73A0"/>
<stop offset="1" stop-color="#174461"/>
</linearGradient>
<clipPath id="clip0_40_8144">
<rect width="80" height="80" fill="white"/>
</clipPath>
<clipPath id="clip1_40_8144">
<rect width="80" height="80" fill="white"/>
</clipPath>
</defs>
</svg>
