<svg width="80" height="80" viewBox="0 0 80 80" fill="none" xmlns="http://www.w3.org/2000/svg">
<path d="M71.3648 8.07336H8.63542C4.73092 8.07336 1.56567 11.2385 1.56567 15.143V50.3722C1.56567 54.2767 4.73092 57.442 8.63542 57.442H71.3648C75.2693 57.442 78.4346 54.2767 78.4346 50.3722V15.143C78.4346 11.2385 75.2693 8.07336 71.3648 8.07336Z" fill="#60A4FF"/>
<path d="M47.5812 75.0323H32.4191C31.5544 75.0323 30.8535 74.3314 30.8535 73.4668V57.442H49.1467V73.4668C49.1467 74.3314 48.4458 75.0323 47.5812 75.0323Z" fill="#C0DBFF"/>
<path d="M25.3507 48.4385H54.6493C55.444 48.4385 55.9503 47.5892 55.5722 46.8902L50.6565 37.8016C50.5329 37.5732 50.329 37.3987 50.0841 37.3119C49.8393 37.2251 49.571 37.2322 49.3311 37.3318L43.74 39.6546C43.5691 39.7256 43.3825 39.7501 43.1991 39.7257C43.0157 39.7013 42.842 39.6289 42.6956 39.5158L31.8892 31.1588C31.3328 30.7286 30.519 30.9569 30.2676 31.6136L24.3709 47.0143C24.1078 47.7011 24.615 48.4385 25.3507 48.4385Z" fill="#7DDAC2"/>
<path d="M47.2959 29.9897C49.6137 29.9897 51.4927 28.1107 51.4927 25.7929C51.4927 23.475 49.6137 21.5961 47.2959 21.5961C44.9781 21.5961 43.0991 23.475 43.0991 25.7929C43.0991 28.1107 44.9781 29.9897 47.2959 29.9897Z" fill="#FFCD69"/>
<path d="M19.4275 15.2514H13.815C13.7122 15.2514 13.6104 15.2312 13.5154 15.1919C13.4205 15.1525 13.3342 15.0949 13.2615 15.0222C13.1888 14.9495 13.1312 14.8632 13.0918 14.7682C13.0525 14.6733 13.0322 14.5715 13.0322 14.4687V11.6624C13.0322 9.68025 14.6391 8.07336 16.6213 8.07336C18.6034 8.07336 20.2103 9.68025 20.2103 11.6624V14.4687C20.2103 14.5715 20.1901 14.6733 20.1507 14.7682C20.1114 14.8632 20.0537 14.9495 19.981 15.0222C19.9084 15.0949 19.8221 15.1525 19.7271 15.1919C19.6321 15.2312 19.5303 15.2514 19.4275 15.2514ZM42.8065 15.2514H37.194C37.0912 15.2514 36.9894 15.2312 36.8944 15.1919C36.7994 15.1525 36.7131 15.0949 36.6404 15.0222C36.5678 14.9495 36.5101 14.8632 36.4708 14.7682C36.4314 14.6733 36.4112 14.5715 36.4112 14.4687V11.6624C36.4112 9.68025 38.0181 8.07336 40.0002 8.07336C41.9824 8.07336 43.5892 9.68025 43.5892 11.6624V14.4687C43.5892 14.5715 43.569 14.6733 43.5297 14.7682C43.4903 14.8632 43.4327 14.9495 43.36 15.0222C43.2873 15.0949 43.201 15.1525 43.106 15.1919C43.0111 15.2312 42.9093 15.2514 42.8065 15.2514ZM66.1856 15.2514H60.573C60.4702 15.2514 60.3685 15.2312 60.2735 15.1919C60.1785 15.1525 60.0922 15.0949 60.0195 15.0222C59.9469 14.9495 59.8892 14.8632 59.8499 14.7682C59.8105 14.6733 59.7903 14.5715 59.7903 14.4687V11.6624C59.7903 9.68025 61.3972 8.07336 63.3793 8.07336C65.3615 8.07336 66.9683 9.68025 66.9683 11.6624V14.4687C66.9683 14.5715 66.9481 14.6733 66.9088 14.7682C66.8694 14.8632 66.8118 14.9495 66.7391 15.0222C66.6664 15.0949 66.5801 15.1525 66.4851 15.1919C66.3902 15.2312 66.2884 15.2514 66.1856 15.2514Z" fill="white"/>
<path d="M11.1674 57.442H8.63542C4.73092 57.442 1.56567 54.2768 1.56567 50.3723V15.143C1.56567 11.2385 4.73092 8.07324 8.63542 8.07324H71.365C75.2695 8.07324 78.4347 11.2385 78.4347 15.143V50.3723C78.4347 54.2768 75.2695 57.442 71.365 57.442H25.535M47.5812 75.0323H32.4191C31.5544 75.0323 30.8535 74.3314 30.8535 73.4667V57.442H49.1467V73.4667C49.1467 74.3314 48.4458 75.0323 47.5812 75.0323Z" stroke="#2C2C2C" stroke-width="2" stroke-miterlimit="10" stroke-linecap="round" stroke-linejoin="round"/>
<path d="M25.3507 48.4385H54.6493C55.444 48.4385 55.9503 47.5892 55.5722 46.8902L50.6565 37.8016C50.5329 37.5732 50.329 37.3987 50.0841 37.3119C49.8393 37.2251 49.571 37.2322 49.3311 37.3318L43.74 39.6546C43.5691 39.7256 43.3825 39.7501 43.1991 39.7257C43.0157 39.7013 42.842 39.6289 42.6956 39.5158L31.8892 31.1588C31.3328 30.7286 30.519 30.9569 30.2676 31.6136L24.3709 47.0143C24.1078 47.7011 24.615 48.4385 25.3507 48.4385Z" stroke="#2C2C2C" stroke-width="2" stroke-miterlimit="10" stroke-linecap="round" stroke-linejoin="round"/>
<path d="M47.2959 29.9897C49.6137 29.9897 51.4927 28.1107 51.4927 25.7929C51.4927 23.475 49.6137 21.5961 47.2959 21.5961C44.9781 21.5961 43.0991 23.475 43.0991 25.7929C43.0991 28.1107 44.9781 29.9897 47.2959 29.9897Z" stroke="#2C2C2C" stroke-width="2" stroke-miterlimit="10" stroke-linecap="round" stroke-linejoin="round"/>
<path d="M16.6213 8.0734C14.6391 8.0734 13.0322 9.68029 13.0322 11.6624V14.4687C13.0322 14.5715 13.0525 14.6733 13.0918 14.7683C13.1312 14.8632 13.1888 14.9495 13.2615 15.0222C13.3342 15.0949 13.4205 15.1526 13.5154 15.1919C13.6104 15.2312 13.7122 15.2515 13.815 15.2515H19.4275C19.5303 15.2515 19.6321 15.2312 19.7271 15.1919C19.8221 15.1526 19.9084 15.0949 19.981 15.0222C20.0537 14.9495 20.1114 14.8632 20.1507 14.7683C20.1901 14.6733 20.2103 14.5715 20.2103 14.4687V11.6624C20.2103 9.68029 18.6034 8.0734 16.6213 8.0734ZM16.6213 8.0734L16.6211 4.96765M40.0002 8.0734C38.0181 8.0734 36.4112 9.68029 36.4112 11.6624V14.4687C36.4112 14.5715 36.4314 14.6733 36.4708 14.7683C36.5101 14.8632 36.5678 14.9495 36.6404 15.0222C36.7131 15.0949 36.7994 15.1526 36.8944 15.1919C36.9894 15.2312 37.0912 15.2515 37.1939 15.2515H42.8065C42.9093 15.2515 43.0111 15.2312 43.106 15.1919C43.201 15.1526 43.2873 15.0949 43.36 15.0222C43.4327 14.9495 43.4903 14.8632 43.5297 14.7683C43.569 14.6733 43.5892 14.5715 43.5892 14.4687V11.6624C43.5892 9.68029 41.9824 8.0734 40.0002 8.0734ZM40.0002 8.0734V4.96765M63.3793 8.0734C61.3972 8.0734 59.7903 9.68029 59.7903 11.6624V14.4687C59.7903 14.5715 59.8105 14.6733 59.8499 14.7683C59.8892 14.8632 59.9469 14.9495 60.0195 15.0222C60.0922 15.0949 60.1785 15.1526 60.2735 15.1919C60.3685 15.2312 60.4703 15.2515 60.573 15.2515H66.1856C66.2884 15.2515 66.3902 15.2312 66.4851 15.1919C66.5801 15.1526 66.6664 15.0949 66.7391 15.0222C66.8118 14.9495 66.8694 14.8632 66.9088 14.7683C66.9481 14.6733 66.9684 14.5715 66.9684 14.4687V11.6624C66.9684 9.68029 65.3615 8.0734 63.3793 8.0734ZM63.3793 8.0734V4.96765" stroke="#2C2C2C" stroke-width="2" stroke-miterlimit="10" stroke-linecap="round" stroke-linejoin="round"/>
</svg>
