<svg width="80" height="80" viewBox="0 0 80 80" fill="none" xmlns="http://www.w3.org/2000/svg">
<g clip-path="url(#clip0_40_8213)">
<path d="M49.6082 8.68967C49.7392 9.97026 49.612 11.2641 49.2341 12.4947C48.8563 13.7252 48.2354 14.8675 47.4082 15.8538C46.2256 17.1967 45.5558 18.9145 45.5172 20.7035V26.2069H34.4827V20.9655C34.4376 19.0406 33.7314 17.1898 32.4827 15.7242C31.2756 14.2317 30.5407 12.4133 30.3719 10.5013C30.2031 8.58918 30.6081 6.67018 31.5351 4.98935C32.4621 3.30853 33.8691 1.94216 35.5763 1.06476C37.2836 0.187361 39.2136 -0.161244 41.1199 0.0634651C43.3023 0.32813 45.3304 1.32552 46.8723 2.89249C48.4142 4.45947 49.3788 6.50329 49.6082 8.68967Z" fill="#F5B945"/>
<path d="M8.27588 67.5862H27.5862V75.862H8.27588V67.5862Z" fill="#A9B0BB"/>
<path d="M45.5172 28.9656V33.1035C45.5132 34.1997 45.076 35.2499 44.3008 36.025C43.5257 36.8002 42.4755 37.2374 41.3793 37.2414H38.6207C37.5245 37.2374 36.4743 36.8002 35.6991 36.025C34.924 35.2499 34.4868 34.1997 34.4828 33.1035V28.9656H45.5172ZM29.0207 80.0001H6.84138C6.58157 79.9883 6.3303 79.9038 6.11616 79.7562C5.90202 79.6086 5.73362 79.4038 5.63014 79.1652C5.52665 78.9266 5.49223 78.6638 5.53079 78.4066C5.56936 78.1494 5.67936 77.9082 5.84828 77.7104L8.27586 74.4828H27.5862L30.0138 77.7104C30.1827 77.9082 30.2927 78.1494 30.3313 78.4066C30.3698 78.6638 30.3354 78.9266 30.2319 79.1652C30.1284 79.4038 29.96 79.6086 29.7459 79.7562C29.5318 79.9038 29.2805 79.9883 29.0207 80.0001ZM35.8621 62.069V66.207C35.8599 66.9379 35.5685 67.6383 35.0517 68.1552C34.5348 68.6721 33.8344 68.9634 33.1034 68.9656H2.75862C2.02766 68.9634 1.32726 68.6721 0.810393 68.1552C0.293524 67.6383 0.00218307 66.9379 0 66.207L0 62.069H35.8621Z" fill="#CAD0D7"/>
<path d="M35.8621 45.5173V62.069H0V45.5173C0.00218307 44.7863 0.293524 44.0859 0.810393 43.5691C1.32726 43.0522 2.02766 42.7609 2.75862 42.7587H33.1034C33.8344 42.7609 34.5348 43.0522 35.0517 43.5691C35.5685 44.0859 35.8599 44.7863 35.8621 45.5173Z" fill="#4FC0E8"/>
<path d="M48.2758 27.5863C48.2704 28.3162 47.9781 29.0147 47.4619 29.5309C46.9457 30.0471 46.2472 30.3395 45.5172 30.3449H34.4827C33.7518 30.3427 33.0514 30.0514 32.5345 29.5345C32.0176 29.0176 31.7263 28.3172 31.7241 27.5863C31.7295 26.8563 32.0219 26.1578 32.5381 25.6416C33.0543 25.1254 33.7528 24.8331 34.4827 24.8276H45.5172C46.2482 24.8298 46.9486 25.1212 47.4655 25.638C47.9823 26.1549 48.2737 26.8553 48.2758 27.5863Z" fill="#E4E8EB"/>
<path d="M52.4138 67.5862H71.7242V75.862H52.4138V67.5862Z" fill="#A9B0BB"/>
<path d="M73.1586 80H50.9793C50.7195 79.9882 50.4682 79.9037 50.2541 79.7561C50.04 79.6085 49.8716 79.4038 49.7681 79.1652C49.6646 78.9266 49.6302 78.6637 49.6687 78.4065C49.7073 78.1493 49.8173 77.9081 49.9862 77.7103L52.4138 74.4828H71.7241L74.1517 77.7103C74.3206 77.9081 74.4306 78.1493 74.4692 78.4065C74.5078 78.6637 74.4734 78.9266 74.3699 79.1652C74.2664 79.4038 74.098 79.6085 73.8839 79.7561C73.6697 79.9037 73.4184 79.9882 73.1586 80ZM80 62.069V66.2069C79.9978 66.9379 79.7065 67.6383 79.1896 68.1551C78.6727 68.672 77.9723 68.9633 77.2414 68.9655H46.8966C46.1656 68.9633 45.4652 68.672 44.9483 68.1551C44.4315 67.6383 44.1401 66.9379 44.1379 66.2069V62.069H80Z" fill="#CAD0D7"/>
<path d="M80 45.5173V62.069H44.1379V45.5173C44.1401 44.7863 44.4315 44.0859 44.9483 43.5691C45.4652 43.0522 46.1656 42.7609 46.8966 42.7587H77.2414C77.9723 42.7609 78.6727 43.0522 79.1896 43.5691C79.7065 44.0859 79.9978 44.7863 80 45.5173Z" fill="#4FC0E8"/>
<path d="M47.4069 15.8483C46.2236 17.1929 45.5543 18.9127 45.5173 20.7035V24.8276H42.7587V20.7035C42.7956 18.9127 43.465 17.1929 44.6483 15.8483C45.7526 14.5321 46.4851 12.9446 46.7699 11.2503C47.0547 9.55594 46.8815 7.81627 46.2682 6.21134C45.6549 4.60641 44.6238 3.19455 43.2817 2.12189C41.9396 1.04923 40.3352 0.35476 38.6345 0.110357C39.4566 -0.0137813 40.2911 -0.0275744 41.1173 0.0689773C43.2997 0.333334 45.328 1.32969 46.8712 2.89539C48.4143 4.46109 49.3812 6.50366 49.6138 8.68967C49.7435 9.96984 49.6149 11.263 49.2359 12.4926C48.8568 13.7222 48.2349 14.8633 47.4069 15.8483Z" fill="#E8AA3D"/>
<path d="M45.5172 30.3448V33.1035C45.5172 34.2009 45.0812 35.2534 44.3052 36.0294C43.5292 36.8054 42.4767 37.2414 41.3792 37.2414H38.6206C39.7181 37.2414 40.7706 36.8054 41.5466 36.0294C42.3226 35.2534 42.7585 34.2009 42.7585 33.1035V30.3448H45.5172Z" fill="#BAC1C6"/>
<path d="M48.2758 27.5863C48.2704 28.3162 47.978 29.0147 47.4618 29.5309C46.9456 30.0471 46.2471 30.3395 45.5172 30.3449H42.7585C43.4885 30.3395 44.187 30.0471 44.7032 29.5309C45.2194 29.0147 45.5118 28.3162 45.5172 27.5863C45.515 26.8553 45.2236 26.1549 44.7068 25.638C44.1899 25.1212 43.4895 24.8298 42.7585 24.8276H45.5172C46.2481 24.8298 46.9485 25.1212 47.4654 25.638C47.9823 26.1549 48.2736 26.8553 48.2758 27.5863Z" fill="#CAD0D7"/>
<path d="M35.862 62.069V66.2069C35.8598 66.9379 35.5684 67.6383 35.0516 68.1551C34.5347 68.672 33.8343 68.9633 33.1033 68.9655H30.3447C31.0757 68.9633 31.7761 68.672 32.293 68.1551C32.8098 67.6383 33.1012 66.9379 33.1033 66.2069V62.069H35.862Z" fill="#A9B0BB"/>
<path d="M35.862 45.5173V62.069H33.1033V45.5173C33.1069 44.9263 32.9181 44.3501 32.5654 43.8759C32.3076 43.5298 31.9727 43.2487 31.5872 43.0547C31.2017 42.8608 30.7763 42.7594 30.3447 42.7587H33.1033C33.8343 42.7609 34.5347 43.0522 35.0516 43.5691C35.5684 44.0859 35.8598 44.7863 35.862 45.5173Z" fill="#3AADD9"/>
<path d="M24.8276 68.9656H27.5863V74.4828H24.8276V68.9656Z" fill="#979FAA"/>
<path d="M79.9999 62.069V66.2069C79.9977 66.9379 79.7064 67.6383 79.1895 68.1551C78.6726 68.672 77.9722 68.9633 77.2413 68.9655H74.4827C75.2136 68.9633 75.914 68.672 76.4309 68.1551C76.9478 67.6383 77.2391 66.9379 77.2413 66.2069V62.069H79.9999Z" fill="#A9B0BB"/>
<path d="M79.9999 45.5173V62.069H77.2413V45.5173C77.2449 44.9263 77.0561 44.3501 76.7034 43.8759C76.4456 43.5298 76.1106 43.2487 75.7251 43.0547C75.3396 42.8608 74.9142 42.7594 74.4827 42.7587H77.2413C77.9722 42.7609 78.6726 43.0522 79.1895 43.5691C79.7064 44.0859 79.9977 44.7863 79.9999 45.5173Z" fill="#3AADD9"/>
<path d="M68.9656 68.9656H71.7242V74.4828H68.9656V68.9656Z" fill="#979FAA"/>
<path d="M29.0207 80H26.2621C26.5219 79.9882 26.7732 79.9037 26.9873 79.7561C27.2015 79.6085 27.3699 79.4038 27.4734 79.1652C27.5769 78.9266 27.6113 78.6637 27.5727 78.4065C27.5341 78.1493 27.4241 77.9081 27.2552 77.7104L24.8276 74.4828H27.5863L30.0138 77.7104C30.1828 77.9081 30.2928 78.1493 30.3313 78.4065C30.3699 78.6637 30.3355 78.9266 30.232 79.1652C30.1285 79.4038 29.9601 79.6085 29.746 79.7561C29.5318 79.9037 29.2805 79.9882 29.0207 80ZM73.1587 80H70.4001C70.6599 79.9882 70.9111 79.9037 71.1253 79.7561C71.3394 79.6085 71.5078 79.4038 71.6113 79.1652C71.7148 78.9266 71.7492 78.6637 71.7106 78.4065C71.6721 78.1493 71.5621 77.9081 71.3932 77.7104L68.9656 74.4828H71.7242L74.1518 77.7104C74.3207 77.9081 74.4307 78.1493 74.4693 78.4065C74.5078 78.6637 74.4734 78.9266 74.3699 79.1652C74.2664 79.4038 74.098 79.6085 73.8839 79.7561C73.6698 79.9037 73.4185 79.9882 73.1587 80Z" fill="#A9B0BB"/>
<path d="M12.0138 52.0138L1.95862 62.069H0V60.1104L10.0552 50.0552C10.3149 49.7955 10.6672 49.6496 11.0345 49.6496C11.4018 49.6496 11.7541 49.7955 12.0138 50.0552C12.2735 50.3149 12.4194 50.6672 12.4194 51.0345C12.4194 51.4018 12.2735 51.7541 12.0138 52.0138ZM20.6897 42.7587C20.6897 43.1256 20.5476 43.4759 20.2897 43.738L16.1517 47.8759C15.8903 48.1323 15.5386 48.276 15.1724 48.276C14.8062 48.276 14.4546 48.1323 14.1931 47.8759C13.9347 47.6155 13.7897 47.2635 13.7897 46.8966C13.7897 46.5297 13.9347 46.1777 14.1931 45.9173L17.3517 42.7587H20.6897ZM31.3241 57.5311L26.7862 62.069H23.4483C23.4483 61.7021 23.5903 61.3518 23.8483 61.0897L29.3655 55.5725C29.6252 55.3127 29.9775 55.1668 30.3448 55.1668C30.7121 55.1668 31.0644 55.3127 31.3241 55.5725C31.5839 55.8322 31.7298 56.1845 31.7298 56.5518C31.7298 56.9191 31.5839 57.2714 31.3241 57.5311ZM17.531 58.9104L14.3724 62.069H11.0345C11.0345 61.7021 11.1766 61.3518 11.4345 61.0897L15.5724 56.9518C15.701 56.8232 15.8537 56.7212 16.0217 56.6516C16.1898 56.582 16.3698 56.5461 16.5517 56.5461C16.7336 56.5461 16.9137 56.582 17.0817 56.6516C17.2498 56.7212 17.4024 56.8232 17.531 56.9518C17.6596 57.0804 17.7617 57.233 17.8313 57.4011C17.9009 57.5691 17.9367 57.7492 17.9367 57.9311C17.9367 58.113 17.9009 58.2931 17.8313 58.4611C17.7617 58.6291 17.6596 58.7818 17.531 58.9104ZM32.5655 43.8759L21.669 54.7725C21.4075 55.0289 21.0559 55.1725 20.6897 55.1725C20.3234 55.1725 19.9718 55.0289 19.7103 54.7725C19.4519 54.512 19.3069 54.16 19.3069 53.7931C19.3069 53.4263 19.4519 53.0743 19.7103 52.8138L29.7655 42.7587H30.3448C30.7764 42.7594 31.2018 42.8608 31.5873 43.0547C31.9728 43.2487 32.3077 43.5298 32.5655 43.8759ZM56.1517 52.0138L46.0965 62.069H44.1379V60.1104L54.1931 50.0552C54.3217 49.9266 54.4744 49.8246 54.6424 49.755C54.8104 49.6854 54.9905 49.6496 55.1724 49.6496C55.3543 49.6496 55.5344 49.6854 55.7024 49.755C55.8704 49.8246 56.0231 49.9266 56.1517 50.0552C56.2803 50.1838 56.3823 50.3365 56.4519 50.5045C56.5215 50.6726 56.5574 50.8527 56.5574 51.0345C56.5574 51.2164 56.5215 51.3965 56.4519 51.5645C56.3823 51.7326 56.2803 51.8852 56.1517 52.0138ZM64.8276 42.7587C64.8276 43.1256 64.6855 43.4759 64.4276 43.738L60.2896 47.8759C60.0282 48.1323 59.6766 48.276 59.3103 48.276C58.9441 48.276 58.5925 48.1323 58.331 47.8759C58.0726 47.6155 57.9276 47.2635 57.9276 46.8966C57.9276 46.5297 58.0726 46.1777 58.331 45.9173L61.4897 42.7587H64.8276ZM75.4621 57.5311L70.9241 62.069H67.5862C67.5862 61.7021 67.7283 61.3518 67.9862 61.0897L73.5034 55.5725C73.7632 55.3127 74.1154 55.1668 74.4827 55.1668C74.8501 55.1668 75.2023 55.3127 75.4621 55.5725C75.7218 55.8322 75.8677 56.1845 75.8677 56.5518C75.8677 56.9191 75.7218 57.2714 75.4621 57.5311ZM61.669 58.9104L58.5103 62.069H55.1724C55.1724 61.7021 55.3145 61.3518 55.5724 61.0897L59.7103 56.9518C59.9701 56.692 60.3223 56.5461 60.6897 56.5461C61.057 56.5461 61.4092 56.692 61.669 56.9518C61.9287 57.2115 62.0746 57.5638 62.0746 57.9311C62.0746 58.2984 61.9287 58.6507 61.669 58.9104ZM76.7034 43.8759L65.8069 54.7725C65.5454 55.0289 65.1938 55.1725 64.8276 55.1725C64.4614 55.1725 64.1097 55.0289 63.8483 54.7725C63.5899 54.512 63.4448 54.16 63.4448 53.7931C63.4448 53.4263 63.5899 53.0743 63.8483 52.8138L73.9034 42.7587H74.4827C74.9143 42.7594 75.3397 42.8608 75.7252 43.0547C76.1107 43.2487 76.4456 43.5298 76.7034 43.8759Z" fill="#66D4F1"/>
<path d="M43.182 13.6828C42.9194 13.6828 42.6622 13.6079 42.4407 13.4668C42.2192 13.3257 42.0426 13.1243 41.9317 12.8863C41.8207 12.6483 41.78 12.3835 41.8143 12.1232C41.8486 11.8628 41.9566 11.6177 42.1254 11.4166C42.6027 10.8386 42.8261 10.0924 42.7434 9.3476C42.6641 8.73716 42.3876 8.16934 41.9558 7.73061C41.524 7.29187 40.9607 7.00625 40.3516 6.91725C40.2349 6.90315 40.1175 6.89624 39.9999 6.89656C39.6341 6.89656 39.2833 6.75124 39.0246 6.49257C38.7659 6.2339 38.6206 5.88307 38.6206 5.51725C38.6206 5.15144 38.7659 4.8006 39.0246 4.54193C39.2833 4.28326 39.6341 4.13794 39.9999 4.13794C41.0493 4.13715 42.0771 4.43563 42.9628 4.99835C43.8485 5.56108 44.5553 6.36471 45.0004 7.31498C45.4455 8.26525 45.6104 9.32274 45.4757 10.3634C45.341 11.4041 44.9123 12.3847 44.2399 13.1904C44.1103 13.3448 43.9484 13.4689 43.7656 13.5539C43.5828 13.639 43.3836 13.683 43.182 13.6828Z" fill="#FFD67B"/>
<path d="M63.4483 38.6208V42.7587H60.6897V38.6208C60.6875 37.8898 60.3962 37.1894 59.8793 36.6725C59.3624 36.1557 58.662 35.8643 57.9311 35.8621H44.4552C45.1407 35.1077 45.52 34.1242 45.5173 33.1035H57.9311C59.3943 33.1035 60.7977 33.6848 61.8323 34.7195C62.867 35.7542 63.4483 37.1575 63.4483 38.6208ZM35.5449 35.8621H22.069C21.338 35.8643 20.6376 36.1557 20.1208 36.6725C19.6039 37.1894 19.3126 37.8898 19.3104 38.6208V42.7587H16.5518V38.6208C16.5518 37.1575 17.133 35.7542 18.1677 34.7195C19.2024 33.6848 20.6057 33.1035 22.069 33.1035H34.4828C34.48 34.1242 34.8593 35.1077 35.5449 35.8621Z" fill="#457393"/>
<path d="M24.8277 11.0345H19.3105C18.9446 11.0345 18.5938 10.8891 18.3351 10.6305C18.0765 10.3718 17.9312 10.021 17.9312 9.65516C17.9312 9.28934 18.0765 8.93851 18.3351 8.67984C18.5938 8.42117 18.9446 8.27585 19.3105 8.27585H24.8277C25.1935 8.27585 25.5444 8.42117 25.803 8.67984C26.0617 8.93851 26.207 9.28934 26.207 9.65516C26.207 10.021 26.0617 10.3718 25.803 10.6305C25.5444 10.8891 25.1935 11.0345 24.8277 11.0345ZM25.7436 5.84412C25.5827 5.84425 25.4231 5.81625 25.2718 5.76136L20.087 3.87585C19.9135 3.81647 19.7536 3.72309 19.6166 3.60117C19.4796 3.47925 19.3683 3.33124 19.2892 3.16579C19.2101 3.00034 19.1648 2.82078 19.1559 2.63762C19.147 2.45445 19.1748 2.27135 19.2375 2.09903C19.3002 1.9267 19.3967 1.76862 19.5213 1.63403C19.6458 1.49943 19.7959 1.39102 19.9629 1.31514C20.1298 1.23926 20.3102 1.19744 20.4936 1.19211C20.6769 1.18678 20.8594 1.21806 21.0305 1.28412L26.2139 3.1724C26.5179 3.28372 26.773 3.4984 26.9346 3.77885C27.0962 4.05931 27.1541 4.38768 27.098 4.70648C27.042 5.02529 26.8756 5.31422 26.6279 5.5227C26.3803 5.73118 26.0673 5.84594 25.7436 5.84688V5.84412ZM20.5587 18.1103C20.2343 18.1106 19.9201 17.9965 19.6714 17.788C19.4228 17.5795 19.2556 17.29 19.1992 16.9705C19.1429 16.6509 19.201 16.3217 19.3634 16.0408C19.5258 15.7599 19.782 15.5452 20.087 15.4345L25.2718 13.5489C25.4433 13.4814 25.6265 13.4489 25.8107 13.4533C25.9948 13.4577 26.1763 13.499 26.3443 13.5747C26.5122 13.6503 26.6633 13.7589 26.7887 13.894C26.914 14.029 27.011 14.1878 27.0739 14.361C27.1369 14.5341 27.1645 14.7182 27.1551 14.9022C27.1458 15.0862 27.0997 15.2664 27.0195 15.4323C26.9393 15.5982 26.8268 15.7464 26.6884 15.868C26.55 15.9897 26.3887 16.0824 26.2139 16.1407L21.0305 18.0262C20.8793 18.0815 20.7197 18.11 20.5587 18.1103ZM60.6898 11.0345H55.1725C54.8067 11.0345 54.4559 10.8891 54.1972 10.6305C53.9385 10.3718 53.7932 10.021 53.7932 9.65516C53.7932 9.28934 53.9385 8.93851 54.1972 8.67984C54.4559 8.42117 54.8067 8.27585 55.1725 8.27585H60.6898C61.0556 8.27585 61.4064 8.42117 61.6651 8.67984C61.9238 8.93851 62.0691 9.28934 62.0691 9.65516C62.0691 10.021 61.9238 10.3718 61.6651 10.6305C61.4064 10.8891 61.0556 11.0345 60.6898 11.0345ZM54.2581 5.84412C53.9356 5.84178 53.6241 5.72651 53.3778 5.51834C53.1314 5.31017 52.9658 5.02227 52.9098 4.70467C52.8537 4.38708 52.9107 4.05988 53.0708 3.77994C53.231 3.50001 53.4841 3.28504 53.7863 3.1724L58.9712 1.28688C59.3129 1.16993 59.6868 1.1917 60.0127 1.34749C60.3386 1.50328 60.5903 1.78068 60.7139 2.12008C60.8374 2.45947 60.8229 2.83379 60.6735 3.16261C60.524 3.49142 60.2515 3.7485 59.9146 3.87861L54.7298 5.76136C54.5786 5.81625 54.4189 5.84425 54.2581 5.84412ZM59.4484 18.1103C59.2874 18.11 59.1278 18.0815 58.9767 18.0262L53.7863 16.1379C53.6128 16.0785 53.4529 15.9852 53.3159 15.8632C53.1789 15.7413 53.0676 15.5933 52.9885 15.4279C52.9094 15.2624 52.8641 15.0829 52.8552 14.8997C52.8464 14.7165 52.8741 14.5334 52.9368 14.3611C52.9995 14.1888 53.096 14.0307 53.2206 13.8961C53.3451 13.7615 53.4953 13.6531 53.6622 13.5772C53.8292 13.5013 54.0096 13.4595 54.1929 13.4542C54.3762 13.4489 54.5587 13.4801 54.7298 13.5462L59.9146 15.4317C60.2196 15.5424 60.4758 15.7571 60.6382 16.038C60.8006 16.319 60.8587 16.6482 60.8024 16.9677C60.746 17.2873 60.5789 17.5767 60.3302 17.7852C60.0816 17.9937 59.7674 18.1078 59.4429 18.1076L59.4484 18.1103Z" fill="#F5B945"/>
</g>
<defs>
<clipPath id="clip0_40_8213">
<rect width="80" height="80" fill="white"/>
</clipPath>
</defs>
</svg>
