<svg width="72" height="69" viewBox="0 0 72 69" fill="none" xmlns="http://www.w3.org/2000/svg">
<path d="M24.9802 56.3641H47.0199V66.1598H24.9802V56.3641Z" fill="#87A8E6"/>
<path d="M71.8766 7.20901V54.1615C71.8766 56.9229 69.638 59.1615 66.8766 59.1615H5.12475C2.36333 59.1615 0.124756 56.9229 0.124756 54.1615V7.2087C0.124756 3.69979 2.96851 0.856201 6.47741 0.856201H65.524C69.0322 0.856201 71.8766 3.70011 71.8766 7.20901Z" fill="#BFD3F4"/>
<path d="M68.6109 7.20903V47.0942C68.6109 48.7972 67.225 50.182 65.5239 50.182H6.47732C4.77436 50.182 3.39014 48.7972 3.39014 47.0942V7.20903C3.39014 5.50606 4.77451 4.12122 6.47732 4.12122H65.5239C67.225 4.12122 68.6111 5.50606 68.6111 7.20887L68.6109 7.20903Z" fill="#244477"/>
<path d="M54.2793 68.285C54.2793 68.3893 17.7278 68.1817 17.72 68.285C17.72 66.9837 18.2473 65.8045 19.1012 64.9506C19.9551 64.0967 21.1336 63.5693 22.435 63.5693H49.5643C52.1687 63.5693 54.2793 65.6806 54.2793 68.285Z" fill="#BFD3F4"/>
<path d="M21.5678 26.3808H9.48342C8.55201 26.3808 7.79639 25.6252 7.79639 24.6937C7.79639 23.7617 8.55201 23.0067 9.48342 23.0067H21.5678C22.4998 23.0067 23.2548 23.7617 23.2548 24.6937C23.2548 25.625 22.4998 26.3808 21.5678 26.3808Z" fill="white"/>
<path d="M21.5678 32.9903H9.48342C8.55201 32.9903 7.79639 32.2347 7.79639 31.3032C7.79639 30.3712 8.55201 29.6162 9.48342 29.6162H21.5678C22.4998 29.6162 23.2548 30.3712 23.2548 31.3032C23.2548 32.2345 22.4998 32.9903 21.5678 32.9903Z" fill="#0069A3"/>
<path d="M21.5678 39.5996H9.48342C8.55201 39.5996 7.79639 38.844 7.79639 37.9126C7.79639 36.9807 8.55201 36.2257 9.48342 36.2257H21.5678C22.4998 36.2257 23.2548 36.9807 23.2548 37.9126C23.2548 38.844 22.4998 39.5996 21.5678 39.5996Z" fill="#FCD971"/>
<path d="M21.5678 46.2093H9.48342C8.55201 46.2093 7.79639 45.4535 7.79639 44.5221C7.79639 43.5901 8.55201 42.8351 9.48342 42.8351H21.5678C22.4998 42.8351 23.2548 43.5901 23.2548 44.5221C23.2548 45.4535 22.4998 46.2091 21.5678 46.2091V46.2093Z" fill="#0069A3"/>
<path d="M62.5582 26.3808H31.5906C30.6593 26.3808 29.9036 25.6252 29.9036 24.6937C29.9036 23.7617 30.6592 23.0067 31.5906 23.0067H62.5581C63.49 23.0067 64.2451 23.7617 64.2451 24.6937C64.2451 25.625 63.49 26.3808 62.5581 26.3808H62.5582Z" fill="#228BD1"/>
<path d="M62.5582 32.9903H31.5906C30.6593 32.9903 29.9036 32.2347 29.9036 31.3032C29.9036 30.3712 30.6592 29.6162 31.5906 29.6162H62.5581C63.49 29.6162 64.2451 30.3712 64.2451 31.3032C64.2451 32.2345 63.49 32.9903 62.5581 32.9903H62.5582Z" fill="#FF4079"/>
<path d="M62.5582 39.5996H31.5906C30.6593 39.5996 29.9036 38.844 29.9036 37.9126C29.9036 36.9807 30.6592 36.2257 31.5906 36.2257H62.5581C63.49 36.2257 64.2451 36.9807 64.2451 37.9126C64.2451 38.844 63.49 39.5996 62.5581 39.5996H62.5582Z" fill="white"/>
<path d="M62.5582 46.2093H31.5906C30.6593 46.2093 29.9036 45.4535 29.9036 44.5221C29.9036 43.5901 30.6592 42.8351 31.5906 42.8351H62.5581C63.49 42.8351 64.2451 43.5901 64.2451 44.5221C64.2451 45.4535 63.49 46.2091 62.5581 46.2091L62.5582 46.2093Z" fill="#FCD971"/>
<path d="M24.3295 14.3323L29.0701 11.2531C29.1634 11.1781 29.294 11.1598 29.4246 11.1598C29.985 11.1598 30.6942 11.7567 30.6942 12.522C30.6942 12.8395 30.5635 13.1197 30.3579 13.2501L27.0729 15.378L30.3579 17.5056C30.5635 17.6362 30.6942 17.9164 30.6942 18.2337C30.6942 18.9992 29.9848 19.5967 29.4246 19.5967C29.294 19.5967 29.1634 19.5778 29.07 19.5033L24.3293 16.4236C23.8996 16.1433 23.7507 15.6953 23.7507 15.378C23.7507 15.0606 23.8998 14.6125 24.3295 14.3323ZM40.2125 7.1278C40.2125 7.24015 40.1943 7.37077 40.1381 7.48249L33.5684 20.94C33.4378 21.2201 33.0831 21.4064 32.7278 21.4064C32.0937 21.4064 31.6829 20.8839 31.6829 20.4176C31.6829 20.3051 31.7201 20.1747 31.7764 20.063L38.3279 6.6053C38.4773 6.28796 38.7759 6.13843 39.1115 6.13843C39.634 6.13843 40.2126 6.53093 40.2126 7.1278H40.2125ZM47.5667 16.4228L42.8256 19.5026C42.7321 19.5776 42.6015 19.5961 42.4709 19.5961C41.9112 19.5961 41.202 18.9992 41.202 18.2337C41.202 17.9164 41.3326 17.6362 41.5376 17.5056L44.8232 15.378L41.5376 13.2503C41.3326 13.1197 41.202 12.8394 41.202 12.5222C41.202 11.7567 41.9112 11.1592 42.4709 11.1592C42.6015 11.1592 42.7321 11.178 42.8256 11.2525L47.5667 14.3323C47.9957 14.6125 48.1453 15.0605 48.1453 15.378C48.1453 15.6947 47.9957 16.1433 47.5667 16.4228Z" fill="white"/>
</svg>
