<?xml version="1.0" encoding="utf-8"?>
<!-- Generator: Adobe Illustrator 27.5.0, SVG Export Plug-In . SVG Version: 6.00 Build 0)  -->
<svg version="1.1" xmlns="http://www.w3.org/2000/svg" xmlns:xlink="http://www.w3.org/1999/xlink" x="0px" y="0px"
	 viewBox="0 0 750 500" style="enable-background:new 0 0 750 500;" xml:space="preserve">
<g id="BACKGROUND">
	<rect style="fill:#FFFFFF;" width="750" height="500"/>
</g>
<g id="OBJECTS">
	<g>
		<g>
			<path style="fill:#D9F9F4;" d="M30,472.452h696.667c0,0,4.19-45.701-18.239-58.201c-22.428-12.5-140.992-2.657-112.71-46.245
				c28.282-43.589,110.237-33.211,87.654-55.794c-22.583-22.583-30.651-34.32-30.651-34.32h63.946c0,0,0.088-20.417-21.289-27.945
				c-21.377-7.529-55.784-37.613-45.247-68.571c10.537-30.958,11.335-118.291-54.064-98.291s-100.937,22.112-120.168-2.944
				C456.667,55.083,302.474,12.417,256.904,47.75c-45.571,35.333-46.764,143.587-103.167,151.793
				C97.333,207.75,47.154,235.75,65.244,287.75s148.626,74.462,106.691,102.898C130,419.083,30,395.82,30,472.452z"/>
			<g>
				<path style="fill:#ADE8F8;" d="M440.195,295.449V80.334h117.075v44.117c0,0.552,0.447,1,1,1c0.553,0,1-0.448,1-1V79.334
					c0-0.552-0.447-1-1-1H439.195c-0.553,0-1,0.448-1,1v215.116H54.667V189.732c2.932-0.299,5.278-2.557,5.727-5.442h49.968
					c0.552,0,1-0.448,1-1c0-0.552-0.448-1-1-1H60.393c-0.448-2.886-2.794-5.144-5.727-5.443v-18.144
					c2.799-0.285,5.068-2.355,5.658-5.052h50.036c0.552,0,1-0.448,1-1c0-0.552-0.448-1-1-1H60.447
					c-0.287-3.071-2.717-5.52-5.781-5.833V126.32c2.933-0.299,5.278-2.557,5.727-5.443h35.273c0.552,0,1-0.448,1-1
					c0-0.552-0.448-1-1-1H60.393c-0.448-2.886-2.794-5.144-5.727-5.442V93.867c2.932-0.299,5.278-2.557,5.727-5.443h38.014
					c0.552,0,1-0.448,1-1c0-0.552-0.448-1-1-1H60.393c-0.482-3.101-3.155-5.476-6.391-5.476c-3.577,0-6.476,2.9-6.476,6.476
					c0,3.119,2.205,5.722,5.141,6.337v19.779c-2.936,0.616-5.141,3.218-5.141,6.337c0,3.119,2.205,5.721,5.141,6.337v19.709
					c-2.936,0.616-5.141,3.218-5.141,6.337c0,3.119,2.205,5.721,5.141,6.337v18.355c-2.936,0.616-5.141,3.218-5.141,6.337
					c0,3.119,2.205,5.721,5.141,6.337v105.822c0,0.553,0.448,1,1,1h385.529C439.748,296.449,440.195,296.002,440.195,295.449z"/>
				<path style="fill:#ADE8F8;" d="M583.878,331.878h-272.02c-0.843-2.597-3.28-4.476-6.158-4.476s-5.315,1.879-6.158,4.476H95.666
					c-0.552,0-1,0.447-1,1v81.228c0,0.553,0.448,1,1,1c0.552,0,1-0.447,1-1v-80.228h202.557c0,2.878,1.879,5.315,4.476,6.158v52.914
					c0,0.553,0.448,1,1,1h35.072c0.552,0,1-0.447,1-1s-0.448-1-1-1H305.7v-51.596c3.577,0,6.476-2.899,6.476-6.476h270.701v16.762
					c0,0.553,0.447,1,1,1c0.553,0,1-0.447,1-1v-17.762C584.878,332.325,584.431,331.878,583.878,331.878z"/>
			</g>
			<g>
				<path style="fill:#ADE8F8;" d="M552.894,314.586c-5.824,0-10.545,4.721-10.545,10.545v110.372
					c0,5.824,4.721,10.545,10.545,10.545c5.824,0,10.545-4.721,10.545-10.545V325.13
					C563.439,319.307,558.718,314.586,552.894,314.586z"/>
				<path style="fill:#ADE8F8;" d="M575.771,308.626c-5.824,0-10.545,4.721-10.545,10.545v110.372
					c0,5.824,4.721,10.545,10.545,10.545c5.824,0,10.545-4.721,10.545-10.545V319.171
					C586.316,313.347,581.595,308.626,575.771,308.626z"/>
			</g>
			<g>
				<g>
					<path style="fill:#ADE8F8;" d="M685.955,256.482c5.56-4.038,11.525-16.473,11.525-16.473
						c-40.785-0.203,0.98-10.635,0.98-10.635c5.965-5.352,7.539-17.612,7.539-17.612c-22.032,2.287-3.611-8.841-1.009-15.075
						c2.603-6.233-5.234-24.189-5.234-24.189s-19.542,1.391-23.856,6.589c-4.314,5.198-5.623,26.679-13.821,6.102
						c0,0-10.13,7.084-12.102,14.851c0,0,10.139,41.838-8.966,5.804c0,0-8.247,11.054-9.244,17.853c0,0,21.895,30.78,9.069,21.071
						c-12.826-9.709-12.826-9.709-12.826-9.709s-4.733,22.632,13.519,33.676c18.252,11.044,36.104-3.651,36.104-3.651
						s0,0-14.552-6.857C648.53,251.37,685.955,256.482,685.955,256.482z"/>
					<path style="fill:#FFFFFF;" d="M688.352,245.128c-0.803-0.336-18.954-7.835-29.371-4.27l11.608-19.186
						c11.346-7.622,26.572-3.509,26.725-3.466c0.266,0.074,0.541-0.082,0.615-0.347c0.074-0.266-0.078-0.544-0.347-0.616
						c-0.149-0.042-14.376-3.887-25.869,2.572l15.446-25.529c4.046-3.134,13.113-1.737,13.205-1.722
						c0.273,0.043,0.529-0.143,0.572-0.416c0.043-0.273-0.144-0.529-0.415-0.572c-0.346-0.055-7.578-1.169-12.282,0.925
						l7.948-13.135c0.143-0.236,0.068-0.544-0.169-0.687s-0.544-0.067-0.687,0.169L682.776,199.6
						c1.366-8.524-1.538-18.239-1.678-18.697c-0.08-0.262-0.36-0.413-0.624-0.332c-0.264,0.08-0.413,0.36-0.333,0.624
						c0.038,0.122,3.702,12.333,1.005,21.099l-14.536,24.025c1.543-13.246-7.522-30.79-7.935-31.581
						c-0.127-0.242-0.429-0.34-0.674-0.211c-0.244,0.128-0.339,0.43-0.211,0.675c0.106,0.203,10.56,20.427,7.389,33.484
						l-10.852,17.936c-1.184-15.313-13.498-28.404-13.627-28.54c-0.192-0.201-0.507-0.206-0.706-0.017
						c-0.2,0.191-0.208,0.507-0.017,0.707c0.13,0.137,12.988,13.816,13.429,29.372l-9.839,16.261
						c-0.143,0.236-0.068,0.544,0.169,0.687c0.237,0.143,0.544,0.068,0.687-0.169l13.705-22.651
						c9.73-4.537,29.639,3.694,29.84,3.778c0.255,0.107,0.548-0.013,0.654-0.268C688.727,245.528,688.603,245.234,688.352,245.128z"
						/>
				</g>
				<g>
					<path style="fill:#ADE8F8;" d="M502.778,245.3c-3.708-5.786-4.735-19.539-4.735-19.539c38.058,14.664,2.96-10.262,2.96-10.262
						c-3.607-7.156-0.608-19.148-0.608-19.148c19.687,10.153,6.583-6.919,6.429-13.672s13.684-20.622,13.684-20.622
						s17.694,8.412,19.818,14.824c2.125,6.412-4.479,26.895,10.65,10.716c0,0,6.855,10.286,5.863,18.239
						c0,0-24.679,35.272,6.237,8.67c0,0,3.655,13.298,2.107,19.993c0,0-31.601,20.692-16.119,16.322
						c15.481-4.371,15.481-4.371,15.481-4.371s-3.834,22.802-24.855,26.44c-21.021,3.638-32.296-16.549-32.296-16.549
						s0,0,16.05-1.087C539.495,254.168,502.778,245.3,502.778,245.3z"/>
					<path style="fill:#FFFFFF;" d="M504.68,233.852c0.87-0.021,20.505-0.395,28.909,6.72l-3.824-22.096
						c-7.791-11.23-23.47-12.945-23.628-12.961c-0.274-0.028-0.474-0.273-0.447-0.548c0.028-0.275,0.271-0.479,0.548-0.447
						c0.154,0.016,14.804,1.615,23.156,11.816l-5.089-29.401c-2.627-4.392-11.58-6.393-11.671-6.413
						c-0.27-0.059-0.441-0.326-0.382-0.596c0.059-0.27,0.327-0.441,0.595-0.382c0.342,0.074,7.483,1.671,11.102,5.334l-2.618-15.127
						c-0.047-0.272,0.135-0.531,0.407-0.578c0.272-0.047,0.531,0.135,0.578,0.407l4.137,23.9c1.832-8.436,8.075-16.427,8.371-16.802
						c0.17-0.215,0.485-0.253,0.702-0.082c0.217,0.171,0.254,0.486,0.083,0.702c-0.08,0.1-7.939,10.138-8.62,19.284l4.789,27.669
						c3.386-12.898,18.218-25.937,18.891-26.523c0.207-0.179,0.523-0.16,0.705,0.049c0.181,0.209,0.159,0.524-0.049,0.706
						c-0.173,0.15-17.274,15.179-19.075,28.494l3.575,20.656c6.679-13.83,22.915-21.538,23.084-21.617
						c0.252-0.117,0.548-0.008,0.664,0.241c0.117,0.25,0.009,0.548-0.242,0.665c-0.171,0.08-17.128,8.137-23.203,22.465
						l3.241,18.728c0.047,0.272-0.135,0.531-0.407,0.578c-0.272,0.047-0.531-0.135-0.578-0.407l-4.515-26.087
						c-7.409-7.769-28.95-7.353-29.167-7.348c-0.276,0.007-0.505-0.212-0.512-0.488C504.186,234.088,504.408,233.86,504.68,233.852z
						"/>
				</g>
				<g>
					<path style="fill:#ADE8F8;" d="M446.672,424.852c-5.25-8.193-6.705-27.669-6.705-27.669
						c53.896,20.766,4.192-14.532,4.192-14.532c-5.108-10.134-0.861-27.117-0.861-27.117c27.879,14.378,9.323-9.798,9.105-19.362
						c-0.218-9.563,19.377-29.204,19.377-29.204s25.057,11.912,28.066,20.992c3.009,9.08-6.342,38.087,15.082,15.175
						c0,0,9.707,14.567,8.303,25.829c0,0-34.949,49.95,8.832,12.278c0,0,5.176,18.832,2.984,28.313c0,0-44.751,29.303-22.827,23.113
						c21.924-6.19,21.924-6.19,21.924-6.19s-5.43,32.291-35.198,37.443c-29.768,5.152-45.734-23.435-45.734-23.435s0,0,22.729-1.538
						C498.668,437.41,446.672,424.852,446.672,424.852z"/>
					<path style="fill:#FFFFFF;" d="M449.365,408.641c1.232-0.03,29.038-0.559,40.939,9.516l-5.416-31.29
						c-11.034-15.904-33.236-18.332-33.46-18.355c-0.389-0.039-0.672-0.387-0.632-0.775c0.039-0.389,0.384-0.678,0.776-0.633
						c0.219,0.022,20.965,2.287,32.792,16.733l-7.206-41.635c-3.72-6.22-16.398-9.054-16.528-9.082
						c-0.382-0.083-0.624-0.461-0.54-0.843c0.084-0.382,0.463-0.624,0.843-0.541c0.485,0.106,10.597,2.366,15.721,7.554
						l-3.708-21.423c-0.067-0.386,0.191-0.752,0.577-0.818c0.386-0.067,0.752,0.191,0.818,0.577l5.858,33.846
						c2.595-11.947,11.435-23.262,11.855-23.793c0.241-0.305,0.687-0.359,0.995-0.116c0.307,0.242,0.359,0.688,0.117,0.994
						c-0.113,0.142-11.242,14.357-12.207,27.308l6.782,39.183c4.796-18.266,25.8-36.73,26.752-37.559
						c0.293-0.254,0.741-0.227,0.999,0.069c0.256,0.295,0.225,0.742-0.07,1c-0.245,0.213-24.462,21.495-27.013,40.351l5.063,29.252
						c9.459-19.585,32.451-30.501,32.69-30.613c0.357-0.166,0.776-0.011,0.94,0.342c0.165,0.355,0.012,0.776-0.342,0.941
						c-0.242,0.113-24.255,11.524-32.858,31.813l4.59,26.521c0.067,0.386-0.191,0.752-0.577,0.818
						c-0.386,0.067-0.752-0.191-0.818-0.577l-6.394-36.942c-10.493-11.002-40.996-10.413-41.304-10.406
						c-0.391,0.009-0.716-0.3-0.725-0.691C448.665,408.974,448.98,408.651,449.365,408.641z"/>
				</g>
				<g>
					<path style="fill:#ADE8F8;" d="M294.146,443.667c-4.14-2.888-8.696-11.937-8.696-11.937c29.953-0.721-0.869-7.798-0.869-7.798
						c-4.456-3.847-5.785-12.83-5.785-12.83c16.214,1.37,2.528-6.544,0.529-11.086c-1.999-4.542,3.505-17.84,3.505-17.84
						s14.373,0.747,17.614,4.504c3.241,3.757,4.504,19.516,10.237,4.288c0,0,7.54,5.061,9.097,10.738c0,0-6.86,30.871,6.667,4.137
						c0,0,6.212,8.003,7.04,12.983c0,0-15.65,22.914-6.365,15.603c9.284-7.311,9.284-7.311,9.284-7.311s3.794,16.557-9.457,24.924
						c-13.251,8.367-26.569-2.175-26.569-2.175s0,0,10.592-5.24C321.563,439.387,294.146,443.667,294.146,443.667z"/>
					<path style="fill:#FFFFFF;" d="M292.226,435.361c0.585-0.258,13.811-6.021,21.513-3.548l-8.795-13.928
						c-8.44-5.439-19.566-2.204-19.678-2.171c-0.194,0.058-0.399-0.052-0.457-0.246c-0.058-0.194,0.05-0.401,0.247-0.457
						c0.109-0.033,10.504-3.057,19.036,1.526l-11.703-18.533c-3.016-2.245-9.655-1.092-9.723-1.08
						c-0.2,0.036-0.391-0.097-0.426-0.297c-0.035-0.2,0.098-0.391,0.297-0.426c0.254-0.046,5.549-0.965,9.034,0.507l-6.022-9.536
						c-0.108-0.172-0.057-0.398,0.114-0.507c0.172-0.108,0.398-0.057,0.507,0.115l9.513,15.066
						c-1.123-6.242,0.874-13.418,0.97-13.756c0.055-0.194,0.258-0.308,0.454-0.253c0.195,0.055,0.308,0.259,0.253,0.453
						c-0.026,0.09-2.546,9.11-0.442,15.511l11.014,17.442c-1.319-9.707,5.093-22.72,5.385-23.307c0.09-0.179,0.31-0.255,0.492-0.165
						c0.181,0.091,0.255,0.311,0.164,0.493c-0.075,0.151-7.469,15.151-4.957,24.697l8.222,13.021
						c0.655-11.263,9.515-21.052,9.608-21.153c0.138-0.15,0.37-0.159,0.519-0.022c0.149,0.137,0.16,0.37,0.022,0.519
						c-0.094,0.102-9.346,10.33-9.451,21.761l7.455,11.806c0.108,0.172,0.057,0.398-0.115,0.507
						c-0.172,0.108-0.398,0.057-0.507-0.115l-10.384-16.444c-7.21-3.196-21.718,3.129-21.864,3.194
						c-0.186,0.082-0.403-0.002-0.484-0.188C291.957,435.66,292.043,435.442,292.226,435.361z"/>
				</g>
				<g>
					<path style="fill:#ADE8F8;" d="M43.616,441.589c-5.558-6.277-9.383-22.663-9.383-22.663
						c48.637,10.519,1.638-12.927,1.638-12.927c-5.694-7.949-4.334-22.969-4.334-22.969c25.641,8.537,6.634-9.579,5.179-17.691
						c-1.456-8.112,12.617-27.433,12.617-27.433s22.912,6.812,26.679,14.142c3.767,7.33-0.341,33.264,14.854,10.915
						c0,0,10.198,11.111,10.498,20.884c0,0-23.116,47.162,9.149,9.279c0,0,6.907,15.343,6.301,23.705
						c0,0-34.202,30.888-16.362,22.707c17.84-8.181,17.84-8.181,17.84-8.181s-0.333,28.209-24.989,36.548
						c-24.656,8.339-42.044-13.875-42.044-13.875s0,0,19.143-4.328C89.546,445.374,43.616,441.589,43.616,441.589z"/>
					<path style="fill:#FFFFFF;" d="M43.756,427.432c1.045-0.189,24.645-4.332,36.113,2.663l-8.766-25.916
						c-11.505-12.073-30.727-11.191-30.921-11.18c-0.336,0.018-0.623-0.24-0.641-0.576c-0.018-0.337,0.237-0.628,0.576-0.642
						c0.189-0.01,18.15-0.837,30.137,9.889L58.59,367.184c-3.993-4.801-15.161-5.529-15.275-5.536
						c-0.336-0.02-0.593-0.31-0.572-0.646c0.021-0.337,0.311-0.593,0.645-0.572c0.427,0.025,9.335,0.607,14.386,4.342l-6.001-17.743
						c-0.108-0.319,0.063-0.665,0.382-0.773c0.319-0.108,0.665,0.063,0.773,0.382l9.482,28.033
						c0.622-10.514,6.645-21.321,6.931-21.829c0.164-0.291,0.537-0.397,0.831-0.231c0.294,0.166,0.397,0.538,0.232,0.831
						c-0.077,0.136-7.663,13.714-6.764,24.868l10.977,32.454c1.656-16.186,17.084-34.693,17.785-35.525
						c0.216-0.255,0.601-0.291,0.859-0.074c0.257,0.217,0.29,0.602,0.073,0.86c-0.18,0.214-17.968,21.547-17.636,37.937
						l8.195,24.228c5.451-17.928,23.573-30.274,23.762-30.401c0.282-0.189,0.659-0.112,0.846,0.166
						c0.188,0.28,0.114,0.659-0.166,0.847c-0.191,0.129-19.117,13.031-23.746,31.445l7.43,21.966
						c0.108,0.319-0.063,0.665-0.382,0.773s-0.665-0.063-0.773-0.382l-10.349-30.598c-10.393-7.972-36.281-3.419-36.542-3.372
						c-0.332,0.06-0.649-0.16-0.709-0.492C43.204,427.809,43.429,427.492,43.756,427.432z"/>
				</g>
				<g>
					<path style="fill:#ADE8F8;" d="M710.265,424.852c5.25-8.193,6.705-27.669,6.705-27.669
						c-53.896,20.766-4.192-14.532-4.192-14.532c5.108-10.134,0.861-27.117,0.861-27.117c-27.879,14.378-9.323-9.798-9.104-19.362
						c0.218-9.563-19.378-29.204-19.378-29.204s-25.057,11.912-28.065,20.992c-3.009,9.08,6.343,38.087-15.082,15.175
						c0,0-9.707,14.567-8.303,25.829c0,0,34.949,49.95-8.832,12.278c0,0-5.176,18.832-2.984,28.313c0,0,44.751,29.303,22.827,23.113
						c-21.924-6.19-21.924-6.19-21.924-6.19s5.43,32.291,35.198,37.443c29.768,5.152,45.734-23.435,45.734-23.435s0,0-22.729-1.538
						C658.269,437.41,710.265,424.852,710.265,424.852z"/>
					<path style="fill:#FFFFFF;" d="M707.571,408.641c-1.232-0.03-29.038-0.559-40.939,9.516l5.416-31.29
						c11.034-15.904,33.236-18.332,33.46-18.355c0.388-0.039,0.672-0.387,0.632-0.775c-0.039-0.389-0.384-0.678-0.776-0.633
						c-0.219,0.022-20.965,2.287-32.792,16.733l7.206-41.635c3.72-6.22,16.398-9.054,16.528-9.082
						c0.382-0.083,0.624-0.461,0.54-0.843c-0.084-0.382-0.463-0.624-0.842-0.541c-0.485,0.106-10.597,2.366-15.721,7.554
						l3.708-21.423c0.067-0.386-0.191-0.752-0.577-0.818c-0.386-0.067-0.752,0.191-0.818,0.577l-5.858,33.846
						c-2.595-11.947-11.435-23.262-11.855-23.793c-0.241-0.305-0.687-0.359-0.995-0.116c-0.307,0.242-0.359,0.688-0.117,0.994
						c0.113,0.142,11.242,14.357,12.207,27.308l-6.782,39.183c-4.796-18.266-25.8-36.73-26.752-37.559
						c-0.293-0.254-0.741-0.227-0.999,0.069c-0.256,0.295-0.225,0.742,0.07,1c0.245,0.213,24.462,21.495,27.013,40.351
						l-5.063,29.252c-9.459-19.585-32.451-30.501-32.69-30.613c-0.357-0.166-0.776-0.011-0.941,0.342
						c-0.165,0.355-0.012,0.776,0.342,0.941c0.242,0.113,24.255,11.524,32.859,31.813l-4.59,26.521
						c-0.067,0.386,0.191,0.752,0.577,0.818c0.386,0.067,0.752-0.191,0.818-0.577l6.394-36.942
						c10.493-11.002,40.996-10.413,41.304-10.406c0.391,0.009,0.716-0.3,0.725-0.691
						C708.272,408.974,707.957,408.651,707.571,408.641z"/>
				</g>
				<g>
					<path style="fill:#ADE8F8;" d="M400.417,371.873c2.462-3.842,3.144-12.974,3.144-12.974c-25.272,9.738-1.965-6.814-1.965-6.814
						c2.395-4.752,0.404-12.715,0.404-12.715c-13.073,6.742-4.371-4.595-4.269-9.079c0.102-4.484-9.086-13.694-9.086-13.694
						s-11.749,5.586-13.16,9.844c-1.411,4.258,2.974,17.859-7.072,7.116c0,0-4.552,6.831-3.893,12.111
						c0,0,16.388,23.422-4.141,5.757c0,0-2.427,8.831-1.399,13.276c0,0,20.984,13.741,10.704,10.838
						c-10.28-2.902-10.28-2.902-10.28-2.902s2.546,15.142,16.505,17.557c13.959,2.416,21.445-10.989,21.445-10.989s0,0-10.658-0.721
						C376.036,377.762,400.417,371.873,400.417,371.873z"/>
					<path style="fill:#FFFFFF;" d="M399.154,364.272c-0.578-0.014-13.616-0.262-19.197,4.462l2.54-14.672
						c5.174-7.458,15.585-8.596,15.69-8.607c0.182-0.018,0.315-0.181,0.297-0.364c-0.018-0.183-0.18-0.318-0.364-0.297
						c-0.103,0.01-9.831,1.073-15.377,7.846l3.379-19.523c1.744-2.917,7.689-4.245,7.75-4.258c0.179-0.039,0.293-0.216,0.253-0.396
						c-0.039-0.179-0.217-0.293-0.395-0.254c-0.227,0.049-4.969,1.109-7.372,3.542l1.739-10.045c0.031-0.181-0.09-0.353-0.271-0.384
						c-0.181-0.031-0.352,0.09-0.384,0.271l-2.747,15.871c-1.217-5.602-5.362-10.908-5.559-11.157
						c-0.113-0.143-0.322-0.168-0.466-0.055c-0.144,0.114-0.168,0.323-0.055,0.466c0.053,0.067,5.272,6.732,5.724,12.805
						l-3.18,18.373c-2.249-8.565-12.098-17.223-12.544-17.612c-0.137-0.119-0.348-0.106-0.468,0.033
						c-0.12,0.139-0.106,0.348,0.033,0.469c0.115,0.1,11.47,10.079,12.667,18.921l-2.374,13.716
						c-4.435-9.184-15.216-14.302-15.329-14.355c-0.168-0.078-0.364-0.005-0.441,0.16c-0.078,0.166-0.006,0.364,0.16,0.441
						c0.113,0.053,11.374,5.404,15.408,14.917l-2.152,12.436c-0.031,0.181,0.09,0.353,0.271,0.384
						c0.181,0.031,0.352-0.09,0.384-0.271l2.998-17.323c4.92-5.159,19.224-4.883,19.368-4.88c0.184,0.004,0.336-0.141,0.34-0.324
						C399.482,364.428,399.335,364.277,399.154,364.272z"/>
				</g>
			</g>
		</g>
		<g>
			<g>
				<path style="fill:#3B3BDB;" d="M490.149,280.965H89.206c-2.756,0-4.989-2.234-4.989-4.989V54.809
					c0-2.756,2.234-4.989,4.989-4.989h400.943c2.755,0,4.989,2.234,4.989,4.989v221.167
					C495.138,278.731,492.905,280.965,490.149,280.965z"/>
				<path style="fill:#FFFEFC;" d="M481.68,273.618H96.496c-2.756,0-4.989-2.234-4.989-4.989V69.732
					c0-2.756,2.234-4.989,4.989-4.989H481.68c2.755,0,4.989,2.234,4.989,4.989v198.897
					C486.669,271.384,484.435,273.618,481.68,273.618z"/>
			</g>
			<g>
				<path style="fill:#D6F0FD;" d="M167.753,265.752h-63.846c-3.038,0-5.5-2.463-5.5-5.5V154.196c0-3.038,2.462-5.5,5.5-5.5h63.846
					c3.038,0,5.5,2.462,5.5,5.5v106.056C173.253,263.289,170.791,265.752,167.753,265.752z"/>
				<g>
					<rect x="104.835" y="255.226" style="fill:#FFFFFF;" width="61.224" height="1.531"/>
					<rect x="104.835" y="248.338" style="fill:#FFFFFF;" width="61.224" height="1.531"/>
					<rect x="104.835" y="241.604" style="fill:#FFFFFF;" width="61.224" height="1.531"/>
				</g>
			</g>
			<g>
				<path style="fill:#0AB0E2;" d="M137.974,99.928H82.747c-6.905,0-12.504-5.598-12.504-12.503l0,0
					c0-6.905,5.598-12.503,12.504-12.503h55.227c6.906,0,12.503,5.598,12.503,12.503l0,0
					C150.477,94.33,144.88,99.928,137.974,99.928z"/>
				<path style="fill:#E29135;" d="M137.974,132.381H82.747c-6.905,0-12.504-5.598-12.504-12.503l0,0
					c0-6.906,5.598-12.504,12.504-12.504h55.227c6.906,0,12.503,5.598,12.503,12.504l0,0
					C150.477,126.783,144.88,132.381,137.974,132.381z"/>
				<path style="fill:#FF522F;" d="M137.974,163.34H82.747c-6.905,0-12.504-5.598-12.504-12.503l0,0
					c0-6.906,5.598-12.503,12.504-12.503h55.227c6.906,0,12.503,5.598,12.503,12.503l0,0
					C150.477,157.742,144.88,163.34,137.974,163.34z"/>
				<path style="fill:#064A57;" d="M137.974,195.793H82.747c-6.905,0-12.504-5.598-12.504-12.503v0
					c0-6.905,5.598-12.503,12.504-12.503h55.227c6.906,0,12.503,5.598,12.503,12.503v0
					C150.477,190.195,144.88,195.793,137.974,195.793z"/>
			</g>
			<g>
				<g>
					<path style="fill:#D6F0FD;" d="M460.241,30.84H188.406c-4.734,0-8.571,3.838-8.571,8.571V265.11
						c0,4.734,3.837,8.571,8.571,8.571h271.835c4.734,0,8.571-3.837,8.571-8.571V39.411C468.812,34.678,464.975,30.84,460.241,30.84
						z"/>
					<path style="fill:#34C6B8;" d="M460.241,30.84H188.406c-4.734,0-8.571,3.838-8.571,8.571v7.347h288.977v-7.347
						C468.812,34.678,464.975,30.84,460.241,30.84z"/>
				</g>
				<g>
					<path style="fill:#3B3BDB;" d="M452.358,67.115h-11.403c-0.972,0-1.76-0.788-1.76-1.76l0,0c0-0.972,0.788-1.76,1.76-1.76
						h11.403c0.972,0,1.76,0.788,1.76,1.76l0,0C454.118,66.327,453.33,67.115,452.358,67.115z"/>
					<path style="fill:#FFFFFF;" d="M433.991,67.115h-11.403c-0.972,0-1.76-0.788-1.76-1.76l0,0c0-0.972,0.788-1.76,1.76-1.76
						h11.403c0.972,0,1.76,0.788,1.76,1.76l0,0C435.751,66.327,434.963,67.115,433.991,67.115z"/>
					<path style="fill:#63EAD9;" d="M278.559,63.595H195.6c-2.452,0-4.439-1.987-4.439-4.439l0,0c0-2.451,1.987-4.439,4.439-4.439
						h82.958c2.451,0,4.439,1.987,4.439,4.439l0,0C282.997,61.608,281.01,63.595,278.559,63.595z"/>
				</g>
				<g>
					<g>
						<path style="fill:#FFFFFF;" d="M448.701,204.716H194.894c-2.992,0-5.417-2.425-5.417-5.417V74.829
							c0-2.992,2.425-5.417,5.417-5.417h253.807c2.992,0,5.417,2.425,5.417,5.417v124.47
							C454.118,202.291,451.693,204.716,448.701,204.716z"/>
						<g>
							<g>
								<rect x="311.007" y="177.625" style="fill:#D6F0FD;" width="75.765" height="1.991"/>
								<rect x="311.007" y="170.174" style="fill:#D6F0FD;" width="75.765" height="1.991"/>
								<rect x="311.007" y="161.839" style="fill:#D6F0FD;" width="75.765" height="1.991"/>
								<rect x="311.007" y="154.389" style="fill:#D6F0FD;" width="75.765" height="1.991"/>
								<rect x="311.007" y="147.686" style="fill:#D6F0FD;" width="75.765" height="1.991"/>
								<rect x="311.007" y="140.235" style="fill:#D6F0FD;" width="75.765" height="1.991"/>
								<rect x="311.007" y="131.901" style="fill:#D6F0FD;" width="75.765" height="1.991"/>
								<rect x="311.007" y="124.45" style="fill:#D6F0FD;" width="75.765" height="1.991"/>
								<rect x="310.548" y="92.791" style="fill:#D6F0FD;" width="76.224" height="20.089"/>
							</g>
						</g>
						<g>
							<g>
								<path style="fill:#FF522F;" d="M264.248,135.475c0,0-7.993-11.845,5.538-15.712c0,0-2.737,12.562-0.526,8.345
									c2.211-4.218,1.887-10.28,5.56-10.42c3.673-0.14,9.379,0.633,9.379,0.633s-9.213,9.389-5.276,6.957s7.929-6.732,9.709-6.814
									s10.187,3.394,7.823,9.929c-2.363,6.534-12.745,1.335-12.379,2.355s8.066,2.345,8.066,2.345s-2.759,7.27-8.153,6.683
									c-5.394-0.588-12.98-7.293-11.576-5.107c1.404,2.186,12.044,6.736,9.741,7.057
									C279.852,142.047,267.805,143.417,264.248,135.475z"/>
								<path style="fill:#0AB0E2;" d="M229.582,147.022c0,0,6.681-6.384-1.336-10.689c0,0,0,8.314-0.817,5.344
									c-0.816-2.969,0.223-6.755-2.078-7.349c-2.301-0.594-6.013-0.891-6.013-0.891s4.528,7.2,2.375,5.122
									c-2.153-2.078-4.083-5.344-5.196-5.641c-1.113-0.297-6.903,0.742-6.309,5.196c0.594,4.454,7.868,2.598,7.497,3.192
									c-0.371,0.594-5.419,0.371-5.419,0.371s0.742,4.973,4.231,5.344c3.489,0.371,9.204-2.821,8.017-1.633
									c-1.188,1.188-8.536,2.598-7.126,3.118C218.819,149.026,226.242,151.55,229.582,147.022z"/>
								<path style="fill:#E29135;" d="M241.805,136.477c0,0,14.688,2.996,13.007-11.67c0,0-11.078,7.692-7.877,3.857
									c3.201-3.835,9.207-5.953,7.869-9.569c-1.338-3.616-4.376-8.836-4.376-8.836s-5.405,12.696-4.627,7.904
									c0.778-4.792,3.344-10.385,2.71-12.144c-0.635-1.758-7.376-8.512-12.762-3.6c-5.385,4.912,3.818,12.889,2.684,12.943
									c-1.135,0.055-5.508-6.877-5.508-6.877s-5.94,5.591-3.207,10.583c2.734,4.992,12.275,9.655,9.594,9.172
									c-2.682-0.484-11.36-8.971-10.748-6.611C229.176,123.989,232.681,136.215,241.805,136.477z"/>
								<path style="fill:#064A57;" d="M277.655,129.749c-0.053-0.248-0.299-0.408-0.545-0.354
									c-8.937,1.9-22.002,6.497-38.752,17.198c12.004-12.931,3.975-26.63,3.883-26.782c-0.131-0.217-0.414-0.287-0.631-0.155
									c-0.217,0.131-0.286,0.413-0.155,0.631c0.097,0.16,9.502,16.203-8.188,29.654c-0.017,0.013-0.025,0.031-0.04,0.045
									c-0.783,0.535-1.573,1.084-2.37,1.645c0.647-1.296,0.828-2.569,0.523-3.804c-0.939-3.799-6.062-5.779-6.28-5.861
									c-0.237-0.089-0.502,0.03-0.592,0.267c-0.09,0.237,0.03,0.502,0.267,0.592c0.049,0.018,4.89,1.886,5.714,5.222
									c0.396,1.602-0.21,3.325-1.8,5.122c-0.005,0.006-0.006,0.013-0.011,0.019c-4.342,3.138-8.886,6.654-13.637,10.615
									c-0.659,0.549-1.232,1.027-1.384,1.131c-0.163,0.07-0.277,0.232-0.277,0.421c0,0.254,0.205,0.459,0.459,0.459
									c0.222,0,0.222,0,1.79-1.307c28.083-23.412,49.038-31.528,61.673-34.213C277.549,130.241,277.707,129.997,277.655,129.749z"
									/>
							</g>
							<g>
								<circle style="fill:#E29135;" cx="261.904" cy="165.814" r="7.653"/>
								<circle style="fill:#FF522F;" cx="254.996" cy="150.508" r="7.653"/>
								<circle style="fill:#0AB0E2;" cx="241.764" cy="160.304" r="7.653"/>
							</g>
						</g>
						<path style="fill:#FF522F;" d="M403.128,118.51c0,0-7.993-11.845,5.538-15.712c0,0-2.737,12.562-0.526,8.345
							c2.211-4.218,1.887-10.28,5.56-10.42c3.673-0.14,9.379,0.634,9.379,0.634s-9.212,9.389-5.275,6.957
							c3.937-2.432,7.928-6.732,9.709-6.814c1.78-0.082,10.187,3.394,7.823,9.929c-2.364,6.534-12.745,1.335-12.379,2.355
							s8.066,2.345,8.066,2.345s-2.759,7.271-8.153,6.683c-5.394-0.588-12.98-7.293-11.576-5.107
							c1.404,2.186,12.043,6.736,9.741,7.057C418.732,125.082,406.685,126.452,403.128,118.51z"/>
						<g>
							<circle style="fill:#E29135;" cx="425.825" cy="162.057" r="7.653"/>
							<circle style="fill:#FF522F;" cx="418.918" cy="146.75" r="7.653"/>
							<circle style="fill:#0AB0E2;" cx="405.686" cy="156.546" r="7.653"/>
						</g>
					</g>
					<g>
						<path style="fill:#FFFFFF;" d="M446.637,262.997H196.958c-4.132,0-7.482-3.35-7.482-7.482v-37.313
							c0-4.132,3.35-7.482,7.482-7.482h249.679c4.132,0,7.481,3.35,7.481,7.482v37.313
							C454.118,259.647,450.769,262.997,446.637,262.997z"/>
						<g>
							<path style="fill:#D6F0FD;" d="M316.517,223.543H202.87c-2.916,0-5.281,2.364-5.281,5.281c0,2.916,2.364,5.281,5.281,5.281
								h113.646c2.916,0,5.281-2.364,5.281-5.281C321.797,225.907,319.433,223.543,316.517,223.543z"/>
							<path style="fill:#D6F0FD;" d="M330.752,236.859c-0.761,0-1.378,0.617-1.378,1.378c0,0.761,0.617,1.378,1.378,1.378h114.795
								c0.761,0,1.378-0.617,1.378-1.378c0-0.761-0.617-1.378-1.378-1.378H330.752z"/>
							<path style="fill:#D6F0FD;" d="M402.384,242.828c0-0.761-0.617-1.378-1.378-1.378h-70.254c-0.761,0-1.378,0.617-1.378,1.378
								s0.617,1.378,1.378,1.378h70.254C401.767,244.206,402.384,243.589,402.384,242.828z"/>
							<path style="fill:#D6F0FD;" d="M444.782,251.859h-114.03c-0.761,0-1.378,0.617-1.378,1.378c0,0.761,0.617,1.378,1.378,1.378
								h114.03c0.761,0,1.378-0.617,1.378-1.378C446.159,252.475,445.543,251.859,444.782,251.859z"/>
							<path style="fill:#D6F0FD;" d="M445.547,241.451h-38.418c-0.761,0-1.378,0.617-1.378,1.378s0.617,1.378,1.378,1.378h38.418
								c0.761,0,1.378-0.617,1.378-1.378S446.308,241.451,445.547,241.451z"/>
							<path style="fill:#D6F0FD;" d="M445.547,246.195h-74.54c-0.761,0-1.378,0.617-1.378,1.378s0.617,1.378,1.378,1.378h74.54
								c0.761,0,1.378-0.617,1.378-1.378S446.308,246.195,445.547,246.195z"/>
							<path style="fill:#D6F0FD;" d="M330.767,246.195c-0.761,0-1.378,0.617-1.378,1.378s0.617,1.378,1.378,1.378h34.285
								c0.761,0,1.378-0.617,1.378-1.378s-0.617-1.378-1.378-1.378H330.767z"/>
							<path style="fill:#D6F0FD;" d="M332.359,231.961h110.05c2.071,0,3.75-1.679,3.75-3.75c0-2.071-1.679-3.75-3.75-3.75h-110.05
								c-2.071,0-3.75,1.679-3.75,3.75C328.609,230.282,330.288,231.961,332.359,231.961z"/>
							<path style="fill:#D6F0FD;" d="M267.691,241.451h-59.387c-4.227,0-7.653,3.426-7.653,7.653c0,4.227,3.426,7.653,7.653,7.653
								h59.387c4.227,0,7.653-3.426,7.653-7.653C275.344,244.877,271.918,241.451,267.691,241.451z"/>
						</g>
					</g>
				</g>
			</g>
		</g>
		<g>
			<g>
				<path style="fill:#2B9386;" d="M198.689,368.173c-2.096,0-3.069-3.82-3.37-5.318c-0.073-0.365-0.107-0.592-0.107-0.592
					l-5.736-1.999l-5.736,1.999c0,0-0.033,0.227-0.107,0.592c-0.301,1.497-1.273,5.318-3.37,5.318c-2.607,0-8.952,1.42-8.952,4.751
					h18.164h18.164C207.641,369.593,201.296,368.173,198.689,368.173z"/>
				<path style="fill:#34C6B8;" d="M197.559,368.173c-2.096,0-3.069-3.82-3.37-5.318c-0.073-0.365-0.107-0.592-0.107-0.592
					l-5.736-1.999l-5.736,1.999c0,0-0.033,0.227-0.107,0.592c-0.301,1.497-1.273,5.318-3.37,5.318c-2.607,0-8.952,1.42-8.952,4.751
					h18.164h18.165C206.511,369.593,200.166,368.173,197.559,368.173z"/>
				<path style="fill:#2B9386;" d="M218.885,363.551h-57.393c-0.875,0-1.51-0.833-1.278-1.677l10.396-37.849
					c0.158-0.576,0.681-0.975,1.278-0.975h57.393c0.875,0,1.51,0.833,1.278,1.677l-10.396,37.849
					C220.005,363.152,219.481,363.551,218.885,363.551z"/>
				<path style="fill:#34C6B8;" d="M217.494,362.855h-57.393c-0.875,0-1.51-0.833-1.278-1.677l10.396-37.849
					c0.158-0.576,0.681-0.974,1.278-0.974h57.393c0.875,0,1.51,0.833,1.278,1.677l-10.396,37.849
					C218.614,362.456,218.091,362.855,217.494,362.855z"/>
				<path style="fill:#FFFFFF;" d="M216.899,356.786h-52.097c-0.633,0-1.118-0.537-0.977-1.081l7.995-30.757
					c0.096-0.371,0.463-0.628,0.894-0.628h52.097c0.633,0,1.118,0.537,0.977,1.081l-7.995,30.757
					C217.697,356.529,217.331,356.786,216.899,356.786z"/>
			</g>
			<g>
				<path style="fill:#3B3BDB;" d="M254.069,379.123H80.958v11.862h4.999v74.846c0,1.585,1.285,2.87,2.87,2.87s2.87-1.285,2.87-2.87
					v-74.846h23.189v74.846c0,1.585,1.285,2.87,2.87,2.87s2.87-1.285,2.87-2.87v-74.846h133.444V379.123z"/>
				<rect x="74.844" y="372.924" style="fill:#282852;" width="185.195" height="6.199"/>
				<path style="fill:#3535A5;" d="M215.268,379.123v11.862h1.378v74.846c0,1.585,1.285,2.87,2.87,2.87
					c1.585,0,2.87-1.285,2.87-2.87v-74.846h25.944v74.846c0,1.585,1.285,2.87,2.87,2.87c1.585,0,2.87-1.285,2.87-2.87v-74.846
					v-0.686v-11.176H215.268z"/>
			</g>
			<g>
				<path style="fill:#2B9386;" d="M125.903,468.702H75.016c-4.207,0-7.617-3.41-7.617-7.617v-57.507
					c0-4.207,3.41-7.617,7.617-7.617h50.887c4.207,0,7.617,3.41,7.617,7.617v57.507C133.52,465.291,130.11,468.702,125.903,468.702z
					"/>
				<path style="fill:#34C6B8;" d="M81.209,468.702H64.914c-4.207,0-7.617-3.41-7.617-7.617v-57.507c0-4.207,3.41-7.617,7.617-7.617
					h16.296c4.207,0,7.617,3.41,7.617,7.617v57.507C88.827,465.291,85.416,468.702,81.209,468.702z"/>
			</g>
			<g>
				<g>
					<path style="fill:#ECC1BA;" d="M146.976,306.934c0,0,0.804,12.628-3.099,15.268c-3.903,2.64-4.707,2.296-4.707,2.296
						l3.937,8.38h-15.991c0,0,2.755-9.069,2.411-11.479c-0.344-2.411-9.413-7.577-4.362-19.4
						C130.216,290.174,146.976,295.914,146.976,306.934z"/>
					<path style="fill:#641C21;" d="M140.816,319.14c0,0,0.076,2.908-1.76,3.444c0,0,0.914,3.52-3.714,2.296
						c0,0-1.567,2.143-4.857-1.224c0,0-2.143,2.449-5.663-2.143c0,0-4.133-2.602-3.673-7.041c0,0,0.229,4.745-0.842,3.214
						c-1.071-1.531-1.148-5.278-0.765-6.963c0,0-3.214,0.534-0.536-5.588c2.679-6.122,7.347-10.791,13.316-10.791
						c5.969,0,14.923,3.52,15.995,2.832c1.071-0.689,4.058,10.94,0.383,12.398c-5.209,2.066-3.008,6.587-7.142,5.389L140.816,319.14
						z"/>
					<path style="fill:#DE9595;" d="M143.191,314.579c0.726,2.529,0.08,4.934-1.444,5.371c-1.523,0.437-3.347-1.258-4.073-3.787
						c-0.726-2.529-0.08-4.934,1.444-5.371C140.642,310.355,142.465,312.05,143.191,314.579z"/>
				</g>
				<g>
					<g>
						<polygon style="fill:#ECC1BA;" points="166.871,455.664 167.36,445.628 155.924,449.301 157.756,459.633 						"/>
						<path style="fill:#D8533D;" d="M156.608,468.702h28.24c0,0-0.918-8.036-8.724-8.15c-7.806-0.115-8.15-5.281-8.15-5.281
							l-11.365,3.559V468.702z"/>
					</g>
					<g>
						<polygon style="fill:#ECC1BA;" points="191.169,455.664 188.712,445.628 178.916,450.679 182.054,459.633 						"/>
						<path style="fill:#FB7154;" d="M181.059,468.702h28.239c0,0-0.918-8.036-8.724-8.15c-7.806-0.115-8.15-5.281-8.15-5.281
							l-11.365,3.559V468.702z"/>
					</g>
				</g>
				<g>
					<path style="fill:#34C6B8;" d="M159.665,386.898c0,0,20.132,4.547,22.887,7.302c2.755,2.755,12.628,53.954,12.628,53.954
						l-17.678,7.117l-6.314-21.008l1.722,19.974l-20.089,1.033l-9.184-54.413L159.665,386.898z"/>
					<g>
						<g>
							<polygon style="fill:#229385;" points="166.772,410.5 144.631,411.266 162.906,414.48 172.842,453.467 171.187,434.263 
															"/>
							<path style="fill:#229385;" d="M158.737,398.638c2.473-2.908,3.199-11.209,3.199-11.209h-1.998l-8.342,4.091l-1.225,8.625
								h23.5L158.737,398.638z"/>
						</g>
					</g>
				</g>
				<path style="fill:#ECC1BA;" d="M201.978,365.253c0,0,15.356,3.577,15.356,7.595h-15.356V365.253z"/>
				<g>
					<path style="fill:#FB7154;" d="M126.646,326.356h14.464l0.346,2.251c0,0,6.541-0.3,12.166,7.047
						c5.625,7.347,19.4,24.222,22.041,24.796c2.64,0.574,25.484,3.674,25.484,3.674s3.788,4.63,3.788,8.801h-38.686l-9.643-5.701
						c0,0,3.482,18.757,4.4,19.675c0.918,0.918-3.75,11.243-12.704,12.736c-8.954,1.492-43.469,2.487-43.469,2.487l4.018-60.841
						c0,0,2.296-5.281,5.051-6.773c2.755-1.492,11.934-5.976,11.934-5.976L126.646,326.356z"/>
					<g>
						<path style="fill:#D84936;" d="M161.008,386.898l-4.4-19.675l-9.617-7.472c-0.77-3.821-1.46-7.129-1.977-9.403
							c-2.526-11.097-5.357-11.326-6.582-11.373c-1.224-0.047-28.39,0-28.396,0c-0.736,1.276-1.183,2.304-1.183,2.304l-4.018,60.841
							c0,0,34.515-0.995,43.469-2.487c0.251-0.042,0.497-0.093,0.741-0.148l5.121-2.323c0.001-0.001,0.002-0.001,0.003-0.002
							c-0.004-0.019-4.127-22.227-7.108-37.054l7.824,9.221L161.008,386.898z"/>
						<polygon style="fill:#D84936;" points="126.646,326.356 125.838,328.53 141.457,328.607 						"/>
					</g>
				</g>
			</g>
			<g>
				<path style="fill:#3B3BDB;" d="M174.073,400.031H154.81c-0.017-0.1-0.028-0.199-0.051-0.3l-12.798-55.815
					c-0.513-2.237-2.504-3.824-4.799-3.824H94.806c-3.164,0-5.506,2.941-4.799,6.024l12.798,55.815
					c0.513,2.237,2.504,3.824,4.799,3.824h31.624h10.732h24.113c1.581,0,2.862-1.282,2.862-2.863
					C176.935,401.312,175.653,400.031,174.073,400.031z"/>
				<path style="fill:#3535A5;" d="M144.297,405.756h-42.356c-2.296,0-4.286-1.586-4.799-3.824l-12.798-55.815
					c-0.707-3.084,1.636-6.024,4.799-6.024h42.356c2.295,0,4.286,1.586,4.799,3.824l12.798,55.815
					C149.803,402.815,147.46,405.756,144.297,405.756z"/>
				<path style="fill:#282850;" d="M169.014,405.756h-62.968c-1.522,0-2.755,1.233-2.755,2.755c0,1.522,1.234,2.755,2.755,2.755
					h30.15v44.707l-18.573,4.303c-0.968-1.36-2.553-2.25-4.349-2.25c-2.948,0-5.338,2.39-5.338,5.338
					c0,2.948,2.39,5.338,5.338,5.338c2.948,0,5.338-2.39,5.338-5.338c0-0.163-0.01-0.324-0.024-0.484l18.944-4.389l18.597,4.308
					c-0.02,0.186-0.03,0.374-0.03,0.564c0,2.948,2.39,5.338,5.338,5.338c2.948,0,5.338-2.39,5.338-5.338
					c0-2.948-2.39-5.338-5.338-5.338c-1.765,0-3.325,0.86-4.297,2.181l-18.187-4.214v-44.727h30.064
					c1.521,0,2.755-1.234,2.755-2.755C171.769,406.989,170.536,405.756,169.014,405.756z"/>
			</g>
		</g>
		<g>
			<polygon style="fill:#34C6B8;" points="605.245,115.306 632.718,115.306 656.459,145.491 656.459,272.001 605.245,272.001 
				532.664,272.001 532.664,115.306 			"/>
			<polygon style="fill:#2B9386;" points="532.664,115.306 532.664,272.001 583.878,272.001 583.878,145.491 560.136,115.306 			"/>
			<rect x="583.878" y="145.491" style="fill:#2FBAA9;" width="72.582" height="126.509"/>
			<g>
				<path style="fill:#3535A5;" d="M618.035,144.248h30.61c0.445,0,0.522-0.361,0.172-0.805l-18.462-23.487
					c-0.35-0.445-0.994-0.806-1.439-0.806h-30.61c-0.445,0-0.522,0.361-0.172,0.806l18.462,23.487
					C616.946,143.887,617.59,144.248,618.035,144.248z"/>
				<g>
					<path style="fill:#FDFDFF;" d="M635.048,130.681h-15.588c-0.628,0-1.538-0.509-2.032-1.138l-5.143-6.543
						c-0.494-0.628-0.385-1.138,0.243-1.138h15.588c0.628,0,1.538,0.509,2.032,1.138l5.143,6.543
						C635.785,130.172,635.677,130.681,635.048,130.681z"/>
					<path style="fill:#FDFDFF;" d="M611.781,131.699h24.067c0.628,0,1.538,0.509,2.032,1.138l0.433,0.551
						c0.494,0.628,0.385,1.137-0.243,1.137h-24.067c-0.628,0-1.538-0.509-2.032-1.137l-0.433-0.551
						C611.044,132.208,611.153,131.699,611.781,131.699z"/>
					<path style="fill:#FDFDFF;" d="M614.636,135.331h24.067c0.628,0,1.538,0.509,2.032,1.138l0.433,0.551
						c0.494,0.628,0.385,1.138-0.243,1.138h-24.067c-0.628,0-1.538-0.509-2.032-1.138l-0.433-0.551
						C613.899,135.84,614.008,135.331,614.636,135.331z"/>
					<path style="fill:#FDFDFF;" d="M617.658,139.174h24.067c0.628,0,1.538,0.509,2.032,1.138l0.433,0.551
						c0.494,0.628,0.385,1.138-0.243,1.138h-24.067c-0.628,0-1.538-0.509-2.032-1.138l-0.433-0.551
						C616.92,139.684,617.029,139.174,617.658,139.174z"/>
				</g>
			</g>
			<g>
				<polygon style="fill:#282852;" points="644.854,167.459 629.393,167.459 610.023,167.459 594.562,167.459 587.835,189.922 
					610.023,189.922 629.393,189.922 651.581,189.922 				"/>
				<polygon style="fill:#3B3BDB;" points="650.227,185.4 651.581,189.922 617.105,189.922 617.105,195.801 713.428,195.801 
					713.428,189.922 				"/>
				<g>
					<g>
						<path style="fill:#ECE8EF;" d="M705.708,190.601h-0.405v-0.679h-57.348v0.679h3.626c0,0,3.127,0.073,3.127,7.034
							c0,6.961,0,25.038,0,25.038h23.479h8h22.648c0,0,0-18.077,0-25.038C708.836,190.674,705.708,190.601,705.708,190.601z"/>
					</g>
				</g>
				<polygon style="fill:#3535A5;" points="651.581,189.922 589.958,182.833 587.835,189.922 587.835,195.801 652.05,195.801 
					652.05,189.922 				"/>
				<g>
					<g>
						<path style="fill:#FF522F;" d="M686.295,204.36c0,0-2.3-3.409,1.594-4.522c0,0-0.788,3.615-0.151,2.401
							c0.636-1.214,0.543-2.959,1.6-2.999c1.057-0.04,2.699,0.182,2.699,0.182s-2.651,2.702-1.518,2.002
							c1.133-0.7,2.282-1.937,2.794-1.961c0.512-0.024,2.932,0.977,2.251,2.857c-0.68,1.881-3.668,0.384-3.563,0.678
							c0.105,0.293,2.321,0.675,2.321,0.675s-0.794,2.092-2.346,1.923c-1.552-0.169-3.736-2.099-3.331-1.47
							c0.404,0.629,3.466,1.939,2.803,2.031C690.785,206.251,687.318,206.645,686.295,204.36z"/>
						<path style="fill:#0AB0E2;" d="M676.318,207.683c0,0,1.923-1.837-0.385-3.076c0,0,0,2.393-0.235,1.538
							c-0.235-0.854,0.064-1.944-0.598-2.115c-0.662-0.171-1.73-0.256-1.73-0.256s1.303,2.072,0.684,1.474
							c-0.62-0.598-1.175-1.538-1.495-1.624c-0.32-0.085-1.987,0.214-1.816,1.495c0.171,1.282,2.264,0.748,2.158,0.919
							c-0.107,0.171-1.559,0.107-1.559,0.107s0.214,1.431,1.218,1.538c1.004,0.107,2.649-0.812,2.307-0.47
							c-0.342,0.342-2.457,0.748-2.051,0.897C673.22,208.26,675.356,208.986,676.318,207.683z"/>
						<path style="fill:#E29135;" d="M679.836,204.648c0,0,4.227,0.862,3.744-3.359c0,0-3.188,2.214-2.267,1.11
							c0.921-1.104,2.65-1.713,2.265-2.754s-1.26-2.543-1.26-2.543s-1.555,3.654-1.332,2.275c0.224-1.379,0.962-2.989,0.78-3.495
							c-0.183-0.506-2.123-2.45-3.673-1.036c-1.55,1.414,1.099,3.709,0.772,3.725c-0.327,0.016-1.585-1.979-1.585-1.979
							s-1.71,1.609-0.923,3.046c0.787,1.437,3.533,2.779,2.761,2.64c-0.772-0.139-3.269-2.582-3.093-1.903
							C676.201,201.054,677.21,204.573,679.836,204.648z"/>
						<path style="fill:#064A57;" d="M690.153,202.712c-0.015-0.072-0.086-0.117-0.157-0.102c-2.572,0.547-6.332,1.87-11.152,4.95
							c3.454-3.722,1.144-7.664,1.117-7.708c-0.038-0.063-0.119-0.083-0.182-0.045c-0.062,0.038-0.082,0.119-0.045,0.181
							c0.028,0.046,2.735,4.663-2.357,8.534c-0.005,0.004-0.007,0.009-0.012,0.013c-0.225,0.154-0.453,0.312-0.682,0.473
							c0.186-0.373,0.238-0.739,0.151-1.095c-0.27-1.093-1.745-1.663-1.807-1.687c-0.068-0.026-0.145,0.008-0.17,0.077
							c-0.026,0.068,0.009,0.145,0.077,0.171c0.014,0.005,1.407,0.543,1.644,1.503c0.114,0.461-0.06,0.957-0.518,1.474
							c-0.001,0.002-0.002,0.004-0.003,0.006c-1.249,0.903-2.557,1.915-3.925,3.055c-0.19,0.158-0.355,0.295-0.398,0.326
							c-0.047,0.02-0.08,0.067-0.08,0.121c0,0.073,0.059,0.132,0.132,0.132c0.064,0,0.064,0,0.515-0.376
							c8.082-6.738,14.113-9.074,17.749-9.846C690.123,202.853,690.168,202.783,690.153,202.712z"/>
					</g>
					<g>
						<circle style="fill:#E29135;" cx="685.62" cy="213.091" r="2.202"/>
						<circle style="fill:#FF522F;" cx="683.632" cy="208.686" r="2.202"/>
						<circle style="fill:#0AB0E2;" cx="679.824" cy="211.505" r="2.202"/>
					</g>
				</g>
			</g>
			<g>
				<path style="fill:#FDFDFF;" d="M646.753,202.213h-53.535c-2.891,0-5.243,2.352-5.243,5.243v15.515
					c0,2.891,2.352,5.243,5.243,5.243h53.535c2.891,0,5.243-2.352,5.243-5.243v-15.515
					C651.996,204.565,649.644,202.213,646.753,202.213z M651.165,222.971c0,2.433-1.98,4.412-4.412,4.412h-53.535
					c-2.433,0-4.412-1.979-4.412-4.412v-15.515c0-2.433,1.98-4.412,4.412-4.412h53.535c2.432,0,4.412,1.979,4.412,4.412V222.971z"/>
				<path style="fill:#FDFDFF;" d="M646.753,234.607h-53.535c-2.891,0-5.243,2.352-5.243,5.243v15.514
					c0,2.891,2.352,5.243,5.243,5.243h53.535c2.891,0,5.243-2.352,5.243-5.243V239.85
					C651.996,236.958,649.644,234.607,646.753,234.607z M651.165,255.364c0,2.432-1.98,4.412-4.412,4.412h-53.535
					c-2.433,0-4.412-1.98-4.412-4.412V239.85c0-2.433,1.98-4.412,4.412-4.412h53.535c2.432,0,4.412,1.979,4.412,4.412V255.364z"/>
			</g>
			<path style="fill:#3535A5;" d="M655.581,276.281H533.944c-1.182,0-2.14-0.958-2.14-2.14l0,0c0-1.182,0.958-2.14,2.14-2.14
				h121.636c1.182,0,2.14,0.958,2.14,2.14l0,0C657.721,275.323,656.763,276.281,655.581,276.281z"/>
		</g>
		<g>
			<g>
				<g>
					<path style="fill:#3B3BDB;" d="M492.393,348.031h-16.747c-1.483,0-2.859,0.768-3.639,2.029l-10.659,17.256
						c-0.417,0.675-0.638,1.454-0.638,2.247v6.639c0,2.362,1.915,4.277,4.277,4.277h11.565L492.393,348.031z"/>
					<g>
						<polygon style="fill:#FDFDFF;" points="472.699,352.269 470.278,356.312 483.887,356.312 486.309,352.269 						"/>
						<polygon style="fill:#FDFDFF;" points="464.345,366.216 467.04,366.216 472.004,357.929 469.309,357.929 						"/>
						<polygon style="fill:#FDFDFF;" points="472.383,359.209 480.131,359.209 480.898,357.929 473.149,357.929 						"/>
						<polygon style="fill:#FDFDFF;" points="471.253,361.095 479.001,361.095 479.767,359.815 472.02,359.815 						"/>
						<polygon style="fill:#FDFDFF;" points="468.347,365.946 471.446,365.946 472.213,364.666 469.114,364.666 						"/>
						<polygon style="fill:#FDFDFF;" points="472.996,365.946 476.095,365.946 476.862,364.666 473.762,364.666 						"/>
					</g>
				</g>
				<path style="fill:#282852;" d="M635.274,458.387v-61.684h-14.54v61.684c-10.192,0.735-12.742,10.232-12.742,10.232h12.742h6.62
					h1.301h6.62h12.742C648.017,468.62,645.466,459.122,635.274,458.387z"/>
				<g>
					<path style="fill:#282852;" d="M498.075,458.387v-61.684h-14.54v61.684c-10.192,0.735-12.742,10.232-12.742,10.232h12.742h6.62
						h1.301h6.62h12.742C510.818,468.62,508.267,459.122,498.075,458.387z"/>
					<path style="fill:#3535A5;" d="M501.251,458.387v-61.684h-14.54v61.684c-10.192,0.735-12.742,10.232-12.742,10.232h12.742h6.62
						h1.301h6.62h12.742C513.994,468.62,511.443,459.122,501.251,458.387z"/>
					<path style="fill:#3535A5;" d="M638.451,458.387v-61.684h-14.54v61.684c-10.192,0.735-12.742,10.232-12.742,10.232h12.742h6.62
						h1.301h6.62h12.742C651.193,468.62,648.642,459.122,638.451,458.387z"/>
				</g>
				<path style="fill:#2FBAA9;" d="M511.919,339.995h-8.046h-6.138c-2.103,0-4.027,1.183-4.976,3.059l-17.827,35.243
					c-0.395,0.78-0.6,1.643-0.6,2.517v10.313c0,3.08,2.497,5.576,5.576,5.576h11.107h20.903h134.912v-56.709H511.919z"/>
				<path style="fill:#2B9386;" d="M651.05,339.995h-14.184c-2.103,0-4.027,1.183-4.976,3.059l-17.826,35.243
					c-0.395,0.78-0.6,1.643-0.6,2.517v10.313c0,3.08,2.497,5.576,5.576,5.576h32.01c3.08,0,5.576-2.496,5.576-5.576v-45.556
					C656.627,342.492,654.13,339.995,651.05,339.995z"/>
				<g>
					<rect x="637.647" y="378.796" style="fill:#3535A5;" width="18.979" height="17.908"/>
					<rect x="644.076" y="378.796" style="fill:#3B3BDB;" width="18.979" height="17.908"/>
				</g>
				<g>
					<rect x="641.244" y="327.674" style="fill:#0D626D;" width="9.949" height="12.321"/>
					<rect x="609.025" y="327.674" style="fill:#FF522F;" width="8.112" height="12.321"/>
					<rect x="617.137" y="327.674" style="fill:#E29135;" width="8.112" height="12.321"/>
					<rect x="625.249" y="327.674" style="fill:#0AB0E2;" width="8.112" height="12.321"/>
					<rect x="633.361" y="327.674" style="fill:#064A57;" width="8.112" height="12.321"/>
				</g>
				<g>
					<path style="fill:#3535A5;" d="M609.101,380.48h-7.041c-0.549,0-0.995,0.445-0.995,0.995c0,0.549,0.445,0.995,0.995,0.995
						h7.041c0.549,0,0.995-0.445,0.995-0.995C610.096,380.925,609.651,380.48,609.101,380.48z"/>
					<path style="fill:#3535A5;" d="M597.553,380.48h-7.041c-0.549,0-0.995,0.445-0.995,0.995c0,0.549,0.445,0.995,0.995,0.995
						h7.041c0.549,0,0.995-0.445,0.995-0.995C598.548,380.925,598.102,380.48,597.553,380.48z"/>
				</g>
				<path style="fill:#3535A5;" d="M507.495,353.541l-3.744,7.293l0,0v0l-5.214,10.156h99.756l8.958-17.449H507.495z
					 M508.057,354.459h97.691l-3.273,6.374h-97.691L508.057,354.459z M597.731,370.072H500.04l2.987-5.816h97.691L597.731,370.072z"
					/>
				<g>
					<path style="fill:#FDFDFF;" d="M639.024,351.551c-0.254,0-0.459,0.205-0.459,0.459c0,0.254,0.205,0.459,0.459,0.459
						c7.256,0,7.347,6.478,7.347,6.754v19.573c0,0.254,0.205,0.459,0.459,0.459s0.459-0.205,0.459-0.459v-19.572
						c0-0.132-0.019-3.249-2.256-5.491C643.588,352.285,641.567,351.551,639.024,351.551z"/>
					<path style="fill:#FDFDFF;" d="M653.682,353.734c-1.446-1.448-3.467-2.183-6.01-2.183c-0.254,0-0.459,0.205-0.459,0.459
						c0,0.254,0.205,0.459,0.459,0.459c7.256,0,7.347,6.478,7.347,6.754v19.573c0,0.254,0.205,0.459,0.459,0.459
						s0.459-0.205,0.459-0.459v-19.572C655.938,359.092,655.919,355.975,653.682,353.734z"/>
					<polygon style="fill:#FDFDFF;" points="597.545,376.5 598.005,376.5 613.464,347.266 613.004,347.266 					"/>
					<polygon style="fill:#FDFDFF;" points="492.342,376.5 492.801,376.5 508.26,347.266 507.801,347.266 					"/>
				</g>
				<g>
					<path style="fill:#FFFFFF;" d="M579.262,370.531h-78.298h-1.14c0,0-14.472,8.724-14.472,38.112c0,20.193,0,33.231,0,39.413
						c0,2.815,0,4.209,0,4.209v8.418h84.145c0,0-0.107,7.169,6.274,7.867c0.326,0.036,0.655,0.069,1.016,0.069
						c6.62,0,7.29-7.937,7.29-7.937v-8.418c0,0,0-1.394,0-4.209c0-6.182,0-19.22,0-39.413c0-29.388,14.472-38.112,14.472-38.112
						H579.262z"/>
					<g>
						<g>
							<path style="fill:#FF522F;" d="M539.399,424.708c0,0-6.039-8.95,4.184-11.871c0,0-2.068,9.491-0.397,6.305
								c1.671-3.187,1.426-7.767,4.201-7.873c2.775-0.106,7.086,0.479,7.086,0.479s-6.96,7.094-3.986,5.257
								c2.975-1.837,5.99-5.086,7.335-5.148c1.345-0.062,7.697,2.565,5.911,7.502c-1.786,4.937-9.629,1.009-9.353,1.779
								c0.276,0.77,6.094,1.772,6.094,1.772s-2.084,5.493-6.16,5.049c-4.075-0.444-9.807-5.51-8.746-3.858
								c1.06,1.651,9.099,5.089,7.36,5.332S542.086,430.708,539.399,424.708z"/>
							<path style="fill:#0AB0E2;" d="M513.207,433.432c0,0,5.047-4.823-1.01-8.076c0,0,0,6.281-0.617,4.038
								c-0.617-2.243,0.168-5.104-1.57-5.552c-1.739-0.449-4.543-0.673-4.543-0.673s3.421,5.44,1.795,3.87
								c-1.626-1.57-3.085-4.038-3.926-4.262c-0.841-0.224-5.216,0.561-4.767,3.926c0.449,3.365,5.945,1.963,5.664,2.412
								c-0.28,0.449-4.094,0.28-4.094,0.28s0.561,3.758,3.197,4.038c2.636,0.28,6.954-2.131,6.057-1.234
								c-0.897,0.897-6.45,1.963-5.384,2.355C505.075,434.946,510.683,436.853,513.207,433.432z"/>
							<path style="fill:#E29135;" d="M522.442,425.464c0,0,11.097,2.263,9.828-8.818c0,0-8.37,5.812-5.952,2.914
								c2.419-2.898,6.956-4.498,5.946-7.23c-1.011-2.732-3.307-6.676-3.307-6.676s-4.084,9.592-3.496,5.972
								c0.588-3.62,2.527-7.847,2.047-9.175c-0.48-1.328-5.573-6.431-9.642-2.72c-4.069,3.711,2.885,9.738,2.027,9.779
								c-0.857,0.041-4.162-5.196-4.162-5.196s-4.488,4.224-2.423,7.996c2.065,3.772,9.274,7.295,7.248,6.93
								c-2.026-0.365-8.583-6.778-8.12-4.995C512.9,416.029,515.548,425.267,522.442,425.464z"/>
							<path style="fill:#064A57;" d="M549.529,420.382c-0.04-0.188-0.226-0.308-0.412-0.267
								c-6.752,1.435-16.623,4.909-29.279,12.994c9.069-9.77,3.003-20.12,2.934-20.235c-0.099-0.164-0.313-0.217-0.476-0.117
								c-0.164,0.099-0.217,0.312-0.117,0.476c0.073,0.121,7.18,12.242-6.187,22.405c-0.013,0.01-0.019,0.023-0.03,0.034
								c-0.591,0.404-1.188,0.819-1.791,1.243c0.489-0.979,0.626-1.941,0.395-2.874c-0.709-2.871-4.58-4.366-4.745-4.428
								c-0.179-0.067-0.379,0.022-0.448,0.202c-0.068,0.179,0.023,0.379,0.202,0.448c0.037,0.014,3.694,1.425,4.317,3.945
								c0.299,1.21-0.159,2.512-1.36,3.87c-0.004,0.004-0.005,0.01-0.008,0.014c-3.281,2.371-6.714,5.027-10.304,8.02
								c-0.498,0.415-0.931,0.776-1.046,0.854c-0.123,0.053-0.209,0.176-0.209,0.318c0,0.192,0.155,0.347,0.347,0.347
								c0.168,0,0.168,0,1.352-0.987c21.218-17.689,37.051-23.821,46.597-25.85C549.449,420.753,549.568,420.569,549.529,420.382z"
								/>
						</g>
						<g>
							<circle style="fill:#E29135;" cx="537.628" cy="447.63" r="5.782"/>
							<circle style="fill:#FF522F;" cx="532.409" cy="436.066" r="5.782"/>
							<circle style="fill:#0AB0E2;" cx="522.411" cy="443.467" r="5.782"/>
						</g>
					</g>
					<path style="fill:#F7AFA4;" d="M569.497,460.683v-12.628h-98.724v12.628h0c0,0-0.134,7.937,7.289,7.937h97.708v-0.069
						C569.391,467.852,569.497,460.683,569.497,460.683z"/>
				</g>
			</g>
			<g>
				<g>
					<g>
						<polygon style="fill:#ECC1BA;" points="667.877,455.582 668.249,445.546 677.547,448.936 676.992,459.551 						"/>
						<path style="fill:#D8533D;" d="M677.987,468.62h-28.24c0,0,0.918-8.036,8.724-8.151c7.806-0.115,8.15-5.28,8.15-5.28
							l11.365,0.465V468.62z"/>
					</g>
					<g>
						<polygon style="fill:#ECC1BA;" points="689.975,455.582 688.682,445.546 698.998,448.924 699.09,459.551 						"/>
						<path style="fill:#FB7154;" d="M700.085,468.62h-28.24c0,0,0.918-8.036,8.724-8.151c7.806-0.115,8.151-5.28,8.151-5.28
							l11.365,0.465V468.62z"/>
					</g>
				</g>
				<g>
					<path style="fill:#DD786B;" d="M686.69,296.625c0.279-1.265-10.413-2.933-8.384,4.694c0.001,0.003,0.001,0.006,0.002,0.009
						c0,0,0.491,0.542,0.964,1.497c0.464,0.938,0.912,2.274,0.862,3.893c-0.101,3.268,9.875,1.778,8.147-3.103
						c-0.295-0.834-0.541-1.542-0.749-2.162c-0.522-1.552-0.79-2.51-0.896-3.213C686.536,297.578,686.578,297.134,686.69,296.625z"
						/>
					<path style="fill:#DE9595;" d="M692.931,288.201c1.583,0.412,2.249,3.117,1.488,6.041c-0.762,2.924-2.663,4.96-4.246,4.547
						c-0.051-0.013-0.099-0.036-0.148-0.053c-0.257-0.094-0.486-0.255-0.688-0.466c-0.945-0.988-1.253-3.144-0.667-5.454
						c0.006-0.022,0.01-0.044,0.016-0.067c0.122-0.468,0.276-0.911,0.451-1.327C690.05,289.238,691.601,287.854,692.931,288.201z"/>
					<path style="fill:#EFCDCA;" d="M671.305,289.614c0,0,0.904,3.48,0.635,6.335c-0.27,2.856,2.944,7.31,5.683,8.596
						c2.74,1.287,8.25-1.732,10.242-3.887c1.992-2.154,3.275-7.553,3.31-9.978c0.036-2.425-3.85-11.963-10.732-10.662
						C673.562,281.319,669.967,283.671,671.305,289.614z"/>
					<path style="fill:#641C21;" d="M688.854,286.042c0,0-1.246,2.698-5.731,1.435c-4.486-1.263-8.488,3.029-12.094,2.813
						c-3.182-0.191-6.09-7.232-2.952-10.392c3.67-3.695,9.41-5.431,13.026-5.259c3.616,0.172,11.599-0.039,12.689,5.816
						c0,0,3.569,7.021,0.924,10.924c0,0-1.325-3.329-3.162-2.697c0,0,0.811,4.406-1.23,6.852
						C690.322,295.534,690.978,288.567,688.854,286.042z"/>
				</g>
				<g>
					<polygon style="fill:#34C6B8;" points="700.26,357.986 701.972,452.484 685.249,453.352 683.123,377.648 681.622,453.817 
						663.867,451.652 666.425,358.825 					"/>
					<g>
						<polygon style="fill:#229385;" points="681.608,378.949 681.622,453.817 683.123,377.648 680.092,374.357 						"/>
						<path style="fill:#229385;" d="M700.26,357.986l-33.999,0.453v6.359c0,0,18.204,10.697,34.117-0.318L700.26,357.986z"/>
					</g>
				</g>
				<g>
					<path style="fill:#FB7154;" d="M679.986,305.341c0,0-5.839,1.711-8.529,2.621c-2.69,0.91-8.761,16.73-8.761,16.73l-7.07,10.095
						l7.489,7.095l-0.94,20.519c18.674,12.882,41.933,0.409,41.933,0.409l-2.212-17.164c2.375-0.743,9.054-4.801,8.712-8.967
						c-0.341-4.166-9.759-23.902-11.731-26.528c-3.648-4.861-10.539-6.351-10.539-6.351S685.861,308.112,679.986,305.341z"/>
					<g>
						<path style="fill:#D84936;" d="M657.879,333.567l20.349,2.477l6.265,3.126c5.301,7.192,17.404,6.476,17.404,6.476
							c-6.857,2.593-17.913-2.82-17.913-2.82c-2.212-0.361-6.564-3.282-6.564-3.282l-13.679-1.308l-0.626,3.647l-7.489-7.095
							L657.879,333.567z"/>
						<path style="fill:#D84936;" d="M687.234,333.593c3.776-1.432,10.495-1.704,10.495-1.704l-1.056-12.849l2.712,13.474
							c1.922,0.477,5.308,2.965,5.308,2.965C697.464,332.037,687.234,333.593,687.234,333.593z"/>
					</g>
				</g>
				<g>
					<path style="fill:#2B9386;" d="M662.153,336.713l21.174,0.97c1.51,0.069,2.523-1.528,1.817-2.864l-8.949-16.933
						c-0.323-0.612-0.947-1.007-1.638-1.039l-21.174-0.97c-1.51-0.069-2.523,1.528-1.817,2.865l8.949,16.933
						C660.838,336.286,661.461,336.682,662.153,336.713z"/>
					<path style="fill:#2FBAA9;" d="M660.453,336.635l21.174,0.97c1.51,0.069,2.523-1.528,1.817-2.864l-8.949-16.933
						c-0.323-0.612-0.946-1.007-1.638-1.039l-21.173-0.97c-1.51-0.069-2.523,1.529-1.817,2.865l8.949,16.933
						C659.139,336.209,659.762,336.604,660.453,336.635z"/>
				</g>
				<g>
					<path style="fill:#EFCDCA;" d="M653.139,324.798c0,0,4.196,1.142,3.93,2.898c-0.266,1.756-0.776,3.069-0.776,3.069l2.13,3.938
						c0,0-2.532,1.456-4.585-1.477C651.785,330.293,650.928,326.027,653.139,324.798z"/>
					<path style="fill:#EFCDCA;" d="M687.234,333.593c0,0-2.605-6.888-3.821-6.666c-1.216,0.222-1.369,1.695-1.369,1.695
						s-5.884-3.279-6.583-1.178c-0.699,2.101-1.661,11.7,9.03,11.726C684.492,339.17,688.067,335.633,687.234,333.593z"/>
				</g>
			</g>
		</g>
		<g>
			<g>
				<rect x="331.938" y="350.64" style="fill:#282852;" width="85.408" height="9.175"/>
				<path style="fill:#2FBAA9;" d="M430.528,363.638c-1.534-2.944-4.245-4.736-7.165-4.736h-27.139h-3.061h-68.415
					c-4.651,0-8.421,4.467-8.421,9.977v99.823h76.836h3.061h38.877v-96.287L430.528,363.638z"/>
				<path style="fill:#2B9386;" d="M324.228,358.902h22.663c2.663,0,5.104,1.481,6.335,3.842l5.039,9.671v96.287h-41.938V368.263
					C316.326,363.093,319.864,358.902,324.228,358.902z"/>
				<path style="fill:#2FBAA9;" d="M420.069,350.64h-91.236c-1.624,0-2.94-1.316-2.94-2.94v-1.459c0-1.624,1.316-2.94,2.94-2.94
					h91.236c1.624,0,2.94,1.316,2.94,2.94v1.459C423.009,349.324,421.692,350.64,420.069,350.64z"/>
				<path style="fill:#2B9386;" d="M355.783,350.64h-26.95c-1.624,0-2.94-1.316-2.94-2.94v-1.459c0-1.624,1.316-2.94,2.94-2.94
					h26.95c1.624,0,2.94,1.316,2.94,2.94v1.459C358.724,349.324,357.407,350.64,355.783,350.64z"/>
				<g>
					<polygon style="fill:#3B3BDB;" points="431.468,370.51 380.958,370.51 375.811,361.877 426.321,361.877 					"/>
					<g>
						<polygon style="fill:#FDFDFF;" points="382.309,368.604 393.1,368.604 390.225,363.783 379.435,363.783 						"/>
						<polygon style="fill:#FDFDFF;" points="391.373,363.783 392.012,364.854 425.609,364.854 424.97,363.783 						"/>
						<polygon style="fill:#FDFDFF;" points="394.248,368.604 406.493,368.604 405.055,366.193 392.811,366.193 						"/>
						<path style="fill:#FDFDFF;" d="M408.193,366.193c-0.592,0-0.785,0.48-0.433,1.072c0.353,0.592,1.118,1.071,1.71,1.071
							c0.592,0,0.785-0.48,0.433-1.071C409.55,366.673,408.785,366.193,408.193,366.193z"/>
						<path style="fill:#FDFDFF;" d="M411.407,366.193c-0.592,0-0.785,0.48-0.433,1.072c0.353,0.592,1.118,1.071,1.71,1.071
							c0.592,0,0.785-0.48,0.433-1.071C412.765,366.673,411.999,366.193,411.407,366.193z"/>
						<polygon style="fill:#FDFDFF;" points="415.031,367.265 427.046,367.265 426.64,366.584 414.625,366.584 						"/>
						<polygon style="fill:#FDFDFF;" points="415.829,368.604 427.844,368.604 427.479,367.992 415.464,367.992 						"/>
					</g>
				</g>
				<path style="fill:#D6F0FD;" d="M421.338,430.168h-47.782c-2.359,0-4.271-1.912-4.271-4.271v-17.784
					c0-2.359,1.912-4.271,4.271-4.271h47.782c2.359,0,4.271,1.912,4.271,4.271v17.784
					C425.609,428.256,423.697,430.168,421.338,430.168z"/>
				<polygon style="fill:#282852;" points="435.101,420.603 451.708,420.603 451.708,417.005 435.101,411.189 				"/>
				<path style="fill:#282852;" d="M351.905,372.924h-28.915c-0.659,0-1.193-0.534-1.193-1.193l0,0c0-0.659,0.534-1.193,1.193-1.193
					h28.915c0.659,0,1.193,0.534,1.193,1.193l0,0C353.099,372.39,352.564,372.924,351.905,372.924z"/>
				<path style="fill:#282852;" d="M351.905,380.317h-28.915c-0.659,0-1.193-0.534-1.193-1.194l0,0c0-0.659,0.534-1.194,1.193-1.194
					h28.915c0.659,0,1.193,0.534,1.193,1.194l0,0C353.099,379.782,352.564,380.317,351.905,380.317z"/>
			</g>
			<g>
				<path style="fill:#0AB0E2;" d="M297.169,461.986L297.169,461.986c-1.741,0-3.152-1.411-3.152-3.152v-41.577
					c0-1.741,1.411-3.152,3.152-3.152h0c1.741,0,3.152,1.411,3.152,3.152v41.577C300.321,460.575,298.91,461.986,297.169,461.986z"
					/>
				<path style="fill:#FF522F;" d="M307.852,461.986L307.852,461.986c-1.741,0-3.152-1.411-3.152-3.152v-41.577
					c0-1.741,1.411-3.152,3.152-3.152l0,0c1.741,0,3.152,1.411,3.152,3.152v41.577C311.004,460.575,309.593,461.986,307.852,461.986
					z"/>
				<path style="fill:#064A57;" d="M313.245,463.654L313.245,463.654c-1.726-0.224-2.944-1.805-2.72-3.531l5.352-41.231
					c0.224-1.726,1.805-2.944,3.531-2.72l0,0c1.726,0.224,2.944,1.805,2.72,3.531l-5.352,41.231
					C316.552,462.661,314.971,463.878,313.245,463.654z"/>
				<path style="fill:#E29135;" d="M322.693,463.589L322.693,463.589c-1.69-0.416-2.723-2.124-2.307-3.814l9.942-40.371
					c0.416-1.69,2.124-2.723,3.814-2.307l0,0c1.69,0.416,2.723,2.124,2.307,3.814l-9.942,40.371
					C326.09,462.972,324.383,464.005,322.693,463.589z"/>
				<g>
					<rect x="290.956" y="435.143" style="fill:#3B3BDB;" width="51.352" height="33.558"/>
					<rect x="290.956" y="435.143" style="fill:#282852;" width="25.905" height="33.558"/>
				</g>
			</g>
		</g>
		<g>
			<path style="fill:#FB7154;" d="M273.047,428.971c0,0-5.009-0.845-6.414,0.201c-1.405,1.046-3.049,6.378-3.856,0.692
				c0,0-2.986,1.165-3.958,3.001c0,0-0.005,11.162-2.614,0.914c0,0-2.754,2.281-3.421,3.933c0,0,3.633,9.095,0.996,5.864
				s-2.638-3.231-2.638-3.231s-2.537,5.341,1.277,9.234c-1.386,2.012-2.504,3.823-3.301,5.118c-0.258,0.419-0.508,0.826-0.728,1.174
				c0.114-5.263,0.484-14.777,1.68-24.076c7.338,1.61,11.654-5.299,11.654-5.299s0,0-5.653-0.661
				c-5.653-0.661,7.476-3.161,7.476-3.161c1.41-1.981,2.011-6.823,2.011-6.823c-13.703,4.525-0.869-3.678-0.869-3.678
				c1.398-2.467,0.546-6.756,0.546-6.756c-7.132,3.248-2.207-2.559-2.036-4.943c0.171-2.384-4.479-7.524-4.479-7.524
				s-6.398,2.667-7.26,4.896c-0.862,2.229,1.118,9.582-3.949,3.603c0,0-2.6,3.517-2.387,6.344c0,0,8.112,12.891-2.354,2.956
				c0,0-1.521,4.636-1.09,7.029c0,0,10.81,7.858,5.414,6.046c-5.395-1.812-5.395-1.812-5.395-1.812s0.897,7.566,7.581,9.576
				c-1.308,10.125-1.642,20.506-1.725,25.457c-0.028,0.08-0.029,0.165-0.004,0.249c-0.008,0.476-0.013,0.891-0.016,1.251
				c-4.097,0.15-7.262-4.835-9.525-10.478c4.922-1.439,5.858-6.965,5.858-6.965s0,0-4.203,1.187
				c-4.203,1.187,4.376-4.431,4.376-4.431c0.42-1.818-0.572-5.428-0.572-5.428c-8.393,7.222-1.693-2.354-1.693-2.354
				c0.269-2.159-1.592-4.951-1.592-4.951c-4.107,4.392-2.314-1.168-2.891-2.909c-0.577-1.741-5.38-4.024-5.38-4.024
				s-3.756,3.765-3.715,5.598c0.042,1.833,3.599,6.468-1.745,3.712c0,0-0.814,3.255,0.165,5.198c0,0,9.528,6.767-0.803,2.786
				c0,0,0.279,3.734,1.285,5.304c0,0,9.967,2.407,5.61,2.702c-4.357,0.295-4.357,0.295-4.357,0.295s3.061,5.48,8.767,4.492
				c0.025-0.004,0.046-0.012,0.07-0.017c2.345,5.854,5.692,11.118,10.162,11.118c0.058,0,0.117-0.008,0.176-0.01
				c-0.002,0.396-0.001,0.633-0.001,0.657c0.001,0.224,0.183,0.405,0.407,0.405c0.001,0,0.001,0,0.002,0
				c0.224-0.001,0.406-0.184,0.405-0.408c0-0.051-0.003-1.035,0.023-2.69c0.268-0.299,0.657-0.922,1.449-2.211
				c0.778-1.266,1.869-3.033,3.217-4.995c3.86,3.182,8.78,0.816,8.78,0.816s0,0-3.247-2.618c-3.247-2.618,5.87,0.96,5.87,0.96
				c1.648-0.677,3.912-3.445,3.912-3.445c-10.264-2.546,0.898-2.62,0.898-2.62c1.83-0.983,2.977-3.976,2.977-3.976
				c-5.691-0.772-0.369-2.449,0.668-3.86C273.922,433.974,273.047,428.971,273.047,428.971z"/>
			<path style="fill:#34C6B8;" d="M255.349,468.702h-14.091c-2.847,0-5.154-2.308-5.154-5.155v-3.792h24.4v3.792
				C260.504,466.394,258.196,468.702,255.349,468.702z"/>
		</g>
	</g>
</g>
</svg>
