<svg width="57" height="55" viewBox="0 0 57 55" fill="none" xmlns="http://www.w3.org/2000/svg">
<path d="M55.7505 27.4855C55.7505 42.3848 43.5548 54.4711 28.5005 54.4711C13.4462 54.4711 1.25049 42.3848 1.25049 27.4855C1.25049 12.5863 13.4462 0.5 28.5005 0.5C43.5548 0.5 55.7505 12.5863 55.7505 27.4855Z" fill="white" stroke="#DDDDDD"/>
<g clip-path="url(#clip0_40_8316)">
<path d="M18.8437 31.069L17.6363 35.5336L13.2232 35.626C11.9043 33.2031 11.1562 30.431 11.1562 27.4852C11.1562 24.6366 11.8557 21.9503 13.0955 19.585H13.0964L17.0253 20.2984L18.7464 24.1665C18.3862 25.2067 18.1899 26.3233 18.1899 27.4852C18.19 28.7462 18.4206 29.9544 18.8437 31.069Z" fill="#FBBB00"/>
<path d="M45.5408 24.2759C45.74 25.315 45.8438 26.3882 45.8438 27.485C45.8438 28.7149 45.7133 29.9146 45.4646 31.0718C44.6203 35.0096 42.4142 38.4481 39.3581 40.8814L39.3571 40.8805L34.4084 40.6304L33.7081 36.2999C35.7359 35.1219 37.3207 33.2785 38.1555 31.0718H28.8813V24.2759H45.5408Z" fill="#518EF8"/>
<path d="M39.3569 40.8804L39.3579 40.8813C36.3857 43.2476 32.61 44.6634 28.4999 44.6634C21.895 44.6634 16.1525 41.0069 13.2231 35.6258L18.8437 31.0688C20.3083 34.9406 24.0792 37.6967 28.4999 37.6967C30.4001 37.6967 32.1803 37.1879 33.7078 36.2998L39.3569 40.8804Z" fill="#28B446"/>
<path d="M39.5707 14.2614L33.952 18.8175C32.3711 17.8387 30.5023 17.2733 28.5002 17.2733C23.9794 17.2733 20.138 20.1559 18.7467 24.1664L13.0967 19.5849H13.0957C15.9822 14.0727 21.7971 10.3066 28.5002 10.3066C32.7084 10.3066 36.5669 11.7914 39.5707 14.2614Z" fill="#F14336"/>
</g>
<defs>
<clipPath id="clip0_40_8316">
<rect width="34.6875" height="34.3569" fill="white" transform="translate(11.1562 10.3066)"/>
</clipPath>
</defs>
</svg>
