<svg width="178" height="66" viewBox="0 0 178 66" fill="none" xmlns="http://www.w3.org/2000/svg">
<g clip-path="url(#clip0_64_4113)">
<mask id="mask0_64_4113" style="mask-type:luminance" maskUnits="userSpaceOnUse" x="0" y="0" width="178" height="66">
<path d="M177.294 0H0V66H177.294V0Z" fill="white"/>
</mask>
<g mask="url(#mask0_64_4113)">
<mask id="mask1_64_4113" style="mask-type:luminance" maskUnits="userSpaceOnUse" x="0" y="0" width="178" height="66">
<path d="M177.294 0H0V65.9985H177.294V0Z" fill="white"/>
</mask>
<g mask="url(#mask1_64_4113)">
<path d="M3.37819 63.4149C2.76174 63.4334 2.14819 63.3235 1.57666 63.0923C1.1277 62.9141 0.734414 62.6199 0.437223 62.2398C0.193071 61.9197 0.0485112 61.5352 0.0214844 61.1339C0.022653 61.0991 0.0307416 61.0649 0.04528 61.0332C0.0598185 61.0016 0.0805168 60.9732 0.106172 60.9496C0.131039 60.924 0.161034 60.9039 0.194198 60.8907C0.227363 60.8775 0.262952 60.8714 0.298644 60.8728H0.922252C0.962808 60.8689 1.00372 60.8737 1.04224 60.887C1.08076 60.9002 1.11597 60.9216 1.14552 60.9496C1.19724 60.9928 1.23256 61.0525 1.2456 61.1185C1.29583 61.3364 1.40195 61.5376 1.55356 61.7022C1.73793 61.9127 1.97028 62.076 2.23106 62.1784C2.59097 62.3197 2.97631 62.385 3.36279 62.3704C3.90297 62.4098 4.44185 62.2781 4.90257 61.9941C5.06143 61.8811 5.19012 61.7311 5.27736 61.557C5.36461 61.3829 5.40774 61.1902 5.40299 60.9957C5.4075 60.8682 5.38594 60.7412 5.33961 60.6224C5.29328 60.5035 5.22316 60.3953 5.13353 60.3044C4.91179 60.0954 4.64989 59.9335 4.36365 59.8283C4.0018 59.69 3.53217 59.5364 2.95475 59.3675C2.44208 59.2268 1.94442 59.0364 1.46887 58.7991C1.10908 58.6284 0.802913 58.3629 0.583502 58.0311C0.380469 57.682 0.281638 57.2823 0.298644 56.8791C0.291431 56.4554 0.415075 56.0398 0.652792 55.6887C0.913886 55.323 1.27079 55.0361 1.68444 54.8592C2.20057 54.6427 2.75688 54.538 3.3166 54.552C3.76933 54.5426 4.22017 54.6128 4.6485 54.7594C4.99926 54.8738 5.32376 55.0565 5.60316 55.297C5.83892 55.4998 6.03474 55.7446 6.18058 56.0189C6.30776 56.2562 6.38134 56.5183 6.39615 56.7869C6.39308 56.8458 6.37153 56.9022 6.33456 56.9482C6.30996 56.9767 6.2791 56.9992 6.24438 57.0138C6.20966 57.0285 6.17202 57.0349 6.13439 57.0327H5.47382C5.41085 57.0321 5.34937 57.0134 5.29675 56.9789C5.22833 56.9378 5.17864 56.8717 5.15817 56.7946C5.12729 56.622 5.06067 56.4578 4.96258 56.3123C4.86448 56.1668 4.73706 56.0434 4.58845 55.9498C4.20879 55.7049 3.76209 55.5841 3.31044 55.6042C2.85636 55.582 2.40527 55.6885 2.00933 55.9114C1.88231 55.9992 1.77398 56.1112 1.69059 56.241C1.60721 56.3708 1.55042 56.5158 1.5235 56.6676C1.49659 56.8194 1.50009 56.975 1.53379 57.1255C1.56749 57.276 1.63073 57.4183 1.71985 57.5442L1.73833 57.5703C1.95564 57.7886 2.21851 57.9564 2.50822 58.0618C2.94112 58.2322 3.38321 58.3783 3.83242 58.4996C4.38518 58.6425 4.92376 58.8353 5.44149 59.0756C5.81743 59.2404 6.13999 59.5064 6.37305 59.8436C6.58868 60.1884 6.69594 60.5896 6.68101 60.9957C6.69618 61.469 6.55258 61.9339 6.27296 62.3166C5.98071 62.6981 5.58544 62.9885 5.13353 63.1538C4.57286 63.3506 3.97977 63.4392 3.38589 63.4149" fill="#1DB4FF"/>
<path d="M8.28979 55.7099C8.25297 55.7111 8.21629 55.7049 8.18191 55.6917C8.14753 55.6785 8.11614 55.6586 8.08962 55.6331C8.06216 55.606 8.04049 55.5737 8.02594 55.5381C8.01138 55.5024 8.00423 55.4642 8.00493 55.4257V54.7652C8.00423 54.7267 8.01138 54.6885 8.02594 54.6529C8.04049 54.6172 8.06216 54.5849 8.08962 54.5579C8.11535 54.5313 8.1466 54.5106 8.18118 54.4974C8.21576 54.4841 8.25283 54.4785 8.28979 54.4811H9.05967C9.09653 54.4795 9.13332 54.4855 9.16775 54.4987C9.20218 54.5119 9.23353 54.5321 9.25984 54.5579C9.2873 54.5849 9.30897 54.6172 9.32352 54.6529C9.33808 54.6885 9.34523 54.7267 9.34453 54.7652V55.4257C9.34523 55.4642 9.33808 55.5024 9.32352 55.5381C9.30897 55.5737 9.2873 55.606 9.25984 55.6331C9.2045 55.6818 9.13347 55.709 9.05967 55.7099H8.28979ZM8.38987 63.2917C8.35559 63.2949 8.32102 63.2913 8.28814 63.2811C8.25525 63.2709 8.22471 63.2544 8.19825 63.2324C8.17179 63.2104 8.14993 63.1835 8.13393 63.153C8.11793 63.1226 8.10811 63.0894 8.10501 63.0552C8.10343 63.0388 8.10343 63.0224 8.10501 63.006V57.1845C8.10299 57.1476 8.1088 57.1108 8.12207 57.0764C8.13534 57.042 8.15576 57.0108 8.182 56.9848C8.20911 56.9574 8.24151 56.9358 8.27724 56.9213C8.31298 56.9067 8.35129 56.8996 8.38987 56.9003H8.97499C9.01254 56.8987 9.04997 56.9055 9.08458 56.9201C9.1192 56.9347 9.15013 56.9568 9.17516 56.9848C9.22523 57.0392 9.25275 57.1106 9.25214 57.1845V63.0075C9.25232 63.0836 9.22498 63.1573 9.17516 63.2149C9.14942 63.2415 9.11817 63.2621 9.08359 63.2754C9.04901 63.2887 9.01195 63.2942 8.97499 63.2917H8.38987Z" fill="#1DB4FF"/>
<path d="M13.7113 65.9958C13.2441 66.0144 12.778 65.9387 12.3409 65.7731C12.027 65.6572 11.741 65.4766 11.5017 65.2432C11.3199 65.0619 11.1737 64.8483 11.0706 64.6134C10.9948 64.4555 10.9429 64.2873 10.9166 64.1142C10.9139 64.0755 10.9201 64.0366 10.9348 64.0007C10.9494 63.9647 10.9722 63.9326 11.0013 63.9068C11.0555 63.8553 11.1267 63.8253 11.2015 63.8223H11.7989C11.8637 63.8193 11.9279 63.8353 11.9837 63.8684C12.045 63.9265 12.0878 64.0013 12.1069 64.0834C12.1669 64.2265 12.2417 64.3629 12.3301 64.4905C12.4464 64.6598 12.6059 64.795 12.7921 64.8822C13.0609 65.0091 13.3573 65.0671 13.6543 65.0512C13.9843 65.0588 14.313 65.0067 14.6244 64.8976C14.8837 64.7977 15.0974 64.6064 15.2249 64.3599C15.3771 64.0227 15.4458 63.654 15.4251 63.2847V62.4476C15.2182 62.7136 14.9554 62.9312 14.6552 63.085C14.2789 63.2661 13.864 63.3531 13.4465 63.3385C13.0376 63.3483 12.6319 63.2642 12.2608 63.0927C11.9583 62.9389 11.695 62.7183 11.4909 62.4476C11.2807 62.1678 11.1241 61.8517 11.029 61.5152C10.9238 61.1552 10.8617 60.7839 10.8442 60.4093V59.7334C10.8617 59.3588 10.9238 58.9875 11.029 58.6275C11.1227 58.2867 11.2794 57.9663 11.4909 57.6828C11.6953 57.4084 11.9583 57.1828 12.2608 57.0223C12.6337 56.8571 13.0385 56.7758 13.4465 56.7843C13.8743 56.7668 14.2992 56.8622 14.6783 57.0607C14.975 57.2328 15.2363 57.4595 15.4482 57.7289V57.2067C15.4473 57.1267 15.4776 57.0496 15.5328 56.9916C15.5579 56.9636 15.5888 56.9416 15.6234 56.9269C15.658 56.9123 15.6955 56.9056 15.733 56.9071H16.3027C16.3802 56.9082 16.4544 56.9384 16.5106 56.9916C16.5658 57.0496 16.5962 57.1267 16.5953 57.2067V63.168C16.6047 63.6682 16.5103 64.165 16.3181 64.6272C16.131 65.0509 15.8126 65.4035 15.4097 65.6333C14.8865 65.9002 14.303 66.0272 13.7159 66.0019M13.7159 62.3692C14.0667 62.3845 14.4129 62.2847 14.7014 62.0851C14.9486 61.9007 15.1425 61.6542 15.2634 61.3708C15.3776 61.0925 15.4402 60.7959 15.4482 60.4953V59.6505C15.4386 59.3501 15.3761 59.0537 15.2634 58.775C15.1442 58.4927 14.9498 58.2483 14.7014 58.0684C14.4151 57.8641 14.0673 57.7638 13.7159 57.7842C13.3659 57.7659 13.0196 57.863 12.7305 58.0607C12.4854 58.2434 12.3005 58.4947 12.1992 58.7826C12.0807 59.0953 12.0106 59.4242 11.9914 59.758V60.4108C12.0045 60.7382 12.0668 61.0618 12.1761 61.3708C12.2761 61.6616 12.4611 61.9157 12.7074 62.1004C12.9974 62.2955 13.3437 62.39 13.6928 62.3692H13.7159Z" fill="#1DB4FF"/>
<path d="M18.7234 63.2922C18.6865 63.2942 18.6495 63.2884 18.615 63.2752C18.5805 63.262 18.5492 63.2416 18.5232 63.2154C18.4958 63.1884 18.4741 63.156 18.4595 63.1204C18.445 63.0847 18.4378 63.0465 18.4385 63.008V57.185C18.442 57.1113 18.4733 57.0417 18.5262 56.9901C18.579 56.9385 18.6495 56.9088 18.7234 56.9069H19.3008C19.3394 56.9062 19.3777 56.9134 19.4134 56.9279C19.4492 56.9424 19.4816 56.964 19.5087 56.9914C19.5349 57.0174 19.5553 57.0486 19.5686 57.083C19.5819 57.1175 19.5877 57.1543 19.5857 57.1911V57.7287C19.7919 57.4521 20.0542 57.2218 20.3555 57.0529C20.7421 56.8602 21.171 56.7678 21.6028 56.7841C22.0818 56.7664 22.5556 56.8893 22.9655 57.1374C23.3395 57.3669 23.6348 57.7044 23.8123 58.105C24.0078 58.5611 24.1049 59.053 24.0972 59.5489V63.0127C24.0974 63.0888 24.07 63.1624 24.0202 63.22C23.9945 63.2466 23.9632 63.2673 23.9286 63.2805C23.8941 63.2938 23.857 63.2994 23.82 63.2968H23.2041C23.1673 63.2984 23.1305 63.2923 23.096 63.2791C23.0616 63.2659 23.0303 63.2458 23.0039 63.22C22.9765 63.193 22.9548 63.1607 22.9403 63.125C22.9257 63.0894 22.9186 63.0511 22.9193 63.0127V59.6042C22.9473 59.1209 22.7997 58.6437 22.5035 58.2602C22.3472 58.0932 22.1555 57.9632 21.9424 57.8795C21.7293 57.7958 21.5002 57.7605 21.2717 57.7763C21.0437 57.7653 20.816 57.8028 20.6037 57.8862C20.3913 57.9696 20.1991 58.0971 20.0399 58.2602C19.7159 58.6308 19.5501 59.1132 19.578 59.6042V63.0065C19.5781 63.0826 19.5508 63.1562 19.501 63.2139C19.4444 63.2655 19.3698 63.2931 19.2931 63.2907L18.7234 63.2922Z" fill="#1DB4FF"/>
<path d="M27.6957 63.4153C27.3072 63.4186 26.9231 63.3346 26.5716 63.1695C26.2643 63.0161 25.9998 62.7892 25.8017 62.509C25.597 62.2368 25.4887 61.9046 25.4938 61.5643C25.4864 61.3 25.5452 61.038 25.6648 60.802C25.7845 60.5659 25.9612 60.3634 26.179 60.2126C26.7157 59.8463 27.3343 59.6169 27.9805 59.5445L29.8128 59.291V58.9301C29.8229 58.7615 29.798 58.5926 29.7397 58.434C29.6814 58.2755 29.591 58.1306 29.4741 58.0084C29.1636 57.7607 28.7691 57.6424 28.3732 57.6782C28.0601 57.6644 27.7498 57.7418 27.4801 57.9009C27.2673 58.0348 27.1008 58.2305 27.0028 58.4616C26.9873 58.5163 26.9538 58.5642 26.9077 58.5976C26.8616 58.631 26.8056 58.648 26.7487 58.6459H26.1559C26.1188 58.6502 26.0812 58.6454 26.0463 58.6321C26.0115 58.6187 25.9804 58.5971 25.9557 58.5691C25.9095 58.5159 25.8847 58.4475 25.8864 58.3771C25.8954 58.2147 25.9429 58.0568 26.025 57.9163C26.1381 57.7147 26.2867 57.5351 26.4638 57.3863C26.6947 57.1993 26.9548 57.0514 27.2337 56.9486C27.5974 56.823 27.9807 56.7632 28.3655 56.7719C28.7869 56.7598 29.2071 56.8249 29.605 56.9639C29.895 57.0759 30.1576 57.2488 30.3749 57.4708C30.5643 57.6815 30.7061 57.9303 30.7906 58.2004C30.8759 58.4661 30.92 58.7432 30.9215 59.0222V63.0005C30.9222 63.039 30.915 63.0772 30.9005 63.1129C30.8859 63.1485 30.8643 63.1808 30.8368 63.2079C30.8108 63.2341 30.7795 63.2544 30.745 63.2677C30.7105 63.2809 30.6735 63.2867 30.6366 63.2847H30.0823C30.0442 63.2874 30.0059 63.282 29.97 63.2687C29.9342 63.2555 29.9016 63.2347 29.8744 63.2079C29.8266 63.1496 29.802 63.0758 29.8052 63.0005V62.4783C29.6813 62.6402 29.5363 62.7848 29.374 62.9084C29.1687 63.068 28.9367 63.1902 28.6888 63.2693C28.3676 63.3692 28.0321 63.4159 27.6957 63.4076M27.9574 62.486C28.2785 62.4919 28.596 62.418 28.8813 62.2709C29.1665 62.1226 29.3981 61.889 29.5434 61.6027C29.7157 61.2465 29.7976 60.8536 29.782 60.4584V60.1128L28.3578 60.3278C27.8945 60.3663 27.4452 60.5052 27.0413 60.7349C26.9027 60.8089 26.7876 60.92 26.7087 61.0557C26.6298 61.1913 26.5904 61.3462 26.5947 61.5029C26.5889 61.7128 26.66 61.9176 26.7949 62.0789C26.9375 62.2345 27.1177 62.3508 27.3184 62.4168C27.5289 62.4743 27.7472 62.4977 27.9651 62.486" fill="#1DB4FF"/>
<path d="M35.3301 65.9958C34.8579 66.0145 34.3867 65.9388 33.9443 65.7731C33.6334 65.6555 33.3504 65.4751 33.1128 65.2432C32.9282 65.0642 32.7816 64.85 32.6816 64.6134C32.6021 64.457 32.5501 64.2881 32.5277 64.1142C32.5249 64.0755 32.5311 64.0366 32.5458 64.0007C32.5605 63.9647 32.5833 63.9326 32.6124 63.9068C32.6656 63.8539 32.7374 63.8236 32.8125 63.8223H33.4053C33.4699 63.8212 33.5336 63.8371 33.5901 63.8684C33.6514 63.9265 33.6943 64.0013 33.7133 64.0835C33.7733 64.2265 33.8481 64.3629 33.9366 64.4905C34.0528 64.6598 34.2123 64.795 34.3985 64.8822C34.6674 65.0091 34.9637 65.0672 35.2608 65.0512C35.5908 65.0588 35.9194 65.0067 36.2308 64.8976C36.4902 64.7977 36.7038 64.6064 36.8313 64.3599C36.9804 64.0217 37.0489 63.6537 37.0315 63.2847V62.4476C36.8246 62.7136 36.5619 62.9312 36.2616 63.085C35.8883 63.2669 35.4758 63.354 35.0606 63.3385C34.6517 63.3483 34.2461 63.2642 33.875 63.0927C33.5586 62.9438 33.2817 62.7228 33.0666 62.4476C32.8608 62.1656 32.7056 61.8501 32.6077 61.5152C32.5054 61.1548 32.446 60.7836 32.4307 60.4093V59.7334C32.446 59.3591 32.5054 58.9879 32.6077 58.6275C32.7076 58.2876 32.8665 57.9678 33.0774 57.6828C33.2927 57.404 33.5692 57.178 33.8857 57.0223C34.2586 56.8571 34.6634 56.7758 35.0714 56.7843C35.4992 56.7668 35.9241 56.8622 36.3032 57.0607C36.5999 57.2328 36.8612 57.4595 37.0731 57.7289V57.2067C37.0701 57.1278 37.0977 57.0508 37.1501 56.9916C37.1765 56.965 37.2079 56.9438 37.2425 56.9293C37.2771 56.9148 37.3142 56.9073 37.3518 56.9071H37.9138C37.9529 56.9051 37.9919 56.9108 38.0287 56.9241C38.0655 56.9374 38.0992 56.9578 38.1279 56.9843C38.1567 57.0108 38.1798 57.0428 38.1959 57.0783C38.212 57.1139 38.2208 57.1523 38.2217 57.1913V63.168C38.2311 63.6682 38.1368 64.165 37.9446 64.6272C37.7543 65.0537 37.43 65.4069 37.0207 65.6333C36.4985 65.9028 35.9143 66.03 35.327 66.002M35.327 62.3692C35.68 62.383 36.0281 62.2834 36.3201 62.0851C36.5652 61.8976 36.7551 61.6477 36.8698 61.3616C36.9908 61.0852 37.0562 60.7877 37.0623 60.4861V59.6413C37.0537 59.34 36.9884 59.043 36.8698 58.7657C36.7565 58.4844 36.5673 58.2398 36.3232 58.0592C36.0261 57.8755 35.6835 57.7782 35.3339 57.7782C34.9844 57.7782 34.6417 57.8755 34.3446 58.0592C34.0996 58.2418 33.9146 58.4932 33.8134 58.7811C33.7033 59.0925 33.641 59.4188 33.6286 59.7488V60.4016C33.6418 60.729 33.704 61.0526 33.8134 61.3616C33.9115 61.6345 34.085 61.8741 34.3138 62.0528C34.601 62.2633 34.9508 62.3715 35.307 62.36L35.327 62.3692Z" fill="#1DB4FF"/>
<path d="M42.6099 63.4148C42.2388 63.4324 41.8681 63.3732 41.5209 63.2411C41.1738 63.1089 40.8578 62.9066 40.5928 62.6468C40.066 62.0594 39.7729 61.2999 39.769 60.5118V59.69C39.7867 59.1538 39.9263 58.6285 40.1771 58.1539C40.3981 57.729 40.7377 57.3769 41.1548 57.1402C41.5993 56.8936 42.1014 56.7691 42.6099 56.7792C43.1495 56.766 43.6823 56.9015 44.1497 57.1709C44.5767 57.4412 44.9142 57.8313 45.1198 58.2922C45.3516 58.8275 45.4645 59.4065 45.4508 59.9895V60.1969C45.4546 60.235 45.4497 60.2735 45.4363 60.3094C45.423 60.3454 45.4016 60.3778 45.3738 60.4042C45.3463 60.4306 45.3137 60.4511 45.2779 60.4643C45.2421 60.4775 45.204 60.4832 45.166 60.481H40.9393V60.5886C40.953 60.9147 41.0287 61.2353 41.1625 61.5332C41.2872 61.8122 41.4805 62.0553 41.7246 62.2398C41.9838 62.4204 42.2937 62.5146 42.6099 62.5086C42.8738 62.5227 43.1374 62.4753 43.3798 62.3703C43.5552 62.2912 43.7184 62.1878 43.8648 62.0631C43.9555 61.9874 44.0381 61.9025 44.1112 61.8097C44.1537 61.7347 44.2114 61.6693 44.2806 61.6177C44.3468 61.6062 44.4145 61.6062 44.4808 61.6177H45.0736C45.1465 61.6154 45.2178 61.64 45.2737 61.6868C45.3009 61.7101 45.3216 61.7401 45.3337 61.7737C45.3458 61.8074 45.349 61.8436 45.343 61.8788C45.3164 62.0422 45.2474 62.1958 45.1429 62.3243C44.9953 62.5259 44.8159 62.7023 44.6116 62.8465C44.3597 63.0339 44.0789 63.1792 43.7802 63.2766C43.3997 63.3828 43.0045 63.4269 42.6099 63.4072M40.9393 59.6209H44.3268C44.3332 59.2825 44.2649 58.9468 44.1266 58.6378C43.9991 58.3601 43.7965 58.1234 43.5415 57.9543C43.2664 57.7784 42.9442 57.69 42.6176 57.7008C42.305 57.6887 41.9961 57.7719 41.732 57.9392C41.4679 58.1066 41.2612 58.3503 41.1394 58.6378C41.0038 58.9474 40.9381 59.2831 40.947 59.6209H40.9393Z" fill="#1DB4FF"/>
<path d="M51.7654 63.4153C51.3793 63.4196 50.9974 63.3355 50.649 63.1695C50.3271 63.019 50.0469 62.7923 49.833 62.509C49.6282 62.2369 49.5199 61.9046 49.525 61.5644C49.5178 61.2992 49.5774 61.0365 49.6985 60.8003C49.8196 60.5641 49.9982 60.362 50.2179 60.2127C50.7509 59.8448 51.3674 59.6151 52.0117 59.5445L53.8595 59.291V58.9301C53.8686 58.7616 53.8433 58.593 53.785 58.4345C53.7268 58.2761 53.6369 58.1311 53.5207 58.0085C53.2083 57.7588 52.8106 57.6403 52.4121 57.6782C52.0991 57.6653 51.7891 57.7427 51.519 57.9009C51.3067 58.0333 51.1422 58.2297 51.0494 58.4616C51.0313 58.5162 50.9961 58.5636 50.9489 58.5968C50.9018 58.63 50.8453 58.6472 50.7876 58.6459H50.2333C50.1962 58.6497 50.1588 58.6447 50.124 58.6314C50.0892 58.618 50.0581 58.5967 50.0331 58.5691C49.9869 58.5159 49.9622 58.4475 49.9638 58.3771C49.9728 58.2147 50.0203 58.0568 50.1024 57.9163C50.2202 57.718 50.3682 57.5392 50.5412 57.3864C50.7724 57.1999 51.0325 57.052 51.3111 56.9486C51.6721 56.8226 52.0529 56.7628 52.4352 56.772C52.8592 56.7597 53.2818 56.8248 53.6824 56.964C53.9729 57.0752 54.2356 57.2481 54.4523 57.4708C54.6417 57.6815 54.7835 57.9303 54.868 58.2005C54.9533 58.4661 54.9975 58.7433 54.9989 59.0222V63.0005C54.9991 63.0767 54.9717 63.1503 54.9219 63.2079C54.8944 63.2343 54.8618 63.2547 54.826 63.2679C54.7902 63.2812 54.7521 63.2869 54.714 63.2847H54.152C54.1127 63.2874 54.0733 63.2819 54.0362 63.2687C53.9991 63.2555 53.9652 63.2348 53.9364 63.2079C53.8886 63.1496 53.864 63.0758 53.8672 63.0005V62.4783C53.5825 62.8387 53.1965 63.1061 52.7585 63.2463C52.4408 63.3523 52.1081 63.4068 51.7731 63.4076M52.0348 62.486C52.3558 62.4907 52.673 62.4168 52.9587 62.2709C53.243 62.1239 53.4724 61.8897 53.6131 61.6028C53.7886 61.2474 53.8732 60.8543 53.8595 60.4584V60.1128L52.4275 60.3279C51.9642 60.3663 51.5149 60.5052 51.111 60.7349C50.9724 60.809 50.8573 60.92 50.7784 61.0557C50.6995 61.1913 50.6601 61.3462 50.6644 61.5029C50.6577 61.7143 50.7321 61.9203 50.8723 62.0789C51.0119 62.2344 51.1897 62.3508 51.3881 62.4169C51.5986 62.4743 51.8169 62.4977 52.0348 62.486Z" fill="#1DB4FF"/>
<path d="M57.0622 63.2915C57.0254 63.2931 56.9886 63.287 56.9542 63.2738C56.9197 63.2606 56.8884 63.2405 56.8621 63.2147C56.8346 63.1877 56.813 63.1553 56.7984 63.1197C56.7838 63.0841 56.7767 63.0458 56.7774 63.0073V57.1843C56.7768 57.1469 56.7841 57.1099 56.7987 57.0755C56.8132 57.0412 56.8348 57.0102 56.8621 56.9846C56.888 56.9578 56.9191 56.9365 56.9535 56.922C56.9879 56.9074 57.0249 56.9 57.0622 56.9001H57.6443C57.6829 56.8994 57.7212 56.9065 57.7569 56.9211C57.7926 56.9356 57.825 56.9572 57.8521 56.9846C57.8784 57.0106 57.8988 57.0418 57.9121 57.0762C57.9254 57.1106 57.9312 57.1475 57.9291 57.1843V57.7219C58.1354 57.4452 58.3977 57.2149 58.699 57.046C59.0855 56.8534 59.5145 56.7609 59.9462 56.7772C60.4253 56.7596 60.8991 56.8824 61.3089 57.1305C61.6829 57.3601 61.9782 57.6976 62.1558 58.0982C62.3513 58.5542 62.4484 59.0462 62.4407 59.5421V63.0058C62.4409 63.0819 62.4135 63.1555 62.3637 63.2132C62.338 63.2398 62.3067 63.2604 62.2721 63.2737C62.2375 63.287 62.2005 63.2925 62.1635 63.29H61.5476C61.5108 63.2915 61.474 63.2855 61.4395 63.2723C61.4051 63.2591 61.3738 63.239 61.3474 63.2132C61.321 63.1858 61.3005 63.1532 61.2873 63.1175C61.274 63.0818 61.2683 63.0438 61.2704 63.0058V59.6035C61.2964 59.1192 61.146 58.6419 60.847 58.2595C60.6907 58.0925 60.499 57.9625 60.2859 57.8788C60.0728 57.7951 59.8437 57.7598 59.6152 57.7756C59.3872 57.7646 59.1595 57.8021 58.9471 57.8855C58.7348 57.9689 58.5426 58.0964 58.3834 58.2595C58.0594 58.6301 57.8936 59.1125 57.9214 59.6035V63.0058C57.9216 63.0819 57.8943 63.1555 57.8445 63.2132C57.817 63.2396 57.7843 63.26 57.7485 63.2732C57.7128 63.2864 57.6747 63.2921 57.6366 63.29L57.0622 63.2915Z" fill="#1DB4FF"/>
<path d="M66.5917 63.4181C66.1884 63.4297 65.7879 63.3482 65.4215 63.18C65.1171 63.0255 64.8534 62.8019 64.6516 62.5272C64.4408 62.2449 64.2818 61.9277 64.182 61.5902C64.0789 61.2247 64.0194 60.8483 64.0049 60.4689V59.7316C64.0202 59.3573 64.0796 58.9861 64.182 58.6256C64.2818 58.2857 64.4407 57.966 64.6516 57.681C64.8531 57.404 65.1167 57.1778 65.4215 57.0205C65.7892 56.8561 66.1888 56.7748 66.5917 56.7824C66.9728 56.764 67.3528 56.8358 67.7007 56.992C68.0486 57.1482 68.3545 57.3843 68.5934 57.681V54.8547C68.5928 54.8174 68.6001 54.7803 68.6147 54.746C68.6292 54.7116 68.6508 54.6806 68.6781 54.655C68.7031 54.627 68.734 54.6049 68.7687 54.5903C68.8033 54.5757 68.8407 54.569 68.8783 54.5705H69.4711C69.5084 54.5704 69.5454 54.5779 69.5798 54.5924C69.6142 54.6069 69.6453 54.6282 69.6712 54.655C69.6985 54.6806 69.7201 54.7116 69.7347 54.746C69.7492 54.7803 69.7565 54.8174 69.7559 54.8547V63.0125C69.7566 63.051 69.7495 63.0892 69.7349 63.1249C69.7204 63.1605 69.6987 63.1929 69.6712 63.2199C69.6449 63.2457 69.6136 63.2658 69.5791 63.279C69.5447 63.2922 69.5079 63.2983 69.4711 63.2967H68.9014C68.8631 63.3005 68.8245 63.2956 68.7885 63.2823C68.7525 63.269 68.72 63.2476 68.6935 63.2199C68.667 63.1925 68.6466 63.1599 68.6333 63.1242C68.6201 63.0886 68.6143 63.0505 68.6165 63.0125V62.4964C68.4072 62.7661 68.1453 62.9908 67.8466 63.1569C67.4546 63.3489 67.0202 63.4388 66.584 63.4181M66.8458 62.4273C67.1965 62.4426 67.5427 62.3428 67.8312 62.1431C68.076 61.9549 68.2671 61.706 68.3855 61.4212C68.5057 61.1391 68.571 60.8368 68.578 60.5303V59.578C68.5673 59.286 68.4993 58.999 68.3778 58.7332C68.2546 58.4553 68.0576 58.2162 67.8081 58.042C67.5118 57.8638 67.1724 57.7697 66.8265 57.7697C66.4806 57.7697 66.1412 57.8638 65.8449 58.042C65.5999 58.2246 65.4149 58.4759 65.3137 58.7639C65.197 59.0794 65.1295 59.411 65.1135 59.7469V60.4612C65.1267 60.7886 65.1889 61.1122 65.2983 61.4212C65.3912 61.726 65.5769 61.9944 65.8295 62.1892C66.134 62.3776 66.4924 62.4602 66.8488 62.4242L66.8458 62.4273Z" fill="#1DB4FF"/>
<path d="M75.0438 63.2961C75.0045 63.2988 74.9651 63.2934 74.928 63.2802C74.8909 63.2669 74.857 63.2462 74.8283 63.2193C74.7805 63.161 74.7558 63.0872 74.759 63.012V54.9878C74.7538 54.9099 74.7786 54.833 74.8283 54.7727C74.8565 54.7447 74.8902 54.7228 74.9273 54.7083C74.9644 54.6938 75.004 54.6869 75.0438 54.6882H78.2081C78.7525 54.6776 79.2931 54.7823 79.794 54.9955C80.223 55.1729 80.5862 55.4788 80.8334 55.871C81.0933 56.3124 81.2215 56.8186 81.2029 57.3302C81.2217 57.837 81.0934 58.3383 80.8334 58.7741C80.5829 59.1634 80.2207 59.4685 79.794 59.6496C79.2916 59.8564 78.7513 59.9558 78.2081 59.9414H76.0293V63.0135C76.0305 63.0499 76.0245 63.0863 76.0116 63.1204C75.9987 63.1545 75.9792 63.1857 75.9541 63.2123C75.9291 63.2388 75.899 63.2602 75.8657 63.2751C75.8323 63.29 75.7964 63.2982 75.7598 63.2992H75.0423L75.0438 63.2961ZM75.9754 58.9108H78.108C78.5992 58.9459 79.0864 58.8012 79.4784 58.5037C79.7685 58.1793 79.9289 57.7596 79.9289 57.3248C79.9289 56.89 79.7685 56.4704 79.4784 56.1459C79.0866 55.836 78.5907 55.6876 78.0926 55.7312H75.9754V58.9108Z" fill="#1DB4FF"/>
<path d="M82.8274 63.2919C82.7904 63.2945 82.7534 63.2889 82.7188 63.2756C82.6842 63.2624 82.6529 63.2417 82.6272 63.2151C82.5998 63.1881 82.5781 63.1558 82.5635 63.1201C82.549 63.0845 82.5418 63.0463 82.5425 63.0078V57.2001C82.5416 57.1201 82.572 57.043 82.6272 56.985C82.6522 56.957 82.6832 56.9349 82.7178 56.9203C82.7524 56.9057 82.7898 56.899 82.8274 56.9005H83.3971C83.4746 56.9016 83.5488 56.9318 83.605 56.985C83.6602 57.043 83.6906 57.1201 83.6897 57.2001V57.7377C83.8454 57.4634 84.0819 57.2435 84.3672 57.1079C84.6905 56.9605 85.0435 56.8895 85.3988 56.9005H85.8915C85.9291 56.899 85.9665 56.9057 86.0011 56.9203C86.0357 56.9349 86.0667 56.957 86.0917 56.985C86.1418 57.0394 86.1693 57.1108 86.1687 57.1847V57.6916C86.1687 57.7631 86.1412 57.8318 86.0917 57.8836C86.066 57.9102 86.0347 57.9308 86.0001 57.9441C85.9656 57.9574 85.9285 57.9629 85.8915 57.9604H85.1217C84.9302 57.9508 84.7388 57.9799 84.5589 58.0459C84.379 58.1119 84.2142 58.2134 84.0746 58.3444C83.9444 58.4857 83.844 58.6517 83.7792 58.8324C83.7144 59.0131 83.6866 59.2049 83.6974 59.3966V63.0062C83.6981 63.0447 83.6909 63.0829 83.6764 63.1186C83.6618 63.1542 83.6401 63.1866 83.6127 63.2136C83.5534 63.2659 83.4762 63.2934 83.3971 63.2904L82.8274 63.2919Z" fill="#1DB4FF"/>
<path d="M87.3708 55.7097C87.2968 55.7103 87.2252 55.6828 87.1707 55.6329C87.1432 55.6058 87.1215 55.5735 87.107 55.5379C87.0924 55.5022 87.0853 55.464 87.086 55.4255V54.765C87.0853 54.7265 87.0924 54.6883 87.107 54.6527C87.1215 54.617 87.1432 54.5847 87.1707 54.5577C87.1967 54.5315 87.228 54.5111 87.2625 54.4979C87.297 54.4846 87.3339 54.4788 87.3708 54.4809H88.1407C88.1776 54.4788 88.2146 54.4846 88.2491 54.4979C88.2836 54.5111 88.3149 54.5315 88.3409 54.5577C88.3684 54.5847 88.39 54.617 88.4046 54.6527C88.4191 54.6883 88.4263 54.7265 88.4256 54.765V55.4255C88.4263 55.464 88.4191 55.5022 88.4046 55.5379C88.39 55.5735 88.3684 55.6058 88.3409 55.6329C88.2863 55.6828 88.2148 55.7103 88.1407 55.7097H87.3708ZM87.4709 63.2915C87.434 63.294 87.3969 63.2885 87.3623 63.2752C87.3277 63.2619 87.2965 63.2413 87.2708 63.2147C87.2433 63.1877 87.2216 63.1553 87.2071 63.1197C87.1925 63.0841 87.1854 63.0458 87.1861 63.0073V57.1843C87.1855 57.1469 87.1928 57.1099 87.2073 57.0755C87.2219 57.0412 87.2435 57.0102 87.2708 56.9846C87.2958 56.9566 87.3267 56.9345 87.3613 56.9199C87.3959 56.9053 87.4334 56.8985 87.4709 56.9001H88.0637C88.1 56.8998 88.1359 56.9071 88.1691 56.9217C88.2023 56.9363 88.232 56.9577 88.2562 56.9846C88.2825 57.0106 88.3029 57.0418 88.3162 57.0762C88.3294 57.1106 88.3352 57.1474 88.3332 57.1843V63.0073C88.3354 63.0453 88.3296 63.0834 88.3164 63.119C88.3032 63.1547 88.2827 63.1873 88.2562 63.2147C88.2316 63.2406 88.2016 63.2609 88.1684 63.2741C88.1352 63.2874 88.0995 63.2933 88.0637 63.2915H87.4709Z" fill="#1DB4FF"/>
<path d="M90.5276 63.2915C90.4907 63.293 90.454 63.287 90.4195 63.2738C90.3851 63.2606 90.3538 63.2405 90.3274 63.2147C90.301 63.1873 90.2805 63.1547 90.2673 63.119C90.254 63.0833 90.2483 63.0453 90.2504 63.0073V57.1843C90.2484 57.1474 90.2542 57.1106 90.2675 57.0762C90.2808 57.0418 90.3012 57.0105 90.3274 56.9846C90.3534 56.9578 90.3845 56.9365 90.4189 56.9219C90.4533 56.9074 90.4903 56.9 90.5276 56.9001H91.1127C91.1501 56.9 91.1871 56.9074 91.2214 56.9219C91.2558 56.9365 91.287 56.9578 91.3129 56.9846C91.3391 57.0105 91.3596 57.0418 91.3728 57.0762C91.3861 57.1106 91.3919 57.1474 91.3899 57.1843V57.7219C91.6076 57.4413 91.8833 57.2108 92.1983 57.046C92.5875 56.8534 93.0189 56.761 93.4532 56.7772C93.9297 56.7611 94.4005 56.8839 94.8082 57.1305C95.1839 57.358 95.4798 57.6961 95.6551 58.0982C95.8543 58.553 95.9515 59.0458 95.9399 59.5421V63.0058C95.9421 63.0438 95.9363 63.0818 95.9231 63.1175C95.9098 63.1532 95.8894 63.1857 95.8629 63.2132C95.8383 63.2391 95.8083 63.2593 95.7751 63.2726C95.7419 63.2858 95.7062 63.2918 95.6704 63.29H95.0545C95.0203 63.2931 94.9857 63.2895 94.9528 63.2793C94.9199 63.2692 94.8894 63.2526 94.8629 63.2306C94.8365 63.2087 94.8146 63.1817 94.7986 63.1513C94.7826 63.1209 94.7728 63.0876 94.7697 63.0534C94.7681 63.0371 94.7681 63.0206 94.7697 63.0043V59.6035C94.7988 59.1188 94.6481 58.6404 94.3462 58.2595C94.1899 58.0925 93.9982 57.9624 93.7851 57.8787C93.572 57.795 93.3429 57.7598 93.1144 57.7756C92.8865 57.765 92.6589 57.8026 92.4466 57.886C92.2343 57.9694 92.0421 58.0967 91.8826 58.2595C91.5588 58.6302 91.393 59.1125 91.4207 59.6035V63.0058C91.4239 63.04 91.4202 63.0745 91.41 63.1073C91.3998 63.1401 91.3832 63.1706 91.3612 63.197C91.3392 63.2234 91.3122 63.2451 91.2817 63.2611C91.2512 63.2771 91.2178 63.2869 91.1836 63.29H90.5184L90.5276 63.2915Z" fill="#1DB4FF"/>
<path d="M100.16 63.2915C99.7688 63.3091 99.3799 63.2188 99.0364 63.0304C98.7494 62.8499 98.5302 62.5799 98.4128 62.2624C98.2737 61.8971 98.2058 61.5087 98.2126 61.118V57.8678H97.2503C97.2134 57.8694 97.1766 57.8633 97.1422 57.8501C97.1078 57.8369 97.0764 57.8168 97.0501 57.791C97.0236 57.7636 97.0032 57.731 96.9899 57.6953C96.9767 57.6597 96.9709 57.6216 96.9731 57.5836V57.1689C96.9711 57.1321 96.9769 57.0953 96.9902 57.0608C97.0034 57.0264 97.0239 56.9952 97.0501 56.9692C97.076 56.9424 97.1071 56.9211 97.1415 56.9066C97.1759 56.8921 97.2129 56.8847 97.2503 56.8848H98.228V54.8311C98.2274 54.7572 98.2549 54.6858 98.305 54.6314C98.3321 54.604 98.3645 54.5824 98.4003 54.5679C98.436 54.5534 98.4743 54.5462 98.5129 54.5469H99.0903C99.1289 54.5462 99.1672 54.5534 99.2029 54.5679C99.2387 54.5824 99.2711 54.604 99.2982 54.6314C99.3482 54.6858 99.3758 54.7572 99.3752 54.8311V56.8817H100.915C100.953 56.881 100.992 56.8881 101.028 56.9026C101.063 56.9172 101.096 56.9388 101.123 56.9662C101.149 56.9921 101.169 57.0234 101.183 57.0578C101.196 57.0922 101.202 57.129 101.2 57.1659V57.5806C101.203 57.6148 101.199 57.6493 101.189 57.6821C101.179 57.7149 101.162 57.7453 101.14 57.7717C101.118 57.7981 101.091 57.8199 101.061 57.8359C101.03 57.8519 100.997 57.8617 100.963 57.8647C100.946 57.8663 100.93 57.8663 100.913 57.8647H99.3736V61.0213C99.3529 61.3411 99.4222 61.6603 99.5738 61.9429C99.6509 62.0548 99.7563 62.1443 99.8794 62.2024C100.002 62.2604 100.139 62.2848 100.274 62.2731H101.044C101.079 62.27 101.113 62.2736 101.146 62.2838C101.179 62.2939 101.209 62.3105 101.236 62.3325C101.262 62.3544 101.284 62.3814 101.3 62.4118C101.316 62.4422 101.326 62.4755 101.329 62.5097C101.331 62.526 101.331 62.5425 101.329 62.5588V62.9966C101.332 63.0308 101.329 63.0653 101.318 63.0981C101.308 63.1309 101.292 63.1614 101.27 63.1878C101.248 63.2142 101.221 63.236 101.19 63.2519C101.16 63.2679 101.126 63.2777 101.092 63.2808H101.043L100.16 63.2915Z" fill="#1DB4FF"/>
<path d="M102.662 55.7104C102.586 55.7106 102.512 55.6833 102.455 55.6336C102.428 55.6062 102.408 55.5736 102.394 55.5379C102.381 55.5022 102.375 55.4642 102.378 55.4262V54.7657C102.374 54.7315 102.378 54.6971 102.388 54.6643C102.398 54.6315 102.415 54.601 102.437 54.5746C102.459 54.5482 102.486 54.5264 102.517 54.5104C102.547 54.4945 102.58 54.4847 102.615 54.4816H103.434C103.468 54.4784 103.503 54.482 103.536 54.4922C103.568 54.5024 103.599 54.5189 103.625 54.5409C103.652 54.5629 103.674 54.5898 103.69 54.6203C103.706 54.6507 103.716 54.6839 103.719 54.7181C103.72 54.7345 103.72 54.7509 103.719 54.7673V55.4278C103.721 55.4658 103.715 55.5038 103.702 55.5395C103.689 55.5751 103.668 55.6077 103.642 55.6351C103.584 55.6848 103.51 55.7121 103.434 55.7119L102.662 55.7104ZM102.755 63.2922C102.718 63.2938 102.681 63.2878 102.647 63.2745C102.612 63.2613 102.581 63.2412 102.555 63.2154C102.528 63.188 102.508 63.1554 102.494 63.1198C102.481 63.0841 102.476 63.046 102.478 63.0081V57.1865C102.476 57.1497 102.481 57.1129 102.495 57.0785C102.508 57.044 102.528 57.0128 102.555 56.9868C102.581 56.96 102.612 56.9387 102.646 56.9242C102.681 56.9097 102.717 56.9023 102.755 56.9024H103.348C103.385 56.9018 103.422 56.909 103.457 56.9236C103.491 56.9381 103.522 56.9597 103.548 56.9868C103.596 57.042 103.621 57.1135 103.617 57.1865V63.0096C103.62 63.0849 103.596 63.1587 103.548 63.217C103.522 63.2431 103.49 63.2635 103.456 63.2768C103.421 63.29 103.385 63.2958 103.348 63.2938L102.755 63.2922Z" fill="#1DB4FF"/>
<path d="M105.851 63.2915C105.814 63.2935 105.777 63.2877 105.743 63.2745C105.708 63.2613 105.677 63.2409 105.651 63.2147C105.624 63.1877 105.602 63.1553 105.587 63.1197C105.573 63.0841 105.566 63.0458 105.566 63.0073V57.1843C105.568 57.1095 105.599 57.0384 105.652 56.9855C105.705 56.9326 105.776 56.9021 105.851 56.9001H106.429C106.467 56.8994 106.506 56.9065 106.541 56.9211C106.577 56.9356 106.609 56.9572 106.637 56.9846C106.663 57.0106 106.683 57.0418 106.697 57.0762C106.71 57.1106 106.716 57.1475 106.714 57.1843V57.7219C106.92 57.4452 107.182 57.2149 107.483 57.046C107.87 56.8534 108.299 56.7609 108.731 56.7772C109.21 56.7596 109.684 56.8824 110.093 57.1305C110.467 57.3601 110.763 57.6975 110.94 58.0982C111.133 58.5548 111.228 59.0467 111.217 59.5421V63.0058C111.221 63.0811 111.196 63.1549 111.148 63.2132C111.122 63.2394 111.091 63.2597 111.056 63.273C111.022 63.2862 110.985 63.292 110.948 63.29H110.332C110.295 63.2915 110.258 63.2855 110.224 63.2723C110.19 63.2591 110.158 63.239 110.132 63.2132C110.105 63.1858 110.085 63.1532 110.072 63.1175C110.058 63.0818 110.053 63.0438 110.055 63.0058V59.6035C110.081 59.1192 109.93 58.6419 109.631 58.2595C109.475 58.0925 109.283 57.9625 109.07 57.8788C108.857 57.7951 108.628 57.7598 108.4 57.7756C108.172 57.7646 107.944 57.8021 107.732 57.8855C107.519 57.9689 107.327 58.0964 107.168 58.2595C106.844 58.6301 106.678 59.1125 106.706 59.6035V63.0058C106.707 63.0443 106.699 63.0825 106.685 63.1182C106.67 63.1538 106.649 63.1861 106.621 63.2132C106.595 63.2398 106.564 63.2604 106.53 63.2737C106.495 63.287 106.458 63.2925 106.421 63.29L105.851 63.2915Z" fill="#1DB4FF"/>
<path d="M115.66 65.9958C115.187 66.0145 114.716 65.9388 114.274 65.7731C113.962 65.6534 113.677 65.4733 113.435 65.2431C113.255 65.0601 113.109 64.8469 113.004 64.6134C112.932 64.455 112.885 64.2866 112.865 64.1142C112.861 64.076 112.866 64.0374 112.879 64.0014C112.892 63.9654 112.914 63.933 112.942 63.9068C112.998 63.8536 113.072 63.8234 113.15 63.8223H113.743C113.807 63.8212 113.871 63.8371 113.927 63.8684C113.986 63.9286 114.028 64.0026 114.051 64.0834C114.111 64.225 114.183 64.3611 114.266 64.4905C114.383 64.6589 114.543 64.7939 114.728 64.8822C114.997 65.0101 115.293 65.0683 115.59 65.0511C115.92 65.0588 116.249 65.0067 116.56 64.8975C116.82 64.7977 117.033 64.6064 117.161 64.3599C117.31 64.0217 117.378 63.6537 117.361 63.2847V62.4476C117.152 62.7118 116.89 62.929 116.591 63.085C116.215 63.2669 115.8 63.3539 115.383 63.3385C114.976 63.3483 114.573 63.2642 114.205 63.0927C113.887 62.9464 113.609 62.7249 113.396 62.4476C113.185 62.1626 113.026 61.8428 112.927 61.5029C112.824 61.1425 112.765 60.7713 112.75 60.397V59.7211C112.765 59.3468 112.824 58.9756 112.927 58.6152C113.026 58.2753 113.185 57.9555 113.396 57.6705C113.609 57.3888 113.886 57.1622 114.205 57.01C114.575 56.8449 114.977 56.7636 115.383 56.772C115.81 56.7574 116.234 56.8526 116.614 57.0484C116.911 57.2205 117.172 57.4472 117.384 57.7166V57.1944C117.381 57.1155 117.409 57.0385 117.461 56.9793C117.488 56.9519 117.521 56.9303 117.556 56.9158C117.592 56.9013 117.63 56.8941 117.669 56.8948H118.243C118.282 56.8941 118.32 56.9013 118.356 56.9158C118.392 56.9303 118.424 56.9519 118.451 56.9793C118.481 57.0069 118.504 57.0403 118.52 57.0773C118.536 57.1143 118.544 57.1541 118.544 57.1944V63.1557C118.553 63.6559 118.459 64.1527 118.267 64.6149C118.076 65.0414 117.752 65.3946 117.343 65.621C116.82 65.8889 116.236 66.016 115.649 65.9897M115.649 62.3569C116.002 62.373 116.351 62.2732 116.642 62.0728C116.889 61.89 117.081 61.6429 117.196 61.3585C117.317 61.0821 117.383 60.7846 117.389 60.483V59.6382C117.38 59.3369 117.315 59.0399 117.196 58.7626C117.083 58.4793 116.89 58.2342 116.642 58.0561C116.354 57.8501 116.003 57.7497 115.649 57.7719C115.299 57.7545 114.953 57.8516 114.663 58.0484C114.418 58.2287 114.235 58.4811 114.14 58.7703C114.03 59.0818 113.968 59.408 113.955 59.738V60.3908C113.968 60.7182 114.031 61.0419 114.14 61.3508C114.235 61.6421 114.418 61.8969 114.663 62.0805C114.944 62.2709 115.279 62.3677 115.618 62.3569H115.649Z" fill="#1DB4FF"/>
<path d="M126.34 63.4148C125.723 63.4332 125.11 63.3234 124.538 63.0922C124.097 62.9106 123.712 62.6166 123.422 62.2397C123.176 61.9209 123.034 61.5351 123.014 61.1338C123.014 61.0989 123.021 61.0644 123.035 61.0323C123.048 61.0002 123.068 60.9711 123.094 60.9468C123.119 60.9225 123.148 60.9034 123.181 60.8907C123.213 60.878 123.248 60.8718 123.283 60.8726H123.914C123.954 60.8694 123.993 60.8745 124.031 60.8878C124.068 60.901 124.102 60.922 124.13 60.9494C124.182 60.9927 124.217 61.0523 124.23 61.1184C124.287 61.3338 124.392 61.5335 124.538 61.7021C124.722 61.9126 124.955 62.0759 125.216 62.1783C125.575 62.3195 125.961 62.3849 126.347 62.3703C126.887 62.4097 127.426 62.278 127.887 61.9939C128.046 61.881 128.175 61.7309 128.262 61.5569C128.349 61.3828 128.392 61.1901 128.387 60.9955C128.394 60.8685 128.374 60.7416 128.329 60.6226C128.284 60.5036 128.215 60.3953 128.126 60.3043C127.892 60.0922 127.617 59.9302 127.317 59.8281C126.955 59.6899 126.486 59.5363 125.908 59.3673C125.396 59.2252 124.899 59.0349 124.423 58.799C124.064 58.6264 123.758 58.3612 123.537 58.031C123.334 57.6819 123.235 57.2822 123.252 56.879C123.245 56.4553 123.369 56.0397 123.606 55.6885C123.869 55.3244 124.226 55.0379 124.638 54.8591C125.154 54.6434 125.711 54.5387 126.27 54.5519C126.723 54.5425 127.174 54.6127 127.602 54.7592C127.953 54.8737 128.277 55.0564 128.557 55.2969C128.795 55.4994 128.993 55.7442 129.142 56.0188C129.267 56.2564 129.338 56.5187 129.35 56.7868C129.347 56.8457 129.325 56.9021 129.288 56.9481C129.264 56.9766 129.233 56.999 129.198 57.0137C129.163 57.0283 129.126 57.0348 129.088 57.0326H128.434C128.371 57.032 128.309 57.0133 128.257 56.9788C128.188 56.9376 128.138 56.8715 128.118 56.7945C128.087 56.6219 128.021 56.4576 127.923 56.3121C127.824 56.1666 127.697 56.0432 127.548 55.9497C127.169 55.7047 126.722 55.5839 126.27 55.6041C125.816 55.5819 125.365 55.6884 124.969 55.9113C124.806 56.0109 124.674 56.153 124.586 56.3221C124.497 56.4912 124.457 56.681 124.469 56.8713C124.459 57.1233 124.544 57.3699 124.707 57.5625C124.922 57.7847 125.185 57.9532 125.477 58.054C125.907 58.2256 126.347 58.3718 126.794 58.4918C127.347 58.6347 127.885 58.8275 128.403 59.0678C128.779 59.2326 129.101 59.4985 129.334 59.8358C129.55 60.1805 129.657 60.5818 129.642 60.9878C129.656 61.4599 129.516 61.9236 129.242 62.3088C128.946 62.6869 128.552 62.9765 128.103 63.1459C127.542 63.3412 126.949 63.4298 126.355 63.4071" fill="#1DB4FF"/>
<path d="M133.693 63.4149C133.158 63.4327 132.627 63.3109 132.154 63.0616C131.742 62.8328 131.408 62.4882 131.191 62.0708C130.962 61.623 130.836 61.1297 130.822 60.627V59.5671C130.833 59.063 130.962 58.5685 131.199 58.1233C131.403 57.7168 131.718 57.3761 132.107 57.1402C132.587 56.9078 133.114 56.7871 133.647 56.7871C134.181 56.7871 134.707 56.9078 135.187 57.1402C135.597 57.3678 135.931 57.7094 136.149 58.1233C136.384 58.5697 136.513 59.0635 136.527 59.5671V60.627C136.513 61.1297 136.386 61.623 136.157 62.0708C135.941 62.4882 135.606 62.8328 135.195 63.0616C134.732 63.3045 134.216 63.4261 133.693 63.4149ZM133.693 62.4702C133.919 62.4806 134.144 62.4428 134.354 62.3594C134.564 62.2759 134.753 62.1488 134.91 61.9864C135.244 61.5894 135.419 61.0835 135.403 60.5655V59.6286C135.419 59.113 135.243 58.6097 134.91 58.2154C134.756 58.0492 134.567 57.9189 134.357 57.8339C134.146 57.7489 133.92 57.7114 133.693 57.7239C133.465 57.7129 133.236 57.751 133.024 57.8359C132.811 57.9207 132.62 58.0501 132.462 58.2154C132.127 58.6084 131.954 59.1133 131.977 59.6286V60.5655C131.954 61.0831 132.127 61.5902 132.462 61.9864C132.621 62.1495 132.813 62.277 133.025 62.3604C133.238 62.4438 133.465 62.4812 133.693 62.4702Z" fill="#1DB4FF"/>
<path d="M138.435 63.2918C138.398 63.2943 138.361 63.2888 138.326 63.2755C138.292 63.2622 138.26 63.2416 138.235 63.215C138.207 63.188 138.186 63.1557 138.171 63.12C138.156 63.0844 138.149 63.0461 138.15 63.0076V54.8498C138.149 54.8125 138.157 54.7755 138.171 54.7411C138.186 54.7067 138.207 54.6757 138.235 54.6501C138.26 54.6222 138.291 54.6001 138.325 54.5855C138.36 54.5708 138.397 54.5641 138.435 54.5657H139.035C139.072 54.5646 139.108 54.5708 139.142 54.5837C139.176 54.5967 139.207 54.6162 139.234 54.6412C139.26 54.6661 139.281 54.696 139.296 54.7292C139.311 54.7624 139.319 54.7981 139.32 54.8344V63.0076C139.322 63.0456 139.317 63.0837 139.303 63.1193C139.29 63.155 139.27 63.1876 139.243 63.215C139.217 63.2427 139.184 63.2641 139.148 63.2774C139.112 63.2907 139.074 63.2956 139.035 63.2918H138.435Z" fill="#1DB4FF"/>
<path d="M143.533 63.4174C143.062 63.4328 142.597 63.3128 142.193 63.0718C141.821 62.8224 141.529 62.4701 141.354 62.0581C141.159 61.6048 141.062 61.1153 141.069 60.6219V57.1535C141.071 57.0788 141.102 57.0076 141.155 56.9547C141.208 56.9019 141.279 56.8713 141.354 56.8694H141.97C142.048 56.8695 142.122 56.8998 142.178 56.9538C142.228 57.0083 142.256 57.0796 142.255 57.1535V60.5558C142.255 61.7846 142.786 62.3991 143.856 62.3991C144.085 62.4101 144.313 62.3719 144.526 62.2871C144.738 62.2023 144.93 62.0728 145.088 61.9075C145.414 61.538 145.58 61.0548 145.55 60.5635V57.1535C145.549 57.1162 145.557 57.0792 145.571 57.0448C145.586 57.0104 145.607 56.9794 145.635 56.9538C145.66 56.9259 145.691 56.9038 145.725 56.8892C145.76 56.8746 145.797 56.8678 145.835 56.8694H146.435C146.472 56.8683 146.508 56.8745 146.542 56.8874C146.576 56.9004 146.607 56.9199 146.634 56.9449C146.66 56.9698 146.681 56.9998 146.696 57.0329C146.711 57.0661 146.719 57.1018 146.72 57.1382V62.9751C146.722 63.0131 146.717 63.0511 146.703 63.0868C146.69 63.1224 146.67 63.155 146.643 63.1824C146.617 63.2102 146.584 63.2315 146.548 63.2448C146.512 63.2581 146.474 63.263 146.435 63.2592H145.873C145.839 63.2624 145.805 63.2588 145.772 63.2486C145.739 63.2384 145.708 63.2219 145.682 63.1999C145.655 63.1779 145.633 63.151 145.617 63.1206C145.601 63.0901 145.592 63.0569 145.589 63.0227C145.587 63.0063 145.587 62.9899 145.589 62.9735V62.4359C145.368 62.718 145.093 62.953 144.78 63.1271C144.396 63.3214 143.971 63.4189 143.541 63.4113" fill="#1DB4FF"/>
<path d="M151.056 63.2915C150.667 63.3103 150.28 63.2198 149.94 63.0304C149.65 62.8512 149.428 62.5811 149.309 62.2624C149.172 61.8966 149.107 61.5082 149.116 61.118V57.8678H148.154C148.119 57.871 148.085 57.8674 148.052 57.8572C148.019 57.847 147.989 57.8305 147.962 57.8085C147.936 57.7865 147.914 57.7596 147.898 57.7291C147.882 57.6987 147.872 57.6655 147.869 57.6313C147.867 57.6149 147.867 57.5985 147.869 57.5821V57.1674C147.867 57.1306 147.873 57.0937 147.886 57.0593C147.899 57.0249 147.92 56.9937 147.946 56.9677C147.973 56.9403 148.005 56.9187 148.041 56.9042C148.077 56.8897 148.115 56.8825 148.154 56.8832H149.116V54.8311C149.114 54.7943 149.12 54.7574 149.133 54.723C149.146 54.6886 149.167 54.6574 149.193 54.6314C149.219 54.6046 149.25 54.5833 149.285 54.5688C149.319 54.5543 149.356 54.5468 149.393 54.5469H149.971C150.009 54.5462 150.048 54.5534 150.083 54.5679C150.119 54.5824 150.151 54.604 150.179 54.6314C150.205 54.6574 150.225 54.6886 150.238 54.723C150.252 54.7574 150.258 54.7943 150.256 54.8311V56.8817H151.795C151.833 56.8816 151.87 56.889 151.904 56.9035C151.938 56.9181 151.97 56.9393 151.995 56.9662C152.022 56.9921 152.042 57.0234 152.055 57.0578C152.069 57.0922 152.074 57.129 152.072 57.1659V57.5806C152.075 57.6186 152.069 57.6566 152.056 57.6923C152.042 57.7279 152.022 57.7605 151.995 57.7879C151.969 57.8137 151.938 57.8339 151.903 57.8471C151.869 57.8603 151.832 57.8663 151.795 57.8647H150.256V61.0213C150.239 61.3408 150.308 61.659 150.456 61.9429C150.533 62.0548 150.638 62.1443 150.761 62.2024C150.884 62.2604 151.021 62.2848 151.156 62.2731H151.926C151.963 62.2716 152 62.2776 152.034 62.2908C152.069 62.304 152.1 62.3242 152.126 62.3499C152.154 62.377 152.175 62.4093 152.19 62.4449C152.205 62.4806 152.212 62.5188 152.211 62.5573V62.9951C152.212 63.0336 152.205 63.0718 152.19 63.1074C152.175 63.1431 152.154 63.1754 152.126 63.2024C152.1 63.2282 152.069 63.2483 152.034 63.2616C152 63.2748 151.963 63.2808 151.926 63.2792L151.056 63.2915Z" fill="#1DB4FF"/>
<path d="M153.553 55.7097C153.479 55.7103 153.408 55.6828 153.353 55.6329C153.326 55.6058 153.304 55.5735 153.29 55.5379C153.275 55.5022 153.268 55.464 153.269 55.4255V54.765C153.268 54.7265 153.275 54.6883 153.29 54.6527C153.304 54.617 153.326 54.5847 153.353 54.5577C153.379 54.5315 153.411 54.5111 153.445 54.4979C153.48 54.4846 153.517 54.4788 153.553 54.4809H154.323C154.36 54.4788 154.397 54.4846 154.432 54.4979C154.466 54.5111 154.497 54.5315 154.524 54.5577C154.551 54.5847 154.573 54.617 154.587 54.6527C154.602 54.6883 154.609 54.7265 154.608 54.765V55.4255C154.609 55.464 154.602 55.5022 154.587 55.5379C154.573 55.5735 154.551 55.6058 154.524 55.6329C154.469 55.6828 154.397 55.7103 154.323 55.7097H153.553ZM153.654 63.2915C153.615 63.2937 153.577 63.288 153.542 63.2747C153.506 63.2615 153.473 63.2411 153.446 63.2147C153.396 63.1571 153.369 63.0834 153.369 63.0073V57.1843C153.368 57.1104 153.396 57.039 153.446 56.9846C153.473 56.9572 153.505 56.9356 153.541 56.9211C153.577 56.9065 153.615 56.8994 153.654 56.9001H154.246C154.283 56.8998 154.319 56.9071 154.352 56.9217C154.385 56.9363 154.415 56.9577 154.439 56.9846C154.465 57.0106 154.486 57.0418 154.499 57.0762C154.512 57.1106 154.518 57.1474 154.516 57.1843V63.0073C154.518 63.0453 154.512 63.0834 154.499 63.119C154.486 63.1547 154.465 63.1873 154.439 63.2147C154.414 63.2406 154.384 63.2609 154.351 63.2741C154.318 63.2874 154.282 63.2933 154.246 63.2915H153.654Z" fill="#1DB4FF"/>
<path d="M158.989 63.4147C158.454 63.429 157.924 63.3074 157.449 63.0614C157.04 62.8326 156.708 62.4878 156.495 62.0707C156.265 61.6228 156.139 61.1295 156.125 60.6268V59.567C156.137 59.064 156.263 58.5702 156.495 58.1231C156.718 57.7106 157.055 57.3697 157.465 57.14C157.944 56.9059 158.471 56.7842 159.004 56.7842C159.538 56.7842 160.065 56.9059 160.544 57.14C160.956 57.3676 161.293 57.709 161.514 58.1231C161.745 58.5709 161.873 59.0639 161.891 59.567V60.6268C161.87 61.1285 161.744 61.6202 161.522 62.0707C161.304 62.4866 160.969 62.8307 160.56 63.0614C160.076 63.3138 159.534 63.4356 158.989 63.4147ZM158.989 62.4701C159.215 62.4805 159.44 62.4427 159.65 62.3592C159.859 62.2758 160.049 62.1486 160.205 61.9862C160.536 61.5872 160.711 61.0827 160.698 60.5654V59.6284C160.711 59.1134 160.535 58.6114 160.205 58.2153C160.051 58.049 159.863 57.9187 159.652 57.8337C159.442 57.7488 159.216 57.7112 158.989 57.7237C158.76 57.7126 158.532 57.7507 158.319 57.8355C158.107 57.9204 157.915 58.0499 157.757 58.2153C157.422 58.6083 157.249 59.1131 157.272 59.6284V60.5654C157.25 61.0829 157.423 61.59 157.757 61.9862C157.917 62.149 158.109 62.2763 158.321 62.3597C158.533 62.4431 158.761 62.4807 158.989 62.4701Z" fill="#1DB4FF"/>
<path d="M163.718 63.2915C163.681 63.2935 163.644 63.2877 163.609 63.2745C163.575 63.2613 163.543 63.2409 163.517 63.2147C163.49 63.1877 163.468 63.1553 163.454 63.1197C163.439 63.0841 163.432 63.0458 163.433 63.0073V57.1843C163.435 57.1095 163.465 57.0384 163.518 56.9855C163.571 56.9326 163.643 56.9021 163.718 56.9001H164.295C164.334 56.8994 164.372 56.9065 164.408 56.9211C164.443 56.9356 164.476 56.9572 164.503 56.9846C164.529 57.0106 164.549 57.0418 164.563 57.0762C164.576 57.1106 164.582 57.1475 164.58 57.1843V57.7219C164.798 57.4413 165.073 57.2108 165.388 57.046C165.775 56.8534 166.204 56.7609 166.635 56.7772C167.114 56.7612 167.588 56.8839 167.998 57.1305C168.37 57.3624 168.665 57.6992 168.845 58.0982C169.038 58.5549 169.132 59.0467 169.122 59.5421V63.0058C169.125 63.0811 169.101 63.1549 169.053 63.2132C169.027 63.2394 168.996 63.2597 168.961 63.273C168.927 63.2862 168.89 63.292 168.853 63.29H168.237C168.2 63.2915 168.163 63.2855 168.129 63.2723C168.094 63.2591 168.063 63.239 168.037 63.2132C168.009 63.1861 167.987 63.1538 167.973 63.1182C167.958 63.0825 167.951 63.0443 167.952 63.0058V59.6035C167.98 59.1202 167.832 58.643 167.536 58.2595C167.38 58.0925 167.188 57.9625 166.975 57.8788C166.762 57.7951 166.533 57.7598 166.304 57.7756C166.076 57.7646 165.849 57.8021 165.636 57.8855C165.424 57.9689 165.232 58.0964 165.073 58.2595C164.749 58.6301 164.583 59.1125 164.611 59.6035V63.0058C164.611 63.0443 164.604 63.0825 164.59 63.1182C164.575 63.1538 164.553 63.1861 164.526 63.2132C164.5 63.2394 164.469 63.2597 164.434 63.273C164.4 63.2862 164.363 63.292 164.326 63.29L163.718 63.2915Z" fill="#1DB4FF"/>
<path d="M173.12 63.4152C172.718 63.4253 172.317 63.3682 171.934 63.2462C171.656 63.1482 171.396 63.0055 171.164 62.8238C170.983 62.6882 170.826 62.5218 170.702 62.3323C170.62 62.2154 170.564 62.0816 170.541 61.9406C170.533 61.9016 170.537 61.8613 170.552 61.8245C170.567 61.7878 170.593 61.7561 170.625 61.7332C170.68 61.6879 170.747 61.661 170.818 61.6564H171.364C171.402 61.6473 171.442 61.6473 171.48 61.6564C171.526 61.6795 171.566 61.7138 171.595 61.7563C171.703 61.8715 171.826 61.9867 171.957 62.1019C172.101 62.2239 172.265 62.3201 172.442 62.3861C172.672 62.4661 172.915 62.5026 173.158 62.4936C173.52 62.5094 173.879 62.4271 174.198 62.2555C174.298 62.1978 174.385 62.1193 174.453 62.0253C174.52 61.9313 174.567 61.824 174.59 61.7105C174.612 61.597 174.61 61.48 174.584 61.3674C174.557 61.2547 174.507 61.149 174.436 61.0574C174.268 60.9012 174.065 60.7879 173.843 60.7271C173.462 60.6025 173.074 60.4999 172.681 60.4199C172.27 60.3396 171.873 60.1988 171.503 60.0021C171.243 59.8607 171.029 59.6474 170.887 59.3877C170.752 59.1272 170.689 58.8358 170.704 58.543C170.719 58.2503 170.811 57.9668 170.972 57.7211C171.165 57.427 171.43 57.1865 171.742 57.0222C172.153 56.831 172.604 56.7389 173.058 56.7534C173.429 56.745 173.799 56.7995 174.151 56.9147C174.43 57.0016 174.69 57.1368 174.921 57.3141C175.094 57.4466 175.242 57.6077 175.36 57.7903C175.445 57.9059 175.5 58.0403 175.522 58.1819C175.526 58.2183 175.523 58.2552 175.511 58.2899C175.499 58.3245 175.479 58.3559 175.452 58.3816C175.399 58.4345 175.327 58.4648 175.252 58.4661H174.736C174.686 58.4806 174.633 58.4806 174.583 58.4661L174.482 58.3816C174.393 58.2668 174.296 58.159 174.19 58.0591C174.065 57.9436 173.919 57.8547 173.759 57.7979C173.536 57.7202 173.301 57.6837 173.066 57.6904C172.736 57.664 172.409 57.7567 172.142 57.9515C172.042 58.0261 171.962 58.1238 171.908 58.2362C171.855 58.3486 171.829 58.4723 171.834 58.5967C171.832 58.7477 171.878 58.8954 171.965 59.0191C172.107 59.1729 172.288 59.2868 172.488 59.3493C172.858 59.4828 173.236 59.5906 173.62 59.6719C174.068 59.7406 174.5 59.8861 174.898 60.102C175.167 60.2331 175.392 60.4394 175.545 60.6958C175.698 60.9522 175.773 61.2476 175.76 61.5458C175.759 61.8875 175.652 62.2203 175.452 62.4982C175.229 62.804 174.921 63.0388 174.567 63.174C174.098 63.3531 173.598 63.4342 173.097 63.4121" fill="#1DB4FF"/>
<path d="M96.5419 15.5604C96.4716 15.5636 96.4014 15.5516 96.3363 15.525C96.2712 15.4985 96.2126 15.4582 96.1646 15.4068C96.0766 15.3074 96.0299 15.1784 96.0337 15.0458V0.690137C96.0276 0.549886 96.0731 0.412238 96.1615 0.303058C96.2117 0.255638 96.271 0.21892 96.3359 0.19515C96.4007 0.171381 96.4698 0.161059 96.5388 0.164816H105.648C105.717 0.161059 105.786 0.171381 105.851 0.19515C105.916 0.21892 105.975 0.255638 106.025 0.303058C106.116 0.413002 106.163 0.552535 106.156 0.694745V1.5242C106.164 1.66194 106.117 1.79717 106.025 1.90053C105.921 1.99119 105.786 2.038 105.648 2.03109H98.1478V6.84193H105.155C105.225 6.84027 105.295 6.85305 105.36 6.87948C105.425 6.90591 105.484 6.94542 105.533 6.99553C105.622 7.10312 105.669 7.23983 105.663 7.37953V8.19363C105.666 8.32831 105.62 8.4594 105.533 8.56227C105.482 8.6097 105.423 8.64641 105.358 8.67018C105.293 8.69395 105.224 8.70428 105.155 8.70052H98.1478V13.6665H105.847C105.915 13.6606 105.984 13.6697 106.048 13.6931C106.112 13.7165 106.171 13.7537 106.219 13.802C106.267 13.8503 106.305 13.9085 106.328 13.9727C106.352 14.0368 106.361 14.1053 106.355 14.1734V15.0336C106.359 15.1661 106.312 15.2951 106.224 15.3945C106.176 15.4459 106.117 15.4862 106.052 15.5128C105.987 15.5393 105.917 15.5513 105.847 15.5481L96.5419 15.5604Z" fill="white"/>
<path d="M109.624 15.5598C109.555 15.5609 109.487 15.5479 109.423 15.5214C109.359 15.495 109.302 15.4558 109.254 15.4062C109.208 15.3585 109.172 15.3019 109.148 15.2399C109.124 15.1778 109.113 15.1116 109.116 15.0452V4.62172C109.113 4.55531 109.124 4.48905 109.148 4.42698C109.171 4.36491 109.208 4.30835 109.254 4.26075C109.353 4.16343 109.485 4.10832 109.624 4.10715H110.655C110.794 4.10832 110.927 4.16343 111.025 4.26075C111.071 4.30835 111.108 4.36491 111.132 4.42698C111.155 4.48905 111.166 4.55531 111.164 4.62172V5.58941C111.552 5.08127 112.046 4.66224 112.611 4.36059C113.306 4.0194 114.077 3.85829 114.851 3.8921C115.705 3.86609 116.548 4.08177 117.284 4.5142C117.962 4.92674 118.499 5.53458 118.824 6.25759C119.178 7.0711 119.351 7.95143 119.332 8.83811V15.0452C119.336 15.1111 119.327 15.1771 119.304 15.2392C119.282 15.3013 119.247 15.3581 119.201 15.4062C119.157 15.4565 119.103 15.4964 119.042 15.523C118.98 15.5496 118.914 15.5621 118.847 15.5598H117.746C117.68 15.5608 117.615 15.5489 117.554 15.5247C117.493 15.5006 117.437 15.4646 117.39 15.419C117.343 15.3734 117.305 15.3189 117.279 15.2587C117.253 15.1985 117.239 15.1338 117.238 15.0682V8.95485C117.28 8.08716 117.007 7.23343 116.468 6.55097C116.188 6.25081 115.844 6.01705 115.462 5.86686C115.08 5.71668 114.668 5.65389 114.258 5.68311C113.856 5.6682 113.455 5.73774 113.081 5.88723C112.707 6.03672 112.368 6.26284 112.087 6.55097C111.509 7.21413 111.213 8.07697 111.264 8.95485V15.0544C111.264 15.1218 111.25 15.1886 111.224 15.2506C111.197 15.3127 111.158 15.3687 111.11 15.4154C111.064 15.466 111.008 15.506 110.946 15.5325C110.883 15.5591 110.816 15.5715 110.748 15.569L109.624 15.5598Z" fill="white"/>
<path d="M127.18 20.3997C126.342 20.4283 125.505 20.2953 124.717 20.008C124.155 19.7922 123.644 19.4627 123.216 19.0403C122.89 18.7184 122.629 18.3379 122.446 17.919C122.316 17.6362 122.228 17.3361 122.184 17.0281C122.179 16.9578 122.19 16.8873 122.217 16.8221C122.244 16.7568 122.285 16.6986 122.338 16.6518C122.437 16.5559 122.569 16.5011 122.707 16.4982H123.762C123.879 16.4944 123.995 16.5266 124.093 16.5903C124.206 16.6858 124.284 16.8152 124.317 16.959C124.418 17.2288 124.55 17.4865 124.709 17.727C124.916 18.0281 125.197 18.2714 125.525 18.4336C126.006 18.6586 126.534 18.764 127.065 18.7408C127.657 18.7568 128.247 18.6631 128.805 18.4643C129.269 18.2893 129.653 17.9504 129.883 17.5119C130.151 16.9139 130.275 16.2616 130.245 15.6073V14.0712C129.869 14.5446 129.397 14.9322 128.859 15.2079C128.184 15.5287 127.442 15.6816 126.695 15.6533C125.966 15.6759 125.241 15.5286 124.578 15.2233C124.011 14.9558 123.515 14.5584 123.131 14.0636C122.75 13.5571 122.468 12.984 122.299 12.3739C122.113 11.7286 122.005 11.0634 121.976 10.3925V9.17592C122.005 8.50495 122.113 7.83977 122.299 7.19444C122.471 6.5854 122.753 6.01278 123.131 5.50482C123.512 5.00321 124.009 4.60023 124.578 4.32976C125.241 4.02441 125.966 3.87716 126.695 3.89967C127.457 3.87068 128.213 4.04008 128.89 4.3912C129.437 4.69541 129.921 5.10222 130.314 5.5893V4.64464C130.312 4.50637 130.361 4.3722 130.453 4.26831C130.5 4.21834 130.557 4.17884 130.621 4.15239C130.685 4.12593 130.753 4.11309 130.822 4.11471H131.831C131.901 4.11395 131.97 4.12714 132.035 4.15352C132.1 4.1799 132.158 4.21893 132.208 4.26831C132.306 4.36891 132.362 4.50396 132.362 4.64464V15.3139C132.38 16.2114 132.212 17.1029 131.869 17.9328C131.539 18.6972 130.965 19.3316 130.237 19.7376C129.293 20.2187 128.24 20.4463 127.18 20.3981M127.134 13.8838C127.767 13.9154 128.392 13.7372 128.913 13.377C129.349 13.0543 129.691 12.6224 129.906 12.1251C130.108 11.6368 130.223 11.1169 130.245 10.5891V9.05304C130.223 8.5251 130.109 8.00508 129.906 7.51701C129.695 7.01131 129.352 6.57114 128.913 6.24211C128.38 5.91534 127.767 5.74233 127.142 5.74233C126.517 5.74233 125.904 5.91534 125.371 6.24211C124.938 6.5501 124.604 6.97699 124.409 7.47093C124.214 8.02761 124.103 8.60986 124.078 9.19896V10.3663C124.099 10.9658 124.211 11.5586 124.409 12.1251C124.588 12.6422 124.918 13.0942 125.356 13.423C125.882 13.7676 126.507 13.9301 127.134 13.8854V13.8838Z" fill="white"/>
<path d="M136.163 15.5604C136.098 15.5614 136.032 15.5495 135.971 15.5253C135.91 15.5012 135.854 15.4653 135.807 15.4196C135.76 15.374 135.722 15.3195 135.696 15.2593C135.67 15.1991 135.656 15.1344 135.655 15.0688V4.64229C135.655 4.50145 135.71 4.3661 135.809 4.26597C135.855 4.21627 135.911 4.17688 135.974 4.1504C136.036 4.12392 136.103 4.11096 136.171 4.11236H137.18C137.25 4.1116 137.319 4.12479 137.384 4.15117C137.449 4.17755 137.507 4.21658 137.557 4.26597C137.655 4.36657 137.711 4.50162 137.711 4.64229V5.60999C137.994 5.12298 138.418 4.7323 138.927 4.48869C139.507 4.22694 140.139 4.09834 140.775 4.11236H141.66C141.727 4.1125 141.792 4.1262 141.853 4.15262C141.914 4.17903 141.969 4.21761 142.015 4.26597C142.103 4.36535 142.149 4.4944 142.145 4.62693V5.53319C142.148 5.59664 142.138 5.65999 142.116 5.71941C142.093 5.77882 142.059 5.83305 142.015 5.8788C141.968 5.92474 141.913 5.96071 141.852 5.98449C141.791 6.00827 141.726 6.01934 141.66 6.01704H140.336C139.994 5.998 139.651 6.04955 139.329 6.16847C139.007 6.28738 138.713 6.47112 138.465 6.70825C138.23 6.95935 138.047 7.25557 137.929 7.57899C137.812 7.90242 137.761 8.24632 137.78 8.58988V15.0581C137.782 15.1257 137.769 15.1929 137.742 15.2551C137.716 15.3174 137.676 15.3733 137.626 15.4191C137.526 15.5181 137.39 15.5733 137.249 15.5727L136.163 15.5604Z" fill="white"/>
<path d="M147.054 15.7823C146.359 15.7898 145.672 15.6373 145.045 15.3369C144.469 15.0685 143.97 14.6621 143.59 14.1542C143.223 13.6644 143.029 13.068 143.036 12.4568C143.024 11.9825 143.131 11.5128 143.348 11.0904C143.564 10.6679 143.883 10.306 144.275 10.0376C145.239 9.3826 146.349 8.97382 147.509 8.84718L150.796 8.38637V7.74739C150.813 7.44465 150.767 7.14165 150.661 6.85747C150.555 6.57329 150.391 6.31408 150.18 6.09616C149.624 5.65227 148.918 5.44032 148.209 5.50479C147.649 5.4795 147.093 5.61546 146.608 5.89647C146.226 6.13751 145.93 6.49214 145.761 6.91025C145.732 7.00878 145.671 7.09479 145.587 7.15463C145.503 7.21446 145.402 7.24468 145.299 7.2405H144.306C144.239 7.24605 144.172 7.2365 144.109 7.21257C144.046 7.18864 143.99 7.15093 143.944 7.10226C143.862 7.00621 143.818 6.88308 143.821 6.75665C143.84 6.46913 143.927 6.19022 144.075 5.94255C144.273 5.58424 144.534 5.26428 144.845 4.9979C145.25 4.66719 145.708 4.40749 146.2 4.22989C146.85 4.0052 147.536 3.89856 148.225 3.915C148.98 3.8966 149.733 4.01099 150.45 4.25293C150.991 4.44337 151.479 4.75924 151.874 5.17454C152.222 5.54619 152.485 5.98913 152.644 6.47248C152.797 6.9491 152.875 7.44657 152.875 7.94707V15.0758C152.877 15.1422 152.866 15.2084 152.843 15.2705C152.819 15.3325 152.783 15.3891 152.736 15.4367C152.688 15.4864 152.631 15.5257 152.567 15.5521C152.504 15.5786 152.435 15.5916 152.367 15.5903H151.35C151.281 15.594 151.212 15.5821 151.148 15.5556C151.084 15.529 151.027 15.4884 150.981 15.4367C150.935 15.3887 150.9 15.3318 150.878 15.2698C150.855 15.2077 150.846 15.1417 150.85 15.0758V14.1158C150.627 14.403 150.368 14.661 150.08 14.8838C149.715 15.1613 149.307 15.3767 148.871 15.5212C148.283 15.7135 147.666 15.8043 147.047 15.79M147.509 14.1388C148.083 14.1439 148.651 14.0122 149.164 13.7548C149.673 13.4857 150.085 13.064 150.342 12.549C150.65 11.913 150.798 11.2119 150.773 10.5061V9.89168L148.217 10.268C147.384 10.3573 146.579 10.6189 145.853 11.036C145.658 11.1499 145.49 11.3049 145.361 11.4902C145.232 11.6755 145.145 11.8866 145.106 12.1089C145.067 12.3312 145.077 12.5593 145.136 12.7772C145.195 12.9951 145.3 13.1977 145.445 13.3708C145.697 13.6533 146.018 13.8651 146.377 13.9852C146.74 14.1011 147.12 14.1556 147.501 14.1465L147.509 14.1388Z" fill="white"/>
<path d="M159.828 15.5603C159.643 15.5727 159.46 15.5182 159.312 15.4067C159.181 15.2983 159.076 15.1618 159.004 15.0074L154.929 4.79586C154.917 4.72207 154.917 4.64693 154.929 4.57314C154.926 4.51201 154.936 4.45102 154.959 4.39413C154.981 4.33723 155.016 4.2857 155.059 4.24289C155.103 4.20037 155.155 4.16693 155.212 4.14452C155.269 4.12211 155.329 4.11117 155.391 4.11233H156.453C156.589 4.1053 156.722 4.15226 156.822 4.24289C156.897 4.30764 156.951 4.39323 156.976 4.48865L160.349 13.1611L163.675 4.48865C163.715 4.39888 163.77 4.31597 163.836 4.24289C163.886 4.19736 163.944 4.16232 164.008 4.13988C164.071 4.11744 164.138 4.10807 164.206 4.11233H165.214C165.334 4.11534 165.449 4.16173 165.538 4.24289C165.582 4.28532 165.618 4.3366 165.642 4.39346C165.666 4.45032 165.677 4.51151 165.676 4.57314C165.676 4.64977 165.661 4.72561 165.63 4.79586L161.534 15.0043C161.479 15.1595 161.383 15.2973 161.257 15.4037C161.1 15.5144 160.91 15.5686 160.718 15.5573L159.828 15.5603Z" fill="white"/>
<path d="M172.149 15.7825C171.483 15.8136 170.817 15.7053 170.195 15.4646C169.574 15.2238 169.009 14.856 168.538 14.3847C167.586 13.3313 167.059 11.9631 167.06 10.5447V9.00864C167.096 8.05275 167.343 7.11659 167.784 6.26683C168.189 5.51168 168.797 4.88404 169.539 4.45432C170.339 4.012 171.243 3.79186 172.157 3.81687C173.143 3.78148 174.12 4.02367 174.975 4.51576C175.739 4.99658 176.343 5.69468 176.707 6.52027C177.114 7.47839 177.312 8.51203 177.287 9.55239V9.92872C177.29 9.99883 177.278 10.0688 177.252 10.1338C177.225 10.1988 177.185 10.2572 177.133 10.305C177.034 10.3928 176.904 10.4395 176.771 10.4356H169.14V10.6353C169.165 11.2187 169.301 11.792 169.541 12.3249C169.758 12.8633 170.124 13.3293 170.595 13.6689C171.057 13.9974 171.614 14.1673 172.181 14.1528C172.635 14.1671 173.087 14.0832 173.506 13.907C173.82 13.7743 174.111 13.5929 174.368 13.3694C174.531 13.2333 174.679 13.0786 174.807 12.9086C174.887 12.7755 174.995 12.6605 175.122 12.5707C175.232 12.5264 175.351 12.508 175.469 12.5169H176.531C176.662 12.5116 176.79 12.5524 176.893 12.6321C176.94 12.6752 176.976 12.7293 176.998 12.7896C177.019 12.8499 177.026 12.9145 177.016 12.9777C176.965 13.2595 176.843 13.5238 176.662 13.7457C176.396 14.1046 176.077 14.4206 175.715 14.6827C175.257 15.0144 174.751 15.2734 174.214 15.4507C173.545 15.6768 172.842 15.7884 172.135 15.781M169.153 8.99942H175.229V8.93798C175.24 8.33228 175.116 7.73166 174.867 7.17923C174.632 6.69087 174.267 6.27637 173.812 5.98113C173.325 5.66505 172.753 5.50433 172.172 5.52032C171.598 5.50321 171.033 5.66422 170.555 5.98113C170.103 6.28454 169.748 6.71103 169.531 7.20995C169.285 7.76306 169.164 8.3636 169.177 8.9687L169.153 8.99942Z" fill="white"/>
<path d="M98.6348 41.9552C98.5538 41.9616 98.4723 41.9512 98.3955 41.9248C98.3186 41.8984 98.2481 41.8564 98.1882 41.8016C98.0621 41.6862 97.9781 41.5321 97.9496 41.3638L95.1472 27.2324C95.141 27.1813 95.141 27.1298 95.1472 27.0788V26.9866C95.1492 26.8711 95.196 26.7609 95.2779 26.6792C95.3598 26.5976 95.4702 26.5508 95.586 26.5488H96.687C96.9949 26.5488 97.172 26.6717 97.2182 26.9252L99.4663 38.2779L101.853 30.4887C101.894 30.349 101.974 30.2238 102.084 30.1278C102.146 30.0685 102.22 30.0228 102.301 29.9937C102.382 29.9646 102.468 29.9527 102.553 29.9588H103.37C103.458 29.9505 103.547 29.9613 103.631 29.9904C103.714 30.0196 103.791 30.0664 103.855 30.1278C103.953 30.2276 104.022 30.3525 104.055 30.4887L106.457 38.2779L108.689 26.9252C108.728 26.6717 108.913 26.5488 109.236 26.5488H110.383C110.441 26.5491 110.498 26.5608 110.55 26.5832C110.603 26.6056 110.651 26.6383 110.691 26.6794C110.733 26.7188 110.766 26.7665 110.789 26.8193C110.811 26.8722 110.823 26.9292 110.822 26.9866C110.825 27.0172 110.825 27.0481 110.822 27.0788C110.817 27.1299 110.817 27.1813 110.822 27.2324L107.973 41.3638C107.942 41.5293 107.861 41.6816 107.743 41.8016C107.68 41.8572 107.607 41.8994 107.527 41.9258C107.448 41.9523 107.364 41.9622 107.281 41.9552H106.443C106.267 41.969 106.093 41.9138 105.958 41.8016C105.837 41.6994 105.751 41.5626 105.712 41.4099L102.978 33.0216L100.261 41.4099C100.213 41.5611 100.126 41.6965 100.007 41.8016C99.9428 41.8574 99.8683 41.8997 99.7876 41.9261C99.7069 41.9525 99.6217 41.9624 99.5371 41.9552H98.6348Z" fill="white"/>
<path d="M113.629 41.953C113.562 41.9557 113.496 41.9448 113.434 41.921C113.371 41.8972 113.315 41.8611 113.267 41.8148C113.217 41.7678 113.177 41.7106 113.15 41.647C113.124 41.5835 113.111 41.515 113.113 41.4461V31.0472C113.111 30.9773 113.124 30.9078 113.151 30.8431C113.177 30.7783 113.217 30.7197 113.267 30.6709C113.316 30.6272 113.373 30.5944 113.436 30.5745C113.498 30.5546 113.564 30.5482 113.629 30.5557H114.645C114.715 30.5551 114.784 30.5684 114.849 30.5948C114.914 30.6212 114.973 30.6602 115.022 30.7096C115.072 30.7589 115.111 30.8176 115.137 30.8821C115.164 30.9467 115.177 31.0159 115.176 31.0856V32.0149C115.456 31.526 115.878 31.1326 116.385 30.886C116.973 30.6379 117.61 30.525 118.248 30.5557H119.126C119.191 30.5524 119.257 30.563 119.318 30.5868C119.379 30.6106 119.434 30.6472 119.48 30.694C119.571 30.7947 119.618 30.9273 119.611 31.0626V31.9689C119.615 32.0336 119.606 32.0986 119.583 32.1594C119.561 32.2203 119.526 32.2758 119.48 32.3221C119.384 32.4107 119.257 32.4576 119.126 32.4527H117.809C117.465 32.4333 117.121 32.4847 116.798 32.6036C116.475 32.7225 116.18 32.9064 115.931 33.1439C115.697 33.3965 115.516 33.693 115.399 34.016C115.281 34.3391 115.229 34.6822 115.246 35.0255V41.4922C115.247 41.561 115.235 41.6294 115.208 41.6929C115.181 41.7564 115.142 41.8136 115.092 41.8609C114.988 41.9528 114.853 42.0022 114.714 41.9991L113.629 41.953Z" fill="white"/>
<path d="M121.86 28.3869C121.794 28.3887 121.727 28.3767 121.665 28.3517C121.603 28.3268 121.547 28.2894 121.5 28.2418C121.453 28.1943 121.416 28.1377 121.392 28.0754C121.368 28.0132 121.357 27.9467 121.36 27.88V26.7203C121.354 26.5943 121.398 26.4709 121.483 26.3772C121.568 26.2836 121.686 26.2275 121.813 26.2211H123.254C123.321 26.2184 123.387 26.2293 123.45 26.2533C123.512 26.2773 123.569 26.3139 123.617 26.3607C123.664 26.4075 123.702 26.4636 123.727 26.5254C123.752 26.5873 123.764 26.6536 123.762 26.7203V27.9107C123.763 27.9763 123.751 28.0414 123.727 28.1024C123.703 28.1633 123.667 28.2189 123.621 28.266C123.575 28.3131 123.521 28.3507 123.46 28.3767C123.4 28.4027 123.335 28.4166 123.269 28.4176H123.254L121.86 28.3869ZM122.037 41.9593C121.97 41.9629 121.903 41.9522 121.84 41.9279C121.777 41.9036 121.72 41.8663 121.673 41.8184C121.625 41.7704 121.589 41.713 121.565 41.6499C121.542 41.5868 121.532 41.5195 121.537 41.4524V31.0289C121.533 30.8927 121.583 30.7605 121.676 30.6602C121.773 30.5684 121.903 30.5188 122.037 30.522H123.1C123.165 30.5197 123.23 30.5308 123.291 30.5545C123.352 30.5783 123.408 30.6143 123.454 30.6602C123.541 30.7631 123.588 30.8942 123.585 31.0289V41.4524C123.589 41.5873 123.543 41.719 123.454 41.821C123.408 41.867 123.352 41.9029 123.291 41.9267C123.23 41.9505 123.165 41.9616 123.1 41.9593H122.037Z" fill="white"/>
<path d="M131.339 41.9593C130.641 41.9917 129.948 41.8294 129.338 41.4908C128.823 41.1803 128.428 40.7073 128.214 40.1468C127.962 39.4904 127.842 38.7911 127.86 38.0885V32.2808H126.135C126.067 32.2833 125.999 32.2709 125.937 32.2443C125.874 32.2178 125.818 32.1778 125.773 32.1272C125.724 32.0804 125.686 32.0244 125.659 31.9624C125.633 31.9003 125.619 31.8336 125.619 31.7662V30.9982C125.62 30.86 125.676 30.7277 125.773 30.6296C125.821 30.5832 125.878 30.547 125.94 30.5232C126.002 30.4994 126.068 30.4886 126.135 30.4913H127.86V26.8356C127.856 26.7017 127.906 26.572 127.998 26.4746C128.099 26.3823 128.231 26.3327 128.368 26.3364H129.399C129.466 26.3336 129.533 26.3446 129.595 26.3686C129.658 26.3926 129.714 26.4291 129.762 26.4759C129.81 26.5227 129.847 26.5788 129.872 26.6407C129.897 26.7025 129.909 26.7689 129.907 26.8356V30.5527H132.636C132.698 30.5486 132.761 30.5568 132.821 30.5768C132.88 30.5969 132.935 30.6284 132.982 30.6696C133.029 30.7109 133.068 30.761 133.096 30.8171C133.123 30.8732 133.14 30.9342 133.144 30.9967C133.146 31.0181 133.146 31.0397 133.144 31.0612V31.8292C133.147 31.8956 133.136 31.9618 133.112 32.0239C133.088 32.0859 133.052 32.1425 133.005 32.1902C132.958 32.2398 132.9 32.2791 132.837 32.3056C132.773 32.332 132.705 32.345 132.636 32.3438H129.903V37.9979C129.872 38.5625 129.994 39.1249 130.257 39.6261C130.391 39.8302 130.58 39.9934 130.801 40.0977C131.022 40.202 131.268 40.2434 131.512 40.2174H132.875C132.942 40.2173 133.009 40.2309 133.071 40.2573C133.133 40.2837 133.19 40.3224 133.236 40.371C133.286 40.4172 133.325 40.4731 133.352 40.5353C133.378 40.5975 133.391 40.6645 133.39 40.732V41.5C133.392 41.5689 133.38 41.6373 133.353 41.7009C133.327 41.7645 133.287 41.8217 133.236 41.8687C133.189 41.915 133.132 41.9511 133.07 41.9749C133.008 41.9986 132.941 42.0095 132.875 42.0069L131.339 41.9593Z" fill="white"/>
<path d="M140.063 42.1834C139.396 42.2161 138.729 42.1086 138.105 41.8679C137.482 41.6271 136.916 41.2584 136.445 40.7856C135.491 39.733 134.965 38.3642 134.967 36.9456V35.4095C135.003 34.4551 135.253 33.521 135.698 32.6754C136.096 31.9158 136.702 31.2846 137.446 30.8552C138.283 30.4312 139.21 30.216 140.149 30.228C141.088 30.2401 142.009 30.479 142.835 30.9243C143.598 31.404 144.201 32.099 144.567 32.9212C144.984 33.8908 145.186 34.9386 145.16 35.9932V36.3695C145.164 36.4373 145.154 36.5052 145.131 36.5687C145.107 36.6323 145.069 36.69 145.022 36.7382C144.921 36.8288 144.788 36.8758 144.652 36.8688H137.021V37.0684C137.043 37.6522 137.179 38.2261 137.421 38.7581C137.638 39.2628 137.986 39.7004 138.43 40.0253C138.894 40.3547 139.454 40.5245 140.023 40.5091C140.477 40.5251 140.928 40.4439 141.348 40.2711C141.848 40.0377 142.291 39.6998 142.649 39.2803C142.726 39.1446 142.831 39.0267 142.957 38.9347C143.069 38.8893 143.19 38.8708 143.311 38.8809H144.427C144.559 38.874 144.689 38.918 144.789 39.0038C144.838 39.044 144.875 39.0966 144.897 39.156C144.919 39.2154 144.924 39.2796 144.912 39.3418C144.868 39.6372 144.746 39.9156 144.558 40.1482C144.294 40.5088 143.975 40.8251 143.611 41.0851C143.157 41.4228 142.65 41.6824 142.11 41.8532C141.451 42.0787 140.759 42.1929 140.062 42.1911M137.059 35.4157H143.105V35.3465C143.115 34.7409 142.991 34.1405 142.743 33.5878C142.515 33.089 142.152 32.6634 141.696 32.359C141.21 32.0465 140.641 31.886 140.063 31.8982C139.504 31.8779 138.952 32.027 138.479 32.3258C138.006 32.6247 137.635 33.0593 137.415 33.5724C137.173 34.127 137.053 34.7265 137.061 35.3312L137.059 35.4157Z" fill="white"/>
<g opacity="0.45">
<mask id="mask2_64_4113" style="mask-type:luminance" maskUnits="userSpaceOnUse" x="39" y="27" width="3" height="5">
<path d="M41.3394 27.6807H39.3608V31.5668H41.3394V27.6807Z" fill="white"/>
</mask>
<g mask="url(#mask2_64_4113)">
<mask id="mask3_64_4113" style="mask-type:luminance" maskUnits="userSpaceOnUse" x="39" y="27" width="3" height="5">
<path d="M41.336 27.6807C40.8133 29.041 40.1502 30.3434 39.3574 31.5668L41.336 27.6807Z" fill="white"/>
</mask>
<g mask="url(#mask3_64_4113)">
<path d="M39.3701 27.5484L39.0986 31.5498L41.3308 31.7005L41.6023 27.6991L39.3701 27.5484Z" fill="url(#paint0_linear_64_4113)"/>
</g>
</g>
</g>
<path d="M87.6947 1.67153V1.74065L70.1721 36.0847C69.4887 37.4265 68.4465 38.5536 67.1609 39.3411C65.8752 40.1286 64.3961 40.5459 62.8874 40.5468H58.2681L66.8308 23.7319L75.6983 6.31801C76.4214 4.90006 77.5229 3.70876 78.8813 2.87536C80.2397 2.04196 81.8024 1.5988 83.3972 1.59473H87.5161L87.6947 1.67153Z" fill="#1DB4FF"/>
<path d="M70.9542 1.64849V1.74066L62.3761 18.5709L53.467 36.0693C52.7812 37.4169 51.7346 38.5486 50.4433 39.339C49.152 40.1293 47.6665 40.5474 46.1515 40.5468H41.5322L50.1026 23.8041L59.0117 6.30266C59.7334 4.88468 60.8349 3.69402 62.194 2.86293C63.553 2.03184 65.1165 1.59285 66.7106 1.59473H70.8449L70.9542 1.64849Z" fill="white"/>
<path d="M49.9631 1.74184C48.3978 1.73701 46.8617 2.16509 45.5254 2.97854C44.1892 3.79199 43.1051 4.95898 42.3936 6.34992L39.8145 11.428L33.1534 24.4843C33.1534 24.4843 30.1663 29.8604 28.0722 31.3964C26.0212 32.8282 23.5674 33.5731 21.0647 33.5238C20.1822 33.5256 19.302 33.4329 18.4394 33.2473L29.458 11.6661L31.5444 7.56492C31.7986 7.07033 31.9527 6.53062 31.9978 5.97662C32.043 5.42261 31.9783 4.86516 31.8074 4.33611C31.6365 3.80707 31.3628 3.31678 31.002 2.89326C30.6412 2.46974 30.2002 2.12128 29.7043 1.86779C29.6273 1.82785 29.5504 1.79253 29.4718 1.7572C26.6027 0.506436 23.49 -0.0901128 20.3605 0.0110093C17.231 0.112131 14.1635 0.908377 11.3815 2.34174C8.59951 3.7751 6.17307 5.80948 4.27894 8.29668C2.38482 10.7839 1.07072 13.6612 0.432368 16.7192C-0.20598 19.7771 -0.152498 22.9386 0.58892 25.9733C1.33034 29.0079 2.74102 31.8394 4.71819 34.2615C6.69536 36.6835 9.18924 38.635 12.0181 39.9739C14.847 41.3128 17.9397 42.0054 21.0708 42.0011C22.1793 42.0028 23.2861 41.918 24.3813 41.7477C27.2989 41.2833 30.0858 40.212 32.5614 38.6033C35.0369 36.9947 37.1456 34.8846 38.7505 32.4102L40.7368 28.5086L45.7965 18.569L54.3361 1.74184H49.9631ZM11.1547 28.7329C9.70373 26.8794 8.80401 24.6564 8.55808 22.3175C8.31215 19.9786 8.72991 17.6178 9.76375 15.5043C10.7976 13.3907 12.4059 11.6094 14.4053 10.3635C16.4048 9.11756 18.7149 8.45708 21.0724 8.45735H21.4727L11.1547 28.7329Z" fill="#FF3B99"/>
<g opacity="0.45">
<mask id="mask4_64_4113" style="mask-type:luminance" maskUnits="userSpaceOnUse" x="38" y="28" width="3" height="5">
<path d="M40.7392 28.5098H38.7529V32.4113H40.7392V28.5098Z" fill="white"/>
</mask>
<g mask="url(#mask4_64_4113)">
<mask id="mask5_64_4113" style="mask-type:luminance" maskUnits="userSpaceOnUse" x="38" y="28" width="3" height="5">
<path d="M40.7392 28.5098C40.2138 29.8751 39.5482 31.1826 38.7529 32.4113L40.7392 28.5098Z" fill="white"/>
</mask>
<g mask="url(#mask5_64_4113)">
<path d="M38.7624 28.3763L38.4897 32.3945L40.7311 32.5459L41.0038 28.5276L38.7624 28.3763Z" fill="url(#paint1_linear_64_4113)"/>
</g>
</g>
</g>
</g>
</g>
</g>
<defs>
<linearGradient id="paint0_linear_64_4113" x1="74.0018" y1="72.2346" x2="74.0536" y2="71.4663" gradientUnits="userSpaceOnUse">
<stop stop-color="#0DE9C3"/>
<stop offset="0.47" stop-color="#64A7DB"/>
<stop offset="1" stop-color="#AC75F3"/>
</linearGradient>
<linearGradient id="paint1_linear_64_4113" x1="72.6088" y1="72.425" x2="72.6607" y2="71.6574" gradientUnits="userSpaceOnUse">
<stop stop-color="#0DE9C3"/>
<stop offset="0.47" stop-color="#64A7DB"/>
<stop offset="1" stop-color="#AC75F3"/>
</linearGradient>
<clipPath id="clip0_64_4113">
<rect width="177.294" height="66" fill="white"/>
</clipPath>
</defs>
</svg>
