<svg width="178" height="66" viewBox="0 0 178 66" fill="none" xmlns="http://www.w3.org/2000/svg">
<mask id="mask0_40_7898" style="mask-type:luminance" maskUnits="userSpaceOnUse" x="0" y="0" width="178" height="66">
<path d="M177.294 0H0V66H177.294V0Z" fill="white"/>
</mask>
<g mask="url(#mask0_40_7898)">
<mask id="mask1_40_7898" style="mask-type:luminance" maskUnits="userSpaceOnUse" x="0" y="0" width="178" height="66">
<path d="M177.294 0H0V65.9985H177.294V0Z" fill="white"/>
</mask>
<g mask="url(#mask1_40_7898)">
<path d="M3.37819 63.4149C2.76174 63.4334 2.14819 63.3235 1.57666 63.0923C1.1277 62.9141 0.734414 62.6199 0.437223 62.2398C0.193071 61.9197 0.0485112 61.5352 0.0214844 61.1339C0.022653 61.0991 0.0307416 61.0649 0.04528 61.0332C0.0598185 61.0016 0.0805168 60.9732 0.106172 60.9496C0.131039 60.924 0.161034 60.9039 0.194198 60.8907C0.227363 60.8775 0.262952 60.8714 0.298644 60.8728H0.922252C0.962808 60.8689 1.00372 60.8737 1.04224 60.887C1.08076 60.9002 1.11597 60.9216 1.14552 60.9496C1.19724 60.9928 1.23256 61.0525 1.2456 61.1185C1.29583 61.3364 1.40195 61.5376 1.55356 61.7022C1.73793 61.9127 1.97028 62.076 2.23106 62.1784C2.59097 62.3197 2.97631 62.385 3.36279 62.3704C3.90297 62.4098 4.44185 62.2781 4.90257 61.9941C5.06143 61.8811 5.19012 61.7311 5.27736 61.557C5.36461 61.3829 5.40774 61.1902 5.40299 60.9957C5.4075 60.8682 5.38594 60.7412 5.33961 60.6224C5.29328 60.5035 5.22316 60.3953 5.13353 60.3044C4.91179 60.0954 4.64989 59.9335 4.36365 59.8283C4.0018 59.69 3.53217 59.5364 2.95475 59.3675C2.44208 59.2268 1.94442 59.0364 1.46887 58.7991C1.10908 58.6284 0.802913 58.3629 0.583502 58.0311C0.380469 57.682 0.281638 57.2823 0.298644 56.8791C0.291431 56.4554 0.415075 56.0398 0.652792 55.6887C0.913886 55.323 1.27079 55.0361 1.68444 54.8592C2.20057 54.6427 2.75688 54.538 3.3166 54.552C3.76933 54.5426 4.22017 54.6128 4.6485 54.7594C4.99926 54.8738 5.32376 55.0565 5.60316 55.297C5.83892 55.4998 6.03474 55.7446 6.18058 56.0189C6.30776 56.2562 6.38134 56.5183 6.39615 56.7869C6.39308 56.8458 6.37153 56.9022 6.33456 56.9482C6.30996 56.9767 6.2791 56.9992 6.24438 57.0138C6.20966 57.0285 6.17202 57.0349 6.13439 57.0327H5.47382C5.41085 57.0321 5.34937 57.0134 5.29675 56.9789C5.22833 56.9378 5.17864 56.8717 5.15817 56.7946C5.12729 56.622 5.06067 56.4578 4.96258 56.3123C4.86448 56.1668 4.73706 56.0434 4.58845 55.9498C4.20879 55.7049 3.76209 55.5841 3.31044 55.6042C2.85636 55.582 2.40527 55.6885 2.00933 55.9114C1.88231 55.9992 1.77398 56.1112 1.69059 56.241C1.60721 56.3708 1.55042 56.5158 1.5235 56.6676C1.49659 56.8194 1.50009 56.975 1.53379 57.1255C1.56749 57.276 1.63073 57.4183 1.71985 57.5442L1.73833 57.5703C1.95564 57.7886 2.21851 57.9564 2.50822 58.0618C2.94112 58.2322 3.38321 58.3783 3.83242 58.4996C4.38518 58.6425 4.92376 58.8353 5.44149 59.0756C5.81743 59.2404 6.13999 59.5064 6.37305 59.8436C6.58868 60.1884 6.69594 60.5896 6.68101 60.9957C6.69618 61.469 6.55258 61.9339 6.27296 62.3166C5.98071 62.6981 5.58544 62.9885 5.13353 63.1538C4.57286 63.3506 3.97977 63.4392 3.38589 63.4149" fill="#1DB4FF"/>
<path d="M8.29027 55.7101C8.25346 55.7113 8.21678 55.7051 8.18239 55.6919C8.14801 55.6788 8.11663 55.6588 8.0901 55.6333C8.06265 55.6063 8.04098 55.574 8.02642 55.5383C8.01187 55.5027 8.00472 55.4644 8.00542 55.426V54.7655C8.00472 54.727 8.01187 54.6888 8.02642 54.6531C8.04098 54.6175 8.06265 54.5851 8.0901 54.5581C8.11584 54.5315 8.14709 54.5109 8.18167 54.4976C8.21625 54.4843 8.25331 54.4788 8.29027 54.4813H9.06016C9.09702 54.4798 9.1338 54.4858 9.16824 54.499C9.20267 54.5122 9.23401 54.5323 9.26033 54.5581C9.28779 54.5851 9.30946 54.6175 9.32401 54.6531C9.33857 54.6888 9.34572 54.727 9.34502 54.7655V55.426C9.34572 55.4644 9.33857 55.5027 9.32401 55.5383C9.30946 55.574 9.28779 55.6063 9.26033 55.6333C9.20499 55.682 9.13395 55.7093 9.06016 55.7101H8.29027ZM8.39036 63.292C8.35608 63.2951 8.32151 63.2915 8.28862 63.2813C8.25574 63.2712 8.2252 63.2546 8.19874 63.2326C8.17228 63.2107 8.15042 63.1837 8.13442 63.1533C8.11842 63.1229 8.1086 63.0896 8.1055 63.0554C8.10392 63.0391 8.10392 63.0226 8.1055 63.0062V57.1847C8.10347 57.1479 8.10929 57.1111 8.12256 57.0766C8.13583 57.0422 8.15625 57.011 8.18249 56.985C8.2096 56.9576 8.242 56.936 8.27773 56.9215C8.31347 56.907 8.35178 56.8998 8.39036 56.9005H8.97548C9.01303 56.899 9.05046 56.9058 9.08507 56.9204C9.11969 56.935 9.15062 56.9571 9.17564 56.985C9.22572 57.0395 9.25323 57.1108 9.25263 57.1847V63.0078C9.2528 63.0839 9.22547 63.1575 9.17564 63.2151C9.14991 63.2417 9.11866 63.2624 9.08408 63.2757C9.0495 63.2889 9.01244 63.2945 8.97548 63.292H8.39036Z" fill="#1DB4FF"/>
<path d="M13.7118 65.9953C13.2446 66.014 12.7785 65.9382 12.3414 65.7726C12.0275 65.6567 11.7415 65.4761 11.5022 65.2427C11.3204 65.0614 11.1742 64.8478 11.0711 64.6129C10.9953 64.455 10.9434 64.2868 10.9171 64.1137C10.9143 64.075 10.9206 64.0361 10.9352 64.0002C10.9499 63.9642 10.9727 63.9321 11.0018 63.9063C11.056 63.8548 11.1272 63.8248 11.202 63.8218H11.7994C11.8642 63.8188 11.9284 63.8348 11.9842 63.8679C12.0455 63.926 12.0883 64.0008 12.1073 64.083C12.1674 64.226 12.2422 64.3624 12.3306 64.49C12.4469 64.6593 12.6063 64.7945 12.7925 64.8817C13.0614 65.0086 13.3578 65.0667 13.6548 65.0507C13.9848 65.0583 14.3135 65.0062 14.6249 64.8971C14.8842 64.7972 15.0979 64.6059 15.2254 64.3594C15.3776 64.0223 15.4463 63.6535 15.4256 63.2842V62.4471C15.2187 62.7131 14.9559 62.9307 14.6557 63.0846C14.2793 63.2656 13.8645 63.3526 13.4469 63.338C13.0381 63.3478 12.6324 63.2637 12.2613 63.0922C11.9588 62.9384 11.6955 62.7178 11.4914 62.4471C11.2812 62.1673 11.1246 61.8512 11.0295 61.5147C10.9243 61.1547 10.8622 60.7834 10.8447 60.4088V59.7329C10.8622 59.3583 10.9243 58.9871 11.0295 58.627C11.1232 58.2862 11.2798 57.9658 11.4914 57.6823C11.6958 57.4079 11.9588 57.1823 12.2613 57.0218C12.6342 56.8566 13.039 56.7753 13.4469 56.7838C13.8748 56.7663 14.2997 56.8617 14.6788 57.0603C14.9755 57.2323 15.2368 57.4591 15.4486 57.7284V57.2062C15.4478 57.1262 15.4781 57.0491 15.5333 56.9911C15.5584 56.9632 15.5893 56.9411 15.6239 56.9265C15.6585 56.9118 15.696 56.9051 15.7335 56.9067H16.3032C16.3807 56.9077 16.4549 56.9379 16.5111 56.9911C16.5663 57.0491 16.5967 57.1262 16.5958 57.2062V63.1675C16.6052 63.6677 16.5108 64.1646 16.3186 64.6267C16.1315 65.0504 15.8131 65.403 15.4102 65.6328C14.887 65.8997 14.3034 66.0267 13.7164 66.0015M13.7164 62.3688C14.0672 62.3841 14.4133 62.2842 14.7019 62.0846C14.9491 61.9002 15.143 61.6537 15.2639 61.3703C15.3781 61.092 15.4407 60.7954 15.4486 60.4948V59.65C15.4391 59.3496 15.3766 59.0532 15.2639 58.7745C15.1447 58.4922 14.9503 58.2479 14.7019 58.0679C14.4156 57.8636 14.0678 57.7633 13.7164 57.7837C13.3664 57.7654 13.0201 57.8625 12.7309 58.0602C12.4859 58.2429 12.301 58.4942 12.1997 58.7821C12.0811 59.0948 12.011 59.4237 11.9919 59.7575V60.4103C12.005 60.7377 12.0673 61.0613 12.1766 61.3703C12.2765 61.6611 12.4616 61.9152 12.7079 62.0999C12.9979 62.295 13.3442 62.3895 13.6933 62.3688H13.7164Z" fill="#1DB4FF"/>
<path d="M18.7234 63.292C18.6865 63.294 18.6495 63.2882 18.615 63.275C18.5805 63.2617 18.5492 63.2413 18.5232 63.2152C18.4958 63.1881 18.4741 63.1558 18.4595 63.1201C18.445 63.0845 18.4378 63.0463 18.4385 63.0078V57.1847C18.442 57.111 18.4733 57.0414 18.5262 56.9898C18.579 56.9383 18.6495 56.9086 18.7234 56.9067H19.3008C19.3394 56.906 19.3777 56.9131 19.4134 56.9277C19.4492 56.9422 19.4816 56.9638 19.5087 56.9912C19.5349 57.0172 19.5553 57.0484 19.5686 57.0828C19.5819 57.1172 19.5877 57.154 19.5857 57.1909V57.7285C19.7919 57.4518 20.0542 57.2215 20.3555 57.0526C20.7421 56.86 21.171 56.7675 21.6028 56.7838C22.0818 56.7662 22.5556 56.889 22.9655 57.1371C23.3395 57.3667 23.6348 57.7041 23.8123 58.1048C24.0078 58.5608 24.1049 59.0528 24.0972 59.5487V63.0124C24.0974 63.0885 24.07 63.1621 24.0202 63.2198C23.9945 63.2464 23.9632 63.267 23.9286 63.2803C23.8941 63.2935 23.857 63.2991 23.82 63.2966H23.2041C23.1673 63.2981 23.1305 63.2921 23.096 63.2789C23.0616 63.2657 23.0303 63.2456 23.004 63.2198C22.9765 63.1927 22.9548 63.1604 22.9403 63.1248C22.9257 63.0891 22.9186 63.0509 22.9193 63.0124V59.604C22.9473 59.1206 22.7997 58.6435 22.5035 58.2599C22.3472 58.093 22.1555 57.9629 21.9424 57.8792C21.7293 57.7955 21.5002 57.7603 21.2717 57.7761C21.0437 57.7651 20.816 57.8025 20.6037 57.8859C20.3913 57.9693 20.1991 58.0968 20.0399 58.2599C19.7159 58.6306 19.5501 59.113 19.578 59.604V63.0063C19.5781 63.0824 19.5508 63.156 19.501 63.2136C19.4444 63.2653 19.3698 63.2929 19.2931 63.2904L18.7234 63.292Z" fill="#1DB4FF"/>
<path d="M27.6957 63.4149C27.3072 63.4182 26.9231 63.3342 26.5716 63.1691C26.2643 63.0157 25.9998 62.7888 25.8017 62.5086C25.597 62.2365 25.4887 61.9042 25.4938 61.564C25.4864 61.2996 25.5452 61.0376 25.6648 60.8016C25.7845 60.5656 25.9612 60.363 26.179 60.2123C26.7157 59.8459 27.3343 59.6165 27.9805 59.5441L29.8128 59.2907V58.9297C29.8229 58.7611 29.798 58.5922 29.7397 58.4337C29.6814 58.2751 29.591 58.1302 29.4741 58.0081C29.1636 57.7603 28.7691 57.642 28.3732 57.6778C28.0601 57.664 27.7498 57.7414 27.4801 57.9006C27.2673 58.0344 27.1008 58.2301 27.0028 58.4612C26.9873 58.5159 26.9538 58.5638 26.9077 58.5972C26.8616 58.6307 26.8056 58.6477 26.7487 58.6455H26.1559C26.1188 58.6498 26.0812 58.6451 26.0463 58.6317C26.0115 58.6183 25.9804 58.5967 25.9557 58.5687C25.9095 58.5156 25.8847 58.4471 25.8864 58.3767C25.8954 58.2143 25.9429 58.0564 26.025 57.9159C26.1381 57.7143 26.2867 57.5348 26.4638 57.386C26.6947 57.1989 26.9548 57.051 27.2337 56.9482C27.5974 56.8226 27.9807 56.7628 28.3655 56.7716C28.7869 56.7594 29.2071 56.8245 29.605 56.9636C29.895 57.0756 30.1576 57.2484 30.3749 57.4705C30.5643 57.6811 30.7061 57.9299 30.7906 58.2001C30.8759 58.4658 30.92 58.7429 30.9215 59.0219V63.0002C30.9222 63.0387 30.915 63.0769 30.9005 63.1125C30.8859 63.1482 30.8643 63.1805 30.8368 63.2075C30.8108 63.2337 30.7795 63.2541 30.745 63.2673C30.7105 63.2805 30.6735 63.2864 30.6366 63.2843H30.0823C30.0442 63.2871 30.0059 63.2816 29.97 63.2684C29.9342 63.2551 29.9016 63.2344 29.8744 63.2075C29.8266 63.1492 29.802 63.0754 29.8052 63.0002V62.4779C29.6813 62.6398 29.5363 62.7845 29.374 62.908C29.1687 63.0676 28.9367 63.1898 28.6888 63.269C28.3676 63.3689 28.0321 63.4156 27.6957 63.4072M27.9574 62.4856C28.2785 62.4915 28.596 62.4176 28.8813 62.2705C29.1665 62.1223 29.3981 61.8886 29.5434 61.6024C29.7157 61.2462 29.7976 60.8532 29.7821 60.458V60.1124L28.3578 60.3275C27.8945 60.3659 27.4452 60.5049 27.0413 60.7345C26.9027 60.8086 26.7876 60.9197 26.7087 61.0553C26.6298 61.1909 26.5904 61.3458 26.5947 61.5025C26.5889 61.7125 26.66 61.9173 26.7949 62.0785C26.9375 62.2341 27.1177 62.3505 27.3184 62.4165C27.5289 62.4739 27.7472 62.4973 27.9651 62.4856" fill="#1DB4FF"/>
<path d="M35.3301 65.9953C34.8579 66.0141 34.3867 65.9383 33.9443 65.7726C33.6334 65.655 33.3504 65.4746 33.1128 65.2427C32.9282 65.0637 32.7816 64.8495 32.6816 64.6129C32.6021 64.4565 32.5501 64.2876 32.5277 64.1137C32.5249 64.075 32.5311 64.0361 32.5458 64.0002C32.5605 63.9642 32.5833 63.9321 32.6124 63.9063C32.6656 63.8534 32.7374 63.8232 32.8125 63.8218H33.4053C33.4699 63.8208 33.5336 63.8367 33.5901 63.8679C33.6514 63.926 33.6943 64.0008 33.7133 64.083C33.7733 64.226 33.8481 64.3625 33.9366 64.49C34.0528 64.6593 34.2123 64.7945 34.3985 64.8817C34.6674 65.0086 34.9637 65.0667 35.2608 65.0507C35.5908 65.0583 35.9194 65.0063 36.2308 64.8971C36.4902 64.7972 36.7038 64.6059 36.8313 64.3594C36.9804 64.0213 37.0489 63.6532 37.0315 63.2842V62.4471C36.8246 62.7131 36.5619 62.9307 36.2616 63.0846C35.8883 63.2664 35.4758 63.3535 35.0606 63.338C34.6517 63.3478 34.2461 63.2637 33.875 63.0922C33.5586 62.9433 33.2817 62.7223 33.0666 62.4471C32.8608 62.1651 32.7056 61.8496 32.6077 61.5147C32.5054 61.1543 32.446 60.7831 32.4307 60.4088V59.7329C32.446 59.3586 32.5054 58.9874 32.6077 58.627C32.7076 58.2871 32.8665 57.9673 33.0774 57.6823C33.2927 57.4035 33.5692 57.1775 33.8857 57.0218C34.2586 56.8566 34.6634 56.7753 35.0714 56.7838C35.4992 56.7663 35.9241 56.8617 36.3032 57.0603C36.5999 57.2323 36.8612 57.4591 37.0731 57.7284V57.2062C37.0701 57.1273 37.0977 57.0503 37.1501 56.9911C37.1764 56.9645 37.2079 56.9433 37.2425 56.9288C37.2771 56.9143 37.3142 56.9068 37.3518 56.9067H37.9138C37.9529 56.9046 37.9919 56.9103 38.0287 56.9236C38.0655 56.9369 38.0992 56.9574 38.1279 56.9838C38.1567 57.0103 38.1798 57.0423 38.1959 57.0779C38.212 57.1134 38.2208 57.1518 38.2217 57.1908V63.1675C38.2311 63.6678 38.1368 64.1646 37.9446 64.6267C37.7543 65.0532 37.43 65.4064 37.0207 65.6328C36.4985 65.9023 35.9143 66.0295 35.327 66.0015M35.327 62.3688C35.68 62.3825 36.0281 62.2829 36.3201 62.0846C36.5652 61.8971 36.7551 61.6472 36.8698 61.3611C36.9908 61.0847 37.0562 60.7872 37.0623 60.4856V59.6408C37.0537 59.3395 36.9884 59.0425 36.8698 58.7652C36.7565 58.4839 36.5673 58.2393 36.3232 58.0587C36.0261 57.875 35.6834 57.7777 35.3339 57.7777C34.9844 57.7777 34.6417 57.875 34.3446 58.0587C34.0996 58.2413 33.9146 58.4927 33.8134 58.7806C33.7033 59.092 33.641 59.4183 33.6286 59.7483V60.4011C33.6417 60.7285 33.704 61.0521 33.8134 61.3611C33.9115 61.634 34.085 61.8737 34.3138 62.0523C34.601 62.2628 34.9508 62.371 35.307 62.3595L35.327 62.3688Z" fill="#1DB4FF"/>
<path d="M42.6099 63.4148C42.2388 63.4324 41.8681 63.3732 41.5209 63.241C41.1738 63.1089 40.8578 62.9066 40.5928 62.6468C40.066 62.0594 39.7729 61.2999 39.769 60.5118V59.69C39.7867 59.1538 39.9263 58.6285 40.1771 58.1539C40.3981 57.729 40.7377 57.3769 41.1548 57.1402C41.5993 56.8936 42.1014 56.7691 42.6099 56.7792C43.1495 56.766 43.6823 56.9015 44.1497 57.1709C44.5767 57.4412 44.9142 57.8313 45.1198 58.2922C45.3516 58.8275 45.4645 59.4065 45.4508 59.9895V60.1969C45.4546 60.235 45.4497 60.2735 45.4363 60.3094C45.423 60.3454 45.4016 60.3778 45.3738 60.4042C45.3463 60.4306 45.3137 60.4511 45.2779 60.4643C45.2422 60.4775 45.204 60.4832 45.166 60.481H40.9393V60.5886C40.953 60.9147 41.0287 61.2353 41.1625 61.5332C41.2872 61.8122 41.4805 62.0553 41.7246 62.2398C41.9838 62.4204 42.2937 62.5146 42.6099 62.5086C42.8738 62.5227 43.1374 62.4753 43.3798 62.3703C43.5552 62.2912 43.7184 62.1878 43.8648 62.0631C43.9555 61.9874 44.0381 61.9025 44.1112 61.8097C44.1537 61.7347 44.2114 61.6693 44.2806 61.6177C44.3468 61.6062 44.4145 61.6062 44.4808 61.6177H45.0736C45.1465 61.6154 45.2178 61.64 45.2737 61.6868C45.3009 61.7101 45.3216 61.7401 45.3337 61.7737C45.3458 61.8074 45.349 61.8436 45.343 61.8788C45.3164 62.0422 45.2474 62.1958 45.1429 62.3243C44.9953 62.5259 44.8159 62.7023 44.6116 62.8465C44.3597 63.0339 44.0789 63.1792 43.7802 63.2766C43.3997 63.3828 43.0045 63.4269 42.6099 63.4072M40.9393 59.6209H44.3268C44.3332 59.2825 44.2649 58.9468 44.1266 58.6378C43.9991 58.3601 43.7965 58.1234 43.5415 57.9543C43.2664 57.7784 42.9442 57.69 42.6176 57.7008C42.305 57.6887 41.9961 57.7719 41.732 57.9392C41.4679 58.1066 41.2612 58.3503 41.1394 58.6378C41.0038 58.9474 40.9381 59.2831 40.947 59.6209H40.9393Z" fill="#1DB4FF"/>
<path d="M51.7654 63.4149C51.3793 63.4192 50.9974 63.3352 50.649 63.1691C50.3271 63.0187 50.0469 62.7919 49.833 62.5087C49.6282 62.2365 49.5199 61.9042 49.525 61.564C49.5178 61.2988 49.5774 61.0361 49.6985 60.7999C49.8196 60.5637 49.9982 60.3617 50.2179 60.2123C50.7509 59.8444 51.3674 59.6148 52.0117 59.5441L53.8595 59.2907V58.9297C53.8686 58.7612 53.8433 58.5926 53.785 58.4342C53.7268 58.2757 53.6369 58.1308 53.5207 58.0081C53.2083 57.7584 52.8106 57.64 52.4121 57.6778C52.0991 57.665 51.7891 57.7423 51.519 57.9006C51.3067 58.0329 51.1422 58.2293 51.0494 58.4612C51.0313 58.5158 50.9961 58.5632 50.9489 58.5964C50.9018 58.6296 50.8453 58.6468 50.7876 58.6455H50.2333C50.1962 58.6493 50.1588 58.6443 50.124 58.631C50.0892 58.6177 50.0581 58.5963 50.0331 58.5687C49.9869 58.5156 49.9622 58.4471 49.9638 58.3767C49.9728 58.2144 50.0203 58.0564 50.1024 57.9159C50.2202 57.7176 50.3682 57.5388 50.5412 57.386C50.7724 57.1995 51.0325 57.0517 51.3111 56.9482C51.6721 56.8222 52.0529 56.7624 52.4352 56.7716C52.8592 56.7594 53.2818 56.8244 53.6824 56.9636C53.9729 57.0748 54.2356 57.2478 54.4523 57.4705C54.6417 57.6811 54.7835 57.93 54.868 58.2001C54.9533 58.4658 54.9975 58.7429 54.9989 59.0219V63.0002C54.9991 63.0763 54.9717 63.1499 54.9219 63.2075C54.8944 63.2339 54.8618 63.2544 54.826 63.2676C54.7902 63.2808 54.7521 63.2865 54.714 63.2843H54.152C54.1127 63.287 54.0733 63.2816 54.0362 63.2684C53.9991 63.2551 53.9652 63.2344 53.9364 63.2075C53.8886 63.1492 53.864 63.0754 53.8672 63.0002V62.4779C53.5825 62.8383 53.1965 63.1058 52.7585 63.2459C52.4408 63.3519 52.1081 63.4064 51.7731 63.4072M52.0348 62.4856C52.3558 62.4903 52.673 62.4164 52.9587 62.2706C53.243 62.1236 53.4724 61.8893 53.6131 61.6024C53.7886 61.2471 53.8732 60.8539 53.8595 60.458V60.1124L52.4275 60.3275C51.9642 60.366 51.5149 60.5049 51.111 60.7345C50.9724 60.8086 50.8573 60.9197 50.7784 61.0553C50.6995 61.191 50.6601 61.3458 50.6644 61.5025C50.6577 61.7139 50.7321 61.9199 50.8723 62.0786C51.0119 62.234 51.1897 62.3505 51.3881 62.4165C51.5986 62.474 51.8169 62.4973 52.0348 62.4856Z" fill="#1DB4FF"/>
<path d="M57.0622 63.292C57.0254 63.2935 56.9886 63.2875 56.9542 63.2743C56.9197 63.2611 56.8884 63.241 56.8621 63.2152C56.8346 63.1882 56.813 63.1558 56.7984 63.1202C56.7838 63.0845 56.7767 63.0463 56.7774 63.0078V57.1848C56.7768 57.1474 56.7841 57.1104 56.7987 57.076C56.8132 57.0416 56.8348 57.0107 56.8621 56.9851C56.888 56.9583 56.9191 56.937 56.9535 56.9224C56.9879 56.9079 57.0249 56.9005 57.0622 56.9006H57.6443C57.6829 56.8999 57.7212 56.907 57.7569 56.9216C57.7926 56.9361 57.825 56.9577 57.8521 56.9851C57.8784 57.0111 57.8988 57.0423 57.9121 57.0767C57.9254 57.1111 57.9312 57.1479 57.9291 57.1848V57.7224C58.1354 57.4457 58.3977 57.2154 58.699 57.0465C59.0855 56.8539 59.5145 56.7614 59.9462 56.7777C60.4253 56.7601 60.8991 56.8829 61.3089 57.131C61.6829 57.3606 61.9782 57.6981 62.1558 58.0987C62.3513 58.5547 62.4484 59.0467 62.4407 59.5426V63.0063C62.4409 63.0824 62.4135 63.156 62.3637 63.2137C62.338 63.2403 62.3067 63.2609 62.2721 63.2742C62.2375 63.2874 62.2005 63.293 62.1635 63.2905H61.5476C61.5107 63.292 61.474 63.286 61.4395 63.2728C61.4051 63.2596 61.3738 63.2395 61.3474 63.2137C61.321 63.1863 61.3005 63.1537 61.2873 63.118C61.274 63.0823 61.2683 63.0443 61.2704 63.0063V59.604C61.2964 59.1197 61.146 58.6424 60.847 58.26C60.6907 58.093 60.499 57.963 60.2859 57.8792C60.0728 57.7955 59.8437 57.7603 59.6152 57.7761C59.3872 57.7651 59.1595 57.8025 58.9471 57.886C58.7348 57.9694 58.5426 58.0969 58.3834 58.26C58.0594 58.6306 57.8936 59.113 57.9214 59.604V63.0063C57.9216 63.0824 57.8943 63.156 57.8445 63.2137C57.817 63.2401 57.7843 63.2605 57.7485 63.2737C57.7128 63.2869 57.6747 63.2926 57.6366 63.2905L57.0622 63.292Z" fill="#1DB4FF"/>
<path d="M66.5922 63.4179C66.1889 63.4296 65.7884 63.3481 65.422 63.1798C65.1176 63.0254 64.8539 62.8018 64.6521 62.527C64.4413 62.2448 64.2823 61.9276 64.1824 61.5901C64.0794 61.2245 64.0199 60.8482 64.0054 60.4687V59.7315C64.0207 59.3572 64.0801 58.986 64.1824 58.6255C64.2823 58.2856 64.4412 57.9659 64.6521 57.6809C64.8536 57.4038 65.1172 57.1776 65.422 57.0204C65.7897 56.856 66.1893 56.7747 66.5922 56.7823C66.9733 56.7639 67.3533 56.8357 67.7012 56.9919C68.0491 57.1481 68.355 57.3842 68.5939 57.6809V54.8546C68.5933 54.8172 68.6006 54.7802 68.6152 54.7458C68.6297 54.7115 68.6513 54.6805 68.6786 54.6549C68.7036 54.6269 68.7345 54.6048 68.7692 54.5902C68.8038 54.5756 68.8412 54.5688 68.8788 54.5704H69.4716C69.5089 54.5703 69.5459 54.5777 69.5803 54.5923C69.6147 54.6068 69.6458 54.6281 69.6717 54.6549C69.699 54.6805 69.7206 54.7115 69.7352 54.7458C69.7497 54.7802 69.757 54.8172 69.7564 54.8546V63.0124C69.7571 63.0509 69.75 63.0891 69.7354 63.1248C69.7209 63.1604 69.6992 63.1927 69.6717 63.2198C69.6454 63.2456 69.6141 63.2657 69.5796 63.2789C69.5452 63.2921 69.5084 63.2981 69.4716 63.2966H68.9019C68.8636 63.3004 68.825 63.2955 68.789 63.2821C68.753 63.2688 68.7205 63.2475 68.694 63.2198C68.6675 63.1924 68.647 63.1598 68.6338 63.1241C68.6205 63.0884 68.6148 63.0504 68.617 63.0124V62.4963C68.4076 62.766 68.1458 62.9907 67.8471 63.1568C67.4551 63.3488 67.0207 63.4387 66.5845 63.4179M66.8462 62.4272C67.197 62.4425 67.5432 62.3427 67.8317 62.143C68.0765 61.9548 68.2676 61.7059 68.386 61.4211C68.5062 61.139 68.5715 60.8366 68.5785 60.5302V59.5779C68.5678 59.2859 68.4998 58.9989 68.3783 58.733C68.2551 58.4551 68.0581 58.2161 67.8086 58.0418C67.5123 57.8637 67.1729 57.7696 66.827 57.7696C66.4811 57.7696 66.1417 57.8637 65.8454 58.0418C65.6004 58.2245 65.4154 58.4758 65.3142 58.7638C65.1975 59.0793 65.13 59.4109 65.114 59.7468V60.4611C65.1271 60.7885 65.1894 61.1121 65.2988 61.4211C65.3917 61.7259 65.5774 61.9942 65.83 62.1891C66.1345 62.3774 66.4929 62.4601 66.8493 62.4241L66.8462 62.4272Z" fill="#1DB4FF"/>
<path d="M75.0438 63.2966C75.0045 63.2993 74.9651 63.2939 74.928 63.2806C74.8909 63.2674 74.857 63.2467 74.8283 63.2198C74.7805 63.1615 74.7558 63.0877 74.759 63.0125V54.9883C74.7538 54.9104 74.7786 54.8335 74.8283 54.7732C74.8565 54.7452 74.8902 54.7233 74.9273 54.7088C74.9644 54.6943 75.004 54.6874 75.0438 54.6887H78.2081C78.7525 54.6781 79.2931 54.7828 79.794 54.9959C80.223 55.1734 80.5862 55.4793 80.8334 55.8715C81.0933 56.3129 81.2215 56.8191 81.2029 57.3307C81.2217 57.8374 81.0934 58.3388 80.8334 58.7746C80.5829 59.1639 80.2207 59.469 79.794 59.6501C79.2916 59.8568 78.7514 59.9563 78.2081 59.9419H76.0293V63.014C76.0305 63.0504 76.0245 63.0868 76.0116 63.1209C75.9987 63.155 75.9792 63.1862 75.9541 63.2128C75.9291 63.2393 75.899 63.2607 75.8657 63.2756C75.8323 63.2905 75.7964 63.2987 75.7598 63.2997H75.0423L75.0438 63.2966ZM75.9754 58.9113H78.108C78.5992 58.9464 79.0864 58.8016 79.4784 58.5042C79.7685 58.1797 79.9289 57.7601 79.9289 57.3253C79.9289 56.8905 79.7685 56.4709 79.4784 56.1464C79.0866 55.8365 78.5907 55.6881 78.0926 55.7317H75.9754V58.9113Z" fill="#1DB4FF"/>
<path d="M82.8274 63.2919C82.7904 63.2945 82.7534 63.2889 82.7188 63.2756C82.6842 63.2624 82.6529 63.2417 82.6272 63.2151C82.5998 63.1881 82.5781 63.1558 82.5635 63.1201C82.549 63.0845 82.5418 63.0463 82.5425 63.0078V57.2001C82.5416 57.1201 82.572 57.043 82.6272 56.985C82.6522 56.957 82.6832 56.9349 82.7178 56.9203C82.7524 56.9057 82.7898 56.899 82.8274 56.9005H83.3971C83.4746 56.9016 83.5488 56.9318 83.605 56.985C83.6602 57.043 83.6906 57.1201 83.6897 57.2001V57.7377C83.8454 57.4634 84.0819 57.2435 84.3672 57.1079C84.6905 56.9605 85.0435 56.8895 85.3988 56.9005H85.8915C85.9291 56.899 85.9665 56.9057 86.0011 56.9203C86.0357 56.9349 86.0667 56.957 86.0917 56.985C86.1418 57.0394 86.1693 57.1108 86.1687 57.1847V57.6916C86.1687 57.7631 86.1412 57.8318 86.0917 57.8836C86.066 57.9102 86.0347 57.9308 86.0001 57.9441C85.9656 57.9573 85.9285 57.9629 85.8915 57.9604H85.1217C84.9302 57.9508 84.7388 57.9799 84.5589 58.0459C84.379 58.1119 84.2142 58.2134 84.0746 58.3444C83.9444 58.4857 83.844 58.6517 83.7792 58.8324C83.7144 59.0131 83.6866 59.2049 83.6974 59.3966V63.0062C83.6981 63.0447 83.6909 63.0829 83.6764 63.1186C83.6618 63.1542 83.6401 63.1866 83.6127 63.2136C83.5534 63.2659 83.4762 63.2934 83.3971 63.2904L82.8274 63.2919Z" fill="#1DB4FF"/>
<path d="M87.3713 55.7102C87.2973 55.7108 87.2257 55.6833 87.1712 55.6334C87.1437 55.6063 87.122 55.574 87.1075 55.5384C87.0929 55.5027 87.0858 55.4645 87.0865 55.426V54.7655C87.0858 54.727 87.0929 54.6888 87.1075 54.6532C87.122 54.6175 87.1437 54.5852 87.1712 54.5581C87.1972 54.532 87.2285 54.5116 87.263 54.4984C87.2975 54.4851 87.3344 54.4793 87.3713 54.4814H88.1412C88.1781 54.4793 88.215 54.4851 88.2495 54.4984C88.2841 54.5116 88.3154 54.532 88.3414 54.5581C88.3688 54.5852 88.3905 54.6175 88.4051 54.6532C88.4196 54.6888 88.4268 54.727 88.4261 54.7655V55.426C88.4268 55.4645 88.4196 55.5027 88.4051 55.5384C88.3905 55.574 88.3688 55.6063 88.3414 55.6334C88.2868 55.6833 88.2153 55.7108 88.1412 55.7102H87.3713ZM87.4714 63.292C87.4345 63.2945 87.3974 63.289 87.3628 63.2757C87.3282 63.2624 87.297 63.2418 87.2712 63.2152C87.2438 63.1882 87.2221 63.1558 87.2076 63.1202C87.193 63.0845 87.1859 63.0463 87.1866 63.0078V57.1847C87.186 57.1474 87.1932 57.1104 87.2078 57.076C87.2224 57.0416 87.244 57.0107 87.2712 56.9851C87.2963 56.9571 87.3272 56.935 87.3618 56.9204C87.3964 56.9058 87.4339 56.899 87.4714 56.9006H88.0642C88.1005 56.9002 88.1364 56.9076 88.1696 56.9222C88.2028 56.9367 88.2325 56.9582 88.2567 56.9851C88.2829 57.011 88.3034 57.0423 88.3166 57.0767C88.3299 57.1111 88.3357 57.1479 88.3337 57.1847V63.0078C88.3358 63.0458 88.3301 63.0838 88.3169 63.1195C88.3036 63.1552 88.2831 63.1878 88.2567 63.2152C88.2321 63.2411 88.2021 63.2614 88.1689 63.2746C88.1357 63.2879 88.1 63.2938 88.0642 63.292H87.4714Z" fill="#1DB4FF"/>
<path d="M90.5276 63.292C90.4907 63.2935 90.454 63.2875 90.4195 63.2743C90.3851 63.2611 90.3538 63.241 90.3274 63.2152C90.301 63.1878 90.2805 63.1552 90.2673 63.1195C90.254 63.0838 90.2483 63.0458 90.2504 63.0078V57.1847C90.2484 57.1479 90.2542 57.1111 90.2675 57.0767C90.2808 57.0423 90.3012 57.011 90.3274 56.9851C90.3534 56.9583 90.3845 56.9369 90.4189 56.9224C90.4533 56.9079 90.4903 56.9005 90.5276 56.9006H91.1127C91.1501 56.9005 91.1871 56.9079 91.2214 56.9224C91.2558 56.9369 91.287 56.9583 91.3129 56.9851C91.3391 57.011 91.3596 57.0423 91.3728 57.0767C91.3861 57.1111 91.3919 57.1479 91.3899 57.1847V57.7223C91.6076 57.4418 91.8833 57.2113 92.1983 57.0465C92.5875 56.8539 93.0189 56.7615 93.4532 56.7777C93.9297 56.7616 94.4005 56.8844 94.8082 57.131C95.1839 57.3585 95.4798 57.6965 95.6551 58.0987C95.8543 58.5535 95.9515 59.0463 95.9399 59.5425V63.0063C95.9421 63.0443 95.9363 63.0823 95.9231 63.118C95.9099 63.1537 95.8894 63.1862 95.8629 63.2137C95.8383 63.2396 95.8083 63.2598 95.7751 63.2731C95.7419 63.2863 95.7062 63.2923 95.6704 63.2904H95.0545C95.0203 63.2936 94.9857 63.29 94.9528 63.2798C94.9199 63.2696 94.8894 63.2531 94.8629 63.2311C94.8365 63.2092 94.8146 63.1822 94.7986 63.1518C94.7826 63.1214 94.7728 63.0881 94.7697 63.0539C94.7681 63.0376 94.7681 63.0211 94.7697 63.0047V59.604C94.7988 59.1193 94.6481 58.6409 94.3462 58.26C94.1899 58.093 93.9982 57.9629 93.7851 57.8792C93.572 57.7955 93.3429 57.7603 93.1144 57.7761C92.8865 57.7655 92.6589 57.8031 92.4466 57.8865C92.2343 57.9699 92.0421 58.0972 91.8826 58.26C91.5588 58.6307 91.393 59.113 91.4207 59.604V63.0063C91.4239 63.0405 91.4202 63.075 91.41 63.1078C91.3998 63.1406 91.3832 63.171 91.3612 63.1974C91.3392 63.2238 91.3122 63.2456 91.2817 63.2616C91.2512 63.2776 91.2178 63.2874 91.1836 63.2904H90.5184L90.5276 63.292Z" fill="#1DB4FF"/>
<path d="M100.16 63.292C99.7688 63.3096 99.3799 63.2193 99.0364 63.0309C98.7494 62.8504 98.5302 62.5804 98.4128 62.2629C98.2737 61.8976 98.2058 61.5092 98.2126 61.1185V57.8683H97.2503C97.2134 57.8699 97.1766 57.8638 97.1422 57.8506C97.1078 57.8374 97.0764 57.8173 97.0501 57.7915C97.0236 57.7641 97.0032 57.7315 96.9899 57.6958C96.9767 57.6601 96.9709 57.6221 96.9731 57.5841V57.1694C96.9711 57.1326 96.9769 57.0958 96.9902 57.0613C97.0034 57.0269 97.0239 56.9957 97.0501 56.9697C97.076 56.9429 97.1071 56.9216 97.1415 56.9071C97.1759 56.8926 97.2129 56.8851 97.2503 56.8852H98.228V54.8316C98.2274 54.7577 98.2549 54.6863 98.305 54.6319C98.3321 54.6045 98.3645 54.5829 98.4003 54.5684C98.436 54.5538 98.4743 54.5467 98.5129 54.5474H99.0903C99.1289 54.5467 99.1672 54.5538 99.2029 54.5684C99.2387 54.5829 99.2711 54.6045 99.2982 54.6319C99.3482 54.6863 99.3758 54.7577 99.3752 54.8316V56.8822H100.915C100.953 56.8815 100.992 56.8886 101.028 56.9031C101.063 56.9177 101.096 56.9393 101.123 56.9666C101.149 56.9926 101.169 57.0238 101.183 57.0583C101.196 57.0927 101.202 57.1295 101.2 57.1663V57.5811C101.203 57.6153 101.199 57.6497 101.189 57.6825C101.179 57.7153 101.162 57.7458 101.14 57.7722C101.118 57.7986 101.091 57.8204 101.061 57.8364C101.03 57.8523 100.997 57.8621 100.963 57.8652C100.946 57.8668 100.93 57.8668 100.913 57.8652H99.3736V61.0218C99.3529 61.3416 99.4222 61.6608 99.5738 61.9434C99.6509 62.0553 99.7563 62.1448 99.8794 62.2028C100.002 62.2609 100.139 62.2853 100.274 62.2736H101.044C101.079 62.2705 101.113 62.2741 101.146 62.2842C101.179 62.2944 101.209 62.311 101.236 62.3329C101.262 62.3549 101.284 62.3819 101.3 62.4123C101.316 62.4427 101.326 62.476 101.329 62.5102C101.331 62.5265 101.331 62.543 101.329 62.5593V62.9971C101.332 63.0313 101.329 63.0658 101.318 63.0986C101.308 63.1314 101.292 63.1619 101.27 63.1883C101.248 63.2146 101.221 63.2365 101.19 63.2524C101.16 63.2684 101.126 63.2782 101.092 63.2813H101.043L100.16 63.292Z" fill="#1DB4FF"/>
<path d="M102.663 55.7102C102.587 55.7103 102.513 55.6831 102.455 55.6334C102.429 55.6059 102.408 55.5734 102.395 55.5377C102.382 55.502 102.376 55.464 102.378 55.426V54.7655C102.375 54.7313 102.379 54.6968 102.389 54.664C102.399 54.6312 102.416 54.6007 102.438 54.5743C102.46 54.5479 102.487 54.5261 102.517 54.5102C102.548 54.4942 102.581 54.4844 102.615 54.4813H103.434C103.469 54.4782 103.503 54.4818 103.536 54.492C103.569 54.5021 103.6 54.5187 103.626 54.5407C103.652 54.5626 103.674 54.5896 103.69 54.62C103.706 54.6504 103.716 54.6837 103.719 54.7179C103.721 54.7342 103.721 54.7507 103.719 54.767V55.4275C103.721 55.4655 103.716 55.5035 103.702 55.5392C103.689 55.5749 103.669 55.6075 103.642 55.6349C103.584 55.6846 103.511 55.7119 103.434 55.7117L102.663 55.7102ZM102.755 63.292C102.718 63.2935 102.682 63.2875 102.647 63.2743C102.613 63.2611 102.581 63.241 102.555 63.2152C102.529 63.1878 102.508 63.1552 102.495 63.1195C102.482 63.0838 102.476 63.0458 102.478 63.0078V57.1863C102.476 57.1495 102.482 57.1126 102.495 57.0782C102.508 57.0438 102.529 57.0126 102.555 56.9866C102.581 56.9598 102.612 56.9385 102.647 56.924C102.681 56.9095 102.718 56.902 102.755 56.9021H103.348C103.386 56.9016 103.423 56.9088 103.457 56.9233C103.492 56.9379 103.523 56.9594 103.548 56.9866C103.596 57.0418 103.621 57.1133 103.618 57.1863V63.0094C103.621 63.0846 103.596 63.1584 103.548 63.2167C103.522 63.2429 103.491 63.2633 103.456 63.2765C103.422 63.2897 103.385 63.2956 103.348 63.2935L102.755 63.292Z" fill="#1DB4FF"/>
<path d="M105.852 63.292C105.815 63.294 105.778 63.2882 105.743 63.275C105.709 63.2618 105.678 63.2414 105.652 63.2152C105.624 63.1882 105.603 63.1558 105.588 63.1202C105.573 63.0845 105.566 63.0463 105.567 63.0078V57.1848C105.569 57.11 105.6 57.0388 105.653 56.986C105.706 56.9331 105.777 56.9025 105.852 56.9006H106.429C106.468 56.8999 106.506 56.907 106.542 56.9216C106.578 56.9361 106.61 56.9577 106.637 56.9851C106.663 57.0111 106.684 57.0423 106.697 57.0767C106.71 57.1111 106.716 57.1479 106.714 57.1848V57.7224C106.92 57.4457 107.183 57.2154 107.484 57.0465C107.87 56.8539 108.299 56.7614 108.731 56.7777C109.21 56.7601 109.684 56.8829 110.094 57.131C110.468 57.3606 110.763 57.698 110.941 58.0987C111.134 58.5553 111.228 59.0472 111.218 59.5426V63.0063C111.221 63.0816 111.196 63.1554 111.149 63.2137C111.123 63.2398 111.091 63.2602 111.057 63.2735C111.022 63.2867 110.985 63.2925 110.948 63.2905H110.333C110.296 63.292 110.259 63.286 110.224 63.2728C110.19 63.2596 110.159 63.2395 110.132 63.2137C110.106 63.1862 110.085 63.1537 110.072 63.118C110.059 63.0823 110.053 63.0443 110.055 63.0063V59.604C110.081 59.1197 109.931 58.6424 109.632 58.26C109.476 58.093 109.284 57.9629 109.071 57.8792C108.858 57.7955 108.629 57.7603 108.4 57.7761C108.172 57.7651 107.944 57.8025 107.732 57.886C107.52 57.9694 107.328 58.0969 107.168 58.26C106.844 58.6306 106.679 59.113 106.706 59.604V63.0063C106.707 63.0448 106.7 63.083 106.685 63.1187C106.671 63.1543 106.649 63.1866 106.622 63.2137C106.596 63.2403 106.565 63.2609 106.53 63.2742C106.496 63.2874 106.458 63.293 106.422 63.2905L105.852 63.292Z" fill="#1DB4FF"/>
<path d="M115.66 65.9954C115.188 66.0142 114.717 65.9384 114.274 65.7727C113.962 65.6531 113.677 65.473 113.435 65.2428C113.256 65.0597 113.11 64.8465 113.004 64.613C112.933 64.4546 112.886 64.2863 112.865 64.1138C112.861 64.0756 112.866 64.037 112.879 64.001C112.893 63.9651 112.914 63.9327 112.942 63.9064C112.999 63.8532 113.073 63.823 113.15 63.8219H113.743C113.808 63.8209 113.871 63.8368 113.928 63.868C113.986 63.9282 114.029 64.0022 114.051 64.0831C114.111 64.2246 114.183 64.3608 114.267 64.4901C114.384 64.6585 114.543 64.7935 114.729 64.8818C114.997 65.0098 115.294 65.0679 115.591 65.0508C115.921 65.0584 116.25 65.0064 116.561 64.8972C116.82 64.7973 117.034 64.606 117.161 64.3596C117.31 64.0213 117.379 63.6534 117.362 63.2843V62.4472C117.153 62.7114 116.891 62.9287 116.592 63.0847C116.216 63.2665 115.801 63.3535 115.383 63.3381C114.977 63.3479 114.573 63.2638 114.205 63.0923C113.887 62.946 113.61 62.7246 113.397 62.4472C113.186 62.1622 113.027 61.8425 112.927 61.5025C112.825 61.1421 112.765 60.7709 112.75 60.3966V59.7208C112.765 59.3465 112.825 58.9753 112.927 58.6148C113.027 58.2749 113.186 57.9552 113.397 57.6702C113.609 57.3884 113.886 57.1618 114.205 57.0097C114.575 56.8445 114.978 56.7632 115.383 56.7716C115.811 56.7571 116.235 56.8523 116.615 57.0481C116.912 57.2201 117.173 57.4469 117.385 57.7162V57.194C117.382 57.1151 117.409 57.0381 117.462 56.9789C117.489 56.9516 117.521 56.9299 117.557 56.9154C117.593 56.9009 117.631 56.8938 117.67 56.8945H118.244C118.282 56.8938 118.321 56.9009 118.357 56.9154C118.392 56.9299 118.425 56.9516 118.452 56.9789C118.481 57.0065 118.504 57.0399 118.52 57.0769C118.536 57.1139 118.544 57.1537 118.544 57.194V63.1553C118.554 63.6556 118.459 64.1524 118.267 64.6145C118.077 65.0411 117.752 65.3942 117.343 65.6206C116.82 65.8885 116.237 66.0156 115.649 65.9893M115.649 62.3566C116.003 62.3727 116.352 62.2728 116.643 62.0724C116.89 61.8896 117.081 61.6425 117.197 61.3582C117.318 61.0817 117.383 60.7842 117.389 60.4826V59.6378C117.381 59.3365 117.315 59.0395 117.197 58.7623C117.083 58.4789 116.891 58.2338 116.643 58.0557C116.354 57.8497 116.003 57.7493 115.649 57.7715C115.299 57.7541 114.953 57.8512 114.664 58.048C114.418 58.2283 114.235 58.4807 114.14 58.77C114.03 59.0814 113.968 59.4076 113.956 59.7377V60.3905C113.969 60.7179 114.031 61.0415 114.14 61.3505C114.235 61.6417 114.418 61.8965 114.664 62.0801C114.945 62.2706 115.279 62.3673 115.619 62.3566H115.649Z" fill="#1DB4FF"/>
<path d="M126.34 63.4149C125.724 63.4334 125.11 63.3235 124.539 63.0923C124.098 62.9107 123.713 62.6167 123.422 62.2398C123.177 61.921 123.035 61.5353 123.014 61.1339C123.014 61.099 123.022 61.0645 123.035 61.0324C123.049 61.0003 123.069 60.9712 123.094 60.9469C123.119 60.9226 123.149 60.9035 123.181 60.8908C123.214 60.8781 123.249 60.8719 123.284 60.8728H123.915C123.954 60.8695 123.994 60.8747 124.031 60.8879C124.068 60.9012 124.102 60.9222 124.13 60.9495C124.182 60.9928 124.218 61.0524 124.231 61.1185C124.287 61.334 124.393 61.5336 124.539 61.7022C124.723 61.9127 124.955 62.076 125.216 62.1784C125.576 62.3196 125.961 62.385 126.348 62.3704C126.888 62.4098 127.427 62.2781 127.888 61.994C128.046 61.8811 128.175 61.731 128.262 61.557C128.35 61.3829 128.393 61.1902 128.388 60.9956C128.394 60.8686 128.375 60.7417 128.33 60.6227C128.285 60.5038 128.215 60.3954 128.126 60.3044C127.892 60.0923 127.617 59.9303 127.318 59.8283C126.956 59.69 126.486 59.5364 125.909 59.3674C125.397 59.2253 124.899 59.035 124.423 58.7991C124.064 58.6266 123.759 58.3614 123.538 58.0311C123.335 57.682 123.236 57.2823 123.253 56.8791C123.246 56.4554 123.369 56.0398 123.607 55.6887C123.87 55.3246 124.226 55.038 124.639 54.8592C125.155 54.6435 125.711 54.5389 126.271 54.552C126.723 54.5426 127.174 54.6128 127.603 54.7594C127.953 54.8738 128.278 55.0565 128.557 55.297C128.795 55.4995 128.994 55.7443 129.142 56.0189C129.268 56.2565 129.338 56.5188 129.35 56.7869C129.347 56.8458 129.326 56.9022 129.289 56.9482C129.264 56.9767 129.233 56.9992 129.199 57.0138C129.164 57.0285 129.126 57.0349 129.089 57.0327H128.434C128.371 57.0321 128.31 57.0134 128.257 56.9789C128.189 56.9377 128.139 56.8717 128.119 56.7946C128.088 56.622 128.021 56.4577 127.923 56.3122C127.825 56.1667 127.697 56.0433 127.549 55.9498C127.169 55.7048 126.722 55.584 126.271 55.6042C125.817 55.582 125.366 55.6885 124.97 55.9114C124.807 56.0111 124.674 56.1531 124.586 56.3222C124.498 56.4913 124.458 56.6811 124.469 56.8714C124.459 57.1235 124.545 57.3701 124.708 57.5626C124.922 57.7848 125.186 57.9533 125.478 58.0541C125.908 58.2257 126.347 58.3719 126.794 58.4919C127.347 58.6348 127.886 58.8276 128.403 59.0679C128.779 59.2327 129.102 59.4986 129.335 59.8359C129.551 60.1807 129.658 60.5819 129.643 60.9879C129.657 61.46 129.516 61.9237 129.243 62.3089C128.947 62.687 128.553 62.9767 128.103 63.1461C127.542 63.3413 126.949 63.4299 126.355 63.4072" fill="#1DB4FF"/>
<path d="M133.694 63.4149C133.159 63.4327 132.628 63.3109 132.154 63.0616C131.743 62.8328 131.408 62.4882 131.192 62.0708C130.962 61.623 130.836 61.1297 130.822 60.627V59.5671C130.833 59.063 130.962 58.5685 131.2 58.1233C131.404 57.7168 131.718 57.3761 132.108 57.1402C132.588 56.9078 133.114 56.7871 133.648 56.7871C134.181 56.7871 134.708 56.9078 135.188 57.1402C135.597 57.3678 135.932 57.7094 136.15 58.1233C136.384 58.5697 136.513 59.0635 136.527 59.5671V60.627C136.513 61.1297 136.387 61.623 136.158 62.0708C135.941 62.4882 135.607 62.8328 135.195 63.0616C134.733 63.3045 134.216 63.4261 133.694 63.4149ZM133.694 62.4702C133.92 62.4806 134.145 62.4428 134.355 62.3594C134.564 62.2759 134.754 62.1488 134.91 61.9864C135.244 61.5895 135.42 61.0835 135.403 60.5655V59.6286C135.419 59.113 135.244 58.6097 134.91 58.2154C134.756 58.0492 134.568 57.9189 134.357 57.8339C134.147 57.7489 133.92 57.7114 133.694 57.7239C133.465 57.7129 133.237 57.751 133.024 57.8359C132.812 57.9207 132.62 58.0501 132.462 58.2154C132.127 58.6084 131.954 59.1133 131.977 59.6286V60.5655C131.954 61.0831 132.128 61.5902 132.462 61.9864C132.621 62.1495 132.814 62.277 133.026 62.3604C133.238 62.4438 133.466 62.4812 133.694 62.4702Z" fill="#1DB4FF"/>
<path d="M138.435 63.2919C138.398 63.2945 138.361 63.2889 138.326 63.2756C138.292 63.2624 138.26 63.2417 138.235 63.2151C138.207 63.1881 138.186 63.1558 138.171 63.1201C138.156 63.0845 138.149 63.0462 138.15 63.0078V54.8499C138.149 54.8126 138.157 54.7756 138.171 54.7412C138.186 54.7068 138.207 54.6758 138.235 54.6503C138.26 54.6223 138.291 54.6002 138.325 54.5856C138.36 54.571 138.397 54.5642 138.435 54.5658H139.035C139.072 54.5648 139.108 54.5709 139.142 54.5838C139.176 54.5968 139.207 54.6163 139.234 54.6413C139.26 54.6663 139.281 54.6962 139.296 54.7293C139.311 54.7625 139.319 54.7983 139.32 54.8346V63.0078C139.322 63.0458 139.317 63.0838 139.303 63.1195C139.29 63.1551 139.27 63.1877 139.243 63.2151C139.217 63.2429 139.184 63.2642 139.148 63.2775C139.112 63.2908 139.074 63.2958 139.035 63.2919H138.435Z" fill="#1DB4FF"/>
<path d="M143.533 63.4179C143.062 63.4333 142.597 63.3133 142.193 63.0723C141.821 62.8229 141.529 62.4706 141.354 62.0585C141.159 61.6052 141.062 61.1158 141.069 60.6224V57.154C141.071 57.0793 141.102 57.0081 141.155 56.9552C141.208 56.9023 141.279 56.8718 141.354 56.8698H141.97C142.048 56.87 142.122 56.9003 142.178 56.9543C142.228 57.0088 142.256 57.0801 142.255 57.154V60.5563C142.255 61.7851 142.786 62.3995 143.856 62.3995C144.085 62.4106 144.313 62.3724 144.526 62.2876C144.738 62.2028 144.93 62.0733 145.088 61.908C145.414 61.5385 145.58 61.0553 145.55 60.564V57.154C145.549 57.1167 145.557 57.0797 145.571 57.0453C145.586 57.0109 145.607 56.9799 145.635 56.9543C145.66 56.9264 145.691 56.9043 145.725 56.8897C145.76 56.875 145.797 56.8683 145.835 56.8698H146.435C146.472 56.8688 146.508 56.875 146.542 56.8879C146.576 56.9009 146.607 56.9204 146.634 56.9454C146.66 56.9703 146.681 57.0002 146.696 57.0334C146.711 57.0666 146.719 57.1023 146.72 57.1386V62.9756C146.722 63.0135 146.717 63.0516 146.703 63.0872C146.69 63.1229 146.67 63.1555 146.643 63.1829C146.617 63.2107 146.584 63.232 146.548 63.2453C146.512 63.2586 146.474 63.2635 146.435 63.2597H145.873C145.839 63.2629 145.805 63.2593 145.772 63.2491C145.739 63.2389 145.708 63.2224 145.682 63.2004C145.655 63.1784 145.633 63.1515 145.617 63.121C145.601 63.0906 145.592 63.0574 145.589 63.0232C145.587 63.0068 145.587 62.9904 145.589 62.974V62.4364C145.368 62.7184 145.093 62.9535 144.78 63.1276C144.396 63.3218 143.971 63.4194 143.541 63.4118" fill="#1DB4FF"/>
<path d="M151.056 63.292C150.667 63.3108 150.28 63.2203 149.94 63.0309C149.65 62.8517 149.428 62.5816 149.309 62.2629C149.172 61.8971 149.107 61.5087 149.116 61.1185V57.8683H148.154C148.119 57.8715 148.085 57.8679 148.052 57.8577C148.019 57.8475 147.989 57.831 147.962 57.809C147.936 57.787 147.914 57.76 147.898 57.7296C147.882 57.6992 147.872 57.666 147.869 57.6318C147.867 57.6154 147.867 57.5989 147.869 57.5826V57.1679C147.867 57.1311 147.873 57.0942 147.886 57.0598C147.899 57.0254 147.92 56.9942 147.946 56.9682C147.973 56.9408 148.005 56.9192 148.041 56.9047C148.077 56.8901 148.115 56.883 148.154 56.8837H149.116V54.8316C149.114 54.7948 149.12 54.7579 149.133 54.7235C149.146 54.6891 149.167 54.6579 149.193 54.6319C149.219 54.6051 149.25 54.5838 149.285 54.5693C149.319 54.5547 149.356 54.5473 149.393 54.5474H149.971C150.009 54.5467 150.048 54.5538 150.083 54.5684C150.119 54.5829 150.151 54.6045 150.179 54.6319C150.205 54.6579 150.225 54.6891 150.238 54.7235C150.252 54.7579 150.258 54.7948 150.256 54.8316V56.8822H151.795C151.833 56.8821 151.87 56.8895 151.904 56.904C151.938 56.9185 151.97 56.9398 151.995 56.9666C152.022 56.9926 152.042 57.0238 152.055 57.0583C152.069 57.0927 152.074 57.1295 152.072 57.1663V57.5811C152.075 57.619 152.069 57.6571 152.056 57.6928C152.042 57.7284 152.022 57.761 151.995 57.7884C151.969 57.8142 151.938 57.8343 151.903 57.8475C151.869 57.8608 151.832 57.8668 151.795 57.8652H150.256V61.0218C150.239 61.3413 150.308 61.6595 150.456 61.9434C150.533 62.0553 150.638 62.1448 150.761 62.2028C150.884 62.2609 151.021 62.2853 151.156 62.2736H151.926C151.963 62.2721 152 62.2781 152.034 62.2913C152.069 62.3045 152.1 62.3246 152.126 62.3504C152.154 62.3775 152.175 62.4098 152.19 62.4454C152.205 62.4811 152.212 62.5193 152.211 62.5578V62.9956C152.212 63.034 152.205 63.0723 152.19 63.1079C152.175 63.1436 152.154 63.1759 152.126 63.2029C152.1 63.2287 152.069 63.2488 152.034 63.262C152 63.2753 151.963 63.2813 151.926 63.2797L151.056 63.292Z" fill="#1DB4FF"/>
<path d="M153.554 55.7102C153.48 55.7108 153.408 55.6833 153.354 55.6334C153.326 55.6063 153.305 55.574 153.29 55.5384C153.276 55.5027 153.268 55.4645 153.269 55.426V54.7655C153.268 54.727 153.276 54.6888 153.29 54.6532C153.305 54.6175 153.326 54.5852 153.354 54.5581C153.38 54.532 153.411 54.5116 153.446 54.4984C153.48 54.4851 153.517 54.4793 153.554 54.4814H154.324C154.361 54.4793 154.398 54.4851 154.432 54.4984C154.467 54.5116 154.498 54.532 154.524 54.5581C154.551 54.5852 154.573 54.6175 154.588 54.6532C154.602 54.6888 154.609 54.727 154.609 54.7655V55.426C154.609 55.4645 154.602 55.5027 154.588 55.5384C154.573 55.574 154.551 55.6063 154.524 55.6334C154.469 55.6833 154.398 55.7108 154.324 55.7102H153.554ZM153.654 63.292C153.616 63.2942 153.578 63.2884 153.542 63.2752C153.506 63.262 153.474 63.2416 153.446 63.2152C153.396 63.1576 153.369 63.0839 153.369 63.0078V57.1848C153.369 57.1109 153.396 57.0395 153.446 56.9851C153.473 56.9577 153.506 56.9361 153.541 56.9215C153.577 56.907 153.615 56.8999 153.654 56.9006H154.247C154.283 56.9002 154.319 56.9076 154.352 56.9222C154.385 56.9367 154.415 56.9582 154.439 56.9851C154.466 57.011 154.486 57.0423 154.499 57.0767C154.513 57.1111 154.518 57.1479 154.516 57.1848V63.0078C154.518 63.0458 154.513 63.0838 154.5 63.1195C154.486 63.1552 154.466 63.1878 154.439 63.2152C154.415 63.2411 154.385 63.2614 154.352 63.2746C154.318 63.2879 154.283 63.2938 154.247 63.292H153.654Z" fill="#1DB4FF"/>
<path d="M158.989 63.4148C158.454 63.4291 157.924 63.3076 157.449 63.0615C157.04 62.8327 156.708 62.4879 156.495 62.0708C156.265 61.6229 156.139 61.1297 156.125 60.6269V59.5671C156.137 59.0641 156.263 58.5703 156.495 58.1232C156.718 57.7107 157.055 57.3698 157.465 57.1402C157.944 56.906 158.471 56.7843 159.004 56.7843C159.538 56.7843 160.065 56.906 160.544 57.1402C160.956 57.3677 161.293 57.7091 161.514 58.1232C161.745 58.5711 161.873 59.064 161.891 59.5671V60.6269C161.87 61.1286 161.744 61.6203 161.522 62.0708C161.304 62.4867 160.969 62.8308 160.56 63.0615C160.076 63.314 159.534 63.4357 158.989 63.4148ZM158.989 62.4702C159.215 62.4806 159.44 62.4428 159.65 62.3593C159.859 62.2759 160.049 62.1487 160.205 61.9863C160.536 61.5873 160.711 61.0828 160.698 60.5655V59.6285C160.711 59.1135 160.535 58.6115 160.205 58.2154C160.051 58.0491 159.863 57.9188 159.652 57.8339C159.442 57.7489 159.216 57.7113 158.989 57.7239C158.76 57.7127 158.532 57.7508 158.319 57.8357C158.107 57.9205 157.915 58.05 157.757 58.2154C157.422 58.6084 157.249 59.1133 157.272 59.6285V60.5655C157.25 61.083 157.423 61.5901 157.757 61.9863C157.917 62.1491 158.109 62.2764 158.321 62.3598C158.533 62.4432 158.761 62.4808 158.989 62.4702Z" fill="#1DB4FF"/>
<path d="M163.718 63.292C163.681 63.294 163.644 63.2882 163.61 63.275C163.575 63.2618 163.544 63.2414 163.518 63.2152C163.49 63.1882 163.469 63.1558 163.454 63.1202C163.44 63.0845 163.432 63.0463 163.433 63.0078V57.1848C163.435 57.11 163.466 57.0388 163.519 56.986C163.572 56.9331 163.643 56.9025 163.718 56.9006H164.295C164.334 56.8999 164.372 56.907 164.408 56.9216C164.444 56.9361 164.476 56.9577 164.503 56.9851C164.53 57.0111 164.55 57.0423 164.563 57.0767C164.577 57.1111 164.582 57.1479 164.58 57.1848V57.7224C164.798 57.4418 165.074 57.2113 165.389 57.0465C165.775 56.8539 166.204 56.7614 166.636 56.7777C167.115 56.7617 167.588 56.8844 167.999 57.131C168.371 57.3629 168.665 57.6997 168.845 58.0987C169.038 58.5553 169.133 59.0472 169.123 59.5426V63.0063C169.126 63.0816 169.101 63.1554 169.053 63.2137C169.027 63.2398 168.996 63.2602 168.961 63.2735C168.927 63.2867 168.89 63.2925 168.853 63.2905H168.237C168.2 63.292 168.164 63.286 168.129 63.2728C168.095 63.2596 168.063 63.2395 168.037 63.2137C168.01 63.1866 167.988 63.1543 167.973 63.1187C167.959 63.083 167.952 63.0448 167.952 63.0063V59.604C167.98 59.1207 167.833 58.6435 167.537 58.26C167.38 58.093 167.189 57.9629 166.976 57.8792C166.762 57.7955 166.533 57.7603 166.305 57.7761C166.077 57.7651 165.849 57.8025 165.637 57.886C165.424 57.9694 165.232 58.0969 165.073 58.26C164.749 58.6306 164.583 59.113 164.611 59.604V63.0063C164.612 63.0448 164.605 63.083 164.59 63.1187C164.576 63.1543 164.554 63.1866 164.526 63.2137C164.5 63.2398 164.469 63.2602 164.435 63.2735C164.4 63.2867 164.363 63.2925 164.326 63.2905L163.718 63.292Z" fill="#1DB4FF"/>
<path d="M173.12 63.4148C172.718 63.425 172.317 63.3679 171.934 63.2459C171.656 63.1478 171.396 63.0052 171.164 62.8234C170.983 62.6878 170.826 62.5214 170.702 62.3319C170.62 62.215 170.564 62.0812 170.541 61.9402C170.533 61.9012 170.537 61.8609 170.552 61.8242C170.567 61.7874 170.593 61.7557 170.625 61.7329C170.68 61.6876 170.747 61.6607 170.818 61.6561H171.364C171.402 61.6469 171.442 61.6469 171.48 61.6561C171.526 61.6791 171.566 61.7135 171.595 61.7559C171.703 61.8711 171.826 61.9863 171.957 62.1015C172.101 62.2236 172.265 62.3197 172.442 62.3857C172.672 62.4658 172.915 62.5023 173.158 62.4932C173.52 62.5091 173.879 62.4268 174.198 62.2551C174.298 62.1974 174.385 62.119 174.453 62.025C174.52 61.931 174.567 61.8236 174.59 61.7101C174.612 61.5967 174.61 61.4797 174.584 61.367C174.557 61.2544 174.507 61.1487 174.436 61.057C174.268 60.9008 174.065 60.7875 173.843 60.7268C173.462 60.6021 173.074 60.4996 172.681 60.4196C172.27 60.3393 171.873 60.1985 171.503 60.0018C171.243 59.8604 171.029 59.647 170.887 59.3874C170.752 59.1268 170.689 58.8354 170.704 58.5427C170.719 58.25 170.811 57.9664 170.972 57.7208C171.165 57.4266 171.43 57.1862 171.742 57.0219C172.153 56.8306 172.604 56.7385 173.058 56.7531C173.429 56.7446 173.799 56.7991 174.151 56.9144C174.43 57.0012 174.69 57.1364 174.921 57.3137C175.094 57.4463 175.242 57.6073 175.36 57.7899C175.445 57.9055 175.5 58.0399 175.522 58.1816C175.526 58.2179 175.523 58.2549 175.511 58.2895C175.499 58.3241 175.479 58.3555 175.452 58.3813C175.399 58.4342 175.327 58.4644 175.252 58.4657H174.736C174.686 58.4803 174.633 58.4803 174.583 58.4657L174.482 58.3813C174.393 58.2664 174.296 58.1586 174.19 58.0587C174.065 57.9432 173.919 57.8544 173.759 57.7976C173.536 57.7198 173.301 57.6834 173.066 57.6901C172.736 57.6637 172.409 57.7563 172.142 57.9512C172.042 58.0258 171.962 58.1235 171.908 58.2358C171.855 58.3482 171.829 58.4719 171.834 58.5963C171.832 58.7473 171.878 58.895 171.965 59.0187C172.107 59.1726 172.288 59.2864 172.488 59.349C172.858 59.4824 173.236 59.5902 173.62 59.6715C174.068 59.7402 174.5 59.8857 174.898 60.1016C175.167 60.2327 175.392 60.439 175.545 60.6955C175.698 60.9519 175.773 61.2473 175.76 61.5455C175.759 61.8871 175.652 62.22 175.452 62.4978C175.229 62.8037 174.921 63.0384 174.567 63.1737C174.098 63.3528 173.598 63.4338 173.097 63.4118" fill="#1DB4FF"/>
<path d="M96.5424 15.5599C96.4721 15.5631 96.4019 15.5511 96.3368 15.5246C96.2716 15.498 96.2131 15.4577 96.1651 15.4063C96.0771 15.3069 96.0303 15.1779 96.0342 15.0454V0.689649C96.0281 0.549398 96.0736 0.41175 96.162 0.30257C96.2122 0.255149 96.2715 0.218431 96.3364 0.194662C96.4012 0.170892 96.4703 0.160571 96.5393 0.164328H105.649C105.718 0.160571 105.787 0.170892 105.851 0.194662C105.916 0.218431 105.976 0.255149 106.026 0.30257C106.116 0.412514 106.163 0.552047 106.157 0.694257V1.52371C106.164 1.66145 106.117 1.79669 106.026 1.90004C105.922 1.9907 105.787 2.03751 105.649 2.0306H98.1483V6.84144H105.156C105.226 6.83978 105.296 6.85257 105.361 6.87899C105.425 6.90542 105.484 6.94493 105.533 6.99504C105.623 7.10263 105.669 7.23934 105.664 7.37905V8.19314C105.667 8.32782 105.62 8.45891 105.533 8.56179C105.483 8.60921 105.424 8.64593 105.359 8.6697C105.294 8.69347 105.225 8.70379 105.156 8.70003H98.1483V13.666H105.847C105.915 13.6602 105.984 13.6693 106.048 13.6927C106.113 13.7161 106.171 13.7532 106.22 13.8015C106.268 13.8498 106.305 13.9081 106.329 13.9722C106.352 14.0364 106.361 14.1049 106.355 14.1729V15.0331C106.359 15.1656 106.312 15.2946 106.224 15.394C106.177 15.4454 106.118 15.4857 106.053 15.5123C105.988 15.5388 105.917 15.5509 105.847 15.5476L96.5424 15.5599Z" fill="#000043"/>
<path d="M109.624 15.5599C109.555 15.561 109.487 15.548 109.423 15.5216C109.36 15.4951 109.302 15.4559 109.255 15.4063C109.208 15.3586 109.172 15.3021 109.148 15.24C109.124 15.178 109.113 15.1117 109.116 15.0453V4.62184C109.113 4.55543 109.124 4.48917 109.148 4.4271C109.172 4.36503 109.208 4.30847 109.255 4.26087C109.353 4.16356 109.486 4.10844 109.624 4.10727H110.656C110.794 4.10844 110.927 4.16356 111.025 4.26087C111.072 4.30847 111.108 4.36503 111.132 4.4271C111.156 4.48917 111.167 4.55543 111.164 4.62184V5.58954C111.553 5.08139 112.046 4.66236 112.611 4.36072C113.307 4.01952 114.077 3.85841 114.852 3.89223C115.705 3.86621 116.549 4.0819 117.285 4.51432C117.963 4.92686 118.5 5.5347 118.824 6.25771C119.178 7.07122 119.352 7.95156 119.333 8.83823V15.0453C119.337 15.1112 119.327 15.1772 119.305 15.2393C119.282 15.3014 119.247 15.3582 119.202 15.4063C119.158 15.4566 119.103 15.4965 119.042 15.5231C118.981 15.5497 118.914 15.5622 118.847 15.5599H117.747C117.681 15.5609 117.616 15.549 117.554 15.5248C117.493 15.5007 117.438 15.4648 117.39 15.4191C117.343 15.3735 117.306 15.319 117.279 15.2588C117.253 15.1986 117.239 15.1339 117.238 15.0684V8.95497C117.281 8.08728 117.007 7.23355 116.469 6.55109C116.189 6.25093 115.845 6.01717 115.463 5.86699C115.08 5.7168 114.669 5.65401 114.259 5.68323C113.856 5.66832 113.455 5.73786 113.081 5.88735C112.707 6.03684 112.369 6.26296 112.088 6.55109C111.509 7.21425 111.213 8.07709 111.264 8.95497V15.0545C111.264 15.122 111.251 15.1887 111.224 15.2507C111.198 15.3128 111.159 15.3688 111.11 15.4155C111.065 15.4661 111.009 15.5061 110.946 15.5326C110.884 15.5592 110.816 15.5716 110.748 15.5691L109.624 15.5599Z" fill="#000043"/>
<path d="M127.18 20.3999C126.342 20.4285 125.505 20.2955 124.717 20.0082C124.155 19.7924 123.644 19.4629 123.216 19.0405C122.89 18.7187 122.629 18.3382 122.446 17.9192C122.316 17.6364 122.228 17.3363 122.184 17.0283C122.179 16.958 122.19 16.8876 122.217 16.8223C122.244 16.7571 122.285 16.6988 122.338 16.652C122.437 16.5562 122.569 16.5013 122.707 16.4984H123.762C123.879 16.4947 123.995 16.5269 124.093 16.5906C124.206 16.686 124.284 16.8154 124.317 16.9592C124.418 17.2291 124.55 17.4867 124.709 17.7272C124.916 18.0284 125.197 18.2716 125.525 18.4338C126.006 18.6588 126.534 18.7642 127.065 18.741C127.657 18.7571 128.247 18.6633 128.805 18.4645C129.269 18.2895 129.653 17.9506 129.883 17.5122C130.151 16.9141 130.275 16.2619 130.245 15.6075V14.0715C129.869 14.5448 129.397 14.9324 128.859 15.2081C128.184 15.529 127.442 15.6818 126.695 15.6536C125.966 15.6761 125.241 15.5288 124.578 15.2235C124.011 14.956 123.515 14.5587 123.131 14.0638C122.75 13.5573 122.468 12.9842 122.299 12.3742C122.113 11.7288 122.005 11.0637 121.976 10.3927V9.17616C122.005 8.5052 122.113 7.84001 122.299 7.19469C122.471 6.58565 122.753 6.01303 123.131 5.50506C123.512 5.00345 124.009 4.60047 124.578 4.33C125.241 4.02465 125.966 3.8774 126.695 3.89991C127.457 3.87093 128.213 4.04033 128.89 4.39144C129.437 4.69566 129.921 5.10246 130.314 5.58954V4.64488C130.312 4.50662 130.361 4.37245 130.453 4.26856C130.5 4.21858 130.557 4.17909 130.621 4.15263C130.685 4.12617 130.753 4.11334 130.822 4.11496H131.831C131.901 4.11419 131.97 4.12739 132.035 4.15376C132.1 4.18014 132.158 4.21917 132.208 4.26856C132.306 4.36916 132.362 4.50421 132.362 4.64488V15.3141C132.38 16.2116 132.212 17.1032 131.869 17.9331C131.539 18.6974 130.965 19.3318 130.237 19.7379C129.293 20.2189 128.24 20.4465 127.18 20.3984M127.134 13.8841C127.767 13.9156 128.392 13.7374 128.913 13.3772C129.349 13.0545 129.691 12.6226 129.906 12.1253C130.108 11.637 130.223 11.1171 130.245 10.5893V9.05328C130.223 8.52535 130.109 8.00532 129.906 7.51725C129.695 7.01155 129.352 6.57138 128.913 6.24235C128.38 5.91558 127.767 5.74258 127.142 5.74258C126.517 5.74258 125.904 5.91558 125.371 6.24235C124.938 6.55034 124.604 6.97724 124.409 7.47117C124.214 8.02785 124.103 8.61011 124.078 9.1992V10.3666C124.099 10.966 124.211 11.5589 124.409 12.1253C124.588 12.6425 124.918 13.0944 125.356 13.4233C125.882 13.7679 126.507 13.9304 127.134 13.8856V13.8841Z" fill="#000043"/>
<path d="M136.163 15.5599C136.098 15.5609 136.032 15.549 135.971 15.5248C135.91 15.5007 135.854 15.4648 135.807 15.4191C135.76 15.3735 135.722 15.319 135.696 15.2588C135.67 15.1986 135.656 15.1339 135.655 15.0684V4.6418C135.655 4.50096 135.71 4.36561 135.809 4.26548C135.855 4.21578 135.911 4.17639 135.974 4.14991C136.036 4.12344 136.103 4.11047 136.171 4.11188H137.18C137.25 4.11111 137.319 4.12431 137.384 4.15068C137.449 4.17706 137.507 4.21609 137.557 4.26548C137.655 4.36608 137.711 4.50113 137.711 4.6418V5.6095C137.994 5.1225 138.418 4.73181 138.927 4.4882C139.507 4.22645 140.139 4.09785 140.775 4.11188H141.66C141.727 4.11201 141.792 4.12571 141.853 4.15213C141.914 4.17854 141.969 4.21712 142.015 4.26548C142.103 4.36486 142.149 4.49391 142.145 4.62644V5.5327C142.148 5.59615 142.138 5.65951 142.116 5.71892C142.093 5.77833 142.059 5.83256 142.015 5.87831C141.968 5.92425 141.913 5.96023 141.852 5.984C141.791 6.00778 141.726 6.01885 141.66 6.01655H140.336C139.994 5.99751 139.651 6.04906 139.329 6.16798C139.007 6.28689 138.713 6.47064 138.465 6.70776C138.23 6.95886 138.047 7.25508 137.929 7.57851C137.812 7.90193 137.761 8.24583 137.78 8.58939V15.0576C137.782 15.1252 137.769 15.1924 137.742 15.2546C137.716 15.3169 137.676 15.3728 137.626 15.4186C137.526 15.5176 137.39 15.5729 137.249 15.5722L136.163 15.5599Z" fill="#000043"/>
<path d="M147.054 15.7827C146.359 15.7901 145.672 15.6377 145.045 15.3373C144.469 15.0688 143.97 14.6625 143.59 14.1545C143.223 13.6648 143.029 13.0683 143.036 12.4572C143.024 11.9829 143.131 11.5132 143.348 11.0907C143.564 10.6683 143.883 10.3064 144.275 10.038C145.239 9.38297 146.349 8.97419 147.509 8.84755L150.796 8.38674V7.74775C150.813 7.44502 150.767 7.14202 150.661 6.85784C150.555 6.57365 150.391 6.31444 150.18 6.09652C149.624 5.65263 148.918 5.44069 148.209 5.50515C147.649 5.47986 147.093 5.61582 146.608 5.89684C146.226 6.13787 145.93 6.4925 145.761 6.91062C145.732 7.00915 145.671 7.09516 145.587 7.15499C145.503 7.21482 145.402 7.24505 145.299 7.24086H144.306C144.239 7.24641 144.172 7.23687 144.109 7.21294C144.046 7.189 143.99 7.1513 143.944 7.10262C143.862 7.00657 143.818 6.88345 143.821 6.75702C143.84 6.4695 143.927 6.19058 144.075 5.94292C144.273 5.58461 144.534 5.26465 144.845 4.99826C145.25 4.66755 145.708 4.40785 146.2 4.23025C146.85 4.00557 147.536 3.89892 148.225 3.91537C148.98 3.89697 149.733 4.01135 150.45 4.25329C150.991 4.44374 151.479 4.7596 151.874 5.17491C152.222 5.54656 152.485 5.9895 152.644 6.47285C152.797 6.94947 152.875 7.44694 152.875 7.94744V15.0761C152.877 15.1425 152.866 15.2088 152.843 15.2708C152.819 15.3329 152.783 15.3895 152.736 15.4371C152.688 15.4868 152.631 15.5261 152.567 15.5525C152.504 15.5789 152.435 15.5919 152.367 15.5907H151.35C151.281 15.5944 151.212 15.5825 151.148 15.5559C151.084 15.5293 151.027 15.4887 150.981 15.4371C150.935 15.389 150.9 15.3322 150.878 15.2701C150.855 15.208 150.846 15.142 150.85 15.0761V14.1161C150.627 14.4034 150.368 14.6614 150.08 14.8841C149.715 15.1617 149.307 15.3771 148.871 15.5216C148.283 15.7138 147.666 15.8047 147.047 15.7904M147.509 14.1392C148.083 14.1442 148.651 14.0126 149.164 13.7552C149.673 13.4861 150.085 13.0643 150.342 12.5494C150.65 11.9134 150.798 11.2122 150.773 10.5065V9.89205L148.217 10.2684C147.384 10.3577 146.579 10.6192 145.853 11.0364C145.658 11.1503 145.49 11.3052 145.361 11.4905C145.232 11.6758 145.145 11.887 145.106 12.1093C145.067 12.3316 145.077 12.5596 145.136 12.7776C145.195 12.9955 145.3 13.1981 145.445 13.3711C145.697 13.6536 146.018 13.8655 146.377 13.9856C146.74 14.1015 147.12 14.156 147.501 14.1468L147.509 14.1392Z" fill="#000043"/>
<path d="M159.828 15.56C159.643 15.5724 159.46 15.5178 159.312 15.4064C159.181 15.2979 159.076 15.1614 159.004 15.007L154.929 4.79549C154.917 4.7217 154.917 4.64656 154.929 4.57277C154.926 4.51165 154.936 4.45066 154.959 4.39376C154.981 4.33687 155.016 4.28534 155.059 4.24252C155.103 4.2 155.155 4.16656 155.212 4.14415C155.269 4.12174 155.329 4.1108 155.391 4.11196H156.453C156.589 4.10493 156.722 4.15189 156.822 4.24252C156.897 4.30727 156.951 4.39287 156.976 4.48829L160.349 13.1607L163.675 4.48829C163.715 4.39851 163.77 4.31561 163.836 4.24252C163.886 4.197 163.944 4.16195 164.008 4.13952C164.071 4.11708 164.138 4.1077 164.206 4.11196H165.214C165.334 4.11497 165.449 4.16137 165.538 4.24252C165.582 4.28496 165.618 4.33623 165.642 4.39309C165.666 4.44995 165.677 4.51114 165.676 4.57277C165.676 4.6494 165.661 4.72525 165.63 4.79549L161.534 15.0039C161.479 15.1591 161.383 15.2969 161.257 15.4033C161.1 15.514 160.91 15.5682 160.718 15.5569L159.828 15.56Z" fill="#000043"/>
<path d="M172.15 15.7826C171.483 15.8137 170.818 15.7054 170.196 15.4647C169.574 15.224 169.01 14.8561 168.539 14.3849C167.587 13.3314 167.06 11.9632 167.061 10.5448V9.00876C167.097 8.05287 167.344 7.11671 167.784 6.26695C168.189 5.51181 168.797 4.88416 169.54 4.45444C170.339 4.01212 171.243 3.79198 172.157 3.81699C173.144 3.7816 174.12 4.02379 174.975 4.51588C175.74 4.9967 176.343 5.6948 176.707 6.5204C177.114 7.47851 177.312 8.51215 177.288 9.55251V9.92884C177.291 9.99895 177.279 10.0689 177.252 10.1339C177.226 10.1989 177.185 10.2573 177.134 10.3052C177.034 10.3929 176.905 10.4396 176.772 10.4357H169.141V10.6354C169.166 11.2188 169.302 11.7922 169.541 12.325C169.758 12.8634 170.124 13.3294 170.596 13.6691C171.058 13.9976 171.615 14.1674 172.182 14.1529C172.636 14.1672 173.088 14.0833 173.506 13.9071C173.82 13.7744 174.111 13.593 174.368 13.3695C174.532 13.2334 174.679 13.0788 174.807 12.9087C174.888 12.7756 174.995 12.6606 175.123 12.5708C175.233 12.5265 175.351 12.5081 175.469 12.517H176.532C176.662 12.5117 176.79 12.5525 176.894 12.6322C176.941 12.6754 176.977 12.7294 176.998 12.7897C177.02 12.85 177.026 12.9146 177.017 12.9779C176.966 13.2597 176.844 13.5239 176.663 13.7459C176.397 14.1047 176.078 14.4207 175.716 14.6828C175.258 15.0145 174.751 15.2735 174.214 15.4509C173.545 15.6769 172.842 15.7886 172.136 15.7811M169.153 8.99954H175.229V8.9381C175.24 8.3324 175.116 7.73178 174.867 7.17935C174.633 6.69099 174.268 6.27649 173.812 5.98125C173.325 5.66517 172.753 5.50445 172.173 5.52044C171.599 5.50333 171.034 5.66434 170.556 5.98125C170.104 6.28466 169.748 6.71115 169.532 7.21007C169.286 7.76318 169.165 8.36372 169.178 8.96882L169.153 8.99954Z" fill="#000043"/>
<path d="M98.6348 41.9551C98.5538 41.9614 98.4723 41.9511 98.3955 41.9247C98.3186 41.8982 98.2481 41.8563 98.1882 41.8015C98.0621 41.686 97.9781 41.532 97.9496 41.3637L95.1472 27.2322C95.141 27.1812 95.141 27.1297 95.1472 27.0786V26.9865C95.1492 26.871 95.196 26.7608 95.2779 26.6791C95.3598 26.5974 95.4702 26.5507 95.586 26.5487H96.687C96.9949 26.5487 97.172 26.6716 97.2182 26.925L99.4663 38.2778L101.853 30.4886C101.894 30.3489 101.974 30.2237 102.084 30.1277C102.146 30.0683 102.22 30.0227 102.301 29.9936C102.382 29.9645 102.468 29.9526 102.553 29.9587H103.37C103.458 29.9504 103.547 29.9612 103.631 29.9903C103.714 30.0195 103.791 30.0663 103.855 30.1277C103.953 30.2275 104.022 30.3523 104.055 30.4886L106.457 38.2778L108.689 26.925C108.728 26.6716 108.913 26.5487 109.236 26.5487H110.383C110.441 26.549 110.498 26.5607 110.55 26.5831C110.603 26.6055 110.651 26.6382 110.691 26.6793C110.733 26.7187 110.766 26.7663 110.789 26.8192C110.811 26.8721 110.823 26.929 110.822 26.9865C110.825 27.0171 110.825 27.048 110.822 27.0786C110.817 27.1297 110.817 27.1811 110.822 27.2322L107.973 41.3637C107.942 41.5292 107.861 41.6815 107.743 41.8015C107.68 41.857 107.607 41.8993 107.527 41.9257C107.448 41.9521 107.364 41.9621 107.281 41.9551H106.443C106.267 41.9688 106.093 41.9137 105.958 41.8015C105.837 41.6992 105.751 41.5625 105.712 41.4098L102.978 33.0215L100.261 41.4098C100.213 41.561 100.126 41.6964 100.007 41.8015C99.9428 41.8572 99.8683 41.8996 99.7876 41.926C99.7069 41.9524 99.6217 41.9623 99.5371 41.9551H98.6348Z" fill="#000043"/>
<path d="M113.629 41.9535C113.562 41.9562 113.496 41.9453 113.434 41.9215C113.371 41.8977 113.315 41.8616 113.267 41.8153C113.217 41.7683 113.177 41.7111 113.15 41.6475C113.124 41.584 113.111 41.5155 113.113 41.4466V31.0477C113.111 30.9778 113.124 30.9083 113.151 30.8435C113.177 30.7788 113.217 30.7202 113.267 30.6714C113.316 30.6277 113.373 30.5948 113.436 30.575C113.498 30.5551 113.564 30.5487 113.629 30.5562H114.645C114.715 30.5556 114.784 30.5689 114.849 30.5953C114.914 30.6217 114.973 30.6607 115.022 30.71C115.072 30.7594 115.111 30.818 115.137 30.8826C115.164 30.9472 115.177 31.0164 115.176 31.0861V32.0154C115.456 31.5265 115.878 31.133 116.385 30.8864C116.973 30.6384 117.61 30.5255 118.248 30.5562H119.126C119.191 30.5528 119.257 30.5634 119.318 30.5873C119.379 30.6111 119.434 30.6476 119.48 30.6944C119.571 30.7952 119.618 30.9278 119.611 31.0631V31.9693C119.615 32.0341 119.606 32.0991 119.583 32.1599C119.561 32.2208 119.526 32.2763 119.48 32.3226C119.384 32.4112 119.257 32.4581 119.126 32.4532H117.809C117.465 32.4338 117.121 32.4852 116.798 32.6041C116.475 32.723 116.18 32.9069 115.931 33.1444C115.697 33.397 115.516 33.6934 115.399 34.0165C115.281 34.3396 115.229 34.6827 115.246 35.026V41.4927C115.247 41.5615 115.235 41.6299 115.208 41.6934C115.181 41.7569 115.142 41.8141 115.092 41.8614C114.988 41.9533 114.853 42.0027 114.714 41.9996L113.629 41.9535Z" fill="#000043"/>
<path d="M121.861 28.3873C121.794 28.389 121.728 28.377 121.666 28.3521C121.604 28.3271 121.547 28.2897 121.5 28.2422C121.453 28.1947 121.417 28.138 121.393 28.0758C121.369 28.0136 121.358 27.947 121.36 27.8804V26.7207C121.354 26.5946 121.398 26.4712 121.483 26.3776C121.568 26.284 121.687 26.2278 121.813 26.2215H123.254C123.321 26.2187 123.388 26.2297 123.45 26.2537C123.513 26.2777 123.569 26.3143 123.617 26.3611C123.665 26.4079 123.702 26.4639 123.727 26.5258C123.752 26.5877 123.764 26.654 123.763 26.7207V27.9111C123.764 27.9767 123.752 28.0418 123.727 28.1027C123.703 28.1637 123.667 28.2193 123.621 28.2664C123.576 28.3134 123.521 28.3511 123.461 28.3771C123.4 28.4031 123.335 28.417 123.27 28.418H123.254L121.861 28.3873ZM122.038 41.9596C121.971 41.9633 121.903 41.9526 121.84 41.9283C121.777 41.904 121.721 41.8667 121.673 41.8187C121.626 41.7708 121.589 41.7134 121.566 41.6503C121.543 41.5872 121.533 41.5198 121.538 41.4527V31.0292C121.534 30.8931 121.584 30.7608 121.676 30.6606C121.774 30.5688 121.904 30.5191 122.038 30.5224H123.1C123.166 30.5201 123.231 30.5311 123.292 30.5549C123.353 30.5787 123.408 30.6147 123.455 30.6606C123.542 30.7635 123.588 30.8946 123.585 31.0292V41.4527C123.59 41.5877 123.543 41.7193 123.455 41.8214C123.408 41.8673 123.353 41.9033 123.292 41.9271C123.231 41.9508 123.166 41.9619 123.1 41.9596H122.038Z" fill="#000043"/>
<path d="M131.339 41.9597C130.641 41.992 129.948 41.8298 129.338 41.4912C128.823 41.1807 128.428 40.7076 128.214 40.1471C127.962 39.4907 127.842 38.7915 127.86 38.0889V32.2811H126.135C126.067 32.2837 125.999 32.2712 125.937 32.2447C125.874 32.2181 125.818 32.1781 125.773 32.1275C125.724 32.0808 125.686 32.0248 125.659 31.9627C125.633 31.9007 125.619 31.834 125.619 31.7666V30.9986C125.62 30.8604 125.676 30.7281 125.773 30.6299C125.821 30.5835 125.878 30.5473 125.94 30.5236C126.002 30.4998 126.068 30.4889 126.135 30.4917H127.86V26.8359C127.856 26.7021 127.906 26.5724 127.998 26.475C128.099 26.3827 128.231 26.3331 128.368 26.3367H129.399C129.466 26.334 129.533 26.3449 129.595 26.3689C129.658 26.393 129.714 26.4295 129.762 26.4763C129.81 26.5231 129.847 26.5792 129.872 26.641C129.897 26.7029 129.909 26.7692 129.907 26.8359V30.5531H132.636C132.698 30.5489 132.761 30.5571 132.821 30.5772C132.88 30.5972 132.935 30.6288 132.982 30.67C133.029 30.7112 133.068 30.7613 133.096 30.8174C133.123 30.8736 133.14 30.9346 133.144 30.997C133.146 31.0185 133.146 31.0401 133.144 31.0615V31.8296C133.147 31.8959 133.136 31.9622 133.112 32.0242C133.088 32.0863 133.052 32.1429 133.005 32.1905C132.958 32.2402 132.9 32.2795 132.837 32.3059C132.773 32.3324 132.705 32.3454 132.636 32.3441H129.903V37.9982C129.872 38.5629 129.994 39.1253 130.257 39.6264C130.391 39.8305 130.58 39.9937 130.801 40.0981C131.022 40.2024 131.268 40.2438 131.512 40.2178H132.875C132.942 40.2177 133.009 40.2313 133.071 40.2577C133.133 40.2841 133.19 40.3227 133.236 40.3714C133.286 40.4176 133.325 40.4735 133.352 40.5357C133.378 40.5978 133.391 40.6648 133.39 40.7324V41.5004C133.392 41.5692 133.38 41.6377 133.353 41.7013C133.327 41.7649 133.287 41.822 133.236 41.869C133.189 41.9153 133.132 41.9515 133.07 41.9752C133.008 41.999 132.941 42.0099 132.875 42.0073L131.339 41.9597Z" fill="#000043"/>
<path d="M140.064 42.1839C139.396 42.2166 138.729 42.1091 138.106 41.8683C137.483 41.6276 136.917 41.2588 136.445 40.7861C135.492 39.7335 134.965 38.3647 134.967 36.946V35.41C135.004 34.4556 135.254 33.5215 135.699 32.6759C136.097 31.9163 136.703 31.2851 137.446 30.8557C138.283 30.4317 139.211 30.2165 140.149 30.2285C141.088 30.2405 142.01 30.4795 142.836 30.9248C143.599 31.4045 144.201 32.0995 144.568 32.9217C144.984 33.8913 145.187 34.9391 145.161 35.9937V36.37C145.165 36.4378 145.155 36.5057 145.131 36.5692C145.107 36.6328 145.07 36.6905 145.022 36.7387C144.921 36.8293 144.788 36.8763 144.652 36.8692H137.021V37.0689C137.044 37.6527 137.18 38.2266 137.422 38.7586C137.638 39.2633 137.987 39.7009 138.43 40.0258C138.895 40.3552 139.454 40.525 140.024 40.5096C140.477 40.5256 140.929 40.4444 141.348 40.2715C141.848 40.0382 142.292 39.7003 142.649 39.2808C142.726 39.145 142.831 39.0272 142.957 38.9352C143.069 38.8897 143.191 38.8713 143.311 38.8814H144.428C144.56 38.8745 144.689 38.9185 144.79 39.0043C144.838 39.0445 144.876 39.097 144.897 39.1565C144.919 39.2159 144.924 39.2801 144.913 39.3422C144.869 39.6377 144.746 39.9161 144.559 40.1487C144.295 40.5093 143.975 40.8256 143.612 41.0856C143.158 41.4233 142.65 41.6829 142.11 41.8536C141.451 42.0791 140.759 42.1934 140.062 42.1916M137.06 35.4162H143.105V35.347C143.115 34.7414 142.992 34.141 142.743 33.5883C142.516 33.0895 142.153 32.6639 141.696 32.3595C141.21 32.047 140.642 31.8865 140.064 31.8987C139.505 31.8784 138.952 32.0274 138.48 32.3263C138.007 32.6251 137.636 33.0597 137.416 33.5729C137.174 34.1275 137.053 34.727 137.061 35.3317L137.06 35.4162Z" fill="#000043"/>
<g opacity="0.45">
<mask id="mask2_40_7898" style="mask-type:luminance" maskUnits="userSpaceOnUse" x="39" y="27" width="3" height="5">
<path d="M41.3399 27.6807H39.3613V31.5668H41.3399V27.6807Z" fill="white"/>
</mask>
<g mask="url(#mask2_40_7898)">
<mask id="mask3_40_7898" style="mask-type:luminance" maskUnits="userSpaceOnUse" x="39" y="27" width="3" height="5">
<path d="M41.337 27.6807C40.8143 29.041 40.1512 30.3434 39.3584 31.5668L41.337 27.6807Z" fill="white"/>
</mask>
<g mask="url(#mask3_40_7898)">
<path d="M39.3711 27.5485L39.0996 31.5499L41.3318 31.7006L41.6033 27.6992L39.3711 27.5485Z" fill="url(#paint0_linear_40_7898)"/>
</g>
</g>
</g>
<path d="M87.6947 1.67116V1.74028L70.1721 36.0843C69.4887 37.4261 68.4465 38.5532 67.1609 39.3407C65.8752 40.1283 64.3961 40.5456 62.8874 40.5465H58.2681L66.8308 23.7316L75.6983 6.31764C76.4214 4.8997 77.5229 3.70839 78.8813 2.87499C80.2397 2.04159 81.8024 1.59844 83.3972 1.59436H87.5161L87.6947 1.67116Z" fill="#1DB4FF"/>
<path d="M70.9542 1.64813V1.74029L62.3761 18.5705L53.467 36.069C52.7812 37.4165 51.7346 38.5482 50.4433 39.3386C49.152 40.1289 47.6665 40.547 46.1515 40.5465H41.5322L50.1026 23.8038L59.0117 6.30229C59.7334 4.88432 60.8349 3.69366 62.194 2.86256C63.5531 2.03147 65.1165 1.59249 66.7106 1.59437H70.8449L70.9542 1.64813Z" fill="#00007D"/>
<path d="M49.9641 1.74184C48.3987 1.73701 46.8626 2.16509 45.5264 2.97854C44.1902 3.79199 43.1061 4.95898 42.3946 6.34992L39.8155 11.428L33.1544 24.4842C33.1544 24.4842 30.1672 29.8603 28.0732 31.3964C26.0222 32.8282 23.5684 33.5731 21.0656 33.5238C20.1831 33.5256 19.303 33.4329 18.4403 33.2473L29.459 11.6661L31.5453 7.56491C31.7996 7.07033 31.9537 6.53062 31.9988 5.97662C32.044 5.42261 31.9792 4.86516 31.8084 4.33611C31.6375 3.80706 31.3638 3.31678 31.003 2.89326C30.6421 2.46974 30.2012 2.12128 29.7053 1.86779C29.6283 1.82785 29.5513 1.79252 29.4728 1.7572C26.6037 0.506436 23.491 -0.0901128 20.3615 0.0110093C17.232 0.112131 14.1645 0.908377 11.3825 2.34174C8.60049 3.7751 6.17404 5.80948 4.27992 8.29668C2.38579 10.7839 1.07169 13.6612 0.433344 16.7192C-0.205004 19.7771 -0.151521 22.9386 0.589897 25.9732C1.33131 29.0079 2.74199 31.8394 4.71917 34.2615C6.69634 36.6835 9.19021 38.635 12.0191 39.9739C14.848 41.3128 17.9407 42.0054 21.0718 42.0011C22.1802 42.0028 23.2871 41.918 24.3823 41.7477C27.2998 41.2833 30.0868 40.212 32.5623 38.6033C35.0379 36.9946 37.1465 34.8846 38.7515 32.4102L40.7378 28.5086L45.7975 18.569L54.3371 1.74184H49.9641ZM11.1557 28.7329C9.70471 26.8794 8.80499 24.6564 8.55906 22.3175C8.31313 19.9786 8.73089 17.6178 9.76472 15.5043C10.7986 13.3907 12.4069 11.6094 14.4063 10.3635C16.4057 9.11756 18.7159 8.45708 21.0733 8.45735H21.4737L11.1557 28.7329Z" fill="#FF3B99"/>
<g opacity="0.45">
<mask id="mask4_40_7898" style="mask-type:luminance" maskUnits="userSpaceOnUse" x="38" y="28" width="3" height="5">
<path d="M40.7392 28.5101H38.7529V32.4116H40.7392V28.5101Z" fill="white"/>
</mask>
<g mask="url(#mask4_40_7898)">
<mask id="mask5_40_7898" style="mask-type:luminance" maskUnits="userSpaceOnUse" x="38" y="28" width="3" height="5">
<path d="M40.7392 28.5101C40.2138 29.8755 39.5482 31.183 38.7529 32.4116L40.7392 28.5101Z" fill="white"/>
</mask>
<g mask="url(#mask5_40_7898)">
<path d="M38.7624 28.3765L38.4897 32.3948L40.7311 32.5461L41.0038 28.5278L38.7624 28.3765Z" fill="url(#paint1_linear_40_7898)"/>
</g>
</g>
</g>
</g>
</g>
<defs>
<linearGradient id="paint0_linear_40_7898" x1="74.0028" y1="72.2347" x2="74.0546" y2="71.4665" gradientUnits="userSpaceOnUse">
<stop stop-color="#0DE9C3"/>
<stop offset="0.47" stop-color="#64A7DB"/>
<stop offset="1" stop-color="#AC75F3"/>
</linearGradient>
<linearGradient id="paint1_linear_40_7898" x1="72.6088" y1="72.4252" x2="72.6607" y2="71.6577" gradientUnits="userSpaceOnUse">
<stop stop-color="#0DE9C3"/>
<stop offset="0.47" stop-color="#64A7DB"/>
<stop offset="1" stop-color="#AC75F3"/>
</linearGradient>
</defs>
</svg>
