<svg width="189" height="60" viewBox="0 0 189 60" fill="none" xmlns="http://www.w3.org/2000/svg">
<g clip-path="url(#clip0_41_9328)">
<rect width="188.182" height="60" fill="white"/>
<path d="M53.0975 42.935C57.043 42.935 58.4444 41.1667 57.3216 37.7524L47.5737 12.4393H55.7433L61.4227 30.394L66.3969 14.7261C66.8285 13.2091 67.9551 12.4223 69.8093 12.4223H74.8426L63.5366 42.7358C61.8015 46.9856 60.0816 48.4709 54.1225 48.4709C52.2908 48.4709 51.3248 48.4176 51.104 48.2716V42.9339L53.0975 42.935ZM77.7443 25.4106C77.7443 16.8012 82.1854 12.505 91.045 12.3522C99.9523 12.299 104.444 16.1197 104.444 23.8993V39.2049C104.444 45.7097 99.9059 48.995 90.7715 49.1365C84.278 49.1365 80.1706 46.4037 78.4958 40.9199H86.4496C86.9514 42.7765 88.62 43.6528 91.5933 43.6528C95.382 43.6528 97.314 41.6535 97.314 37.6347C97.314 37.6347 97.314 37.6879 97.314 34.9902C95.4823 37.5283 92.7173 38.8109 89.1444 38.8109C81.5481 38.8109 77.7606 34.3132 77.7606 25.3981L77.7443 25.4106ZM97.3177 25.6053C97.3767 20.3751 95.3669 17.794 91.2608 17.794C87.1547 17.794 85.1449 20.3978 85.1449 25.6053C85.3017 30.5887 87.2575 33.0917 91.1416 33.0917C95.0257 33.0917 97.102 30.6068 97.3177 25.6053ZM128.493 38.3241C126.107 38.1826 124.92 37.1468 124.92 35.0921V21.7834C124.763 19.0857 123.146 17.7646 119.952 17.7646C116.758 17.7646 115.135 19.0868 115.076 21.7834V38.3117H107.774V23.0944C107.774 15.702 111.881 12.034 120.05 12.034C128.22 12.034 132.204 15.6997 132.164 23.0944V38.3094L128.493 38.3241ZM160.557 28.0019C160.557 32.4464 159.312 35.3943 156.768 36.806C154.225 38.1283 151.421 38.8052 148.344 38.8052C145.458 38.8234 142.633 38.0595 140.233 36.6124C137.744 35.1973 136.504 32.3581 136.504 28.003V12.4393H143.683V29.323C143.683 32.2155 145.305 33.6249 148.56 33.6249C151.814 33.6249 153.431 32.2143 153.431 29.323V15.6703C153.372 13.5125 154.519 12.4382 156.886 12.4382H160.557V28.0019Z" fill="#2B618D"/>
<path d="M176.186 33.626C179.204 33.626 180.724 32.8392 180.724 31.1807C180.724 29.8585 178.24 28.7842 173.324 28.011C166.993 26.9717 163.752 24.4381 163.695 20.3831C163.695 14.8065 168.571 12.1665 175.111 12.0567C178.782 12.0567 181.702 12.7903 183.873 14.2529C185.985 15.7744 187.112 17.8789 187.289 20.5585H182.751C181.07 20.5053 179.987 19.9699 179.552 18.9533C179.05 17.8257 177.601 17.185 175.236 17.185C172.434 17.185 171.012 17.8619 171.012 19.1842C171.012 20.5065 172.844 21.5231 176.575 22.1695C181.451 23.0446 184.627 24.1687 186.205 25.491C187.547 26.7589 188.212 28.3302 188.212 30.0985C188.212 36.4573 182.708 38.8154 175.127 38.8154C171.113 38.8154 168.104 38.023 166.15 36.5117C163.983 35.0479 162.915 32.7985 162.915 29.8166H170.276C170.401 32.6728 172.682 33.6373 176.215 33.6373L176.186 33.626ZM36.1787 20.211C35.2327 18.6057 34.0121 17.4069 32.5405 16.6019C31.0601 15.8016 29.3213 15.4076 27.2915 15.4076C24.6067 15.4076 22.3561 16.2827 20.5633 18.034C18.7442 19.7808 17.8585 21.9963 17.8585 24.6408C17.8585 27.2502 18.7844 29.4294 20.6223 31.1638C22.4753 32.8924 24.7824 33.7675 27.5662 33.7675C29.7178 33.7675 31.493 33.3566 32.9131 32.52C34.3332 31.6834 35.3971 30.446 36.1084 28.7842H44.5565C43.5278 32.5562 41.518 35.52 38.5197 37.6641C35.5213 39.8083 31.8894 40.8792 27.6252 40.8792C25.101 40.8792 22.7701 40.4683 20.6424 39.6633C18.4908 38.863 16.5551 37.6483 14.8213 36.0554C13.1904 34.5566 11.9609 32.8064 11.0526 30.806C10.1443 28.8057 9.69019 26.751 9.69019 24.677C9.69019 22.5193 10.1067 20.4804 10.9347 18.6057C11.7439 16.731 12.9633 15.0329 14.5729 13.5159C16.3468 11.8178 18.3415 10.5307 20.5696 9.66689C22.7977 8.80312 25.1863 8.34463 27.7494 8.34463C31.9145 8.34463 35.5276 9.4201 38.5849 11.5597C41.6422 13.6993 43.6533 16.5974 44.623 20.2223L36.1787 20.211Z" fill="#2B618D"/>
<path d="M114.444 54.9542C110.203 54.841 108.073 52.5973 108.073 48.2727C108.073 43.9482 110.225 41.7894 114.471 41.7724C118.931 41.7724 121.024 44.263 120.769 49.2192H111.705C111.83 51.1697 112.769 52.1625 114.484 52.1625C115.312 52.1625 116.081 51.8569 116.772 51.2512C117.091 50.9456 117.482 50.7984 117.976 50.7984H120.578C119.809 53.4961 117.897 54.9871 114.431 54.9871L114.444 54.9542ZM111.784 46.9324H117.072C116.851 45.2569 115.984 44.3807 114.465 44.3807C112.946 44.3807 112.039 45.2558 111.784 46.9324ZM132.599 54.6678C131.433 54.5976 130.841 54.0972 130.841 53.0806V46.5282C130.763 45.2105 129.962 44.5652 128.394 44.5652C126.836 44.5652 126.027 45.2105 126.008 46.5282V54.6565H122.416V47.1916C122.416 43.5656 124.43 41.7611 128.434 41.7611C132.439 41.7611 134.413 43.5656 134.373 47.1916V54.6791L132.599 54.6678ZM142.268 54.9542C138.024 54.841 135.893 52.5973 135.893 48.2727C135.893 43.9482 138.044 41.7894 142.307 41.7724C146.767 41.7724 148.856 44.263 148.6 49.2192H139.524C139.65 51.1697 140.588 52.1625 142.31 52.1625C143.138 52.1625 143.907 51.8569 144.598 51.2512C144.912 50.9456 145.308 50.7984 145.798 50.7984H148.387C147.618 53.4961 145.721 54.9871 142.271 54.9871L142.268 54.9542ZM139.583 46.9324H144.871C144.656 45.2569 143.789 44.3807 142.269 44.3807C140.75 44.3807 139.838 45.2558 139.583 46.9324ZM150.257 48.1131C150.355 44.0037 152.786 41.966 157.481 41.966H157.983V45.292H156.778C154.804 45.292 153.838 46.2203 153.838 48.0769V54.6837H150.246L150.257 48.1131ZM159.41 48.326C159.41 44.0943 161.581 41.9841 165.943 41.9139C170.324 41.8958 172.514 43.7705 172.514 47.5788V55.0957C172.514 58.2927 170.285 59.9025 165.805 59.9636C162.631 59.9636 160.596 58.6233 159.787 55.9267H163.692C163.943 56.838 164.761 57.267 166.221 57.267C168.074 57.267 169.039 56.2855 169.039 54.3214C169.039 54.3214 169.039 54.3395 169.039 53.0173C168.132 54.2648 166.79 54.892 165.024 54.892C161.256 54.892 159.399 52.6957 159.399 48.326H159.41ZM169.001 48.4188C169.021 45.8456 168.055 44.5754 166.022 44.5754C164.012 44.5754 163.011 45.8433 163.011 48.4188C163.09 50.8641 164.04 52.098 165.952 52.098C167.887 52.098 168.892 50.8527 168.99 48.4188H169.001ZM175.826 56.9172C177.762 56.9172 178.453 56.0591 177.899 54.3655L173.128 41.949H177.142L179.927 50.7758L182.374 43.0947C182.589 42.343 183.143 41.9671 184.05 41.9671H186.521L180.943 56.8301C180.095 58.9221 179.247 59.6342 176.327 59.6342C175.42 59.6342 174.944 59.6161 174.846 59.5459V56.9195L175.826 56.9172Z" fill="#F89E1C"/>
<path fill-rule="evenodd" clip-rule="evenodd" d="M24.2479 2.70579C31.5694 2.70579 38.1407 5.63332 42.5806 10.2793C38.4982 6.7932 33.0876 4.85558 27.467 4.86691C15.2904 4.86804 5.40709 13.834 5.40709 24.857C5.40709 35.8947 15.2929 44.8448 27.4896 44.8448C32.2444 44.8448 36.6227 43.4864 40.2358 41.1837C35.9729 44.5573 30.3901 46.6143 24.2742 46.6143C10.8543 46.6143 0 36.7879 0 24.6566C0 12.5254 10.8543 2.70579 24.2479 2.70579Z" fill="#F89E1C"/>
<path d="M44.3544 10.1356H50.9458C45.7369 4.02239 37.3516 0.0261784 27.8785 0.0261784C20.8367 0.0261784 14.4021 2.2224 9.43288 5.86766C13.6331 3.29447 18.7441 1.79447 24.2365 1.79447C32.3284 1.79447 39.5709 5.04351 44.3431 10.1344L44.3544 10.1356ZM24.2478 47.5426C18.7441 47.5426 13.6344 46.0392 9.41406 43.4524C14.3821 47.0977 20.8367 49.2939 27.8597 49.2939C36.7005 49.2939 44.6141 45.8275 49.8431 40.3505H43.1338C38.4142 44.7815 31.7174 47.5324 24.2466 47.5324L24.2478 47.5426Z" fill="#F89E1C"/>
</g>
<defs>
<clipPath id="clip0_41_9328">
<rect width="188.182" height="60" fill="white"/>
</clipPath>
</defs>
</svg>
