<svg width="256" height="56" viewBox="0 0 256 56" fill="none" xmlns="http://www.w3.org/2000/svg">
<mask id="mask0_41_9422" style="mask-type:luminance" maskUnits="userSpaceOnUse" x="0" y="0" width="256" height="56">
<path d="M255.298 0H0V55.24H255.298V0Z" fill="white"/>
</mask>
<g mask="url(#mask0_41_9422)">
<mask id="mask1_41_9422" style="mask-type:luminance" maskUnits="userSpaceOnUse" x="0" y="0" width="256" height="56">
<path d="M255.298 0H0V55.24H255.298V0Z" fill="white"/>
</mask>
<g mask="url(#mask1_41_9422)">
<path d="M86.2362 54.7345H81.2516V51.3192H81.1653C79.7207 53.9331 77.4719 55.2409 74.419 55.2426C69.2209 55.2426 66.621 52.178 66.6191 46.0488V33.1419H71.6038V45.5433C71.6038 49.423 73.1295 51.3629 76.1807 51.3629C76.8711 51.3798 77.5566 51.2446 78.1868 50.967C78.817 50.6895 79.3757 50.2767 79.8218 49.7591C80.775 48.6917 81.2516 47.2932 81.2516 45.5638V33.1394H86.2362V54.7345Z" fill="#84C102"/>
<path d="M108.532 35.1845L96.6477 50.9163H108.488V54.7345H89.6555V52.8999L101.805 36.9499H90.8266V33.1394H108.532V35.1845Z" fill="#84C102"/>
<path d="M128.526 35.1845L116.643 50.9163H128.485V54.7345H109.664V52.8999L121.805 36.9499H110.828V33.1394H128.534L128.526 35.1845Z" fill="#84C102"/>
<path d="M134.791 28.6052C134.019 28.6228 133.27 28.347 132.701 27.8354C132.417 27.587 132.193 27.2812 132.043 26.9391C131.892 26.597 131.82 26.2269 131.83 25.8545C131.821 25.4788 131.893 25.1055 132.044 24.7598C132.194 24.4141 132.418 24.1041 132.701 23.8505C133.263 23.3241 134.014 23.0365 134.791 23.0499C135.587 23.0315 136.358 23.3189 136.94 23.8505C137.224 24.1028 137.45 24.4124 137.603 24.7582C137.755 25.104 137.829 25.478 137.821 25.8545C137.824 26.2223 137.746 26.5865 137.595 26.9227C137.442 27.259 137.219 27.5596 136.94 27.8047C136.359 28.3386 135.587 28.6262 134.791 28.6052ZM137.262 54.7344H132.277V33.1392H137.262V54.7344Z" fill="#84C102"/>
<path d="M161.963 45.266H146.964C147.022 47.2624 147.648 48.802 148.844 49.8848C150.039 50.9676 151.684 51.5081 153.776 51.5064C156.099 51.5183 158.366 50.7988 160.243 49.4537V53.3975C158.239 54.6344 155.589 55.2528 152.294 55.2528C149.056 55.2528 146.516 54.2717 144.674 52.3096C142.833 50.3475 141.913 47.5891 141.915 44.0344C141.915 40.673 142.928 37.936 144.954 35.8233C145.911 34.7966 147.079 33.9823 148.382 33.4349C149.685 32.8874 151.091 32.6196 152.508 32.6492C155.516 32.6492 157.844 33.5978 159.493 35.4948C161.141 37.392 161.964 40.028 161.963 43.4031V45.266ZM157.148 41.8072C157.134 40.0503 156.712 38.6818 155.882 37.7015C155.053 36.7214 153.907 36.233 152.443 36.2365C151.759 36.2259 151.082 36.3577 150.454 36.6231C149.827 36.8884 149.264 37.2814 148.802 37.776C147.807 38.8024 147.197 40.1453 146.972 41.8046L157.148 41.8072Z" fill="#84C102"/>
<path d="M198.256 28.7539H189.403V54.7343H184.29V28.7539H175.458V24.4944H198.256V28.7539Z" fill="#004B04"/>
<path d="M220.961 54.7345H215.973V51.3192H215.887C214.442 53.9331 212.194 55.2409 209.14 55.2426C203.942 55.2426 201.343 52.178 201.341 46.0488V33.1419H206.326V45.5433C206.326 49.423 207.851 51.3629 210.902 51.3629C211.593 51.3799 212.28 51.2446 212.909 50.9671C213.54 50.6895 214.1 50.2768 214.546 49.7591C215.498 48.6917 215.973 47.2932 215.973 45.5638V33.1394H220.961V54.7345Z" fill="#004B04"/>
<path d="M239.772 37.7992C239.172 37.3374 238.305 37.1056 237.172 37.1039C235.697 37.1039 234.465 37.7582 233.475 39.0668C232.486 40.3755 231.992 42.1502 231.994 44.3911V54.7243H227.009V33.1394H231.994V37.5888H232.08C232.566 36.0698 233.315 34.8851 234.325 34.0349C235.253 33.2123 236.459 32.7554 237.711 32.752C238.613 32.752 239.3 32.8854 239.772 33.1523V37.7992Z" fill="#004B04"/>
<path d="M255.298 26.7499C254.597 26.3633 253.803 26.1666 252.999 26.1804C250.574 26.1752 249.362 27.5181 249.362 30.2089V33.1392H254.475V36.9881H249.388V54.7446H244.396V36.9881H240.642V33.1392H244.396V29.6393C244.396 27.3607 245.155 25.5645 246.673 24.2507C248.19 22.937 250.089 22.2801 252.368 22.2801C253.359 22.2449 254.348 22.3803 255.29 22.6804L255.298 26.7499Z" fill="#004B04"/>
<path fill-rule="evenodd" clip-rule="evenodd" d="M0 0L0.690059 0.674848C45.4812 6.4149 54.7683 54.9988 54.7683 54.9988L61.6558 54.655C44.778 2.53004 0 0 0 0Z" fill="#84C102"/>
<path fill-rule="evenodd" clip-rule="evenodd" d="M33.0679 54.655L39.9554 54.9911C39.9554 54.9911 49.2555 6.4149 94.0335 0.674848L94.7236 0C94.7236 0 49.9456 2.53004 33.0679 54.655Z" fill="#018C21"/>
<path fill-rule="evenodd" clip-rule="evenodd" d="M56.1454 42.5153L55.8004 42.1766C55.8004 42.1766 38.7162 40.5575 33.4102 55.0063H40.6453C40.6453 55.0063 39.3357 43.5956 56.1454 42.5153Z" fill="#004B04"/>
</g>
</g>
</svg>
