<svg width="180" height="60" viewBox="0 0 180 60" fill="none" xmlns="http://www.w3.org/2000/svg">
<path d="M157.716 28.4053V29.1929C157.671 29.6325 157.543 30.0542 157.341 30.4267C157.276 30.5765 157.185 30.7087 157.075 30.8149C156.966 30.9211 156.838 30.9989 156.701 31.0437C156.462 31.1806 156.205 31.265 155.941 31.2931H152.633C152.53 31.2992 152.43 31.3259 152.335 31.3718C152.236 31.4146 152.132 31.4368 152.026 31.4375C151.752 31.436 151.483 31.5279 151.25 31.7022C151.017 31.8767 150.832 32.1262 150.714 32.4219C150.457 32.914 150.302 33.472 150.262 34.0496V57.2436C150.239 57.4535 150.198 57.6601 150.141 57.8606C150.087 58.1003 150.005 58.33 149.898 58.5431C149.769 58.7572 149.604 58.9384 149.415 59.0759C149.226 59.2134 149.015 59.3045 148.796 59.3438C148.36 59.3924 147.921 59.4143 147.484 59.4095H146.447C146.058 59.3794 145.68 59.2399 145.345 59.0026C145.105 58.8044 144.933 58.5111 144.859 58.1756C144.76 57.886 144.697 57.581 144.672 57.2699V34.0758C144.662 33.9777 144.643 33.8809 144.617 33.7871C144.617 33.6427 144.529 33.4983 144.496 33.3539C144.504 33.293 144.504 33.2309 144.496 33.1701C144.487 33.1094 144.487 33.0471 144.496 32.9864C144.48 32.7068 144.394 32.4394 144.247 32.2193C144.102 31.9991 143.905 31.8364 143.68 31.7525C143.271 31.5084 142.824 31.3612 142.368 31.3193H139.06C138.893 31.3011 138.729 31.2524 138.575 31.1749C138.362 31.1026 138.155 31.0059 137.957 30.8862C137.782 30.7296 137.635 30.5327 137.526 30.3072C137.416 30.0817 137.345 29.8321 137.318 29.5735C137.272 29.1905 137.243 28.805 137.229 28.4184C137.229 28.169 137.229 27.9065 137.229 27.6177C137.287 27.1888 137.398 26.7727 137.56 26.3839C137.64 26.2365 137.743 26.1094 137.865 26.0102C137.986 25.9109 138.123 25.8416 138.266 25.8063C138.529 25.6911 138.803 25.6161 139.082 25.5832H155.819C156.016 25.587 156.212 25.6134 156.404 25.6619C156.639 25.7163 156.858 25.838 157.043 26.0163C157.197 26.1492 157.328 26.3176 157.426 26.5115C157.525 26.7055 157.589 26.9209 157.616 27.1452C157.682 27.5784 157.715 28.0176 157.716 28.4578V28.4053ZM127.946 36.0579C127.964 35.2827 127.796 34.5174 127.46 33.8527C127.131 33.2456 126.68 32.7451 126.148 32.3957C125.573 32.03 124.956 31.7648 124.318 31.6081C123.652 31.435 122.972 31.347 122.289 31.3456C121.686 31.2978 121.084 31.4476 120.547 31.7788C120.189 32.0356 119.905 32.4154 119.731 32.8682C119.561 33.3374 119.468 33.8408 119.456 34.3515C119.456 34.9159 119.456 35.4803 119.456 36.0579C119.456 36.6355 119.456 37.3705 119.456 37.9087C119.47 38.4219 119.571 38.9266 119.753 39.392C119.943 39.8292 120.244 40.1833 120.613 40.4027C121.158 40.6873 121.751 40.8133 122.344 40.7702C123.218 40.7495 124.086 40.6174 124.935 40.3764C125.413 40.2553 125.866 40.0224 126.267 39.6911C126.669 39.3599 127.011 38.9369 127.273 38.4469C127.523 38.0534 127.71 37.6084 127.824 37.1343C127.904 36.7654 127.944 36.3862 127.946 36.0054V36.0579ZM134.76 58.0837C134.77 58.2513 134.744 58.4192 134.687 58.5727C134.63 58.726 134.54 58.8601 134.429 58.9632C134.192 59.1619 133.921 59.2963 133.635 59.357C133.327 59.4317 133.013 59.4668 132.698 59.462H130.592C130.183 59.4676 129.776 59.3692 129.401 59.1732C129.103 59.0637 128.833 58.8649 128.618 58.5956C128.519 58.4866 128.426 58.368 128.343 58.2412C128.259 58.1108 128.166 57.9879 128.067 57.8737C127.372 56.3248 126.678 54.7497 125.972 53.122C125.266 51.4943 124.461 49.8273 123.69 48.2522C123.57 48.1108 123.467 47.9521 123.381 47.7796C123.261 47.5695 123.093 47.4054 122.896 47.3071C122.505 46.9146 122.006 46.7088 121.495 46.7295C121.113 46.7491 120.738 46.8608 120.393 47.0577C120.166 47.2222 119.975 47.4506 119.838 47.7228C119.703 47.9952 119.623 48.303 119.61 48.6197C119.557 48.7313 119.516 48.8503 119.489 48.9741C119.45 49.0915 119.428 49.2156 119.422 49.3417V57.2174C119.406 57.4252 119.376 57.6314 119.334 57.8343C119.296 58.087 119.2 58.3226 119.059 58.5169C118.93 58.731 118.764 58.9121 118.576 59.0497C118.386 59.1871 118.175 59.2782 117.956 59.3176C117.521 59.3662 117.082 59.3881 116.644 59.3832H115.607C115.23 59.3752 114.861 59.2484 114.538 59.0157C114.299 58.8128 114.12 58.5225 114.031 58.1887C113.915 57.9038 113.84 57.5975 113.81 57.283V27.6702C113.819 27.3888 113.875 27.1124 113.976 26.8575C114.076 26.6026 114.218 26.3744 114.395 26.187C114.559 25.9741 114.761 25.808 114.986 25.7012C115.212 25.5943 115.454 25.5496 115.696 25.57H124.583C127.912 25.7188 130.299 26.7469 131.739 28.6547C133.24 30.6765 134.03 33.3089 133.944 36.0054C134.001 37.4797 133.794 38.9517 133.337 40.3239C132.994 41.2323 132.553 42.0838 132.025 42.8573C131.562 43.5136 131.121 44.078 130.713 44.5637C130.515 44.8008 130.358 45.0836 130.253 45.3951C130.15 45.7065 130.099 46.0399 130.107 46.3751C130.118 46.5693 130.14 46.7622 130.173 46.9527C130.207 47.2265 130.267 47.4949 130.349 47.7534C130.559 48.2784 130.834 48.9216 131.176 49.6698L132.279 52.0588C132.665 52.8989 133.062 53.7652 133.47 54.684L134.627 57.1518C134.721 57.2846 134.775 57.4508 134.782 57.6243C134.749 57.7818 134.76 57.9393 134.76 58.0312V58.0837ZM111.385 56.3904V57.1911C111.343 57.6298 111.219 58.0516 111.021 58.425C110.883 58.7211 110.654 58.9422 110.381 59.0419C110.14 59.1725 109.884 59.2568 109.621 59.2913H94.8348C94.6688 59.2664 94.5059 59.218 94.3496 59.1469C94.1399 59.0631 93.9338 58.9666 93.7322 58.8582C93.4833 58.6936 93.2976 58.4207 93.2139 58.0968C93.0973 57.7854 93.0264 57.4523 93.0044 57.1124V27.6702C93.0254 27.4854 93.0661 27.3045 93.1257 27.1321C93.2139 26.8695 93.2911 26.607 93.3683 26.3707C93.441 26.2245 93.5382 26.0977 93.654 25.9984C93.7697 25.899 93.9014 25.8292 94.0409 25.7932C94.3132 25.6697 94.5993 25.5945 94.8899 25.57H109.08C109.262 25.5735 109.443 25.5998 109.621 25.6488C109.845 25.7041 110.053 25.826 110.227 26.0032C110.544 26.2747 110.764 26.6772 110.844 27.1321C110.921 27.5635 110.962 28.0034 110.966 28.4447C110.966 28.681 110.966 28.9435 110.966 29.2323C110.909 29.6611 110.797 30.0772 110.635 30.4661C110.497 30.7623 110.268 30.9833 109.995 31.0831C109.735 31.2252 109.455 31.3098 109.169 31.3325H101.009C100.802 31.3464 100.598 31.3949 100.403 31.4768C100.015 31.5422 99.6527 31.7484 99.3664 32.0675C99.1284 32.3503 98.9507 32.6968 98.8482 33.0782C98.7522 33.4538 98.693 33.8414 98.6718 34.2334C98.6718 34.6271 98.6718 34.9422 98.6718 35.1784V35.7954C98.6687 36.073 98.6909 36.3504 98.738 36.6223C98.823 36.9101 98.893 37.2037 98.9474 37.5018C99.0373 37.8848 99.2411 38.2161 99.5208 38.4338C99.7432 38.5885 99.98 38.7119 100.226 38.8013C100.487 38.9262 100.762 39.0016 101.042 39.0244H108.11C108.277 39.044 108.44 39.0926 108.595 39.1688C108.804 39.2432 109.007 39.3399 109.202 39.4576C109.515 39.7588 109.73 40.1816 109.808 40.6521C109.892 41.0824 109.932 41.523 109.929 41.9647C109.929 42.2141 109.929 42.4766 109.929 42.7654C109.861 43.2021 109.727 43.6202 109.532 43.9993C109.464 44.1417 109.372 44.2664 109.262 44.3656C109.152 44.4649 109.027 44.5367 108.893 44.5768C108.649 44.6934 108.393 44.7686 108.132 44.8H100.976C100.885 44.785 100.792 44.785 100.701 44.8C100.594 44.8581 100.483 44.9063 100.37 44.9444C99.9529 45.0579 99.571 45.308 99.2672 45.6663C99.0136 45.9813 98.8349 46.3709 98.749 46.7952C98.667 47.2258 98.6263 47.6661 98.6277 48.1078V50.0898C98.6216 50.4939 98.6437 50.8978 98.6939 51.2975C98.7805 51.5801 98.8505 51.8695 98.9034 52.1638C98.9404 52.349 99.0108 52.5225 99.1099 52.672C99.2089 52.8217 99.334 52.9439 99.4767 53.0301C99.6823 53.2022 99.9092 53.335 100.149 53.4239C100.418 53.5684 100.705 53.6572 100.998 53.6864H109.643C109.8 53.6975 109.956 53.7328 110.106 53.7914C110.329 53.8703 110.543 53.9805 110.745 54.1196C110.903 54.2548 111.034 54.4273 111.133 54.626C111.231 54.8247 111.295 55.0455 111.318 55.2747C111.364 55.6442 111.386 56.0171 111.385 56.3904ZM90.5677 49.5123C90.6156 51.2394 90.313 52.9549 89.6856 54.5134C89.1533 55.7883 88.3703 56.8916 87.4033 57.7293C86.4265 58.5527 85.3202 59.1332 84.1506 59.4357C82.9215 59.7761 81.6637 59.9478 80.4017 59.9476C79.4653 59.9387 78.5302 59.8643 77.6012 59.7245C76.5866 59.5801 75.5951 59.2617 74.6572 58.7794C73.6785 58.2794 72.7796 57.5823 71.9999 56.7186C71.1392 55.7214 70.4925 54.4924 70.1145 53.1351C70.0373 52.8857 69.9712 52.6363 69.905 52.3738C69.8389 52.1113 69.7727 51.8225 69.6955 51.5337C69.5999 51.1797 69.5371 50.8144 69.5081 50.4443C69.4968 50.1819 69.4968 49.9189 69.5081 49.6567C69.4834 49.2166 69.5887 48.7801 69.8058 48.4228C69.9992 48.1453 70.25 47.9327 70.5335 47.8059C70.8217 47.6851 71.1219 47.6102 71.4266 47.5827C71.7243 47.5827 71.9779 47.5827 72.1874 47.5827C72.5924 47.5739 72.9976 47.5959 73.4002 47.6484C73.7156 47.6981 74.0173 47.8328 74.2823 48.0422C74.5843 48.3166 74.8326 48.666 75.01 49.066C75.2919 49.6614 75.5459 50.2749 75.7708 50.9037C76.4496 52.0655 77.3738 52.9936 78.4501 53.5945L78.8471 53.7389L79.2991 53.8833L79.9717 53.9883H80.4569C81.3175 53.9559 82.161 53.6959 82.9267 53.227C83.3517 52.9725 83.7274 52.6148 84.0293 52.1769C84.3419 51.7277 84.5065 51.1585 84.4924 50.5755C84.4799 50.0018 84.3182 49.4467 84.0293 48.9872C83.6643 48.3878 83.174 47.9127 82.6069 47.609C81.6697 47.0314 80.6884 46.4801 79.652 45.9813C78.6155 45.4825 77.5901 44.9444 76.5757 44.3799C75.6112 43.8614 74.6757 43.2695 73.7751 42.6079C72.9687 42.0263 72.2648 41.264 71.7022 40.3633C71.1766 39.5075 70.8016 38.5342 70.5996 37.5018C70.4407 36.6083 70.3594 35.6979 70.3571 34.7847C70.3142 33.1804 70.6058 31.5884 71.2061 30.1511C71.7393 28.9403 72.4926 27.8866 73.4113 27.0664C74.3328 26.2623 75.3724 25.6702 76.4765 25.3206C77.6101 24.9651 78.7774 24.7843 79.9497 24.7825C80.6883 24.793 81.4254 24.8675 82.1549 25.0056C82.9899 25.1555 83.8076 25.4197 84.5916 25.7932C85.4154 26.188 86.1848 26.7278 86.874 27.3946C87.627 28.1239 88.259 29.0142 88.7374 30.0198C89.0278 30.6211 89.2503 31.2655 89.3989 31.9363C89.5435 32.4895 89.6251 33.0635 89.6415 33.6427C89.667 34.0706 89.5612 34.495 89.3438 34.8372C89.1489 35.0915 88.9074 35.2891 88.6382 35.4147C88.3669 35.5372 88.0793 35.5995 87.7892 35.5985H87.0284H86.3889C86.0737 35.6262 85.7568 35.5906 85.4516 35.4935C85.2411 35.3973 85.0349 35.2878 84.8342 35.1653C84.5357 34.9691 84.285 34.6842 84.1065 34.3384C84.0218 34.2288 83.9512 34.105 83.897 33.9708C83.8408 33.8387 83.7662 33.7188 83.6765 33.6164C83.3117 32.6835 82.689 31.9283 81.9123 31.4768C81.2911 31.0933 80.6051 30.8824 79.9056 30.8599C79.5328 30.8623 79.162 30.9241 78.803 31.0437C78.3945 31.1643 78.0039 31.3591 77.6452 31.6212C77.292 31.8743 76.9816 32.2036 76.7301 32.5926C76.4379 33.1074 76.3086 33.7289 76.365 34.3466C76.4216 34.9644 76.6603 35.5381 77.0388 35.966C77.6107 36.5097 78.2458 36.9518 78.9243 37.2786C79.5748 37.6199 80.3466 38.0006 81.2397 38.4338C82.1328 38.8669 82.9818 39.287 83.7867 39.6676C86.433 40.8402 88.2192 42.1922 89.1453 43.7236C90.1404 45.4348 90.6397 47.4853 90.5677 49.5648V49.5123ZM67.0162 49.5123C67.0585 51.2389 66.7562 52.9528 66.1341 54.5134C65.5947 55.7828 64.813 56.8841 63.8517 57.7293C62.8577 58.5592 61.7323 59.1397 60.5439 59.4357C59.3185 59.7757 58.0644 59.9475 56.8061 59.9476C55.8697 59.9387 54.9346 59.8643 54.0055 59.7245C52.9878 59.5784 51.9927 59.2602 51.0506 58.7794C50.0768 58.276 49.1819 57.5791 48.4043 56.7186C47.5362 55.7285 46.8883 54.4971 46.5189 53.1351C46.4326 52.8881 46.3625 52.6336 46.3094 52.3738C46.2432 52.0982 46.1771 51.8225 46.0889 51.5337C45.9975 51.1791 45.9383 50.8139 45.9125 50.4443C45.8684 50.0066 45.8463 49.7441 45.8463 49.6567C45.8444 49.2423 45.9611 48.8396 46.1771 48.5147C46.3663 48.232 46.6185 48.0181 46.9048 47.8978C47.1892 47.777 47.4859 47.7019 47.7869 47.6746C48.0956 47.6746 48.3492 47.6746 48.5477 47.6746C48.9528 47.6654 49.3579 47.6874 49.7605 47.7402C50.0769 47.7853 50.3794 47.9203 50.6426 48.134C50.9481 48.4077 51.2001 48.757 51.3814 49.1579C51.6019 49.6173 51.8555 50.2342 52.1422 50.9956C52.4314 51.5765 52.8046 52.092 53.2447 52.5182C53.6878 53.0149 54.2035 53.4109 54.7663 53.6864L55.1633 53.8308L55.6153 53.9752L56.2879 54.0802H56.7731C57.1449 54.0628 57.5142 54.0012 57.8757 53.8965C58.3287 53.7724 58.7661 53.5783 59.1767 53.3189C59.5992 53.0597 59.9741 52.7026 60.2793 52.2688C60.5844 51.8154 60.7446 51.2481 60.7314 50.6674C60.7179 50.0959 60.5605 49.5425 60.2793 49.0791C59.9098 48.4797 59.416 48.0047 58.846 47.7009C57.9087 47.1233 56.9274 46.572 55.891 46.0732C54.8545 45.5744 53.8401 45.0362 52.8258 44.4718C51.8612 43.9533 50.9258 43.3613 50.0252 42.6998C49.2165 42.1218 48.5121 41.3589 47.9523 40.4552C47.4184 39.6051 47.0425 38.6297 46.8497 37.5937C46.6873 36.7007 46.6023 35.7901 46.5961 34.8765C46.5509 33.2704 46.8467 31.6768 47.4561 30.243C47.9848 29.0287 48.739 27.9739 49.6613 27.1583C50.5867 26.3538 51.6299 25.7617 52.7376 25.4125C53.871 25.0563 55.0383 24.8754 56.2107 24.8744C56.9494 24.8858 57.6863 24.9603 58.4159 25.0975C59.2506 25.2491 60.0682 25.5133 60.8527 25.8851C61.674 26.2858 62.4426 26.8252 63.1351 27.4865C63.8816 28.22 64.5093 29.1097 64.9874 30.1117C65.2817 30.7124 65.5079 31.3567 65.66 32.0282C65.8046 32.5814 65.8861 33.1553 65.9026 33.7346C65.9292 34.1647 65.819 34.591 65.5938 34.929C65.4052 35.1858 65.1667 35.3841 64.8992 35.5066C64.6278 35.628 64.3402 35.6902 64.0502 35.6904H63.2894H62.6499C62.3312 35.7178 62.0107 35.6822 61.7017 35.5854C61.4949 35.4885 61.2925 35.3789 61.0952 35.2572C60.7921 35.0684 60.54 34.7818 60.3675 34.4303C60.2793 34.3212 60.205 34.1974 60.147 34.0627C60.0955 33.9305 60.0245 33.8106 59.9375 33.7083C59.5663 32.7809 58.9453 32.0278 58.1734 31.5687C57.5522 31.1852 56.8661 30.9742 56.1666 30.9518C55.3894 30.98 54.6308 31.2419 53.9614 31.7131C53.6109 31.9654 53.3041 32.2951 53.0573 32.6845C52.7637 33.1978 52.6326 33.8184 52.6871 34.436C52.7415 35.0537 52.9783 35.6284 53.355 36.0579C53.9301 36.5959 54.5646 37.0375 55.2405 37.3705C55.891 37.7118 56.6628 38.0925 57.5559 38.5256C58.449 38.9588 59.298 39.3788 60.1139 39.7595C62.1857 40.4826 64.0435 41.8888 65.4726 43.8155C66.4904 45.4861 67.0314 47.5011 67.0162 49.5648V49.5123ZM43.4537 56.3904V57.1911C43.4121 57.6298 43.2877 58.0516 43.0898 58.425C42.9516 58.7211 42.7224 58.9422 42.4503 59.0419C42.2094 59.1725 41.9526 59.2568 41.6895 59.2913H26.9037C26.7377 59.2664 26.5748 59.218 26.4185 59.1469C26.2088 59.0631 26.0027 58.9666 25.8011 58.8582C25.5522 58.6936 25.3665 58.4207 25.2829 58.0968C25.1599 57.788 25.0887 57.4535 25.0734 57.1124V27.6702C25.0943 27.4854 25.135 27.3045 25.1946 27.1321C25.2718 26.8695 25.36 26.607 25.4372 26.3707C25.5099 26.2245 25.6071 26.0977 25.7229 25.9984C25.8386 25.899 25.9703 25.8292 26.1098 25.7932C26.3821 25.6697 26.6682 25.5945 26.9588 25.57H41.1382C41.3238 25.5725 41.5087 25.5989 41.6895 25.6488C41.9136 25.7041 42.1222 25.826 42.2959 26.0032C42.6127 26.2747 42.833 26.6772 42.9134 27.1321C42.9908 27.5635 43.0314 28.0034 43.0347 28.4447C43.0347 28.681 43.0347 28.9435 43.0347 29.2323C42.9778 29.6611 42.8663 30.0772 42.7039 30.4661C42.5656 30.7623 42.3364 30.9833 42.0644 31.0831C41.8037 31.2252 41.5236 31.3098 41.2375 31.3325H33.0782C32.8714 31.3464 32.6672 31.3949 32.4718 31.4768C32.0836 31.5422 31.7216 31.7484 31.4354 32.0675C31.1937 32.347 31.0155 32.6946 30.9171 33.0782C30.8211 33.4538 30.7619 33.8414 30.7407 34.2334C30.7407 34.6271 30.7407 34.9422 30.7407 35.1784V35.7954C30.7216 36.0705 30.7216 36.3471 30.7407 36.6223C30.8349 36.9076 30.9086 37.2017 30.9612 37.5018C31.0511 37.8848 31.2549 38.2161 31.5346 38.4338C31.7557 38.5915 31.9928 38.715 32.2402 38.8013C32.5007 38.9262 32.776 39.0016 33.0562 39.0244H40.1128C40.2796 39.044 40.443 39.0926 40.5979 39.1688C40.807 39.2432 41.0099 39.3399 41.2044 39.4576C41.4959 39.767 41.6935 40.1822 41.7667 40.639C41.8503 41.0692 41.891 41.5099 41.888 41.9516C41.888 42.201 41.888 42.4635 41.888 42.7523C41.8304 43.1902 41.6991 43.6099 41.5021 43.9861C41.4336 44.1286 41.3416 44.2533 41.2317 44.3525C41.1219 44.4517 40.9963 44.5235 40.8626 44.5637C40.619 44.6803 40.3629 44.7555 40.1018 44.7868H33.0451C32.9536 44.7719 32.8609 44.7719 32.7695 44.7868C32.6624 44.8449 32.552 44.8932 32.4387 44.9312C32.0218 45.0448 31.6399 45.2948 31.3361 45.6532C31.0825 45.9682 30.9038 46.3578 30.8179 46.782C30.7359 47.2127 30.6952 47.653 30.6966 48.0947V50.0767C30.675 50.4788 30.675 50.8821 30.6966 51.2843C30.7924 51.5643 30.8663 51.8544 30.9171 52.1507C30.9542 52.3359 31.0246 52.5094 31.1236 52.6589C31.2227 52.8085 31.3478 52.9308 31.4905 53.017C31.6961 53.1891 31.923 53.3219 32.1631 53.4108C32.4314 53.5553 32.7186 53.644 33.0121 53.6733H41.6564C41.814 53.6843 41.9696 53.7196 42.1195 53.7783C42.3428 53.8572 42.5575 53.9673 42.759 54.1065C42.9162 54.2418 43.0481 54.4142 43.1468 54.6129C43.2454 54.8116 43.3086 55.0324 43.3324 55.2616C43.3962 55.6337 43.4368 56.0111 43.4537 56.3904ZM16.859 42.3847C16.8602 40.9646 16.6969 39.5513 16.3739 38.1844C16.0706 36.895 15.5615 35.6872 14.8743 34.6271C14.1779 33.5818 13.2821 32.7493 12.2612 32.1988C11.0653 31.5645 9.76593 31.2551 8.45719 31.2931C7.89687 31.3133 7.34262 31.4373 6.81433 31.6606C6.51726 31.7753 6.2577 31.9977 6.07189 32.2966C5.88608 32.5953 5.7833 32.9558 5.77788 33.3276L5.65659 33.7608C5.62321 33.8528 5.60094 33.9501 5.59044 34.0496V50.7855C5.64958 51.2406 5.76474 51.683 5.93224 52.0982C6.15276 52.7413 6.45047 53.122 6.81433 53.2139C7.16389 53.2583 7.51027 53.3328 7.85076 53.437C8.06836 53.4897 8.2904 53.5117 8.51232 53.5027C9.33067 53.5045 10.1471 53.4078 10.9491 53.2139C11.7302 53.0204 12.4766 52.6649 13.1543 52.1638C13.8722 51.6148 14.4906 50.9008 14.9736 50.0636C15.5628 49.0132 15.9954 47.8499 16.2526 46.6245C16.4552 45.8807 16.5991 45.1161 16.6826 44.3406C16.771 43.6929 16.8299 43.0399 16.859 42.3847ZM22.6366 42.3847C22.6478 44.4264 22.4327 46.4611 21.9971 48.4359C21.6071 50.2604 20.9503 51.9888 20.0565 53.542C19.1801 55.0341 18.0539 56.2944 16.7487 57.2436C15.3279 58.2289 13.7439 58.8336 12.1068 59.0157L11.1916 59.1207L10.2213 59.2257L1.88571 59.3701C1.3734 59.3104 0.890496 59.0576 0.507461 58.6481C0.341212 58.4645 0.209924 58.2407 0.122436 57.9916C0.0349493 57.7426 -0.00671104 57.474 0.00026275 57.2043V27.6702C0.00655557 27.3896 0.0606158 27.1136 0.159168 26.8585C0.257721 26.6036 0.398715 26.3751 0.573614 26.187C0.73962 25.9738 0.943685 25.8078 1.17077 25.7009C1.39785 25.5942 1.64217 25.5494 1.88571 25.57H9.91262C10.2434 25.57 10.5742 25.6619 10.927 25.6882C11.2011 25.6941 11.4741 25.7291 11.7429 25.7932L12.3825 25.9376L13.022 26.082C13.1813 26.1409 13.3433 26.1891 13.5071 26.2264L14.0584 26.3707L14.4774 26.5151L14.9074 26.6595C15.6802 27.0008 16.4196 27.4409 17.1126 27.9721C17.8781 28.5131 18.5576 29.2107 19.1193 30.033C19.6903 30.7288 20.1832 31.5098 20.5858 32.3563C20.9055 33.0782 21.2143 33.8264 21.4899 34.6009C21.9399 35.8594 22.2476 37.1837 22.4051 38.5388C22.559 39.8125 22.6363 41.0977 22.6366 42.3847Z" fill="#2C2C2C"/>
<path d="M163.218 46.8867C163.286 47.119 163.408 47.3238 163.57 47.4774C163.727 47.6094 163.909 47.6909 164.1 47.7136C164.3 47.7527 164.505 47.7527 164.706 47.7136C164.92 47.6727 165.131 47.6066 165.335 47.5167C165.514 47.4473 165.674 47.3201 165.798 47.1492C165.881 47.0257 165.931 46.8745 165.941 46.716C165.939 46.5555 165.917 46.3961 165.875 46.2434C165.875 46.0727 165.776 45.9153 165.72 45.7447L165.533 45.2065C165.48 45.0574 165.401 44.9231 165.301 44.8127C165.205 44.7048 165.081 44.6399 164.949 44.629C164.762 44.6175 164.576 44.6627 164.408 44.7602C164.151 44.8801 163.908 45.0342 163.681 45.2196C163.423 45.4274 163.244 45.7484 163.184 46.1122C163.16 46.2595 163.16 46.4111 163.184 46.5585C163.194 46.6764 163.221 46.7916 163.262 46.8997L163.218 46.8867ZM159.138 41.3604C159.118 41.3135 159.108 41.2618 159.108 41.2096C159.108 41.1572 159.118 41.1055 159.138 41.0586C159.19 40.9683 159.258 40.8923 159.336 40.8355C159.419 40.7681 159.508 40.7109 159.601 40.6647L159.833 40.5598L160.218 40.3892C160.335 40.3249 160.464 40.2978 160.593 40.3104C160.693 40.2998 160.792 40.3225 160.88 40.3759H161.001L161.112 40.4417L162.214 41.5574C162.578 41.925 162.953 42.3056 163.317 42.66L163.46 42.7518C163.513 42.8028 163.579 42.8307 163.648 42.8307C163.797 42.8959 163.961 42.8959 164.111 42.8307C164.224 42.7828 164.325 42.696 164.397 42.5813C164.451 42.5038 164.488 42.4114 164.503 42.3126C164.519 42.2139 164.512 42.112 164.485 42.0167V41.9512C164.485 41.9512 164.485 41.8593 164.485 41.8331L163.725 39.5097C163.719 39.4487 163.719 39.387 163.725 39.326C163.707 39.2441 163.707 39.1583 163.725 39.0766C163.74 38.9945 163.771 38.9179 163.815 38.852C163.859 38.7862 163.914 38.7328 163.978 38.6958C164.098 38.617 164.223 38.5511 164.353 38.499L164.662 38.3676C164.773 38.3286 164.892 38.3286 165.004 38.3676C165.095 38.3891 165.178 38.4498 165.235 38.5384C165.297 38.6069 165.349 38.6867 165.39 38.7745L168.234 47.4642C168.264 47.545 168.278 47.6321 168.278 47.7201C168.278 47.8081 168.264 47.8953 168.234 47.9761C168.209 48.0628 168.166 48.141 168.111 48.2048C168.056 48.2686 167.988 48.3161 167.915 48.3437L165.301 49.5513C164.924 49.753 164.517 49.8628 164.105 49.8741C163.693 49.8854 163.281 49.7979 162.898 49.6169C162.267 49.2238 161.79 48.5559 161.564 47.753C161.422 47.4008 161.341 47.019 161.324 46.6293C161.307 46.2397 161.354 45.8498 161.464 45.4822C161.542 45.2196 161.619 44.9965 161.685 44.7996C161.72 44.7022 161.739 44.5972 161.739 44.4911C161.739 44.3849 161.72 44.2799 161.685 44.1827L161.608 44.025L161.475 43.8151C161.365 43.6839 161.222 43.5394 161.045 43.3687C160.869 43.1981 160.693 43.0013 160.494 42.8044L159.899 42.2137L159.325 41.6492C159.304 41.6379 159.286 41.6215 159.271 41.6011C159.256 41.5808 159.244 41.557 159.237 41.5312L159.138 41.3604ZM167.65 36.5957L167.474 36.4644C167.375 36.3839 167.296 36.2756 167.242 36.1493C167.209 36.0524 167.209 35.9444 167.242 35.8475C167.248 35.7483 167.266 35.6509 167.297 35.5587L169.635 30.7545C169.662 30.7008 169.7 30.6558 169.745 30.6233L169.899 30.4658C169.984 30.4274 170.079 30.4274 170.164 30.4658C170.252 30.4807 170.337 30.5117 170.417 30.5576L177.187 35.2042L177.287 35.3225L177.43 35.5194C177.448 35.569 177.458 35.6227 177.458 35.6769C177.458 35.7311 177.448 35.7846 177.43 35.8344C177.416 35.9446 177.386 36.0511 177.342 36.1493L175.137 40.7567C175.137 40.7567 175.07 40.8617 175.037 40.9274C174.986 40.9891 174.92 41.0341 174.85 41.0586C174.794 41.0875 174.734 41.1025 174.674 41.1025C174.613 41.1025 174.552 41.0875 174.497 41.0586C174.39 41.0165 174.288 40.9639 174.188 40.9011L174.012 40.7699C173.919 40.6824 173.841 40.5757 173.78 40.4547C173.764 40.4069 173.755 40.3556 173.755 40.3039C173.755 40.252 173.764 40.2007 173.78 40.1529C173.793 40.0482 173.819 39.9463 173.858 39.851L175.137 37.2258C175.173 37.1587 175.196 37.0822 175.203 37.0026C175.235 36.8607 175.235 36.7113 175.203 36.5695C175.173 36.4471 175.12 36.3348 175.048 36.2413C174.979 36.1519 174.902 36.0726 174.817 36.005L174.596 35.8475L174.464 35.7424L174.255 35.6375L174.023 35.5719C173.974 35.5473 173.922 35.5346 173.869 35.5346C173.816 35.5346 173.763 35.5473 173.714 35.5719L173.527 35.7424C173.455 35.8062 173.396 35.8866 173.35 35.9788L172.248 38.2759L172.138 38.407L171.972 38.5515C171.851 38.6036 171.719 38.6036 171.597 38.5515C171.489 38.515 171.386 38.4621 171.289 38.394L171.112 38.2627C171.024 38.1681 170.95 38.0573 170.892 37.9346C170.873 37.8873 170.863 37.8357 170.863 37.7836C170.863 37.7314 170.873 37.6798 170.892 37.6325C170.902 37.5355 170.928 37.4418 170.969 37.357L172.071 35.0599C172.071 35.0599 172.071 34.9943 172.071 34.9549C172.067 34.9112 172.067 34.8672 172.071 34.8237C172.109 34.6693 172.109 34.5054 172.071 34.351C172.035 34.2189 171.974 34.0979 171.895 33.9967C171.81 33.9064 171.717 33.8273 171.619 33.7604L171.355 33.5767L171.167 33.4453L170.881 33.2748C170.801 33.2639 170.724 33.2418 170.649 33.2091C170.553 33.1657 170.447 33.1657 170.351 33.2091L170.153 33.3665C170.081 33.4345 170.018 33.5141 169.965 33.6029L168.565 36.4513L168.477 36.5826C168.426 36.6462 168.367 36.6994 168.3 36.7401C168.243 36.7692 168.181 36.7843 168.119 36.7843C168.056 36.7843 167.994 36.7692 167.937 36.7401L167.65 36.5957ZM171.145 27.1973H170.98C170.907 27.1851 170.835 27.1585 170.77 27.1186C170.699 27.0791 170.636 27.0206 170.586 26.9479C170.537 26.8751 170.501 26.7899 170.484 26.6985C170.484 26.5016 170.484 26.344 170.406 26.2259C170.329 26.1077 170.406 26.0552 170.406 25.9371C170.395 25.815 170.395 25.6917 170.406 25.5695C170.406 25.4383 170.406 25.3071 170.462 25.1759C170.503 25.037 170.571 24.9113 170.66 24.8084L172.579 22.8394C173.218 22.2094 173.836 21.5268 174.453 20.8574C174.517 20.7814 174.57 20.6925 174.607 20.5948C174.633 20.4919 174.633 20.3826 174.607 20.2797C174.603 20.2373 174.59 20.1968 174.569 20.1625C174.547 20.1279 174.519 20.1005 174.486 20.0829C174.421 20.041 174.349 20.0144 174.277 20.0042H173.924L170.186 20.818C170.135 20.8297 170.082 20.8297 170.032 20.818H169.822C169.756 20.7842 169.696 20.7321 169.651 20.6658C169.605 20.5997 169.573 20.5212 169.557 20.4372C169.518 20.2962 169.488 20.1513 169.469 20.0042C169.469 19.9385 169.469 19.8204 169.469 19.676C169.442 19.5422 169.442 19.4027 169.469 19.2691C169.505 19.1621 169.572 19.0738 169.657 19.0197C169.724 18.9647 169.798 18.9247 169.877 18.9016L177.595 17.2214C177.643 17.2144 177.691 17.2144 177.739 17.2214C177.804 17.2064 177.871 17.2064 177.937 17.2214C178.013 17.2677 178.081 17.3345 178.132 17.4164C178.184 17.4984 178.218 17.5933 178.235 17.6938C178.235 17.917 178.301 18.0877 178.323 18.2059C178.315 18.2975 178.315 18.3898 178.323 18.4815C178.334 18.6036 178.334 18.7268 178.323 18.849C178.334 18.9799 178.334 19.1118 178.323 19.2428C178.286 19.3737 178.222 19.491 178.136 19.5841L177.309 20.4504C177.011 20.7523 176.724 21.0411 176.471 21.3168C176.217 21.5924 176.118 21.6449 175.93 21.8418L175.335 22.4456L175.059 22.7082L174.773 23.0101L174.552 23.2201C174.471 23.2974 174.397 23.3855 174.332 23.4826C174.269 23.577 174.214 23.6781 174.166 23.7845C174.141 23.8784 174.141 23.9793 174.166 24.0733C174.171 24.1104 174.184 24.1456 174.203 24.1754C174.223 24.2052 174.248 24.2288 174.277 24.2439L174.497 24.3096H174.872L178.489 23.5745H178.643C178.712 23.5582 178.783 23.5582 178.852 23.5745C178.919 23.6128 178.976 23.6679 179.022 23.7361C179.067 23.8041 179.1 23.8833 179.117 23.9681C179.117 24.1388 179.117 24.2833 179.194 24.3883C179.271 24.4933 179.194 24.5983 179.194 24.7296C179.22 24.8679 179.22 25.0113 179.194 25.1496C179.157 25.2523 179.091 25.3359 179.007 25.3859C178.946 25.4472 178.874 25.492 178.797 25.5172L171.145 27.1973ZM170.109 9.04369C170.242 8.85939 170.323 8.62971 170.34 8.38737C170.36 8.15889 170.33 7.92807 170.252 7.71796C170.168 7.49668 170.061 7.28929 169.932 7.10103C169.79 6.90616 169.631 6.73008 169.458 6.57595C169.317 6.42641 169.146 6.32247 168.962 6.27408C168.829 6.25565 168.693 6.28781 168.576 6.36596C168.458 6.44338 168.353 6.54567 168.267 6.66784L167.981 7.08789L167.694 7.54732C167.61 7.67831 167.553 7.83131 167.529 7.9936C167.486 8.13799 167.486 8.2955 167.529 8.43989C167.617 8.63713 167.746 8.80429 167.904 8.92556C168.121 9.12507 168.358 9.29255 168.609 9.42436C168.746 9.509 168.896 9.55859 169.05 9.56989C169.204 9.58119 169.358 9.55395 169.502 9.48998C169.625 9.45241 169.739 9.39027 169.844 9.30622C169.928 9.22758 170.003 9.13474 170.065 9.03059L170.109 9.04369ZM168.223 16.1057C168.197 16.1491 168.163 16.1839 168.122 16.2069C168.081 16.2298 168.037 16.2402 167.992 16.2369C167.899 16.2359 167.809 16.2088 167.727 16.1582C167.642 16.1046 167.561 16.0432 167.485 15.9744L167.286 15.7906L166.955 15.4887C166.856 15.3898 166.774 15.2695 166.713 15.1343C166.657 15.0356 166.619 14.9236 166.603 14.8062V14.6618C166.598 14.6094 166.598 14.5565 166.603 14.5043C166.68 13.9661 166.757 13.4017 166.845 12.8372C166.933 12.2728 167.01 11.6952 167.066 11.1177C167.06 11.0522 167.06 10.9862 167.066 10.9207C167.082 10.8476 167.082 10.7707 167.066 10.6976C167.034 10.5079 166.943 10.3393 166.812 10.225C166.712 10.1429 166.599 10.085 166.481 10.0544C166.397 10.044 166.313 10.0576 166.234 10.0941C166.155 10.1307 166.085 10.189 166.029 10.2644H165.941L165.875 10.3301L164.585 12.299C164.549 12.3487 164.509 12.3928 164.463 12.4303C164.414 12.4862 164.353 12.5268 164.287 12.5484C164.216 12.5715 164.144 12.5777 164.072 12.5664C164 12.5551 163.931 12.5267 163.868 12.4828L163.537 12.194L163.284 11.9446C163.193 11.8615 163.128 11.7466 163.096 11.6165C163.063 11.5106 163.063 11.3942 163.096 11.2883C163.117 11.1907 163.15 11.0976 163.195 11.0126L168.003 3.64883C168.05 3.58042 168.109 3.52418 168.175 3.48357C168.242 3.44296 168.314 3.41879 168.389 3.41255C168.466 3.39765 168.544 3.40411 168.619 3.43143C168.694 3.45875 168.762 3.50619 168.819 3.57005L171.024 5.61777C171.364 5.89565 171.652 6.25313 171.873 6.6684C172.092 7.08368 172.239 7.54802 172.303 8.03298C172.339 8.87957 172.103 9.71076 171.641 10.3563C171.462 10.6885 171.23 10.9755 170.957 11.2007C170.684 11.4259 170.378 11.585 170.054 11.6689C169.833 11.6689 169.635 11.774 169.447 11.8002C169.273 11.8282 169.114 11.9366 169.006 12.1021C168.975 12.1505 168.949 12.2034 168.929 12.2596C168.893 12.3389 168.863 12.4225 168.841 12.509C168.841 12.6797 168.775 12.9028 168.731 13.1784C168.686 13.454 168.664 13.7167 168.62 14.0186C168.576 14.3205 168.532 14.6224 168.499 14.9374C168.466 15.2525 168.422 15.5412 168.378 15.8169C168.387 15.8395 168.391 15.864 168.391 15.8889C168.391 15.914 168.387 15.9387 168.378 15.9613L168.223 16.1057ZM158.3 5.34208C158.278 4.98681 158.226 4.63507 158.146 4.292C158.051 3.87977 157.906 3.48622 157.716 3.12377C157.526 2.7671 157.279 2.45916 156.988 2.21806C156.649 1.97218 156.255 1.85894 155.859 1.89426C155.463 1.92958 155.087 2.1117 154.783 2.41495C154.525 2.70924 154.318 3.06175 154.176 3.45192C154.039 3.84159 153.95 4.25274 153.912 4.67268C153.845 5.33013 153.875 5.99623 154 6.64161C154.067 6.96612 154.159 7.28251 154.275 7.5867C154.398 7.90089 154.558 8.19262 154.75 8.45303C154.954 8.71943 155.206 8.92607 155.488 9.05682C155.632 9.13368 155.784 9.18242 155.94 9.2012C156.062 9.21363 156.183 9.21363 156.304 9.2012C156.691 9.1819 157.061 9.00596 157.352 8.70243C157.613 8.41644 157.819 8.06737 157.958 7.67858C158.1 7.28183 158.19 6.86109 158.223 6.43158C158.249 6.06473 158.249 5.69584 158.223 5.32899L158.3 5.34208ZM160.163 5.19771C160.22 5.96196 160.179 6.73188 160.042 7.48166C159.926 8.13237 159.701 8.74852 159.38 9.29308C159.067 9.80711 158.66 10.2292 158.19 10.527C157.658 10.8484 157.076 11.0361 156.481 11.0783C156.198 11.1108 155.914 11.1108 155.632 11.0783C155.358 11.057 155.088 10.9952 154.827 10.8945C154.592 10.8019 154.364 10.6877 154.143 10.5532C153.875 10.3874 153.63 10.1751 153.415 9.92317C153.176 9.65088 152.969 9.34187 152.798 9.00431C152.645 8.67255 152.516 8.32559 152.412 7.96732C152.312 7.62616 152.238 7.27464 152.192 6.91725C152.141 6.58274 152.103 6.24542 152.081 5.90654C152.024 5.13794 152.065 4.36346 152.203 3.60943C152.322 2.96197 152.551 2.35019 152.875 1.81115C153.192 1.30005 153.603 0.882408 154.077 0.590413C154.603 0.274391 155.176 0.086939 155.764 0.0391133C156.057 0.0130039 156.353 0.0130039 156.646 0.0391133C156.97 0.0856127 157.289 0.178144 157.594 0.314753C158.05 0.518342 158.463 0.836184 158.807 1.24672C159.126 1.62776 159.387 2.0719 159.579 2.55934C159.77 2.97111 159.911 3.41304 159.998 3.87196C160.055 4.31059 160.085 4.75377 160.086 5.19771H160.163ZM148.035 10.8026C148.2 10.9638 148.349 11.149 148.476 11.3539C148.592 11.5207 148.698 11.6961 148.796 11.879C148.997 12.2404 149.136 12.6467 149.203 13.0735C149.264 13.433 149.264 13.8033 149.203 14.1628C149.151 14.4942 149.055 14.8133 148.917 15.1079C148.788 15.4 148.637 15.6768 148.465 15.935C148.241 16.2696 147.99 16.5774 147.715 16.8539C147.432 17.1404 147.112 17.3709 146.767 17.5364C146.416 17.7092 146.043 17.8113 145.664 17.8383C145.198 17.8551 144.731 17.7796 144.286 17.6152C143.904 17.4739 143.541 17.2709 143.205 17.0114C142.893 16.7891 142.592 16.5483 142.301 16.2894C141.797 15.8296 141.352 15.2858 140.978 14.6749C140.643 14.1403 140.396 13.5344 140.25 12.8897C140.129 12.2767 140.129 11.6387 140.25 11.0258C140.379 10.3373 140.635 9.69157 141 9.13558C141.157 8.89927 141.325 8.67563 141.507 8.46613C141.709 8.24463 141.931 8.05088 142.169 7.88858C142.424 7.72667 142.699 7.6158 142.985 7.56042C143.309 7.48333 143.642 7.48333 143.966 7.56042L144.517 7.79672C144.675 7.86788 144.824 7.96509 144.958 8.0855C145.046 8.1544 145.112 8.25597 145.146 8.37427C145.161 8.46962 145.161 8.56771 145.146 8.66305C145.133 8.75715 145.103 8.84671 145.058 8.92556C145.015 9.0087 144.967 9.0877 144.914 9.16182C144.799 9.35258 144.648 9.50965 144.473 9.62124C144.205 9.72831 143.914 9.72831 143.646 9.62124C143.424 9.58491 143.197 9.61189 142.985 9.7C142.776 9.7629 142.583 9.88446 142.423 10.0544L142.323 10.1726C142.292 10.2068 142.266 10.2467 142.246 10.2907C142.077 10.546 141.967 10.849 141.926 11.1701C141.877 11.4957 141.877 11.8291 141.926 12.1546C142.004 12.4869 142.118 12.8049 142.268 13.0997C142.409 13.3976 142.583 13.6713 142.786 13.9136L143.095 14.2417L143.327 14.4649C143.514 14.6505 143.718 14.8133 143.933 14.9506C144.151 15.1089 144.384 15.2367 144.628 15.3312C144.881 15.4283 145.145 15.4857 145.411 15.5019C145.686 15.5267 145.964 15.4865 146.226 15.3837C146.391 15.3426 146.546 15.2574 146.679 15.1343C146.811 15.0277 146.929 14.8996 147.031 14.7537C147.196 14.4783 147.298 14.1575 147.329 13.8217C147.367 13.4164 147.285 13.008 147.098 12.6665C147.038 12.5247 146.964 12.3923 146.877 12.2728C146.794 12.1424 146.74 11.9886 146.723 11.8264C146.711 11.669 146.733 11.5105 146.789 11.3671C146.849 11.2417 146.92 11.1231 146.998 11.0126C147.101 10.8389 147.232 10.6917 147.384 10.5795C147.616 10.5532 147.759 10.6057 147.958 10.7895L148.035 10.8026Z" fill="#2C2C2C"/>
</svg>
