<svg width="80" height="80" viewBox="0 0 80 80" fill="none" xmlns="http://www.w3.org/2000/svg">
<g clip-path="url(#clip0_40_8113)">
<path d="M69.3227 19.9907H10.665C7.72015 19.9907 5.33252 22.3784 5.33252 25.3232V75.9821H74.6552V25.3232C74.6552 22.3784 72.2675 19.9907 69.3227 19.9907Z" fill="#4398D1"/>
<path d="M66.6564 25.3232H11.9982C11.6446 25.3232 11.3055 25.4637 11.0555 25.7137C10.8055 25.9637 10.665 26.3028 10.665 26.6564V73.3158H69.3227V27.9895C69.3227 26.5171 68.1288 25.3232 66.6564 25.3232Z" fill="#87CED9"/>
<path d="M69.3226 34.6552L30.6619 73.3159H69.3226V34.6552Z" fill="#71C4D1"/>
<path d="M58.6576 1.3269L62.7983 5.8717L68.656 4.00616L69.969 10.0124L75.9752 11.3254L74.1097 17.1831L78.6545 21.3238L74.1097 25.4643L75.9752 31.3223L69.969 32.6352L68.656 38.6415L62.7983 36.7758L58.6576 41.3207L54.5169 36.7758L48.6591 38.6415L47.3461 32.6352L41.3399 31.3221L43.2054 25.4643L38.6606 21.3238L43.2054 17.1831L41.3399 11.3254L47.3461 10.0122L48.6591 4.00632L54.5169 5.87187L58.6576 1.3269Z" fill="#FDB62F"/>
<path d="M51.0495 27.047L64.3801 13.7157L66.2659 15.6007L52.9346 28.932L51.0495 27.047ZM51.9921 21.3238C49.7834 21.3238 47.9927 19.5331 47.9927 17.3245C47.9927 15.1158 49.7834 13.3251 51.9921 13.3251C54.2007 13.3251 55.9914 15.1158 55.9914 17.3245C55.9914 19.5331 54.2007 21.3238 51.9921 21.3238ZM51.9921 15.9913C51.6385 15.9913 51.2994 16.1318 51.0494 16.3818C50.7994 16.6318 50.6589 16.9709 50.6589 17.3245C50.6589 17.678 50.7994 18.0171 51.0494 18.2671C51.2994 18.5171 51.6385 18.6576 51.9921 18.6576C52.3456 18.6576 52.6847 18.5171 52.9347 18.2671C53.1847 18.0171 53.3252 17.678 53.3252 17.3245C53.3252 16.9709 53.1847 16.6318 52.9347 16.3818C52.6847 16.1318 52.3456 15.9913 51.9921 15.9913ZM65.3233 29.3226C63.1147 29.3226 61.324 27.5319 61.324 25.3232C61.324 23.1146 63.1147 21.3238 65.3233 21.3238C67.532 21.3238 69.3227 23.1146 69.3227 25.3232C69.3227 27.5319 67.532 29.3226 65.3233 29.3226ZM65.3233 23.9901C64.9698 23.9901 64.6307 24.1305 64.3807 24.3806C64.1307 24.6306 63.9902 24.9697 63.9902 25.3232C63.9902 25.6768 64.1307 26.0159 64.3807 26.2659C64.6307 26.5159 64.9698 26.6563 65.3233 26.6563C65.6769 26.6563 66.016 26.5159 66.266 26.2659C66.516 26.0159 66.6565 25.6768 66.6565 25.3232C66.6565 24.9697 66.516 24.6306 66.266 24.3806C66.016 24.1305 65.6769 23.9901 65.3233 23.9901Z" fill="#FD6D2F"/>
<path d="M24.7632 57.05L19.9741 58.9925L23.0993 65.3171H28.344L24.7632 57.05ZM41.327 57.3183L24.7632 57.05L21.1838 49.9644L34.3092 36.9751L41.327 57.3183Z" fill="#E0E3E6"/>
<path d="M16.196 56.4141C16.3743 56.9362 16.6621 57.4142 17.0403 57.8159C17.4184 58.2176 17.8781 58.5338 18.3885 58.7432C18.899 58.9524 19.4483 59.0499 19.9996 59.0292C20.5508 59.0085 21.0913 58.8701 21.5847 58.6233L24.7632 57.0502L21.1837 49.9646L17.8716 51.931C16.3243 52.8418 15.6253 54.7119 16.196 56.4141Z" fill="#E3584B"/>
<path d="M41.5405 45.6599L45.9493 44.1277L46.8235 46.6448L42.4153 48.1771L41.5405 45.6599ZM38.0762 36.7973L41.0166 33.7328L42.9408 35.5788L39.9997 38.6434L38.0762 36.7973ZM45.3264 54.6521H49.3258V57.3183H45.3264V54.6521Z" fill="#5EB3D1"/>
<path d="M53.3252 46.6533H78.6546V62.6509H53.3252V46.6533Z" fill="#E3584B"/>
<path d="M57.3245 50.6527H62.657V53.319H57.3245V50.6527ZM65.3232 50.6527H74.6551V53.319H65.3232V50.6527ZM57.3245 55.9852H74.6551V58.6515H57.3245V55.9852Z" fill="#C9433C"/>
<path d="M1.33301 30.6558H21.3299V41.3208H1.33301V30.6558Z" fill="#FD6D2F"/>
<path d="M5.33252 34.6552H7.99878V37.3214H5.33252V34.6552ZM10.665 34.6552H17.3307V37.3214H10.665V34.6552Z" fill="#E3584B"/>
<path d="M74.655 78.6483H5.33239C3.12373 78.6483 1.33301 76.8576 1.33301 74.6489V70.6495H31.8375C32.2854 70.6495 32.7244 70.7742 33.1055 71.0096C33.4865 71.2451 33.7944 71.582 33.9946 71.9827C34.4029 72.7995 35.2378 73.3158 36.1518 73.3158H43.8356C44.2835 73.3159 44.7226 73.1912 45.1036 72.9557C45.4846 72.7202 45.7925 72.3833 45.9928 71.9827C46.4011 71.1656 47.2359 70.6495 48.15 70.6495H78.6544V74.6489C78.6544 76.8576 76.8637 78.6483 74.655 78.6483Z" fill="#D6D9DB"/>
<path d="M21.3301 33.322V41.3208H10.665V43.987H23.9963V33.322H21.3301Z" fill="#71C4D1"/>
<path d="M5.33252 41.3208H10.665V43.9871H5.33252V41.3208ZM69.3227 62.6508H74.6552V65.3171H69.3227V62.6508Z" fill="#3E8CC7"/>
<path d="M78.6545 69.3164H75.9883V66.6502H73.322V69.3164H70.6558V66.6502H67.9895V69.3164H48.1501C47.4528 69.3128 46.7685 69.505 46.1751 69.871C45.5817 70.2371 45.1029 70.7624 44.7933 71.3871C44.7047 71.5669 44.5673 71.7181 44.3968 71.8234C44.2263 71.9287 44.0296 71.9839 43.8292 71.9827H36.1521C35.9517 71.984 35.7549 71.9289 35.5844 71.8235C35.4138 71.7182 35.2764 71.567 35.1879 71.3871C34.8788 70.7633 34.4011 70.2387 33.8089 69.8726C33.2167 69.5066 32.5338 69.3139 31.8376 69.3164H11.9981V45.3201H9.33189V69.3164H6.66564V45.3201H3.99938V69.3164H1.33313C0.97956 69.3164 0.640474 69.4569 0.390464 69.7069C0.140454 69.9569 0 70.296 0 70.6496L0 74.649C0 77.5938 2.38763 79.9815 5.33251 79.9815H74.6552C77.6 79.9815 79.9877 77.5938 79.9877 74.649V70.6496C79.9877 70.296 79.8472 69.9569 79.5972 69.7069C79.3472 69.4569 79.0081 69.3164 78.6545 69.3164ZM77.3214 74.649C77.3214 76.1214 76.1276 77.3152 74.6552 77.3152H5.33251C3.86007 77.3152 2.66626 76.1214 2.66626 74.649V71.9827H31.8376C32.038 71.9814 32.2347 72.0366 32.4052 72.1419C32.5757 72.2473 32.7131 72.3985 32.8016 72.5783C33.1107 73.2021 33.5884 73.7268 34.1806 74.0928C34.7728 74.4588 35.4558 74.6515 36.1519 74.649H43.8357C44.533 74.6527 45.2174 74.4606 45.8108 74.0946C46.4043 73.7285 46.883 73.2031 47.1926 72.5783C47.2806 72.3995 47.417 72.249 47.5862 72.1437C47.7555 72.0385 47.9508 71.9827 48.1501 71.9827H77.3214V74.649ZM34.6613 21.3238V18.6576H10.665C6.98526 18.6621 4.00388 21.6435 3.99938 25.3232V26.6564H6.66564V25.3232C6.66564 23.1146 8.45636 21.3238 10.665 21.3238H34.6613Z" fill="#2C2C2C"/>
<path d="M9.33179 26.6564H37.3275V23.9901H11.998C10.5256 23.9901 9.33179 25.1839 9.33179 26.6564ZM75.6386 16.7737L77.2387 11.7308C77.295 11.5541 77.3139 11.3675 77.2941 11.183C77.2744 10.9985 77.2165 10.8202 77.124 10.6593C77.0313 10.4988 76.9061 10.3592 76.7566 10.2496C76.607 10.14 76.4362 10.0628 76.2551 10.0228L71.0833 8.89211L69.9584 3.72624C69.9193 3.5452 69.8428 3.37431 69.7339 3.22447C69.625 3.07464 69.486 2.94916 69.3259 2.85605C69.1658 2.76264 68.988 2.70372 68.8038 2.68306C68.6196 2.6624 68.4332 2.68045 68.2564 2.73606L63.2128 4.33548L59.6424 0.428587C59.3841 0.162461 59.0286 0.0128174 58.6575 0.0128174C58.2864 0.0128174 57.931 0.162628 57.6727 0.428753L54.1074 4.34282L49.0587 2.7364C48.8819 2.67996 48.6953 2.66105 48.5108 2.68088C48.3264 2.70071 48.1481 2.75883 47.9873 2.85154C47.8266 2.94424 47.687 3.06949 47.5775 3.21925C47.468 3.36901 47.3909 3.53999 47.3513 3.72125L46.2206 8.89228L41.0599 10.0229C40.8786 10.0626 40.7075 10.1396 40.5577 10.2492C40.4079 10.3588 40.2826 10.4985 40.1899 10.6593C40.0972 10.8201 40.0391 10.9985 40.0193 11.183C39.9995 11.3676 40.0185 11.5542 40.0751 11.731L41.6751 16.7739L37.7611 20.3392C37.4838 20.5916 37.3255 20.9491 37.3255 21.324C37.3255 21.699 37.4838 22.0563 37.7611 22.3089L41.6751 25.874L40.0751 30.9169C40.0185 31.0937 39.9995 31.2803 40.0193 31.4649C40.0391 31.6494 40.0972 31.8278 40.1899 31.9886C40.2826 32.1494 40.4079 32.2891 40.5577 32.3987C40.7075 32.5082 40.8786 32.5853 41.0599 32.625L46.2318 33.7556L47.3616 38.9268C47.4013 39.1081 47.4784 39.2791 47.5881 39.4289C47.6977 39.5786 47.8375 39.7038 47.9983 39.7963C48.159 39.8892 48.3374 39.9474 48.5219 39.9673C48.7064 39.9871 48.8931 39.9682 49.0698 39.9117L54.1127 38.3052L57.6778 42.2191C57.8027 42.3563 57.9548 42.4659 58.1244 42.5409C58.2941 42.6159 58.4775 42.6546 58.663 42.6546C58.8485 42.6546 59.0319 42.6159 59.2016 42.5409C59.3712 42.4659 59.5234 42.3563 59.6482 42.2191L63.2126 38.3051L68.2564 39.9115C68.4331 39.9679 68.6197 39.9868 68.8042 39.967C68.9887 39.9472 69.167 39.8891 69.3277 39.7964C69.4884 39.7036 69.628 39.5784 69.7375 39.4286C69.8471 39.2789 69.9241 39.1079 69.9638 38.9266L71.0944 33.7558L76.2655 32.625C76.4468 32.5853 76.6179 32.5082 76.7677 32.3987C76.9175 32.2891 77.0428 32.1494 77.1355 31.9886C77.2282 31.8278 77.2863 31.6494 77.3061 31.4649C77.3259 31.2803 77.3069 31.0937 77.2503 30.9169L75.6511 25.874L79.5651 22.3089C79.8418 22.0563 80.0001 21.699 80.0001 21.324C80.0001 20.9491 79.8418 20.5916 79.5651 20.3392L75.6386 16.7737ZM73.2113 24.4782C73.0227 24.6501 72.8875 24.8725 72.8216 25.1189C72.7557 25.3654 72.762 25.6256 72.8397 25.8687L74.2554 30.333L69.6786 31.334C69.43 31.3888 69.2022 31.5136 69.0221 31.6936C68.8421 31.8737 68.7173 32.1015 68.6625 32.3502L67.6666 36.9216L63.2023 35.5002C62.9592 35.4236 62.6993 35.4179 62.453 35.4838C62.2068 35.5498 61.9844 35.6845 61.812 35.8723L58.6575 39.3412L55.503 35.8751C55.3782 35.7381 55.2261 35.6286 55.0565 35.5537C54.8869 35.4788 54.7035 35.4401 54.5182 35.4402C54.3825 35.4406 54.2477 35.4619 54.1185 35.5033L49.6486 36.9216L48.6474 32.345C48.5926 32.0963 48.4678 31.8685 48.2877 31.6885C48.1077 31.5084 47.8799 31.3836 47.6312 31.3288L43.0596 30.3328L44.4814 25.8687C44.5589 25.6256 44.565 25.3653 44.499 25.1188C44.433 24.8724 44.2976 24.65 44.1089 24.4782L40.6401 21.3237L44.1063 18.1693C44.295 17.9976 44.4304 17.7752 44.4963 17.5287C44.5622 17.2822 44.5559 17.0219 44.478 16.7789L43.0596 12.3148L47.6364 11.3136C47.885 11.2588 48.1128 11.134 48.2929 10.954C48.4729 10.774 48.5977 10.5462 48.6526 10.2976L49.6484 5.72594L54.1127 7.14755C54.6093 7.30586 55.1522 7.16071 55.503 6.77527L58.6575 3.30648L61.812 6.77261C61.9838 6.96127 62.2061 7.0966 62.4526 7.16249C62.6991 7.22837 62.9593 7.22203 63.2023 7.14422L67.6666 5.7261L68.6676 10.3027C68.7225 10.5514 68.8472 10.7792 69.0273 10.9592C69.2074 11.1393 69.4352 11.2641 69.6838 11.3189L74.2606 12.3201L72.8395 16.7849C72.7619 17.0279 72.7557 17.2881 72.8216 17.5345C72.8875 17.7809 73.0226 18.0033 73.2111 18.1752L76.6749 21.3239L73.2113 24.4782Z" fill="#2C2C2C"/>
<path d="M51.0494 27.047L64.38 13.7157L66.2657 15.6007L52.9345 28.932L51.0494 27.047ZM55.9913 17.3245C55.9913 15.1158 54.2006 13.3251 51.9919 13.3251C49.7833 13.3251 47.9926 15.1158 47.9926 17.3245C47.9926 19.5331 49.7833 21.3238 51.9919 21.3238C54.2006 21.3238 55.9913 19.5331 55.9913 17.3245ZM50.6588 17.3245C50.6588 16.9709 50.7993 16.6318 51.0493 16.3818C51.2993 16.1318 51.6384 15.9913 51.9919 15.9913C52.3455 15.9913 52.6846 16.1318 52.9346 16.3818C53.1846 16.6318 53.3251 16.9709 53.3251 17.3245C53.3251 17.678 53.1846 18.0171 52.9346 18.2671C52.6846 18.5171 52.3455 18.6576 51.9919 18.6576C51.6384 18.6576 51.2993 18.5171 51.0493 18.2671C50.7993 18.0171 50.6588 17.678 50.6588 17.3245ZM65.3232 21.3238C63.1146 21.3238 61.3238 23.1146 61.3238 25.3232C61.3238 27.5319 63.1146 29.3226 65.3232 29.3226C67.5319 29.3226 69.3226 27.5319 69.3226 25.3232C69.3226 23.1146 67.5319 21.3238 65.3232 21.3238ZM65.3232 26.6563C64.9696 26.6563 64.6305 26.5159 64.3805 26.2659C64.1305 26.0158 63.99 25.6767 63.99 25.3231C63.99 24.9696 64.1305 24.6304 64.3805 24.3804C64.6305 24.1304 64.9696 23.9899 65.3232 23.9899C65.6768 23.9899 66.0159 24.1304 66.2659 24.3804C66.5159 24.6304 66.6564 24.9695 66.6564 25.3231C66.6564 25.6766 66.5159 26.0157 66.2659 26.2657C66.0159 26.5157 65.6768 26.6563 65.3232 26.6563ZM34.613 35.6778C34.3936 35.6253 34.1645 35.6298 33.9474 35.6909C33.7303 35.7519 33.5324 35.8675 33.3725 36.0266L20.3608 48.9036L17.1971 50.7861C15.0973 52.0073 14.1494 54.5394 14.9313 56.8399C15.2313 57.7534 15.7851 58.5627 16.528 59.1731C17.2709 59.7836 18.1722 60.17 19.1265 60.2872L21.9034 65.9061C22.0138 66.1298 22.1848 66.3181 22.3969 66.4494C22.609 66.5807 22.8538 66.6498 23.1032 66.6488H28.3478C28.5692 66.6492 28.7873 66.5943 28.9822 66.4892C29.1772 66.384 29.3428 66.232 29.4643 66.0468C29.5857 65.8615 29.6591 65.649 29.6778 65.4283C29.6965 65.2076 29.66 64.9857 29.5716 64.7826L26.8117 58.4111L41.3041 58.6514H41.3269C41.5393 58.6514 41.7486 58.6007 41.9373 58.5034C42.1261 58.4061 42.2889 58.2651 42.4121 58.0922C42.5353 57.9191 42.6155 57.7192 42.6458 57.5089C42.6762 57.2986 42.6559 57.0842 42.5866 56.8834L35.5706 36.5402C35.497 36.3272 35.3705 36.1363 35.2031 35.9855C35.0356 35.8346 34.8326 35.7287 34.6131 35.6776L34.613 35.6778ZM17.4639 55.985C17.2821 55.4478 17.2917 54.8642 17.4912 54.3332C17.6907 53.8023 18.0677 53.3567 18.5583 53.0721L20.6406 51.8365L22.9723 56.4478L20.9981 57.4248C20.6707 57.5871 20.3123 57.6773 19.9471 57.6892C19.5819 57.7011 19.2184 57.6345 18.8812 57.4938C18.5499 57.3597 18.2517 57.1554 18.007 56.895C17.7624 56.6345 17.577 56.324 17.4639 55.985ZM23.9324 63.9838L21.9166 59.9121C22.0004 59.8751 22.0909 59.8607 22.1749 59.8191L24.0979 58.8674L26.3129 63.9838H23.9324ZM25.5964 55.7304L22.8181 50.2301L33.7493 39.4127L39.4542 55.9543L25.5964 55.7304ZM41.5404 45.6599L45.9492 44.1277L46.8234 46.6448L42.4153 48.177L41.5404 45.6599ZM38.0761 36.7973L41.0165 33.7328L42.9407 35.5788L39.9996 38.6433L38.0761 36.7973ZM45.3263 54.652H49.3257V57.3183H45.3263V54.652ZM78.6545 45.3201H75.9882V35.9882H73.322V45.3201H70.6557V42.6539H67.9895V45.3201H53.3251C52.9715 45.3201 52.6324 45.4606 52.3824 45.7106C52.1324 45.9606 51.9919 46.2997 51.9919 46.6533V62.6508C51.9919 63.0044 52.1324 63.3435 52.3824 63.5935C52.6324 63.8435 52.9715 63.9839 53.3251 63.9839H78.6545C79.0081 63.9839 79.3472 63.8435 79.5972 63.5935C79.8472 63.3435 79.9876 63.0044 79.9876 62.6508V46.6533C79.9876 46.2997 79.8472 45.9606 79.5972 45.7106C79.3472 45.4606 79.0081 45.3201 78.6545 45.3201ZM77.3214 61.3177H54.6582V47.9864H77.3214V61.3177Z" fill="#2C2C2C"/>
<path d="M57.3245 50.6527H62.657V53.3189H57.3245V50.6527ZM65.3233 50.6527H74.6552V53.3189H65.3233V50.6527ZM57.3245 55.9852H74.6552V58.6514H57.3245V55.9852ZM1.33313 42.6539H21.33C21.6836 42.6539 22.0227 42.5135 22.2727 42.2634C22.5227 42.0134 22.6632 41.6743 22.6632 41.3208V30.6558C22.6632 30.3022 22.5227 29.9631 22.2727 29.7131C22.0227 29.4631 21.6836 29.3226 21.33 29.3226H1.33313C0.97956 29.3226 0.640474 29.4631 0.390464 29.7131C0.140454 29.9631 0 30.3022 0 30.6558L0 41.3208C0 41.6743 0.140454 42.0134 0.390464 42.2634C0.640474 42.5135 0.97956 42.6539 1.33313 42.6539ZM2.66626 31.9889H19.9969V39.9877H2.66626V31.9889Z" fill="#2C2C2C"/>
<path d="M5.33252 34.6552H7.99878V37.3214H5.33252V34.6552ZM10.665 34.6552H17.3307V37.3214H10.665V34.6552Z" fill="#2C2C2C"/>
</g>
<defs>
<clipPath id="clip0_40_8113">
<rect width="80" height="80" fill="white"/>
</clipPath>
</defs>
</svg>
