<svg width="180" height="60" viewBox="0 0 180 60" fill="none" xmlns="http://www.w3.org/2000/svg">
<path d="M157.716 28.4052V29.1927C157.671 29.6323 157.543 30.0541 157.341 30.4266C157.276 30.5764 157.185 30.7085 157.075 30.8147C156.966 30.9209 156.838 30.9988 156.701 31.0435C156.462 31.1804 156.205 31.2648 155.941 31.2929H152.633C152.53 31.2991 152.43 31.3257 152.335 31.3717C152.236 31.4145 152.132 31.4367 152.026 31.4373C151.752 31.4359 151.483 31.5278 151.25 31.7021C151.017 31.8765 150.832 32.1261 150.714 32.4218C150.457 32.9139 150.302 33.4719 150.262 34.0494V57.2435C150.239 57.4534 150.198 57.66 150.141 57.8604C150.087 58.1001 150.005 58.3298 149.898 58.543C149.769 58.7571 149.604 58.9382 149.415 59.0758C149.226 59.2132 149.015 59.3043 148.796 59.3437C148.36 59.3923 147.921 59.4142 147.484 59.4093H146.447C146.058 59.3793 145.68 59.2397 145.345 59.0024C145.105 58.8042 144.933 58.511 144.859 58.1755C144.76 57.8859 144.697 57.5808 144.672 57.2697V34.0757C144.662 33.9775 144.643 33.8808 144.617 33.7869C144.617 33.6425 144.529 33.4981 144.496 33.3537C144.504 33.2928 144.504 33.2308 144.496 33.17C144.487 33.1092 144.487 33.047 144.496 32.9862C144.48 32.7066 144.394 32.4392 144.247 32.2191C144.102 31.999 143.905 31.8362 143.68 31.7523C143.271 31.5082 142.824 31.3611 142.368 31.3192H139.06C138.893 31.3009 138.729 31.2522 138.575 31.1748C138.362 31.1025 138.155 31.0057 137.957 30.886C137.782 30.7294 137.635 30.5325 137.526 30.307C137.416 30.0815 137.345 29.832 137.318 29.5734C137.272 29.1904 137.243 28.8049 137.229 28.4183C137.229 28.1689 137.229 27.9064 137.229 27.6176C137.287 27.1886 137.398 26.7725 137.56 26.3837C137.64 26.2363 137.743 26.1092 137.865 26.01C137.986 25.9108 138.123 25.8415 138.266 25.8062C138.529 25.6909 138.803 25.616 139.082 25.583H155.819C156.016 25.5868 156.212 25.6132 156.404 25.6618C156.639 25.7161 156.858 25.8378 157.043 26.0162C157.197 26.149 157.328 26.3174 157.426 26.5113C157.525 26.7053 157.589 26.9207 157.616 27.145C157.682 27.5782 157.715 28.0174 157.716 28.4577V28.4052ZM127.946 36.0578C127.964 35.2825 127.796 34.5173 127.46 33.8525C127.131 33.2455 126.68 32.745 126.148 32.3955C125.573 32.0298 124.956 31.7647 124.318 31.608C123.652 31.4348 122.972 31.3469 122.289 31.3454C121.686 31.2977 121.084 31.4474 120.547 31.7786C120.189 32.0355 119.905 32.4152 119.731 32.8681C119.561 33.3372 119.468 33.8406 119.456 34.3513C119.456 34.9158 119.456 35.4802 119.456 36.0578C119.456 36.6353 119.456 37.3704 119.456 37.9085C119.47 38.4218 119.571 38.9265 119.753 39.3918C119.943 39.829 120.244 40.1832 120.613 40.4025C121.158 40.6871 121.751 40.8131 122.344 40.7701C123.218 40.7493 124.086 40.6173 124.935 40.3763C125.413 40.2551 125.866 40.0223 126.267 39.691C126.669 39.3598 127.011 38.9367 127.273 38.4467C127.523 38.0532 127.71 37.6082 127.824 37.1341C127.904 36.7653 127.944 36.386 127.946 36.0052V36.0578ZM134.76 58.0836C134.77 58.2512 134.744 58.4191 134.687 58.5725C134.63 58.7258 134.54 58.86 134.429 58.963C134.192 59.1618 133.921 59.2962 133.635 59.3568C133.327 59.4315 133.013 59.4667 132.698 59.4618H130.592C130.183 59.4675 129.776 59.369 129.401 59.173C129.103 59.0636 128.833 58.8647 128.618 58.5955C128.519 58.4864 128.426 58.3679 128.343 58.2411C128.259 58.1106 128.166 57.9877 128.067 57.8736C127.372 56.3247 126.678 54.7495 125.972 53.1218C125.266 51.4942 124.461 49.8272 123.69 48.252C123.57 48.1106 123.467 47.952 123.381 47.7795C123.261 47.5693 123.093 47.4052 122.896 47.3069C122.505 46.9145 122.006 46.7086 121.495 46.7294C121.113 46.7489 120.738 46.8606 120.393 47.0575C120.166 47.222 119.975 47.4504 119.838 47.7226C119.703 47.995 119.623 48.3028 119.61 48.6196C119.557 48.7311 119.516 48.8502 119.489 48.974C119.45 49.0913 119.428 49.2155 119.422 49.3415V57.2172C119.406 57.425 119.376 57.6312 119.334 57.8342C119.296 58.0868 119.2 58.3225 119.059 58.5167C118.93 58.7308 118.764 58.912 118.576 59.0495C118.386 59.187 118.175 59.2781 117.956 59.3174C117.521 59.366 117.082 59.3879 116.644 59.3831H115.607C115.23 59.3751 114.861 59.2483 114.538 59.0155C114.299 58.8126 114.12 58.5224 114.031 58.1886C113.915 57.9036 113.84 57.5974 113.81 57.2829V27.6701C113.819 27.3887 113.875 27.1122 113.976 26.8573C114.076 26.6024 114.218 26.3743 114.395 26.1868C114.559 25.9739 114.761 25.8079 114.986 25.701C115.212 25.5942 115.454 25.5494 115.696 25.5699H124.583C127.912 25.7186 130.299 26.7468 131.739 28.6546C133.24 30.6764 134.03 33.3087 133.944 36.0052C134.001 37.4796 133.794 38.9516 133.337 40.3238C132.994 41.2321 132.553 42.0836 132.025 42.8571C131.562 43.5134 131.121 44.0779 130.713 44.5636C130.515 44.8006 130.358 45.0835 130.253 45.395C130.15 45.7063 130.099 46.0397 130.107 46.375C130.118 46.5691 130.14 46.7621 130.173 46.9525C130.207 47.2263 130.267 47.4948 130.349 47.7532C130.559 48.2783 130.834 48.9215 131.176 49.6697L132.279 52.0586C132.665 52.8987 133.062 53.765 133.47 54.6839L134.627 57.1516C134.721 57.2844 134.775 57.4506 134.782 57.6241C134.749 57.7817 134.76 57.9392 134.76 58.0311V58.0836ZM111.385 56.3903V57.191C111.343 57.6297 111.219 58.0514 111.021 58.4248C110.883 58.721 110.654 58.942 110.381 59.0418C110.14 59.1724 109.884 59.2567 109.621 59.2912H94.8348C94.6688 59.2662 94.5059 59.2178 94.3496 59.1468C94.1399 59.0629 93.9338 58.9664 93.7322 58.858C93.4833 58.6934 93.2976 58.4205 93.2139 58.0967C93.0973 57.7852 93.0264 57.4522 93.0044 57.1122V27.6701C93.0254 27.4853 93.0661 27.3044 93.1257 27.1319C93.2139 26.8694 93.2911 26.6069 93.3683 26.3706C93.441 26.2244 93.5382 26.0976 93.654 25.9982C93.7697 25.8988 93.9014 25.829 94.0409 25.793C94.3132 25.6695 94.5993 25.5943 94.8899 25.5699H109.08C109.262 25.5733 109.443 25.5997 109.621 25.6486C109.845 25.7039 110.053 25.8259 110.227 26.0031C110.544 26.2745 110.764 26.6771 110.844 27.1319C110.921 27.5634 110.962 28.0032 110.966 28.4445C110.966 28.6808 110.966 28.9433 110.966 29.2321C110.909 29.6609 110.797 30.077 110.635 30.466C110.497 30.7621 110.268 30.9831 109.995 31.0829C109.735 31.2251 109.455 31.3096 109.169 31.3323H101.009C100.802 31.3462 100.598 31.3948 100.403 31.4767C100.015 31.5421 99.6527 31.7483 99.3664 32.0674C99.1284 32.3501 98.9507 32.6966 98.8482 33.0781C98.7522 33.4536 98.693 33.8413 98.6718 34.2332C98.6718 34.627 98.6718 34.942 98.6718 35.1783V35.7952C98.6687 36.0728 98.6909 36.3502 98.738 36.6222C98.823 36.9099 98.893 37.2035 98.9474 37.5016C99.0373 37.8847 99.2411 38.216 99.5208 38.4336C99.7432 38.5884 99.98 38.7117 100.226 38.8011C100.487 38.9261 100.762 39.0014 101.042 39.0243H108.11C108.277 39.0438 108.44 39.0924 108.595 39.1687C108.804 39.2431 109.007 39.3397 109.202 39.4574C109.515 39.7587 109.73 40.1815 109.808 40.6519C109.892 41.0822 109.932 41.5229 109.929 41.9646C109.929 42.214 109.929 42.4765 109.929 42.7653C109.861 43.202 109.727 43.62 109.532 43.9991C109.464 44.1415 109.372 44.2662 109.262 44.3655C109.152 44.4647 109.027 44.5365 108.893 44.5767C108.649 44.6932 108.393 44.7685 108.132 44.7998H100.976C100.885 44.7849 100.792 44.7849 100.701 44.7998C100.594 44.858 100.483 44.9061 100.37 44.9442C99.9529 45.0578 99.571 45.3078 99.2672 45.6662C99.0136 45.9812 98.8349 46.3708 98.749 46.795C98.667 47.2257 98.6263 47.6659 98.6277 48.1076V50.0897C98.6216 50.4937 98.6437 50.8976 98.6939 51.2973C98.7805 51.5799 98.8505 51.8693 98.9034 52.1636C98.9404 52.3488 99.0108 52.5224 99.1099 52.6719C99.2089 52.8215 99.334 52.9437 99.4767 53.03C99.6823 53.2021 99.9092 53.3349 100.149 53.4238C100.418 53.5683 100.705 53.657 100.998 53.6863H109.643C109.8 53.6973 109.956 53.7326 110.106 53.7913C110.329 53.8702 110.543 53.9803 110.745 54.1194C110.903 54.2546 111.034 54.4271 111.133 54.6259C111.231 54.8246 111.295 55.0454 111.318 55.2746C111.364 55.6441 111.386 56.017 111.385 56.3903ZM90.5677 49.5121C90.6156 51.2393 90.313 52.9548 89.6856 54.5132C89.1533 55.7882 88.3703 56.8914 87.4033 57.7292C86.4265 58.5526 85.3202 59.133 84.1506 59.4356C82.9215 59.7759 81.6637 59.9476 80.4017 59.9475C79.4653 59.9386 78.5302 59.8641 77.6012 59.7243C76.5866 59.58 75.5951 59.2615 74.6572 58.7793C73.6785 58.2793 72.7796 57.5821 71.9999 56.7184C71.1392 55.7212 70.4925 54.4922 70.1145 53.135C70.0373 52.8856 69.9712 52.6362 69.905 52.3737C69.8389 52.1111 69.7727 51.8224 69.6955 51.5336C69.5999 51.1796 69.5371 50.8143 69.5081 50.4441C69.4968 50.1817 69.4968 49.9188 69.5081 49.6565C69.4834 49.2164 69.5887 48.78 69.8058 48.4227C69.9992 48.1452 70.25 47.9325 70.5335 47.8057C70.8217 47.685 71.1219 47.61 71.4266 47.5826C71.7243 47.5826 71.9779 47.5826 72.1874 47.5826C72.5924 47.5738 72.9976 47.5957 73.4002 47.6482C73.7156 47.698 74.0173 47.8326 74.2823 48.042C74.5843 48.3165 74.8326 48.6659 75.01 49.0658C75.2919 49.6613 75.5459 50.2748 75.7708 50.9035C76.4496 52.0653 77.3738 52.9935 78.4501 53.5944L78.8471 53.7388L79.2991 53.8832L79.9717 53.9882H80.4569C81.3175 53.9558 82.161 53.6957 82.9267 53.2269C83.3517 52.9723 83.7274 52.6147 84.0293 52.1768C84.3419 51.7276 84.5065 51.1583 84.4924 50.5754C84.4799 50.0016 84.3182 49.4465 84.0293 48.9871C83.6643 48.3876 83.174 47.9126 82.6069 47.6088C81.6697 47.0313 80.6884 46.48 79.652 45.9812C78.6155 45.4824 77.5901 44.9442 76.5757 44.3798C75.6112 43.8613 74.6757 43.2693 73.7751 42.6077C72.9687 42.0261 72.2648 41.2639 71.7022 40.3632C71.1766 39.5073 70.8016 38.534 70.5996 37.5016C70.4407 36.6081 70.3594 35.6977 70.3571 34.7845C70.3142 33.1802 70.6058 31.5883 71.2061 30.1509C71.7393 28.9402 72.4926 27.8864 73.4113 27.0663C74.3328 26.2622 75.3724 25.67 76.4765 25.3205C77.6101 24.9649 78.7774 24.7842 79.9497 24.7823C80.6883 24.7928 81.4254 24.8674 82.1549 25.0055C82.9899 25.1554 83.8076 25.4196 84.5916 25.793C85.4154 26.1879 86.1848 26.7276 86.874 27.3944C87.627 28.1237 88.259 29.0141 88.7374 30.0197C89.0278 30.621 89.2503 31.2654 89.3989 31.9361C89.5435 32.4894 89.6251 33.0634 89.6415 33.6425C89.667 34.0704 89.5612 34.4948 89.3438 34.837C89.1489 35.0914 88.9074 35.2889 88.6382 35.4146C88.3669 35.537 88.0793 35.5994 87.7892 35.5983H87.0284H86.3889C86.0737 35.626 85.7568 35.5905 85.4516 35.4933C85.2411 35.3971 85.0349 35.2876 84.8342 35.1652C84.5357 34.9689 84.285 34.6841 84.1065 34.3382C84.0218 34.2286 83.9512 34.1048 83.897 33.9707C83.8408 33.8385 83.7662 33.7187 83.6765 33.6163C83.3117 32.6834 82.689 31.9281 81.9123 31.4767C81.2911 31.0931 80.6051 30.8822 79.9056 30.8598C79.5328 30.8621 79.162 30.924 78.803 31.0435C78.3945 31.1642 78.0039 31.359 77.6452 31.6211C77.292 31.8742 76.9816 32.2035 76.7301 32.5924C76.4379 33.1072 76.3086 33.7288 76.365 34.3465C76.4216 34.9642 76.6603 35.538 77.0388 35.9659C77.6107 36.5096 78.2458 36.9516 78.9243 37.2785C79.5748 37.6198 80.3466 38.0004 81.2397 38.4336C82.1328 38.8668 82.9818 39.2868 83.7867 39.6675C86.433 40.84 88.2192 42.192 89.1453 43.7235C90.1404 45.4346 90.6397 47.4852 90.5677 49.5646V49.5121ZM67.0162 49.5121C67.0585 51.2388 66.7562 52.9527 66.1341 54.5132C65.5947 55.7827 64.813 56.884 63.8517 57.7292C62.8577 58.559 61.7323 59.1396 60.5439 59.4356C59.3185 59.7755 58.0644 59.9474 56.8061 59.9475C55.8697 59.9386 54.9346 59.8641 54.0055 59.7243C52.9878 59.5783 51.9927 59.2601 51.0506 58.7793C50.0768 58.2759 49.1819 57.579 48.4043 56.7184C47.5362 55.7283 46.8883 54.497 46.5189 53.135C46.4326 52.8879 46.3625 52.6334 46.3094 52.3737C46.2432 52.098 46.1771 51.8224 46.0889 51.5336C45.9975 51.1789 45.9383 50.8137 45.9125 50.4441C45.8684 50.0065 45.8463 49.7439 45.8463 49.6565C45.8444 49.2421 45.9611 48.8394 46.1771 48.5145C46.3663 48.2318 46.6185 48.018 46.9048 47.8976C47.1892 47.7768 47.4859 47.7018 47.7869 47.6745C48.0956 47.6745 48.3492 47.6745 48.5477 47.6745C48.9528 47.6653 49.3579 47.6872 49.7605 47.7401C50.0769 47.7851 50.3794 47.9202 50.6426 48.1339C50.9481 48.4076 51.2001 48.7569 51.3814 49.1577C51.6019 49.6171 51.8555 50.2341 52.1422 50.9954C52.4314 51.5764 52.8046 52.0918 53.2447 52.518C53.6878 53.0147 54.2035 53.4108 54.7663 53.6863L55.1633 53.8307L55.6153 53.9751L56.2879 54.0801H56.7731C57.1449 54.0626 57.5142 54.001 57.8757 53.8963C58.3287 53.7723 58.7661 53.5781 59.1767 53.3187C59.5992 53.0595 59.9741 52.7025 60.2793 52.2686C60.5844 51.8153 60.7446 51.2479 60.7314 50.6672C60.7179 50.0957 60.5605 49.5423 60.2793 49.079C59.9098 48.4795 59.416 48.0046 58.846 47.7007C57.9087 47.1232 56.9274 46.5719 55.891 46.0731C54.8545 45.5743 53.8401 45.0361 52.8258 44.4717C51.8612 43.9532 50.9258 43.3612 50.0252 42.6996C49.2165 42.1217 48.5121 41.3588 47.9523 40.455C47.4184 39.605 47.0425 38.6296 46.8497 37.5935C46.6873 36.7005 46.6023 35.79 46.5961 34.8764C46.5509 33.2703 46.8467 31.6766 47.4561 30.2428C47.9848 29.0285 48.739 27.9737 49.6613 27.1582C50.5867 26.3537 51.6299 25.7615 52.7376 25.4124C53.871 25.0561 55.0383 24.8753 56.2107 24.8742C56.9494 24.8856 57.6863 24.9602 58.4159 25.0973C59.2506 25.249 60.0682 25.5132 60.8527 25.8849C61.674 26.2857 62.4426 26.825 63.1351 27.4863C63.8816 28.2198 64.5093 29.1095 64.9874 30.1116C65.2817 30.7122 65.5079 31.3566 65.66 32.028C65.8046 32.5813 65.8861 33.1551 65.9026 33.7344C65.9292 34.1646 65.819 34.5909 65.5938 34.9289C65.4052 35.1856 65.1667 35.384 64.8992 35.5064C64.6278 35.6279 64.3402 35.6901 64.0502 35.6902H63.2894H62.6499C62.3312 35.7176 62.0107 35.6821 61.7017 35.5852C61.4949 35.4883 61.2925 35.3787 61.0952 35.2571C60.7921 35.0683 60.54 34.7816 60.3675 34.4301C60.2793 34.321 60.205 34.1972 60.147 34.0626C60.0955 33.9304 60.0245 33.8104 59.9375 33.7082C59.5663 32.7808 58.9453 32.0276 58.1734 31.5686C57.5522 31.185 56.8661 30.9741 56.1666 30.9516C55.3894 30.9799 54.6308 31.2417 53.9614 31.713C53.6109 31.9653 53.3041 32.295 53.0573 32.6843C52.7637 33.1977 52.6326 33.8183 52.6871 34.4359C52.7415 35.0536 52.9783 35.6283 53.355 36.0578C53.9301 36.5958 54.5646 37.0374 55.2405 37.3704C55.891 37.7117 56.6628 38.0923 57.5559 38.5255C58.449 38.9586 59.298 39.3787 60.1139 39.7593C62.1857 40.4825 64.0435 41.8887 65.4726 43.8154C66.4904 45.4859 67.0314 47.5009 67.0162 49.5646V49.5121ZM43.4537 56.3903V57.191C43.4121 57.6297 43.2877 58.0514 43.0898 58.4248C42.9516 58.721 42.7224 58.942 42.4503 59.0418C42.2094 59.1724 41.9526 59.2567 41.6895 59.2912H26.9037C26.7377 59.2662 26.5748 59.2178 26.4185 59.1468C26.2088 59.0629 26.0027 58.9664 25.8011 58.858C25.5522 58.6934 25.3665 58.4205 25.2829 58.0967C25.1599 57.7878 25.0887 57.4534 25.0734 57.1122V27.6701C25.0943 27.4853 25.135 27.3044 25.1946 27.1319C25.2718 26.8694 25.36 26.6069 25.4372 26.3706C25.5099 26.2244 25.6071 26.0976 25.7229 25.9982C25.8386 25.8988 25.9703 25.829 26.1098 25.793C26.3821 25.6695 26.6682 25.5943 26.9588 25.5699H41.1382C41.3238 25.5724 41.5087 25.5988 41.6895 25.6486C41.9136 25.7039 42.1222 25.8259 42.2959 26.0031C42.6127 26.2745 42.833 26.6771 42.9134 27.1319C42.9908 27.5634 43.0314 28.0032 43.0347 28.4445C43.0347 28.6808 43.0347 28.9433 43.0347 29.2321C42.9778 29.6609 42.8663 30.077 42.7039 30.466C42.5656 30.7621 42.3364 30.9831 42.0644 31.0829C41.8037 31.2251 41.5236 31.3096 41.2375 31.3323H33.0782C32.8714 31.3462 32.6672 31.3948 32.4718 31.4767C32.0836 31.5421 31.7216 31.7483 31.4354 32.0674C31.1937 32.3468 31.0155 32.6944 30.9171 33.0781C30.8211 33.4536 30.7619 33.8413 30.7407 34.2332C30.7407 34.627 30.7407 34.942 30.7407 35.1783V35.7952C30.7216 36.0704 30.7216 36.3469 30.7407 36.6222C30.8349 36.9074 30.9086 37.2016 30.9612 37.5016C31.0511 37.8847 31.2549 38.216 31.5346 38.4336C31.7557 38.5914 31.9928 38.7149 32.2402 38.8011C32.5007 38.9261 32.776 39.0014 33.0562 39.0243H40.1128C40.2796 39.0438 40.443 39.0924 40.5979 39.1687C40.807 39.2431 41.0099 39.3397 41.2044 39.4574C41.4959 39.7668 41.6935 40.182 41.7667 40.6388C41.8503 41.0691 41.891 41.5097 41.888 41.9514C41.888 42.2008 41.888 42.4634 41.888 42.7521C41.8304 43.19 41.6991 43.6098 41.5021 43.986C41.4336 44.1284 41.3416 44.2531 41.2317 44.3524C41.1219 44.4516 40.9963 44.5234 40.8626 44.5636C40.619 44.6801 40.3629 44.7553 40.1018 44.7867H33.0451C32.9536 44.7717 32.8609 44.7717 32.7695 44.7867C32.6624 44.8447 32.552 44.893 32.4387 44.9311C32.0218 45.0446 31.6399 45.2947 31.3361 45.653C31.0825 45.9681 30.9038 46.3576 30.8179 46.7819C30.7359 47.2126 30.6952 47.6528 30.6966 48.0945V50.0766C30.675 50.4786 30.675 50.882 30.6966 51.2842C30.7924 51.5642 30.8663 51.8543 30.9171 52.1505C30.9542 52.3357 31.0246 52.5093 31.1236 52.6588C31.2227 52.8084 31.3478 52.9306 31.4905 53.0168C31.6961 53.1889 31.923 53.3218 32.1631 53.4106C32.4314 53.5551 32.7186 53.6439 33.0121 53.6732H41.6564C41.814 53.6842 41.9696 53.7195 42.1195 53.7782C42.3428 53.857 42.5575 53.9672 42.759 54.1063C42.9162 54.2416 43.0481 54.414 43.1468 54.6127C43.2454 54.8115 43.3086 55.0322 43.3324 55.2614C43.3962 55.6336 43.4368 56.0109 43.4537 56.3903ZM16.859 42.3846C16.8602 40.9645 16.6969 39.5512 16.3739 38.1842C16.0706 36.8948 15.5615 35.6871 14.8743 34.627C14.1779 33.5816 13.2821 32.7492 12.2612 32.1986C11.0653 31.5644 9.76593 31.255 8.45719 31.2929C7.89687 31.3131 7.34262 31.4372 6.81433 31.6605C6.51726 31.7752 6.2577 31.9975 6.07189 32.2964C5.88608 32.5952 5.7833 32.9556 5.77788 33.3275L5.65659 33.7607C5.62321 33.8527 5.60094 33.9499 5.59044 34.0494V50.7854C5.64958 51.2405 5.76474 51.6828 5.93224 52.098C6.15276 52.7412 6.45047 53.1219 6.81433 53.2137C7.16389 53.2581 7.51027 53.3327 7.85076 53.4369C8.06836 53.4895 8.2904 53.5116 8.51232 53.5025C9.33067 53.5043 10.1471 53.4076 10.9491 53.2137C11.7302 53.0203 12.4766 52.6648 13.1543 52.1636C13.8722 51.6147 14.4906 50.9006 14.9736 50.0634C15.5628 49.0131 15.9954 47.8497 16.2526 46.6244C16.4552 45.8805 16.5991 45.1159 16.6826 44.3404C16.771 43.6928 16.8299 43.0397 16.859 42.3846ZM22.6366 42.3846C22.6478 44.4263 22.4327 46.4609 21.9971 48.4358C21.6071 50.2602 20.9503 51.9887 20.0565 53.5419C19.1801 55.034 18.0539 56.2942 16.7487 57.2435C15.3279 58.2287 13.7439 58.8335 12.1068 59.0155L11.1916 59.1205L10.2213 59.2255L1.88571 59.3699C1.3734 59.3102 0.890496 59.0574 0.507461 58.648C0.341212 58.4644 0.209924 58.2406 0.122436 57.9914C0.0349493 57.7424 -0.00671104 57.4739 0.00026275 57.2041V27.6701C0.00655557 27.3895 0.0606158 27.1134 0.159168 26.8584C0.257721 26.6035 0.398715 26.3749 0.573614 26.1868C0.73962 25.9737 0.943685 25.8076 1.17077 25.7008C1.39785 25.594 1.64217 25.5493 1.88571 25.5699H9.91262C10.2434 25.5699 10.5742 25.6618 10.927 25.688C11.2011 25.6939 11.4741 25.729 11.7429 25.793L12.3825 25.9374L13.022 26.0818C13.1813 26.1408 13.3433 26.1889 13.5071 26.2262L14.0584 26.3706L14.4774 26.515L14.9074 26.6594C15.6802 27.0007 16.4196 27.4408 17.1126 27.972C17.8781 28.5129 18.5576 29.2106 19.1193 30.0328C19.6903 30.7286 20.1832 31.5096 20.5858 32.3562C20.9055 33.0781 21.2143 33.8263 21.4899 34.6007C21.9399 35.8593 22.2476 37.1836 22.4051 38.5386C22.559 39.8124 22.6363 41.0976 22.6366 42.3846Z" fill="#222222"/>
<path d="M163.218 46.8866C163.286 47.1189 163.408 47.3237 163.57 47.4773C163.727 47.6093 163.909 47.6908 164.1 47.7136C164.3 47.7527 164.505 47.7527 164.706 47.7136C164.92 47.6726 165.131 47.6066 165.335 47.5167C165.514 47.4472 165.674 47.32 165.798 47.1491C165.881 47.0256 165.931 46.8744 165.941 46.716C165.939 46.5554 165.917 46.3961 165.875 46.2433C165.875 46.0726 165.776 45.9153 165.72 45.7446L165.533 45.2064C165.48 45.0573 165.401 44.923 165.301 44.8126C165.205 44.7048 165.081 44.6398 164.949 44.6289C164.762 44.6175 164.576 44.6626 164.408 44.7602C164.151 44.88 163.908 45.0341 163.681 45.2196C163.423 45.4274 163.244 45.7483 163.184 46.1121C163.16 46.2594 163.16 46.411 163.184 46.5584C163.194 46.6763 163.221 46.7916 163.262 46.8996L163.218 46.8866ZM159.138 41.3603C159.118 41.3135 159.108 41.2617 159.108 41.2095C159.108 41.1571 159.118 41.1054 159.138 41.0586C159.19 40.9682 159.258 40.8922 159.336 40.8354C159.419 40.7681 159.508 40.7108 159.601 40.6646L159.833 40.5598L160.218 40.3891C160.335 40.3248 160.464 40.2978 160.593 40.3104C160.693 40.2997 160.792 40.3224 160.88 40.3759H161.001L161.112 40.4416L162.214 41.5573C162.578 41.9249 162.953 42.3055 163.317 42.66L163.46 42.7517C163.513 42.8028 163.579 42.8306 163.648 42.8306C163.797 42.8958 163.961 42.8958 164.111 42.8306C164.224 42.7827 164.325 42.6959 164.397 42.5812C164.451 42.5037 164.488 42.4113 164.503 42.3125C164.519 42.2138 164.512 42.1119 164.485 42.0166V41.9511C164.485 41.9511 164.485 41.8592 164.485 41.833L163.725 39.5097C163.719 39.4486 163.719 39.3869 163.725 39.3259C163.707 39.244 163.707 39.1583 163.725 39.0765C163.74 38.9944 163.771 38.9178 163.815 38.8519C163.859 38.7861 163.914 38.7327 163.978 38.6957C164.098 38.6169 164.223 38.551 164.353 38.4989L164.662 38.3675C164.773 38.3286 164.892 38.3286 165.004 38.3675C165.095 38.3891 165.178 38.4497 165.235 38.5383C165.297 38.6068 165.349 38.6866 165.39 38.7745L168.234 47.4641C168.264 47.5449 168.278 47.632 168.278 47.72C168.278 47.8081 168.264 47.8952 168.234 47.9761C168.209 48.0627 168.166 48.1409 168.111 48.2047C168.056 48.2685 167.988 48.316 167.915 48.3436L165.301 49.5512C164.924 49.753 164.517 49.8627 164.105 49.874C163.693 49.8853 163.281 49.7979 162.898 49.6169C162.267 49.2237 161.79 48.5559 161.564 47.7529C161.422 47.4008 161.341 47.0189 161.324 46.6292C161.307 46.2396 161.354 45.8498 161.464 45.4821C161.542 45.2196 161.619 44.9964 161.685 44.7995C161.72 44.7021 161.739 44.5971 161.739 44.4911C161.739 44.3849 161.72 44.2799 161.685 44.1826L161.608 44.0249L161.475 43.8151C161.365 43.6838 161.222 43.5393 161.045 43.3686C160.869 43.198 160.693 43.0012 160.494 42.8043L159.899 42.2137L159.325 41.6491C159.304 41.6378 159.286 41.6214 159.271 41.6011C159.256 41.5807 159.244 41.557 159.237 41.5311L159.138 41.3603ZM167.65 36.5956L167.474 36.4644C167.375 36.3838 167.296 36.2755 167.242 36.1492C167.209 36.0523 167.209 35.9443 167.242 35.8474C167.248 35.7482 167.266 35.6508 167.297 35.5587L169.635 30.7545C169.662 30.7008 169.7 30.6558 169.745 30.6232L169.899 30.4657C169.984 30.4274 170.079 30.4274 170.164 30.4657C170.252 30.4806 170.337 30.5116 170.417 30.5576L177.187 35.2041L177.287 35.3224L177.43 35.5193C177.448 35.5689 177.458 35.6226 177.458 35.6768C177.458 35.731 177.448 35.7846 177.43 35.8343C177.416 35.9446 177.386 36.051 177.342 36.1492L175.137 40.7566C175.137 40.7566 175.07 40.8617 175.037 40.9273C174.986 40.989 174.92 41.034 174.85 41.0586C174.794 41.0874 174.734 41.1024 174.674 41.1024C174.613 41.1024 174.552 41.0874 174.497 41.0586C174.39 41.0164 174.288 40.9638 174.188 40.901L174.012 40.7698C173.919 40.6824 173.841 40.5756 173.78 40.4546C173.764 40.4068 173.755 40.3555 173.755 40.3038C173.755 40.2519 173.764 40.2006 173.78 40.1528C173.793 40.0481 173.819 39.9462 173.858 39.8509L175.137 37.2257C175.173 37.1586 175.196 37.0821 175.203 37.0025C175.235 36.8606 175.235 36.7113 175.203 36.5694C175.173 36.447 175.12 36.3347 175.048 36.2412C174.979 36.1518 174.902 36.0726 174.817 36.005L174.596 35.8474L174.464 35.7423L174.255 35.6374L174.023 35.5718C173.974 35.5472 173.922 35.5345 173.869 35.5345C173.816 35.5345 173.763 35.5472 173.714 35.5718L173.527 35.7423C173.455 35.8061 173.396 35.8866 173.35 35.9787L172.248 38.2758L172.138 38.4069L171.972 38.5514C171.851 38.6035 171.719 38.6035 171.597 38.5514C171.489 38.5149 171.386 38.4621 171.289 38.3939L171.112 38.2627C171.024 38.168 170.95 38.0572 170.892 37.9345C170.873 37.8873 170.863 37.8357 170.863 37.7836C170.863 37.7313 170.873 37.6797 170.892 37.6325C170.902 37.5355 170.928 37.4417 170.969 37.357L172.071 35.0599C172.071 35.0599 172.071 34.9942 172.071 34.9549C172.067 34.9111 172.067 34.8672 172.071 34.8236C172.109 34.6692 172.109 34.5053 172.071 34.3509C172.035 34.2189 171.974 34.0978 171.895 33.9966C171.81 33.9063 171.717 33.8272 171.619 33.7604L171.355 33.5766L171.167 33.4452L170.881 33.2747C170.801 33.2638 170.724 33.2417 170.649 33.2091C170.553 33.1656 170.447 33.1656 170.351 33.2091L170.153 33.3664C170.081 33.4344 170.018 33.514 169.965 33.6029L168.565 36.4512L168.477 36.5825C168.426 36.6462 168.367 36.6993 168.3 36.74C168.243 36.7692 168.181 36.7843 168.119 36.7843C168.056 36.7843 167.994 36.7692 167.937 36.74L167.65 36.5956ZM171.145 27.1973H170.98C170.907 27.185 170.835 27.1584 170.77 27.1185C170.699 27.079 170.636 27.0206 170.586 26.9479C170.537 26.875 170.501 26.7898 170.484 26.6985C170.484 26.5016 170.484 26.3439 170.406 26.2258C170.329 26.1076 170.406 26.0551 170.406 25.937C170.395 25.8149 170.395 25.6917 170.406 25.5695C170.406 25.4382 170.406 25.3071 170.462 25.1758C170.503 25.0369 170.571 24.9112 170.66 24.8083L172.579 22.8393C173.218 22.2093 173.836 21.5267 174.453 20.8573C174.517 20.7813 174.57 20.6924 174.607 20.5948C174.633 20.4918 174.633 20.3825 174.607 20.2796C174.603 20.2372 174.59 20.1968 174.569 20.1624C174.547 20.1279 174.519 20.1004 174.486 20.0828C174.421 20.041 174.349 20.0143 174.277 20.0041H173.924L170.186 20.8179C170.135 20.8296 170.082 20.8296 170.032 20.8179H169.822C169.756 20.7842 169.696 20.7321 169.651 20.6658C169.605 20.5996 169.573 20.5211 169.557 20.4371C169.518 20.2961 169.488 20.1512 169.469 20.0041C169.469 19.9384 169.469 19.8203 169.469 19.6759C169.442 19.5422 169.442 19.4026 169.469 19.269C169.505 19.162 169.572 19.0737 169.657 19.0196C169.724 18.9646 169.798 18.9246 169.877 18.9015L177.595 17.2213C177.643 17.2144 177.691 17.2144 177.739 17.2213C177.804 17.2064 177.871 17.2064 177.937 17.2213C178.013 17.2677 178.081 17.3345 178.132 17.4164C178.184 17.4983 178.218 17.5932 178.235 17.6937C178.235 17.9169 178.301 18.0876 178.323 18.2058C178.315 18.2974 178.315 18.3897 178.323 18.4814C178.334 18.6035 178.334 18.7268 178.323 18.849C178.334 18.9798 178.334 19.1118 178.323 19.2428C178.286 19.3736 178.222 19.491 178.136 19.584L177.309 20.4504C177.011 20.7523 176.724 21.041 176.471 21.3167C176.217 21.5924 176.118 21.6449 175.93 21.8417L175.335 22.4456L175.059 22.7081L174.773 23.01L174.552 23.22C174.471 23.2973 174.397 23.3854 174.332 23.4825C174.269 23.5769 174.214 23.678 174.166 23.7844C174.141 23.8783 174.141 23.9792 174.166 24.0732C174.171 24.1104 174.184 24.1455 174.203 24.1753C174.223 24.2051 174.248 24.2288 174.277 24.2439L174.497 24.3095H174.872L178.489 23.5744H178.643C178.712 23.5581 178.783 23.5581 178.852 23.5744C178.919 23.6127 178.976 23.6679 179.022 23.736C179.067 23.804 179.1 23.8833 179.117 23.9681C179.117 24.1387 179.117 24.2832 179.194 24.3882C179.271 24.4932 179.194 24.5983 179.194 24.7295C179.22 24.8679 179.22 25.0112 179.194 25.1496C179.157 25.2522 179.091 25.3358 179.007 25.3858C178.946 25.4471 178.874 25.4919 178.797 25.5171L171.145 27.1973ZM170.109 9.04361C170.242 8.85932 170.323 8.62963 170.34 8.3873C170.36 8.15881 170.33 7.928 170.252 7.71789C170.168 7.4966 170.061 7.28921 169.932 7.10095C169.79 6.90608 169.631 6.73001 169.458 6.57588C169.317 6.42633 169.146 6.3224 168.962 6.274C168.829 6.25557 168.693 6.28773 168.576 6.36588C168.458 6.4433 168.353 6.5456 168.267 6.66776L167.981 7.08781L167.694 7.54725C167.61 7.67823 167.553 7.83123 167.529 7.99352C167.486 8.13791 167.486 8.29543 167.529 8.43982C167.617 8.63705 167.746 8.80421 167.904 8.92549C168.121 9.12499 168.358 9.29247 168.609 9.42428C168.746 9.50892 168.896 9.55851 169.05 9.56981C169.204 9.58111 169.358 9.55388 169.502 9.4899C169.625 9.45233 169.739 9.39019 169.844 9.30615C169.928 9.22751 170.003 9.13467 170.065 9.03051L170.109 9.04361ZM168.223 16.1056C168.197 16.149 168.163 16.1838 168.122 16.2068C168.081 16.2298 168.037 16.2401 167.992 16.2368C167.899 16.2358 167.809 16.2088 167.727 16.1581C167.642 16.1045 167.561 16.0431 167.485 15.9743L167.286 15.7906L166.955 15.4887C166.856 15.3897 166.774 15.2694 166.713 15.1342C166.657 15.0355 166.619 14.9236 166.603 14.8061V14.6617C166.598 14.6093 166.598 14.5564 166.603 14.5042C166.68 13.966 166.757 13.4016 166.845 12.8371C166.933 12.2727 167.01 11.6951 167.066 11.1176C167.06 11.0521 167.06 10.9861 167.066 10.9206C167.082 10.8475 167.082 10.7706 167.066 10.6975C167.034 10.5078 166.943 10.3392 166.812 10.225C166.712 10.1428 166.599 10.0849 166.481 10.0544C166.397 10.0439 166.313 10.0575 166.234 10.094C166.155 10.1306 166.085 10.189 166.029 10.2643H165.941L165.875 10.33L164.585 12.2989C164.549 12.3486 164.509 12.3927 164.463 12.4302C164.414 12.4861 164.353 12.5267 164.287 12.5483C164.216 12.5715 164.144 12.5776 164.072 12.5663C164 12.555 163.931 12.5266 163.868 12.4827L163.537 12.1939L163.284 11.9445C163.193 11.8614 163.128 11.7465 163.096 11.6164C163.063 11.5105 163.063 11.3941 163.096 11.2882C163.117 11.1906 163.15 11.0976 163.195 11.0125L168.003 3.64875C168.05 3.58034 168.109 3.52411 168.175 3.4835C168.242 3.44288 168.314 3.41872 168.389 3.41247C168.466 3.39757 168.544 3.40403 168.619 3.43136C168.694 3.45867 168.762 3.50611 168.819 3.56997L171.024 5.61769C171.364 5.89557 171.652 6.25305 171.873 6.66833C172.092 7.0836 172.239 7.54794 172.303 8.0329C172.339 8.87949 172.103 9.71068 171.641 10.3562C171.462 10.6885 171.23 10.9754 170.957 11.2006C170.684 11.4258 170.378 11.5849 170.054 11.6689C169.833 11.6689 169.635 11.7739 169.447 11.8001C169.273 11.8281 169.114 11.9366 169.006 12.102C168.975 12.1504 168.949 12.2033 168.929 12.2595C168.893 12.3388 168.863 12.4224 168.841 12.509C168.841 12.6796 168.775 12.9027 168.731 13.1783C168.686 13.454 168.664 13.7166 168.62 14.0185C168.576 14.3204 168.532 14.6223 168.499 14.9374C168.466 15.2524 168.422 15.5412 168.378 15.8168C168.387 15.8394 168.391 15.8639 168.391 15.8889C168.391 15.9139 168.387 15.9386 168.378 15.9612L168.223 16.1056ZM158.3 5.342C158.278 4.98674 158.226 4.63499 158.146 4.29193C158.051 3.8797 157.906 3.48615 157.716 3.12369C157.526 2.76703 157.279 2.45908 156.988 2.21798C156.649 1.9721 156.255 1.85886 155.859 1.89418C155.463 1.92951 155.087 2.11162 154.783 2.41488C154.525 2.70917 154.318 3.06167 154.176 3.45185C154.039 3.84151 153.95 4.25267 153.912 4.6726C153.845 5.33005 153.875 5.99616 154 6.64153C154.067 6.96604 154.159 7.28244 154.275 7.58662C154.398 7.90081 154.558 8.19254 154.75 8.45296C154.954 8.71935 155.206 8.926 155.488 9.05675C155.632 9.1336 155.784 9.18234 155.94 9.20112C156.062 9.21355 156.183 9.21355 156.304 9.20112C156.691 9.18183 157.061 9.00588 157.352 8.70235C157.613 8.41636 157.819 8.06729 157.958 7.67851C158.1 7.28175 158.19 6.86102 158.223 6.4315C158.249 6.06465 158.249 5.69576 158.223 5.32891L158.3 5.342ZM160.163 5.19764C160.22 5.96188 160.179 6.7318 160.042 7.48159C159.926 8.13229 159.701 8.74844 159.38 9.29301C159.067 9.80703 158.66 10.2291 158.19 10.5269C157.658 10.8484 157.076 11.0361 156.481 11.0782C156.198 11.1107 155.914 11.1107 155.632 11.0782C155.358 11.0569 155.088 10.9952 154.827 10.8944C154.592 10.8018 154.364 10.6877 154.143 10.5531C153.875 10.3874 153.63 10.175 153.415 9.92309C153.176 9.6508 152.969 9.3418 152.798 9.00423C152.645 8.67248 152.516 8.32551 152.412 7.96725C152.312 7.62608 152.238 7.27456 152.192 6.91717C152.141 6.58266 152.103 6.24535 152.081 5.90647C152.024 5.13786 152.065 4.36339 152.203 3.60935C152.322 2.9619 152.551 2.35011 152.875 1.81107C153.192 1.29997 153.603 0.882332 154.077 0.590336C154.603 0.274315 155.176 0.0868627 155.764 0.039037C156.057 0.0129276 156.353 0.0129276 156.646 0.039037C156.97 0.0855364 157.289 0.178068 157.594 0.314676C158.05 0.518266 158.463 0.836108 158.807 1.24665C159.126 1.62768 159.387 2.07182 159.579 2.55926C159.77 2.97103 159.911 3.41297 159.998 3.87189C160.055 4.31051 160.085 4.75369 160.086 5.19764H160.163ZM148.035 10.8025C148.2 10.9637 148.349 11.1489 148.476 11.3538C148.592 11.5207 148.698 11.696 148.796 11.8789C148.997 12.2403 149.136 12.6466 149.203 13.0734C149.264 13.433 149.264 13.8032 149.203 14.1628C149.151 14.4941 149.055 14.8132 148.917 15.1079C148.788 15.3999 148.637 15.6768 148.465 15.9349C148.241 16.2695 147.99 16.5773 147.715 16.8538C147.432 17.1403 147.112 17.3708 146.767 17.5363C146.416 17.7091 146.043 17.8112 145.664 17.8382C145.198 17.855 144.731 17.7796 144.286 17.6151C143.904 17.4739 143.541 17.2708 143.205 17.0113C142.893 16.7891 142.592 16.5482 142.301 16.2894C141.797 15.8295 141.352 15.2857 140.978 14.6748C140.643 14.1402 140.396 13.5343 140.25 12.8896C140.129 12.2767 140.129 11.6386 140.25 11.0257C140.379 10.3372 140.635 9.69149 141 9.13551C141.157 8.89919 141.325 8.67555 141.507 8.46605C141.709 8.24455 141.931 8.05081 142.169 7.8885C142.424 7.72659 142.699 7.61572 142.985 7.56035C143.309 7.48325 143.642 7.48325 143.966 7.56035L144.517 7.79664C144.675 7.8678 144.824 7.96501 144.958 8.08542C145.046 8.15432 145.112 8.25589 145.146 8.3742C145.161 8.46955 145.161 8.56764 145.146 8.66297C145.133 8.75708 145.103 8.84664 145.058 8.92549C145.015 9.00863 144.967 9.08762 144.914 9.16175C144.799 9.35251 144.648 9.50958 144.473 9.62116C144.205 9.72823 143.914 9.72823 143.646 9.62116C143.424 9.58483 143.197 9.61182 142.985 9.69992C142.776 9.76282 142.583 9.88438 142.423 10.0544L142.323 10.1725C142.292 10.2067 142.266 10.2466 142.246 10.2906C142.077 10.5459 141.967 10.8489 141.926 11.1701C141.877 11.4956 141.877 11.829 141.926 12.1545C142.004 12.4868 142.118 12.8048 142.268 13.0996C142.409 13.3975 142.583 13.6712 142.786 13.9135L143.095 14.2417L143.327 14.4648C143.514 14.6504 143.718 14.8132 143.933 14.9505C144.151 15.1088 144.384 15.2366 144.628 15.3311C144.881 15.4283 145.145 15.4856 145.411 15.5018C145.686 15.5266 145.964 15.4864 146.226 15.3836C146.391 15.3426 146.546 15.2574 146.679 15.1342C146.811 15.0277 146.929 14.8995 147.031 14.7536C147.196 14.4782 147.298 14.1574 147.329 13.8216C147.367 13.4163 147.285 13.0079 147.098 12.6665C147.038 12.5246 146.964 12.3923 146.877 12.2727C146.794 12.1423 146.74 11.9885 146.723 11.8264C146.711 11.669 146.733 11.5104 146.789 11.367C146.849 11.2416 146.92 11.123 146.998 11.0125C147.101 10.8389 147.232 10.6916 147.384 10.5794C147.616 10.5532 147.759 10.6057 147.958 10.7894L148.035 10.8025Z" fill="#222222"/>
</svg>
