<svg width="126" height="127" viewBox="0 0 126 127" fill="none" xmlns="http://www.w3.org/2000/svg">
<path d="M103.477 79.1624L117.627 60.3424C117.977 59.8724 117.977 59.2324 117.627 58.7624L103.477 39.9424C103.227 39.6124 102.837 39.4224 102.427 39.4224H63.0566C62.9566 39.4224 62.9066 39.5324 62.9666 39.6124L66.5466 44.3724C73.3066 53.3624 73.3066 65.7424 66.5466 74.7424L62.9666 79.5024C62.9066 79.5824 62.9666 79.6924 63.0566 79.6924H102.427C102.847 79.6924 103.237 79.4924 103.477 79.1624Z" fill="#1DB0F9"/>
<g filter="url(#filter0_d_40_8679)">
<path d="M73.8707 86.0676C88.5191 80.0407 95.5082 63.28 89.4812 48.6316C83.4543 33.9832 66.6937 26.9941 52.0453 33.0211C37.3969 39.048 30.4078 55.8087 36.4347 70.4571C42.4616 85.1055 59.2223 92.0946 73.8707 86.0676Z" fill="white"/>
<path d="M89.0188 48.8219C94.9407 63.2149 88.0735 79.6833 73.6805 85.6052C59.2875 91.5271 42.819 84.6599 36.8971 70.2668C30.9752 55.8738 37.8425 39.4054 52.2355 33.4835C66.6285 27.5616 83.097 34.4289 89.0188 48.8219Z" stroke="#1DB4FF"/>
</g>
<path d="M53.9653 67.4074C52.8587 67.4074 51.9158 67.2437 51.1365 66.9164C50.3572 66.5891 49.7182 66.1371 49.2194 65.5605C48.7207 64.9838 48.3466 64.3214 48.0973 63.5733C47.8479 62.8096 47.6998 61.9991 47.6531 61.1419C47.6375 60.7211 47.6219 60.2613 47.6063 59.7626C47.6063 59.2483 47.6063 58.7339 47.6063 58.2196C47.6219 57.7053 47.6375 57.2299 47.6531 56.7935C47.6842 55.9363 47.8323 55.1337 48.0973 54.3855C48.3622 53.6218 48.7441 52.9595 49.2428 52.3984C49.7571 51.8373 50.4039 51.3931 51.1832 51.0658C51.9625 50.7385 52.8899 50.5748 53.9653 50.5748C55.0563 50.5748 55.9914 50.7385 56.7707 51.0658C57.55 51.3931 58.189 51.8373 58.6877 52.3984C59.2021 52.9595 59.5839 53.6218 59.8333 54.3855C60.0982 55.1337 60.2463 55.9363 60.2775 56.7935C60.3086 57.2299 60.3242 57.7053 60.3242 58.2196C60.3242 58.7339 60.3242 59.2483 60.3242 59.7626C60.3242 60.2613 60.3086 60.7211 60.2775 61.1419C60.2463 61.9991 60.106 62.8096 59.8567 63.5733C59.6073 64.3214 59.2332 64.9838 58.7345 65.5605C58.2357 66.1371 57.5889 66.5891 56.7941 66.9164C56.0148 67.2437 55.0718 67.4074 53.9653 67.4074ZM53.9653 64.7188C54.9783 64.7188 55.7187 64.3915 56.1862 63.7369C56.6694 63.0668 56.9188 62.1628 56.9343 61.025C56.9655 60.5731 56.9811 60.1211 56.9811 59.6691C56.9811 59.2015 56.9811 58.7339 56.9811 58.2664C56.9811 57.7988 56.9655 57.3546 56.9343 56.9338C56.9188 55.8272 56.6694 54.9388 56.1862 54.2687C55.7187 53.5829 54.9783 53.24 53.9653 53.24C52.9678 53.24 52.2275 53.5829 51.7443 54.2687C51.2767 54.9388 51.0274 55.8272 50.9962 56.9338C50.9962 57.3546 50.9884 57.7988 50.9728 58.2664C50.9728 58.7339 50.9728 59.2015 50.9728 59.6691C50.9884 60.1211 50.9962 60.5731 50.9962 61.025C51.0274 62.1628 51.2845 63.0668 51.7677 63.7369C52.2508 64.3915 52.9834 64.7188 53.9653 64.7188ZM70.8966 67.1736C70.7407 67.1736 70.6083 67.119 70.4992 67.0099C70.3901 66.9008 70.3355 66.7684 70.3355 66.6125V63.6201H62.9245C62.7531 63.6201 62.6128 63.5655 62.5037 63.4564C62.4102 63.3473 62.3634 63.2148 62.3634 63.059V61.4692C62.3634 61.3757 62.379 61.2666 62.4102 61.1419C62.457 61.0017 62.5271 60.877 62.6206 60.7679L69.5173 51.2061C69.7199 50.9411 70.0082 50.8086 70.3823 50.8086H72.9305C73.0864 50.8086 73.2189 50.8632 73.328 50.9723C73.4371 51.0814 73.4916 51.2139 73.4916 51.3697V60.8614H75.5723C75.7593 60.8614 75.8996 60.9159 75.9931 61.025C76.1022 61.1186 76.1568 61.251 76.1568 61.4225V63.059C76.1568 63.2148 76.1022 63.3473 75.9931 63.4564C75.884 63.5655 75.7515 63.6201 75.5957 63.6201H73.4916V66.6125C73.4916 66.7684 73.4371 66.9008 73.328 67.0099C73.2189 67.119 73.0864 67.1736 72.9305 67.1736H70.8966ZM65.6131 60.9549H70.4056V54.1985L65.6131 60.9549Z" fill="#2C2C2C"/>
<defs>
<filter id="filter0_d_40_8679" x="0.27002" y="0.856201" width="125.376" height="125.376" filterUnits="userSpaceOnUse" color-interpolation-filters="sRGB">
<feFlood flood-opacity="0" result="BackgroundImageFix"/>
<feColorMatrix in="SourceAlpha" type="matrix" values="0 0 0 0 0 0 0 0 0 0 0 0 0 0 0 0 0 0 127 0" result="hardAlpha"/>
<feOffset dy="4"/>
<feGaussianBlur stdDeviation="17"/>
<feComposite in2="hardAlpha" operator="out"/>
<feColorMatrix type="matrix" values="0 0 0 0 0 0 0 0 0 0 0 0 0 0 0 0 0 0 0.1 0"/>
<feBlend mode="normal" in2="BackgroundImageFix" result="effect1_dropShadow_40_8679"/>
<feBlend mode="normal" in="SourceGraphic" in2="effect1_dropShadow_40_8679" result="shape"/>
</filter>
</defs>
</svg>
