<svg width="127" height="127" viewBox="0 0 127 127" fill="none" xmlns="http://www.w3.org/2000/svg">
<path d="M103.997 79.1624L118.147 60.3424C118.497 59.8724 118.497 59.2324 118.147 58.7624L103.997 39.9424C103.747 39.6124 103.357 39.4224 102.947 39.4224H63.5769C63.4769 39.4224 63.4269 39.5324 63.4869 39.6124L67.0669 44.3724C73.8269 53.3624 73.8269 65.7424 67.0669 74.7424L63.4869 79.5024C63.4269 79.5824 63.4869 79.6924 63.5769 79.6924H102.947C103.367 79.6924 103.757 79.4924 103.997 79.1624Z" fill="#1DB4FF"/>
<g filter="url(#filter0_d_40_8654)">
<path d="M74.4491 86.0628C89.0833 80.001 96.0325 63.2236 89.9707 48.5895C83.909 33.9553 67.1316 27.0061 52.4975 33.0679C37.8633 39.1297 30.914 55.907 36.9758 70.5411C43.0376 85.1753 59.815 92.1246 74.4491 86.0628Z" fill="white"/>
<path d="M89.5088 48.7808C95.4649 63.1598 88.6368 79.6447 74.2578 85.6008C59.8788 91.5569 43.3939 84.7288 37.4378 70.3498C31.4817 55.9708 38.3098 39.4859 52.6888 33.5298C67.0678 27.5737 83.5527 34.4018 89.5088 48.7808Z" stroke="#1DB4FF"/>
</g>
<path d="M57.6755 67.4076C56.5689 67.4076 55.626 67.244 54.8467 66.9167C54.0674 66.5894 53.4284 66.1374 52.9296 65.5607C52.4309 64.984 52.0568 64.3217 51.8075 63.5735C51.5581 62.8098 51.41 61.9994 51.3633 61.1422C51.3477 60.7214 51.3321 60.2616 51.3165 59.7628C51.3165 59.2485 51.3165 58.7342 51.3165 58.2199C51.3321 57.7055 51.3477 57.2302 51.3633 56.7938C51.3944 55.9366 51.5425 55.1339 51.8075 54.3858C52.0724 53.6221 52.4543 52.9597 52.953 52.3986C53.4673 51.8375 54.1141 51.3933 54.8934 51.066C55.6727 50.7387 56.6001 50.5751 57.6755 50.5751C58.7665 50.5751 59.7016 50.7387 60.4809 51.066C61.2602 51.3933 61.8992 51.8375 62.3979 52.3986C62.9123 52.9597 63.2941 53.6221 63.5435 54.3858C63.8084 55.1339 63.9565 55.9366 63.9877 56.7938C64.0188 57.2302 64.0344 57.7055 64.0344 58.2199C64.0344 58.7342 64.0344 59.2485 64.0344 59.7628C64.0344 60.2616 64.0188 60.7214 63.9877 61.1422C63.9565 61.9994 63.8162 62.8098 63.5669 63.5735C63.3175 64.3217 62.9434 64.984 62.4447 65.5607C61.9459 66.1374 61.2991 66.5894 60.5043 66.9167C59.725 67.244 58.7821 67.4076 57.6755 67.4076ZM57.6755 64.7191C58.6885 64.7191 59.4289 64.3918 59.8964 63.7372C60.3796 63.067 60.629 62.163 60.6445 61.0253C60.6757 60.5733 60.6913 60.1213 60.6913 59.6693C60.6913 59.2018 60.6913 58.7342 60.6913 58.2666C60.6913 57.799 60.6757 57.3549 60.6445 56.934C60.629 55.8275 60.3796 54.9391 59.8964 54.2689C59.4289 53.5831 58.6885 53.2402 57.6755 53.2402C56.678 53.2402 55.9377 53.5831 55.4545 54.2689C54.9869 54.9391 54.7376 55.8275 54.7064 56.934C54.7064 57.3549 54.6986 57.799 54.683 58.2666C54.683 58.7342 54.683 59.2018 54.683 59.6693C54.6986 60.1213 54.7064 60.5733 54.7064 61.0253C54.7376 62.163 54.9947 63.067 55.4779 63.7372C55.961 64.3918 56.6936 64.7191 57.6755 64.7191ZM71.8481 67.1738C71.6767 67.1738 71.5364 67.1193 71.4273 67.0102C71.3338 66.9011 71.2871 66.7686 71.2871 66.6127V54.5027L67.7335 57.238C67.5933 57.3315 67.453 57.3704 67.3127 57.3549C67.1724 57.3237 67.0478 57.238 66.9387 57.0977L65.9568 55.8353C65.8632 55.695 65.8243 55.5469 65.8399 55.3911C65.871 55.2352 65.9568 55.1105 66.097 55.017L71.3338 50.9725C71.4273 50.8946 71.5208 50.8478 71.6144 50.8323C71.7079 50.8167 71.8092 50.8089 71.9183 50.8089H73.9756C74.1314 50.8089 74.2639 50.8634 74.373 50.9725C74.4821 51.0816 74.5367 51.2141 74.5367 51.37V66.6127C74.5367 66.7686 74.4821 66.9011 74.373 67.0102C74.2639 67.1193 74.1314 67.1738 73.9756 67.1738H71.8481Z" fill="#2C2C2C"/>
<defs>
<filter id="filter0_d_40_8654" x="0.785156" y="0.877197" width="125.376" height="125.376" filterUnits="userSpaceOnUse" color-interpolation-filters="sRGB">
<feFlood flood-opacity="0" result="BackgroundImageFix"/>
<feColorMatrix in="SourceAlpha" type="matrix" values="0 0 0 0 0 0 0 0 0 0 0 0 0 0 0 0 0 0 127 0" result="hardAlpha"/>
<feOffset dy="4"/>
<feGaussianBlur stdDeviation="17"/>
<feComposite in2="hardAlpha" operator="out"/>
<feColorMatrix type="matrix" values="0 0 0 0 0 0 0 0 0 0 0 0 0 0 0 0 0 0 0.1 0"/>
<feBlend mode="normal" in2="BackgroundImageFix" result="effect1_dropShadow_40_8654"/>
<feBlend mode="normal" in="SourceGraphic" in2="effect1_dropShadow_40_8654" result="shape"/>
</filter>
</defs>
</svg>
