<svg width="126" height="127" viewBox="0 0 126 127" fill="none" xmlns="http://www.w3.org/2000/svg">
<path d="M103.661 79.1624L117.811 60.3424C118.161 59.8724 118.161 59.2324 117.811 58.7624L103.661 39.9424C103.411 39.6124 103.021 39.4224 102.611 39.4224H63.2407C63.1407 39.4224 63.0907 39.5324 63.1507 39.6124L66.7307 44.3724C73.4907 53.3624 73.4907 65.7424 66.7307 74.7424L63.1507 79.5024C63.0907 79.5824 63.1507 79.6924 63.2407 79.6924H102.611C103.021 79.6924 103.411 79.4924 103.661 79.1624Z" fill="#1DB0F9"/>
<g filter="url(#filter0_d_40_8671)">
<path d="M74.2398 85.9907C88.8455 79.8608 95.7164 63.0514 89.5865 48.4457C83.4566 33.8401 66.6472 26.9692 52.0415 33.0991C37.4359 39.229 30.565 56.0384 36.6949 70.6441C42.8248 85.2497 59.6342 92.1206 74.2398 85.9907Z" fill="white"/>
<path d="M89.1255 48.6392C95.1485 62.9902 88.3973 79.5067 74.0463 85.5297C59.6953 91.5527 43.1789 84.8016 37.1559 70.4506C31.1329 56.0996 37.884 39.5832 52.235 33.5601C66.586 27.5371 83.1025 34.2882 89.1255 48.6392Z" stroke="#1DB4FF"/>
</g>
<path d="M55.2087 67.4076C54.1021 67.4076 53.1592 67.244 52.3799 66.9167C51.6006 66.5894 50.9616 66.1374 50.4628 65.5607C49.9641 64.984 49.59 64.3217 49.3407 63.5735C49.0913 62.8098 48.9432 61.9994 48.8965 61.1422C48.8809 60.7214 48.8653 60.2616 48.8497 59.7628C48.8497 59.2485 48.8497 58.7342 48.8497 58.2199C48.8653 57.7055 48.8809 57.2302 48.8965 56.7938C48.9277 55.9366 49.0757 55.1339 49.3407 54.3858C49.6056 53.6221 49.9875 52.9597 50.4862 52.3986C51.0005 51.8375 51.6474 51.3933 52.4266 51.066C53.2059 50.7387 54.1333 50.5751 55.2087 50.5751C56.2997 50.5751 57.2348 50.7387 58.0141 51.066C58.7934 51.3933 59.4324 51.8375 59.9311 52.3986C60.4455 52.9597 60.8273 53.6221 61.0767 54.3858C61.3416 55.1339 61.4897 55.9366 61.5209 56.7938C61.552 57.2302 61.5676 57.7055 61.5676 58.2199C61.5676 58.7342 61.5676 59.2485 61.5676 59.7628C61.5676 60.2616 61.552 60.7214 61.5209 61.1422C61.4897 61.9994 61.3494 62.8098 61.1001 63.5735C60.8507 64.3217 60.4766 64.984 59.9779 65.5607C59.4791 66.1374 58.8323 66.5894 58.0375 66.9167C57.2582 67.244 56.3153 67.4076 55.2087 67.4076ZM55.2087 64.7191C56.2217 64.7191 56.9621 64.3918 57.4296 63.7372C57.9128 63.067 58.1622 62.163 58.1777 61.0253C58.2089 60.5733 58.2245 60.1213 58.2245 59.6693C58.2245 59.2018 58.2245 58.7342 58.2245 58.2666C58.2245 57.799 58.2089 57.3549 58.1777 56.934C58.1622 55.8275 57.9128 54.9391 57.4296 54.2689C56.9621 53.5831 56.2217 53.2402 55.2087 53.2402C54.2112 53.2402 53.4709 53.5831 52.9877 54.2689C52.5201 54.9391 52.2708 55.8275 52.2396 56.934C52.2396 57.3549 52.2318 57.799 52.2162 58.2666C52.2162 58.7342 52.2162 59.2018 52.2162 59.6693C52.2318 60.1213 52.2396 60.5733 52.2396 61.0253C52.2708 62.163 52.5279 63.067 53.0111 63.7372C53.4943 64.3918 54.2268 64.7191 55.2087 64.7191ZM70.1762 67.4076C69.0852 67.4076 68.1423 67.2751 67.3474 67.0102C66.5525 66.7452 65.8902 66.4023 65.3602 65.9815C64.8459 65.5451 64.4563 65.0776 64.1913 64.5788C63.9264 64.0645 63.7861 63.558 63.7705 63.0592C63.7705 62.9189 63.8173 62.8098 63.9108 62.7319C64.0199 62.6384 64.1446 62.5916 64.2848 62.5916H66.3889C66.5448 62.5916 66.6772 62.6228 66.7863 62.6852C66.8954 62.7475 66.9889 62.8722 67.0669 63.0592C67.2071 63.48 67.4331 63.8151 67.7448 64.0645C68.0721 64.3139 68.4462 64.4931 68.867 64.6022C69.2878 64.6957 69.732 64.7425 70.1996 64.7425C71.1347 64.7425 71.875 64.5243 72.4205 64.0879C72.9816 63.6359 73.2622 62.9969 73.2622 62.1708C73.2622 61.3448 73.005 60.7525 72.4907 60.3941C71.9764 60.02 71.2594 59.833 70.3399 59.833H67.9319C67.7604 59.833 67.6202 59.7862 67.5111 59.6927C67.402 59.5836 67.3474 59.4433 67.3474 59.2719V58.29C67.3474 58.1341 67.3786 58.0017 67.4409 57.8926C67.5189 57.7679 67.5968 57.6666 67.6747 57.5886L71.8595 53.4974H65.1732C65.0018 53.4974 64.8615 53.4429 64.7524 53.3338C64.6589 53.2247 64.6121 53.0922 64.6121 52.9363V51.3933C64.6121 51.2219 64.6589 51.0816 64.7524 50.9725C64.8615 50.8634 65.0018 50.8089 65.1732 50.8089H75.2026C75.374 50.8089 75.5143 50.8634 75.6234 50.9725C75.7325 51.0816 75.7871 51.2219 75.7871 51.3933V52.7961C75.7871 52.9363 75.7559 53.061 75.6935 53.1701C75.6312 53.2792 75.5611 53.3727 75.4831 53.4506L71.4387 57.612L71.7192 57.6354C72.6699 57.7133 73.5115 57.9315 74.2441 58.29C74.9922 58.6329 75.5689 59.1394 75.9741 59.8096C76.3949 60.4798 76.6053 61.3214 76.6053 62.3345C76.6053 63.3943 76.3248 64.3061 75.7637 65.0698C75.2182 65.8179 74.4623 66.3945 73.496 66.7998C72.5296 67.205 71.4231 67.4076 70.1762 67.4076Z" fill="#2C2C2C"/>
<defs>
<filter id="filter0_d_40_8671" x="0.452637" y="0.856934" width="125.376" height="125.376" filterUnits="userSpaceOnUse" color-interpolation-filters="sRGB">
<feFlood flood-opacity="0" result="BackgroundImageFix"/>
<feColorMatrix in="SourceAlpha" type="matrix" values="0 0 0 0 0 0 0 0 0 0 0 0 0 0 0 0 0 0 127 0" result="hardAlpha"/>
<feOffset dy="4"/>
<feGaussianBlur stdDeviation="17"/>
<feComposite in2="hardAlpha" operator="out"/>
<feColorMatrix type="matrix" values="0 0 0 0 0 0 0 0 0 0 0 0 0 0 0 0 0 0 0.1 0"/>
<feBlend mode="normal" in2="BackgroundImageFix" result="effect1_dropShadow_40_8671"/>
<feBlend mode="normal" in="SourceGraphic" in2="effect1_dropShadow_40_8671" result="shape"/>
</filter>
</defs>
</svg>
