<svg width="126" height="127" viewBox="0 0 126 127" fill="none" xmlns="http://www.w3.org/2000/svg">
<path d="M103.833 79.1626L117.983 60.3426C118.333 59.8726 118.333 59.2326 117.983 58.7626L103.833 39.9426C103.583 39.6126 103.193 39.4226 102.783 39.4226H63.4133C63.3133 39.4226 63.2633 39.5326 63.3233 39.6126L66.9033 44.3726C73.6633 53.3626 73.6633 65.7426 66.9033 74.7426L63.3233 79.5026C63.2633 79.5826 63.3233 79.6926 63.4133 79.6926H102.783C103.193 79.6926 103.583 79.4926 103.833 79.1626Z" fill="#1DB0F9"/>
<g filter="url(#filter0_d_40_8663)">
<path d="M74.4006 86.0059C89.0031 79.8696 95.8663 63.0576 89.7301 48.4551C83.5939 33.8527 66.7818 26.9895 52.1794 33.1257C37.5769 39.2619 30.7137 56.074 36.8499 70.6764C42.9861 85.2789 59.7982 92.1421 74.4006 86.0059Z" fill="white"/>
<path d="M89.2691 48.6488C95.2984 62.9967 88.5548 79.5157 74.2069 85.5449C59.859 91.5742 43.3401 84.8306 37.3108 70.4827C31.2816 56.1348 38.0252 39.6159 52.3731 33.5866C66.7209 27.5574 83.2399 34.301 89.2691 48.6488Z" stroke="#1DB4FF"/>
</g>
<path d="M55.3791 67.4076C54.2725 67.4076 53.3296 67.244 52.5503 66.9167C51.771 66.5894 51.132 66.1374 50.6332 65.5607C50.1345 64.984 49.7605 64.3217 49.5111 63.5735C49.2617 62.8098 49.1136 61.9994 49.0669 61.1422C49.0513 60.7214 49.0357 60.2616 49.0201 59.7628C49.0201 59.2485 49.0201 58.7342 49.0201 58.2199C49.0357 57.7055 49.0513 57.2302 49.0669 56.7938C49.0981 55.9366 49.2461 55.1339 49.5111 54.3858C49.776 53.6221 50.1579 52.9597 50.6566 52.3986C51.171 51.8375 51.8178 51.3933 52.597 51.066C53.3763 50.7387 54.3037 50.5751 55.3791 50.5751C56.4701 50.5751 57.4052 50.7387 58.1845 51.066C58.9638 51.3933 59.6028 51.8375 60.1015 52.3986C60.6159 52.9597 60.9977 53.6221 61.2471 54.3858C61.512 55.1339 61.6601 55.9366 61.6913 56.7938C61.7225 57.2302 61.738 57.7055 61.738 58.2199C61.738 58.7342 61.738 59.2485 61.738 59.7628C61.738 60.2616 61.7225 60.7214 61.6913 61.1422C61.6601 61.9994 61.5198 62.8098 61.2705 63.5735C61.0211 64.3217 60.647 64.984 60.1483 65.5607C59.6496 66.1374 59.0028 66.5894 58.2079 66.9167C57.4286 67.244 56.4857 67.4076 55.3791 67.4076ZM55.3791 64.7191C56.3922 64.7191 57.1325 64.3918 57.6 63.7372C58.0832 63.067 58.3326 62.163 58.3482 61.0253C58.3793 60.5733 58.3949 60.1213 58.3949 59.6693C58.3949 59.2018 58.3949 58.7342 58.3949 58.2666C58.3949 57.799 58.3793 57.3549 58.3482 56.934C58.3326 55.8275 58.0832 54.9391 57.6 54.2689C57.1325 53.5831 56.3922 53.2402 55.3791 53.2402C54.3816 53.2402 53.6413 53.5831 53.1581 54.2689C52.6906 54.9391 52.4412 55.8275 52.41 56.934C52.41 57.3549 52.4022 57.799 52.3866 58.2666C52.3866 58.7342 52.3866 59.2018 52.3866 59.6693C52.4022 60.1213 52.41 60.5733 52.41 61.0253C52.4412 62.163 52.6984 63.067 53.1815 63.7372C53.6647 64.3918 54.3972 64.7191 55.3791 64.7191ZM64.689 67.1738C64.5332 67.1738 64.4007 67.1193 64.2916 67.0102C64.1825 66.9011 64.1279 66.7686 64.1279 66.6127V65.4204C64.1279 65.2802 64.1591 65.1165 64.2215 64.9295C64.2994 64.7269 64.463 64.5243 64.7124 64.3217L68.4062 60.6512C69.4349 59.8408 70.2609 59.155 70.8843 58.5939C71.5233 58.0172 71.9831 57.4951 72.2637 57.0276C72.5598 56.5444 72.7079 56.069 72.7079 55.6015C72.7079 54.9001 72.513 54.3312 72.1234 53.8948C71.7493 53.4584 71.1493 53.2402 70.3232 53.2402C69.7777 53.2402 69.318 53.3571 68.9439 53.5909C68.5699 53.8091 68.2737 54.1052 68.0555 54.4793C67.8529 54.8534 67.7126 55.2664 67.6347 55.7184C67.6035 55.921 67.5178 56.0612 67.3776 56.1392C67.2373 56.2171 67.097 56.2561 66.9567 56.2561H64.8761C64.7358 56.2561 64.6189 56.2093 64.5254 56.1158C64.4319 56.0223 64.3851 55.9132 64.3851 55.7885C64.4007 55.1183 64.541 54.4715 64.8059 53.8481C65.0709 53.2091 65.4527 52.648 65.9515 52.1648C66.4658 51.6661 67.0892 51.2687 67.8217 50.9725C68.5543 50.6764 69.3803 50.5283 70.2999 50.5283C71.5935 50.5283 72.6611 50.7465 73.5027 51.1829C74.3599 51.6193 74.9989 52.2116 75.4198 52.9597C75.8562 53.7078 76.0744 54.5494 76.0744 55.4846C76.0744 56.2171 75.9341 56.8951 75.6535 57.5185C75.373 58.1263 74.9678 58.7186 74.4379 59.2953C73.9079 59.8564 73.2689 60.433 72.5208 61.0253L69.2011 64.3918H75.8639C76.0354 64.3918 76.1679 64.4463 76.2614 64.5554C76.3705 64.649 76.425 64.7814 76.425 64.9529V66.6127C76.425 66.7686 76.3705 66.9011 76.2614 67.0102C76.1679 67.1193 76.0354 67.1738 75.8639 67.1738H64.689Z" fill="#2C2C2C"/>
<defs>
<filter id="filter0_d_40_8663" x="0.602783" y="0.878662" width="125.374" height="125.374" filterUnits="userSpaceOnUse" color-interpolation-filters="sRGB">
<feFlood flood-opacity="0" result="BackgroundImageFix"/>
<feColorMatrix in="SourceAlpha" type="matrix" values="0 0 0 0 0 0 0 0 0 0 0 0 0 0 0 0 0 0 127 0" result="hardAlpha"/>
<feOffset dy="4"/>
<feGaussianBlur stdDeviation="17"/>
<feComposite in2="hardAlpha" operator="out"/>
<feColorMatrix type="matrix" values="0 0 0 0 0 0 0 0 0 0 0 0 0 0 0 0 0 0 0.1 0"/>
<feBlend mode="normal" in2="BackgroundImageFix" result="effect1_dropShadow_40_8663"/>
<feBlend mode="normal" in="SourceGraphic" in2="effect1_dropShadow_40_8663" result="shape"/>
</filter>
</defs>
</svg>
